<?xml version="1.0" encoding="utf-8" standalone="no"?>
<!DOCTYPE svg PUBLIC "-//W3C//DTD SVG 1.1//EN"
  "http://www.w3.org/Graphics/SVG/1.1/DTD/svg11.dtd">
<svg xmlns:xlink="http://www.w3.org/1999/xlink" width="710.0875pt" height="494.754375pt" viewBox="0 0 710.0875 494.754375" xmlns="http://www.w3.org/2000/svg" version="1.1">
 <metadata>
  <rdf:RDF xmlns:dc="http://purl.org/dc/elements/1.1/" xmlns:cc="http://creativecommons.org/ns#" xmlns:rdf="http://www.w3.org/1999/02/22-rdf-syntax-ns#">
   <cc:Work>
    <dc:type rdf:resource="http://purl.org/dc/dcmitype/StillImage"/>
    <dc:date>2022-07-20T17:41:39.607425</dc:date>
    <dc:format>image/svg+xml</dc:format>
    <dc:creator>
     <cc:Agent>
      <dc:title>Matplotlib v3.5.1, https://matplotlib.org/</dc:title>
     </cc:Agent>
    </dc:creator>
   </cc:Work>
  </rdf:RDF>
 </metadata>
 <defs>
  <style type="text/css">*{stroke-linejoin: round; stroke-linecap: butt}</style>
 </defs>
 <g id="figure_1">
  <g id="patch_1">
   <path d="M 0 494.754375 
L 710.0875 494.754375 
L 710.0875 0 
L 0 0 
z
"/>
  </g>
  <g id="axes_1">
   <g id="patch_2">
    <path d="M 33.2875 457.198125 
L 702.8875 457.198125 
L 702.8875 22.318125 
L 33.2875 22.318125 
z
"/>
   </g>
   <g id="PolyCollection_1">
    <defs>
     <path id="mbe7316ea36" d="M 636.376896 -431.492517 
L 636.376896 -173.460825 
L 636.826292 -173.306091 
L 637.275688 -173.151542 
L 637.725084 -172.997177 
L 638.17448 -172.842996 
L 638.623876 -172.688999 
L 639.073272 -172.535183 
L 639.522668 -172.38155 
L 639.972064 -172.228098 
L 640.42146 -172.074827 
L 640.870856 -171.921735 
L 641.320252 -171.768823 
L 641.769648 -171.616089 
L 642.219044 -171.463534 
L 642.66844 -171.311156 
L 643.117836 -171.158955 
L 643.567232 -171.006929 
L 644.016628 -170.85508 
L 644.466023 -170.703406 
L 644.915419 -170.551906 
L 645.364815 -170.400579 
L 645.814211 -170.249426 
L 646.263607 -170.098446 
L 646.713003 -169.947637 
L 647.162399 -169.797 
L 647.611795 -169.646534 
L 648.061191 -169.496238 
L 648.510587 -169.346111 
L 648.959983 -169.196154 
L 649.409379 -169.046365 
L 649.858775 -168.896745 
L 650.308171 -168.747291 
L 650.757567 -168.598005 
L 651.206963 -168.448884 
L 651.656359 -168.29993 
L 652.105755 -168.151141 
L 652.555151 -168.002516 
L 653.004547 -167.854055 
L 653.453943 -167.705758 
L 653.903339 -167.557624 
L 654.352735 -167.409652 
L 654.802131 -167.261843 
L 655.251527 -167.114195 
L 655.700923 -166.966707 
L 656.150319 -166.81938 
L 656.599715 -166.672213 
L 657.049111 -166.525205 
L 657.498507 -166.378356 
L 657.947903 -166.231665 
L 658.397299 -166.085132 
L 658.846695 -165.938756 
L 659.296091 -165.792537 
L 659.745487 -165.646474 
L 660.194883 -165.500567 
L 660.644279 -165.354815 
L 661.093674 -165.209218 
L 661.54307 -165.063775 
L 661.992466 -164.918486 
L 662.441862 -164.773351 
L 662.891258 -164.628368 
L 663.340654 -164.483537 
L 663.79005 -164.338859 
L 664.239446 -164.194331 
L 664.688842 -164.049955 
L 665.138238 -163.905729 
L 665.587634 -163.761653 
L 666.03703 -163.617726 
L 666.486426 -163.473948 
L 666.935822 -163.330319 
L 667.385218 -163.186839 
L 667.834614 -163.043505 
L 668.28401 -162.900319 
L 668.733406 -162.75728 
L 669.182802 -162.614387 
L 669.632198 -162.47164 
L 670.081594 -162.329038 
L 670.53099 -162.186581 
L 670.980386 -162.044269 
L 671.429782 -161.9021 
L 671.879178 -161.760076 
L 672.328574 -161.618194 
L 672.77797 -161.476456 
L 673.227366 -161.334859 
L 673.676762 -161.193405 
L 674.126158 -161.052092 
L 674.575554 -160.91092 
L 675.02495 -160.769889 
L 675.474346 -160.628998 
L 675.923742 -160.488247 
L 676.373138 -160.347635 
L 676.822534 -160.207162 
L 677.27193 -160.066828 
L 677.721326 -159.926632 
L 678.170721 -159.786573 
L 678.620117 -159.646652 
L 679.069513 -159.506868 
L 679.518909 -159.367221 
L 679.968305 -159.227709 
L 680.417701 -159.088333 
L 680.867097 -158.949093 
L 681.316493 -158.809988 
L 681.765889 -158.671017 
L 682.215285 -158.53218 
L 682.664681 -158.393477 
L 683.114077 -158.254908 
L 683.563473 -158.116471 
L 684.012869 -157.978167 
L 684.462265 -157.839996 
L 684.911661 -157.701956 
L 685.361057 -157.564048 
L 685.810453 -157.426271 
L 686.259849 -157.288624 
L 686.709245 -157.151108 
L 687.158641 -157.013722 
L 687.608037 -156.876466 
L 688.057433 -156.739339 
L 688.506829 -156.602341 
L 688.956225 -156.465471 
L 689.405621 -156.328729 
L 689.855017 -156.192116 
L 690.304413 -156.05563 
L 690.753809 -155.91927 
L 691.203205 -155.783038 
L 691.652601 -155.646932 
L 692.101997 -155.510952 
L 692.551393 -155.375098 
L 693.000789 -155.239369 
L 693.450185 -155.103765 
L 693.899581 -154.968286 
L 694.348977 -154.832931 
L 694.798372 -154.697701 
L 695.247768 -154.562593 
L 695.697164 -154.427609 
L 696.14656 -154.292748 
L 696.595956 -154.15801 
L 697.045352 -154.023394 
L 697.494748 -153.8889 
L 697.944144 -153.754527 
L 698.39354 -153.620276 
L 698.842936 -153.486146 
L 699.292332 -153.352136 
L 699.741728 -153.218247 
L 700.191124 -153.084478 
L 700.64052 -152.950828 
L 701.089916 -152.817298 
L 701.539312 -152.683887 
L 701.988708 -152.550594 
L 702.438104 -152.41742 
L 702.8875 -152.284364 
L 702.8875 -452.668977 
L 702.8875 -452.668977 
L 702.438104 -452.535921 
L 701.988708 -452.402747 
L 701.539312 -452.269455 
L 701.089916 -452.136043 
L 700.64052 -452.002513 
L 700.191124 -451.868864 
L 699.741728 -451.735094 
L 699.292332 -451.601205 
L 698.842936 -451.467196 
L 698.39354 -451.333065 
L 697.944144 -451.198814 
L 697.494748 -451.064442 
L 697.045352 -450.929948 
L 696.595956 -450.795331 
L 696.14656 -450.660593 
L 695.697164 -450.525732 
L 695.247768 -450.390748 
L 694.798372 -450.255641 
L 694.348977 -450.12041 
L 693.899581 -449.985055 
L 693.450185 -449.849576 
L 693.000789 -449.713972 
L 692.551393 -449.578243 
L 692.101997 -449.442389 
L 691.652601 -449.306409 
L 691.203205 -449.170303 
L 690.753809 -449.034071 
L 690.304413 -448.897712 
L 689.855017 -448.761226 
L 689.405621 -448.624612 
L 688.956225 -448.487871 
L 688.506829 -448.351001 
L 688.057433 -448.214003 
L 687.608037 -448.076876 
L 687.158641 -447.939619 
L 686.709245 -447.802233 
L 686.259849 -447.664717 
L 685.810453 -447.527071 
L 685.361057 -447.389294 
L 684.911661 -447.251385 
L 684.462265 -447.113346 
L 684.012869 -446.975174 
L 683.563473 -446.83687 
L 683.114077 -446.698434 
L 682.664681 -446.559864 
L 682.215285 -446.421161 
L 681.765889 -446.282325 
L 681.316493 -446.143354 
L 680.867097 -446.004248 
L 680.417701 -445.865008 
L 679.968305 -445.725632 
L 679.518909 -445.586121 
L 679.069513 -445.446473 
L 678.620117 -445.306689 
L 678.170721 -445.166768 
L 677.721326 -445.02671 
L 677.27193 -444.886514 
L 676.822534 -444.746179 
L 676.373138 -444.605707 
L 675.923742 -444.465095 
L 675.474346 -444.324343 
L 675.02495 -444.183452 
L 674.575554 -444.042421 
L 674.126158 -443.901249 
L 673.676762 -443.759936 
L 673.227366 -443.618482 
L 672.77797 -443.476886 
L 672.328574 -443.335147 
L 671.879178 -443.193266 
L 671.429782 -443.051241 
L 670.980386 -442.909073 
L 670.53099 -442.76676 
L 670.081594 -442.624304 
L 669.632198 -442.481702 
L 669.182802 -442.338955 
L 668.733406 -442.196062 
L 668.28401 -442.053022 
L 667.834614 -441.909836 
L 667.385218 -441.766503 
L 666.935822 -441.623022 
L 666.486426 -441.479393 
L 666.03703 -441.335615 
L 665.587634 -441.191689 
L 665.138238 -441.047613 
L 664.688842 -440.903387 
L 664.239446 -440.75901 
L 663.79005 -440.614483 
L 663.340654 -440.469804 
L 662.891258 -440.324974 
L 662.441862 -440.179991 
L 661.992466 -440.034855 
L 661.54307 -439.889566 
L 661.093674 -439.744123 
L 660.644279 -439.598526 
L 660.194883 -439.452774 
L 659.745487 -439.306867 
L 659.296091 -439.160805 
L 658.846695 -439.014585 
L 658.397299 -438.86821 
L 657.947903 -438.721677 
L 657.498507 -438.574986 
L 657.049111 -438.428137 
L 656.599715 -438.281129 
L 656.150319 -438.133961 
L 655.700923 -437.986634 
L 655.251527 -437.839147 
L 654.802131 -437.691499 
L 654.352735 -437.543689 
L 653.903339 -437.395717 
L 653.453943 -437.247583 
L 653.004547 -437.099286 
L 652.555151 -436.950826 
L 652.105755 -436.802201 
L 651.656359 -436.653412 
L 651.206963 -436.504457 
L 650.757567 -436.355337 
L 650.308171 -436.20605 
L 649.858775 -436.056597 
L 649.409379 -435.906976 
L 648.959983 -435.757187 
L 648.510587 -435.60723 
L 648.061191 -435.457104 
L 647.611795 -435.306808 
L 647.162399 -435.156342 
L 646.713003 -435.005704 
L 646.263607 -434.854896 
L 645.814211 -434.703915 
L 645.364815 -434.552762 
L 644.915419 -434.401436 
L 644.466023 -434.249936 
L 644.016628 -434.098261 
L 643.567232 -433.946412 
L 643.117836 -433.794387 
L 642.66844 -433.642186 
L 642.219044 -433.489808 
L 641.769648 -433.337252 
L 641.320252 -433.184519 
L 640.870856 -433.031606 
L 640.42146 -432.878515 
L 639.972064 -432.725243 
L 639.522668 -432.571791 
L 639.073272 -432.418158 
L 638.623876 -432.264343 
L 638.17448 -432.110345 
L 637.725084 -431.956164 
L 637.275688 -431.8018 
L 636.826292 -431.647251 
L 636.376896 -431.492517 
z
" style="stroke: #808080"/>
    </defs>
    <g clip-path="url(#p87ef56483c)">
     <use xlink:href="#mbe7316ea36" x="0" y="494.754375" style="fill: #808080; stroke: #808080"/>
    </g>
   </g>
   <g id="matplotlib.axis_1">
    <g id="xtick_1">
     <g id="line2d_1">
      <defs>
       <path id="m3fbf04f1c5" d="M 0 0 
L 0 3.5 
" style="stroke: #ffffff; stroke-width: 0.8"/>
      </defs>
      <g>
       <use xlink:href="#m3fbf04f1c5" x="33.2875" y="457.198125" style="fill: #ffffff; stroke: #ffffff; stroke-width: 0.8"/>
      </g>
     </g>
    </g>
    <g id="xtick_2">
     <g id="line2d_2">
      <g>
       <use xlink:href="#m3fbf04f1c5" x="129.907634" y="457.198125" style="fill: #ffffff; stroke: #ffffff; stroke-width: 0.8"/>
      </g>
     </g>
     <g id="text_1">
      <!-- 2019 -->
      <g style="fill: #ffffff" transform="translate(117.182634 471.796562)scale(0.1 -0.1)">
       <defs>
        <path id="DejaVuSans-32" d="M 1228 531 
L 3431 531 
L 3431 0 
L 469 0 
L 469 531 
Q 828 903 1448 1529 
Q 2069 2156 2228 2338 
Q 2531 2678 2651 2914 
Q 2772 3150 2772 3378 
Q 2772 3750 2511 3984 
Q 2250 4219 1831 4219 
Q 1534 4219 1204 4116 
Q 875 4013 500 3803 
L 500 4441 
Q 881 4594 1212 4672 
Q 1544 4750 1819 4750 
Q 2544 4750 2975 4387 
Q 3406 4025 3406 3419 
Q 3406 3131 3298 2873 
Q 3191 2616 2906 2266 
Q 2828 2175 2409 1742 
Q 1991 1309 1228 531 
z
" transform="scale(0.015625)"/>
        <path id="DejaVuSans-30" d="M 2034 4250 
Q 1547 4250 1301 3770 
Q 1056 3291 1056 2328 
Q 1056 1369 1301 889 
Q 1547 409 2034 409 
Q 2525 409 2770 889 
Q 3016 1369 3016 2328 
Q 3016 3291 2770 3770 
Q 2525 4250 2034 4250 
z
M 2034 4750 
Q 2819 4750 3233 4129 
Q 3647 3509 3647 2328 
Q 3647 1150 3233 529 
Q 2819 -91 2034 -91 
Q 1250 -91 836 529 
Q 422 1150 422 2328 
Q 422 3509 836 4129 
Q 1250 4750 2034 4750 
z
" transform="scale(0.015625)"/>
        <path id="DejaVuSans-31" d="M 794 531 
L 1825 531 
L 1825 4091 
L 703 3866 
L 703 4441 
L 1819 4666 
L 2450 4666 
L 2450 531 
L 3481 531 
L 3481 0 
L 794 0 
L 794 531 
z
" transform="scale(0.015625)"/>
        <path id="DejaVuSans-39" d="M 703 97 
L 703 672 
Q 941 559 1184 500 
Q 1428 441 1663 441 
Q 2288 441 2617 861 
Q 2947 1281 2994 2138 
Q 2813 1869 2534 1725 
Q 2256 1581 1919 1581 
Q 1219 1581 811 2004 
Q 403 2428 403 3163 
Q 403 3881 828 4315 
Q 1253 4750 1959 4750 
Q 2769 4750 3195 4129 
Q 3622 3509 3622 2328 
Q 3622 1225 3098 567 
Q 2575 -91 1691 -91 
Q 1453 -91 1209 -44 
Q 966 3 703 97 
z
M 1959 2075 
Q 2384 2075 2632 2365 
Q 2881 2656 2881 3163 
Q 2881 3666 2632 3958 
Q 2384 4250 1959 4250 
Q 1534 4250 1286 3958 
Q 1038 3666 1038 3163 
Q 1038 2656 1286 2365 
Q 1534 2075 1959 2075 
z
" transform="scale(0.015625)"/>
       </defs>
       <use xlink:href="#DejaVuSans-32"/>
       <use xlink:href="#DejaVuSans-30" x="63.623047"/>
       <use xlink:href="#DejaVuSans-31" x="127.246094"/>
       <use xlink:href="#DejaVuSans-39" x="190.869141"/>
      </g>
     </g>
    </g>
    <g id="xtick_3">
     <g id="line2d_3">
      <g>
       <use xlink:href="#m3fbf04f1c5" x="293.937164" y="457.198125" style="fill: #ffffff; stroke: #ffffff; stroke-width: 0.8"/>
      </g>
     </g>
     <g id="text_2">
      <!-- 2020 -->
      <g style="fill: #ffffff" transform="translate(281.212164 471.796562)scale(0.1 -0.1)">
       <use xlink:href="#DejaVuSans-32"/>
       <use xlink:href="#DejaVuSans-30" x="63.623047"/>
       <use xlink:href="#DejaVuSans-32" x="127.246094"/>
       <use xlink:href="#DejaVuSans-30" x="190.869141"/>
      </g>
     </g>
    </g>
    <g id="xtick_4">
     <g id="line2d_4">
      <g>
       <use xlink:href="#m3fbf04f1c5" x="458.416091" y="457.198125" style="fill: #ffffff; stroke: #ffffff; stroke-width: 0.8"/>
      </g>
     </g>
     <g id="text_3">
      <!-- 2021 -->
      <g style="fill: #ffffff" transform="translate(445.691091 471.796562)scale(0.1 -0.1)">
       <use xlink:href="#DejaVuSans-32"/>
       <use xlink:href="#DejaVuSans-30" x="63.623047"/>
       <use xlink:href="#DejaVuSans-32" x="127.246094"/>
       <use xlink:href="#DejaVuSans-31" x="190.869141"/>
      </g>
     </g>
    </g>
    <g id="xtick_5">
     <g id="line2d_5">
      <g>
       <use xlink:href="#m3fbf04f1c5" x="622.445621" y="457.198125" style="fill: #ffffff; stroke: #ffffff; stroke-width: 0.8"/>
      </g>
     </g>
     <g id="text_4">
      <!-- 2022 -->
      <g style="fill: #ffffff" transform="translate(609.720621 471.796562)scale(0.1 -0.1)">
       <use xlink:href="#DejaVuSans-32"/>
       <use xlink:href="#DejaVuSans-30" x="63.623047"/>
       <use xlink:href="#DejaVuSans-32" x="127.246094"/>
       <use xlink:href="#DejaVuSans-32" x="190.869141"/>
      </g>
     </g>
    </g>
    <g id="xtick_6">
     <g id="line2d_6">
      <g>
       <use xlink:href="#m3fbf04f1c5" x="702.8875" y="457.198125" style="fill: #ffffff; stroke: #ffffff; stroke-width: 0.8"/>
      </g>
     </g>
    </g>
    <g id="xtick_7">
     <g id="line2d_7">
      <defs>
       <path id="mea6d602c73" d="M 0 0 
L 0 2 
" style="stroke: #ffffff; stroke-width: 0.6"/>
      </defs>
      <g>
       <use xlink:href="#mea6d602c73" x="47.218775" y="457.198125" style="fill: #ffffff; stroke: #ffffff; stroke-width: 0.6"/>
      </g>
     </g>
    </g>
    <g id="xtick_8">
     <g id="line2d_8">
      <g>
       <use xlink:href="#mea6d602c73" x="88.563205" y="457.198125" style="fill: #ffffff; stroke: #ffffff; stroke-width: 0.6"/>
      </g>
     </g>
    </g>
    <g id="xtick_9">
     <g id="line2d_9">
      <g>
       <use xlink:href="#mea6d602c73" x="170.353272" y="457.198125" style="fill: #ffffff; stroke: #ffffff; stroke-width: 0.6"/>
      </g>
     </g>
    </g>
    <g id="xtick_10">
     <g id="line2d_10">
      <g>
       <use xlink:href="#mea6d602c73" x="211.248305" y="457.198125" style="fill: #ffffff; stroke: #ffffff; stroke-width: 0.6"/>
      </g>
     </g>
    </g>
    <g id="xtick_11">
     <g id="line2d_11">
      <g>
       <use xlink:href="#mea6d602c73" x="252.592735" y="457.198125" style="fill: #ffffff; stroke: #ffffff; stroke-width: 0.6"/>
      </g>
     </g>
    </g>
    <g id="xtick_12">
     <g id="line2d_12">
      <g>
       <use xlink:href="#mea6d602c73" x="334.832198" y="457.198125" style="fill: #ffffff; stroke: #ffffff; stroke-width: 0.6"/>
      </g>
     </g>
    </g>
    <g id="xtick_13">
     <g id="line2d_13">
      <g>
       <use xlink:href="#mea6d602c73" x="375.727232" y="457.198125" style="fill: #ffffff; stroke: #ffffff; stroke-width: 0.6"/>
      </g>
     </g>
    </g>
    <g id="xtick_14">
     <g id="line2d_14">
      <g>
       <use xlink:href="#mea6d602c73" x="417.071661" y="457.198125" style="fill: #ffffff; stroke: #ffffff; stroke-width: 0.6"/>
      </g>
     </g>
    </g>
    <g id="xtick_15">
     <g id="line2d_15">
      <g>
       <use xlink:href="#mea6d602c73" x="498.861728" y="457.198125" style="fill: #ffffff; stroke: #ffffff; stroke-width: 0.6"/>
      </g>
     </g>
    </g>
    <g id="xtick_16">
     <g id="line2d_16">
      <g>
       <use xlink:href="#mea6d602c73" x="539.756762" y="457.198125" style="fill: #ffffff; stroke: #ffffff; stroke-width: 0.6"/>
      </g>
     </g>
    </g>
    <g id="xtick_17">
     <g id="line2d_17">
      <g>
       <use xlink:href="#mea6d602c73" x="581.101191" y="457.198125" style="fill: #ffffff; stroke: #ffffff; stroke-width: 0.6"/>
      </g>
     </g>
    </g>
    <g id="xtick_18">
     <g id="line2d_18">
      <g>
       <use xlink:href="#mea6d602c73" x="662.891258" y="457.198125" style="fill: #ffffff; stroke: #ffffff; stroke-width: 0.6"/>
      </g>
     </g>
    </g>
    <g id="text_5">
     <!-- Date -->
     <g style="fill: #ffffff" transform="translate(356.136719 485.474687)scale(0.1 -0.1)">
      <defs>
       <path id="DejaVuSans-44" d="M 1259 4147 
L 1259 519 
L 2022 519 
Q 2988 519 3436 956 
Q 3884 1394 3884 2338 
Q 3884 3275 3436 3711 
Q 2988 4147 2022 4147 
L 1259 4147 
z
M 628 4666 
L 1925 4666 
Q 3281 4666 3915 4102 
Q 4550 3538 4550 2338 
Q 4550 1131 3912 565 
Q 3275 0 1925 0 
L 628 0 
L 628 4666 
z
" transform="scale(0.015625)"/>
       <path id="DejaVuSans-61" d="M 2194 1759 
Q 1497 1759 1228 1600 
Q 959 1441 959 1056 
Q 959 750 1161 570 
Q 1363 391 1709 391 
Q 2188 391 2477 730 
Q 2766 1069 2766 1631 
L 2766 1759 
L 2194 1759 
z
M 3341 1997 
L 3341 0 
L 2766 0 
L 2766 531 
Q 2569 213 2275 61 
Q 1981 -91 1556 -91 
Q 1019 -91 701 211 
Q 384 513 384 1019 
Q 384 1609 779 1909 
Q 1175 2209 1959 2209 
L 2766 2209 
L 2766 2266 
Q 2766 2663 2505 2880 
Q 2244 3097 1772 3097 
Q 1472 3097 1187 3025 
Q 903 2953 641 2809 
L 641 3341 
Q 956 3463 1253 3523 
Q 1550 3584 1831 3584 
Q 2591 3584 2966 3190 
Q 3341 2797 3341 1997 
z
" transform="scale(0.015625)"/>
       <path id="DejaVuSans-74" d="M 1172 4494 
L 1172 3500 
L 2356 3500 
L 2356 3053 
L 1172 3053 
L 1172 1153 
Q 1172 725 1289 603 
Q 1406 481 1766 481 
L 2356 481 
L 2356 0 
L 1766 0 
Q 1100 0 847 248 
Q 594 497 594 1153 
L 594 3053 
L 172 3053 
L 172 3500 
L 594 3500 
L 594 4494 
L 1172 4494 
z
" transform="scale(0.015625)"/>
       <path id="DejaVuSans-65" d="M 3597 1894 
L 3597 1613 
L 953 1613 
Q 991 1019 1311 708 
Q 1631 397 2203 397 
Q 2534 397 2845 478 
Q 3156 559 3463 722 
L 3463 178 
Q 3153 47 2828 -22 
Q 2503 -91 2169 -91 
Q 1331 -91 842 396 
Q 353 884 353 1716 
Q 353 2575 817 3079 
Q 1281 3584 2069 3584 
Q 2775 3584 3186 3129 
Q 3597 2675 3597 1894 
z
M 3022 2063 
Q 3016 2534 2758 2815 
Q 2500 3097 2075 3097 
Q 1594 3097 1305 2825 
Q 1016 2553 972 2059 
L 3022 2063 
z
" transform="scale(0.015625)"/>
      </defs>
      <use xlink:href="#DejaVuSans-44"/>
      <use xlink:href="#DejaVuSans-61" x="77.001953"/>
      <use xlink:href="#DejaVuSans-74" x="138.28125"/>
      <use xlink:href="#DejaVuSans-65" x="177.490234"/>
     </g>
    </g>
   </g>
   <g id="matplotlib.axis_2">
    <g id="ytick_1">
     <g id="line2d_19">
      <defs>
       <path id="m11d8ae18b8" d="M 0 0 
L -3.5 0 
" style="stroke: #ffffff; stroke-width: 0.8"/>
      </defs>
      <g>
       <use xlink:href="#m11d8ae18b8" x="33.2875" y="452.636212" style="fill: #ffffff; stroke: #ffffff; stroke-width: 0.8"/>
      </g>
     </g>
     <g id="text_6">
      <!-- 60 -->
      <g style="fill: #ffffff" transform="translate(13.5625 456.435431)scale(0.1 -0.1)">
       <defs>
        <path id="DejaVuSans-36" d="M 2113 2584 
Q 1688 2584 1439 2293 
Q 1191 2003 1191 1497 
Q 1191 994 1439 701 
Q 1688 409 2113 409 
Q 2538 409 2786 701 
Q 3034 994 3034 1497 
Q 3034 2003 2786 2293 
Q 2538 2584 2113 2584 
z
M 3366 4563 
L 3366 3988 
Q 3128 4100 2886 4159 
Q 2644 4219 2406 4219 
Q 1781 4219 1451 3797 
Q 1122 3375 1075 2522 
Q 1259 2794 1537 2939 
Q 1816 3084 2150 3084 
Q 2853 3084 3261 2657 
Q 3669 2231 3669 1497 
Q 3669 778 3244 343 
Q 2819 -91 2113 -91 
Q 1303 -91 875 529 
Q 447 1150 447 2328 
Q 447 3434 972 4092 
Q 1497 4750 2381 4750 
Q 2619 4750 2861 4703 
Q 3103 4656 3366 4563 
z
" transform="scale(0.015625)"/>
       </defs>
       <use xlink:href="#DejaVuSans-36"/>
       <use xlink:href="#DejaVuSans-30" x="63.623047"/>
      </g>
     </g>
    </g>
    <g id="ytick_2">
     <g id="line2d_20">
      <g>
       <use xlink:href="#m11d8ae18b8" x="33.2875" y="400.428599" style="fill: #ffffff; stroke: #ffffff; stroke-width: 0.8"/>
      </g>
     </g>
     <g id="text_7">
      <!-- 80 -->
      <g style="fill: #ffffff" transform="translate(13.5625 404.227818)scale(0.1 -0.1)">
       <defs>
        <path id="DejaVuSans-38" d="M 2034 2216 
Q 1584 2216 1326 1975 
Q 1069 1734 1069 1313 
Q 1069 891 1326 650 
Q 1584 409 2034 409 
Q 2484 409 2743 651 
Q 3003 894 3003 1313 
Q 3003 1734 2745 1975 
Q 2488 2216 2034 2216 
z
M 1403 2484 
Q 997 2584 770 2862 
Q 544 3141 544 3541 
Q 544 4100 942 4425 
Q 1341 4750 2034 4750 
Q 2731 4750 3128 4425 
Q 3525 4100 3525 3541 
Q 3525 3141 3298 2862 
Q 3072 2584 2669 2484 
Q 3125 2378 3379 2068 
Q 3634 1759 3634 1313 
Q 3634 634 3220 271 
Q 2806 -91 2034 -91 
Q 1263 -91 848 271 
Q 434 634 434 1313 
Q 434 1759 690 2068 
Q 947 2378 1403 2484 
z
M 1172 3481 
Q 1172 3119 1398 2916 
Q 1625 2713 2034 2713 
Q 2441 2713 2670 2916 
Q 2900 3119 2900 3481 
Q 2900 3844 2670 4047 
Q 2441 4250 2034 4250 
Q 1625 4250 1398 4047 
Q 1172 3844 1172 3481 
z
" transform="scale(0.015625)"/>
       </defs>
       <use xlink:href="#DejaVuSans-38"/>
       <use xlink:href="#DejaVuSans-30" x="63.623047"/>
      </g>
     </g>
    </g>
    <g id="ytick_3">
     <g id="line2d_21">
      <g>
       <use xlink:href="#m11d8ae18b8" x="33.2875" y="348.220986" style="fill: #ffffff; stroke: #ffffff; stroke-width: 0.8"/>
      </g>
     </g>
     <g id="text_8">
      <!-- 100 -->
      <g style="fill: #ffffff" transform="translate(7.2 352.020204)scale(0.1 -0.1)">
       <use xlink:href="#DejaVuSans-31"/>
       <use xlink:href="#DejaVuSans-30" x="63.623047"/>
       <use xlink:href="#DejaVuSans-30" x="127.246094"/>
      </g>
     </g>
    </g>
    <g id="ytick_4">
     <g id="line2d_22">
      <g>
       <use xlink:href="#m11d8ae18b8" x="33.2875" y="296.013372" style="fill: #ffffff; stroke: #ffffff; stroke-width: 0.8"/>
      </g>
     </g>
     <g id="text_9">
      <!-- 120 -->
      <g style="fill: #ffffff" transform="translate(7.2 299.812591)scale(0.1 -0.1)">
       <use xlink:href="#DejaVuSans-31"/>
       <use xlink:href="#DejaVuSans-32" x="63.623047"/>
       <use xlink:href="#DejaVuSans-30" x="127.246094"/>
      </g>
     </g>
    </g>
    <g id="ytick_5">
     <g id="line2d_23">
      <g>
       <use xlink:href="#m11d8ae18b8" x="33.2875" y="243.805759" style="fill: #ffffff; stroke: #ffffff; stroke-width: 0.8"/>
      </g>
     </g>
     <g id="text_10">
      <!-- 140 -->
      <g style="fill: #ffffff" transform="translate(7.2 247.604978)scale(0.1 -0.1)">
       <defs>
        <path id="DejaVuSans-34" d="M 2419 4116 
L 825 1625 
L 2419 1625 
L 2419 4116 
z
M 2253 4666 
L 3047 4666 
L 3047 1625 
L 3713 1625 
L 3713 1100 
L 3047 1100 
L 3047 0 
L 2419 0 
L 2419 1100 
L 313 1100 
L 313 1709 
L 2253 4666 
z
" transform="scale(0.015625)"/>
       </defs>
       <use xlink:href="#DejaVuSans-31"/>
       <use xlink:href="#DejaVuSans-34" x="63.623047"/>
       <use xlink:href="#DejaVuSans-30" x="127.246094"/>
      </g>
     </g>
    </g>
    <g id="ytick_6">
     <g id="line2d_24">
      <g>
       <use xlink:href="#m11d8ae18b8" x="33.2875" y="191.598146" style="fill: #ffffff; stroke: #ffffff; stroke-width: 0.8"/>
      </g>
     </g>
     <g id="text_11">
      <!-- 160 -->
      <g style="fill: #ffffff" transform="translate(7.2 195.397364)scale(0.1 -0.1)">
       <use xlink:href="#DejaVuSans-31"/>
       <use xlink:href="#DejaVuSans-36" x="63.623047"/>
       <use xlink:href="#DejaVuSans-30" x="127.246094"/>
      </g>
     </g>
    </g>
    <g id="ytick_7">
     <g id="line2d_25">
      <g>
       <use xlink:href="#m11d8ae18b8" x="33.2875" y="139.390532" style="fill: #ffffff; stroke: #ffffff; stroke-width: 0.8"/>
      </g>
     </g>
     <g id="text_12">
      <!-- 180 -->
      <g style="fill: #ffffff" transform="translate(7.2 143.189751)scale(0.1 -0.1)">
       <use xlink:href="#DejaVuSans-31"/>
       <use xlink:href="#DejaVuSans-38" x="63.623047"/>
       <use xlink:href="#DejaVuSans-30" x="127.246094"/>
      </g>
     </g>
    </g>
    <g id="ytick_8">
     <g id="line2d_26">
      <g>
       <use xlink:href="#m11d8ae18b8" x="33.2875" y="87.182919" style="fill: #ffffff; stroke: #ffffff; stroke-width: 0.8"/>
      </g>
     </g>
     <g id="text_13">
      <!-- 200 -->
      <g style="fill: #ffffff" transform="translate(7.2 90.982138)scale(0.1 -0.1)">
       <use xlink:href="#DejaVuSans-32"/>
       <use xlink:href="#DejaVuSans-30" x="63.623047"/>
       <use xlink:href="#DejaVuSans-30" x="127.246094"/>
      </g>
     </g>
    </g>
    <g id="ytick_9">
     <g id="line2d_27">
      <g>
       <use xlink:href="#m11d8ae18b8" x="33.2875" y="34.975306" style="fill: #ffffff; stroke: #ffffff; stroke-width: 0.8"/>
      </g>
     </g>
     <g id="text_14">
      <!-- 220 -->
      <g style="fill: #ffffff" transform="translate(7.2 38.774525)scale(0.1 -0.1)">
       <use xlink:href="#DejaVuSans-32"/>
       <use xlink:href="#DejaVuSans-32" x="63.623047"/>
       <use xlink:href="#DejaVuSans-30" x="127.246094"/>
      </g>
     </g>
    </g>
   </g>
   <g id="line2d_28">
    <path d="M 636.376896 192.277704 
L 702.8875 192.277704 
L 702.8875 192.277704 
" clip-path="url(#p87ef56483c)" style="fill: none; stroke: #000000; stroke-width: 1.5; stroke-linecap: square"/>
   </g>
   <g id="line2d_29">
    <path d="M 636.376896 194.603174 
L 636.826292 187.179148 
L 637.275688 183.181604 
L 637.725084 189.95666 
L 639.073272 193.097593 
L 639.522668 194.032074 
L 639.972064 194.966595 
L 640.42146 201.27443 
L 640.870856 203.558792 
L 642.219044 202.390621 
L 642.66844 202.182941 
L 643.117836 199.093948 
L 643.567232 194.395494 
L 644.016628 194.187854 
L 645.814211 199.301629 
L 646.263607 204.415363 
L 646.713003 215.317813 
L 647.162399 198.496918 
L 648.510587 204.597073 
L 648.959983 211.294299 
L 649.409379 210.048298 
L 649.858775 208.568687 
L 650.308171 206.543945 
L 651.656359 212.514331 
L 652.105755 228.219035 
L 652.555151 223.07929 
L 653.004547 233.021289 
L 653.453943 237.486093 
L 654.802131 232.735739 
L 655.251527 219.185547 
L 655.700923 220.509458 
L 656.150319 219.289427 
L 656.599715 219.497107 
L 657.947903 218.017456 
L 658.397299 215.006293 
L 658.846695 217.757875 
L 659.296091 217.082975 
L 659.745487 212.540261 
L 661.093674 209.814648 
L 661.54307 205.713264 
L 661.992466 208.490817 
L 662.441862 212.618171 
L 662.891258 206.673755 
L 664.239446 209.295528 
L 664.688842 207.893786 
L 665.138238 202.157011 
L 665.587634 196.887496 
L 666.03703 193.668693 
L 667.385218 195.252145 
L 667.834614 196.498146 
L 668.28401 195.330015 
L 668.733406 197.640267 
L 670.53099 201.559981 
L 670.980386 195.459785 
L 671.429782 184.453575 
L 671.879178 184.785051 
L 672.328574 188.33517 
L 673.676762 184.941667 
L 674.126158 192.146343 
L 674.575554 193.268788 
L 675.02495 182.696738 
L 675.474346 190.162428 
L 676.822534 195.82695 
L 677.27193 201.491471 
L 677.721326 198.489549 
L 678.170721 206.059637 
L 678.620117 202.039668 
L 679.968305 203.057715 
L 680.417701 205.198246 
L 680.867097 210.888857 
L 681.316493 212.50728 
L 681.765889 208.252387 
L 683.114077 204.336816 
L 683.563473 205.48539 
L 684.012869 230.649458 
L 684.462265 239.36812 
L 684.911661 239.133195 
L 686.259849 230.623329 
L 686.709245 223.888542 
L 687.158641 230.205658 
L 687.608037 226.890503 
L 688.057433 221.043236 
L 689.855017 223.235947 
L 690.304413 229.083214 
L 690.753809 224.984897 
L 691.203205 228.430618 
L 692.551393 229.918515 
L 693.000789 225.689711 
L 693.450185 230.466712 
L 693.899581 237.305897 
L 694.348977 238.715525 
L 695.697164 248.634979 
L 696.14656 259.885713 
L 696.595956 263.357524 
L 697.045352 261.243083 
L 697.494748 263.749066 
L 699.292332 253.281454 
L 699.741728 247.72133 
L 700.191124 237.801875 
L 700.64052 232.450587 
L 701.988708 235.322022 
L 702.438104 241.404214 
L 702.8875 238.062929 
" clip-path="url(#p87ef56483c)" style="fill: none; stroke: #ff0000; stroke-width: 1.5; stroke-linecap: square"/>
   </g>
   <g id="line2d_30">
    <path d="M 33.2875 437.430852 
L 33.736896 436.773318 
L 35.085084 435.058961 
L 35.53448 435.552172 
L 35.983876 434.659792 
L 36.882668 428.013988 
L 38.230856 427.192051 
L 38.680252 427.873046 
L 39.129648 429.681285 
L 39.579044 430.808489 
L 40.02844 427.544278 
L 41.376628 431.160757 
L 41.826023 430.010072 
L 42.275419 431.137296 
L 42.724815 429.751746 
L 43.174211 427.426896 
L 44.522399 426.581497 
L 44.971795 426.088327 
L 45.421191 426.816323 
L 45.870587 425.970865 
L 47.668171 425.78304 
L 48.117567 426.323132 
L 49.016359 423.246845 
L 49.465755 423.012 
L 50.813943 426.417114 
L 51.263339 421.814334 
L 51.712735 423.364208 
L 52.162131 423.998322 
L 52.611527 423.012 
L 53.959715 422.495349 
L 54.409111 421.321184 
L 55.307903 422.696079 
L 57.105487 423.21745 
L 58.004279 420.942528 
L 58.90307 418.312192 
L 60.251258 419.212717 
L 60.700654 417.601343 
L 61.15005 418.146335 
L 61.599446 414.947268 
L 62.048842 414.165361 
L 63.39703 413.715108 
L 63.846426 413.430733 
L 64.295822 414.117961 
L 64.745218 416.369144 
L 66.542802 416.084789 
L 66.992198 416.5824 
L 67.441594 414.23642 
L 67.89099 410.942614 
L 68.340386 410.942614 
L 69.688574 411.061072 
L 70.13797 410.444983 
L 70.587366 411.653542 
L 71.036762 412.008977 
L 71.486158 411.724581 
L 73.733138 411.416527 
L 74.182534 411.606123 
L 74.63193 412.696105 
L 76.429513 413.288595 
L 76.878909 411.890439 
L 77.777701 415.160584 
L 79.125889 414.046863 
L 79.575285 414.923588 
L 80.024681 412.316992 
L 80.474077 411.511345 
L 80.923473 411.132131 
L 82.271661 409.615577 
L 82.721057 410.208007 
L 83.170453 410.208007 
L 83.619849 406.98526 
L 84.069245 405.895238 
L 85.417433 409.568237 
L 85.866829 412.293312 
L 86.316225 411.961557 
L 86.765621 412.909402 
L 87.215017 412.032636 
L 88.563205 410.989994 
L 89.012601 409.354941 
L 89.911393 415.136904 
L 90.360789 414.591854 
L 91.708977 413.999424 
L 92.158372 414.473396 
L 92.607768 416.274326 
L 93.057164 422.364384 
L 93.50656 421.914132 
L 94.854748 419.378594 
L 95.75354 415.279082 
L 96.202936 417.437816 
L 96.652332 400.560161 
L 98.00052 402.233612 
L 98.449916 400.894883 
L 98.899312 395.396478 
L 99.348708 396.496199 
L 99.798104 399.221453 
L 101.146292 398.313042 
L 101.595688 396.041944 
L 102.045084 397.261198 
L 102.49448 395.085755 
L 102.943876 394.559843 
L 104.292064 391.236901 
L 104.74146 390.495781 
L 105.190856 391.021733 
L 105.640252 390.854362 
L 106.089648 388.344236 
L 107.437836 387.650993 
L 107.887232 385.810212 
L 108.336628 385.762435 
L 108.786023 384.949618 
L 109.235419 384.973517 
L 110.583607 386.240529 
L 111.033003 389.085356 
L 111.482399 390.734848 
L 112.381191 390.424085 
L 113.729379 389.467816 
L 114.178775 387.603176 
L 114.628171 386.909893 
L 115.077567 387.364109 
L 115.526963 383.324005 
L 116.875151 386.168833 
L 117.324547 386.192732 
L 118.223339 385.618962 
L 118.672735 388.248602 
L 120.020923 386.862076 
L 120.470319 384.758368 
L 120.919715 384.471464 
L 121.369111 378.590619 
L 121.818507 378.232058 
L 123.166695 387.483622 
L 123.616091 388.153007 
L 124.514883 391.762773 
L 124.964279 391.786692 
L 126.312466 400.416769 
L 127.211258 393.890459 
L 127.660654 389.276626 
L 128.11005 391.284679 
L 129.458238 389.515614 
L 130.35703 391.045611 
L 130.806426 392.57557 
L 131.255822 388.153007 
L 132.60401 389.037499 
L 133.053406 388.224703 
L 133.502802 391.834509 
L 133.952198 391.308577 
L 134.401594 389.874214 
L 135.749782 391.356375 
L 136.199178 389.300545 
L 136.648574 390.830443 
L 137.09797 390.86181 
L 137.547366 388.982413 
L 139.34495 391.343709 
L 139.794346 380.741905 
L 140.243742 382.042993 
L 140.693138 383.729707 
L 142.041326 383.92247 
L 142.490721 383.874234 
L 142.940117 381.512978 
L 143.389513 376.814424 
L 143.838909 374.404893 
L 145.187097 373.055589 
L 145.636493 374.477187 
L 146.085889 373.320666 
L 146.535285 375.200044 
L 146.984681 373.826643 
L 148.332869 372.477299 
L 148.782265 370.091866 
L 149.231661 370.140101 
L 149.681057 372.019499 
L 150.130453 371.971283 
L 151.928037 368.332978 
L 152.377433 370.04373 
L 153.276225 367.706492 
L 154.624413 369.34497 
L 155.073809 368.718464 
L 155.523205 370.935233 
L 155.972601 371.802658 
L 156.421997 372.067695 
L 157.770185 371.031584 
L 158.219581 370.50155 
L 158.668977 370.887017 
L 159.118372 371.802658 
L 159.567768 372.139969 
L 161.365352 368.18837 
L 161.814748 365.465645 
L 162.264144 365.128315 
L 162.71354 362.429688 
L 164.061728 364.670494 
L 164.511124 363.730815 
L 164.96052 364.164518 
L 165.409916 362.309218 
L 165.859312 364.309046 
L 167.2075 363.586248 
L 167.656896 361.032169 
L 168.106292 361.321304 
L 169.005084 358.550343 
L 170.353272 359.538278 
L 170.802668 359.273241 
L 171.252064 359.417808 
L 171.70146 360.044294 
L 172.150856 359.51416 
L 173.499044 356.333615 
L 173.94844 357.08055 
L 174.397836 357.104648 
L 174.847232 356.863729 
L 175.296628 356.116813 
L 176.644815 354.502413 
L 177.094211 352.839857 
L 177.993003 351.927502 
L 179.790587 352.024531 
L 180.239983 358.940092 
L 180.689379 357.654061 
L 181.138775 358.648926 
L 181.588171 352.388529 
L 182.936359 355.009166 
L 183.385755 350.884063 
L 183.835151 354.645208 
L 184.733943 351.854711 
L 186.082131 352.825279 
L 186.531527 355.203264 
L 186.980923 354.305448 
L 187.430319 356.319495 
L 187.879715 352.024531 
L 189.227903 351.781899 
L 189.677299 353.019436 
L 190.126695 350.350225 
L 190.576091 346.92884 
L 191.025487 348.530355 
L 192.373674 348.821541 
L 192.82307 351.151012 
L 193.272466 350.30171 
L 193.721862 350.204661 
L 194.171258 350.374522 
L 195.968842 355.785637 
L 196.418238 356.440781 
L 196.867634 353.67458 
L 197.31703 359.546722 
L 198.665218 357.387112 
L 199.114614 355.251838 
L 199.56401 350.277433 
L 200.013406 348.700275 
L 200.462802 345.327385 
L 201.81099 345.448711 
L 202.260386 343.847196 
L 202.709782 343.11924 
L 203.159178 340.134605 
L 203.608574 339.430946 
L 204.956762 339.940547 
L 205.406158 343.313377 
L 205.855554 341.323607 
L 206.30495 338.120657 
L 206.754346 339.430946 
L 208.102534 336.688963 
L 208.55193 338.169172 
L 209.001326 342.997914 
L 209.450721 342.876608 
L 209.900117 343.192051 
L 211.248305 341.153767 
L 211.697701 338.751525 
L 212.147097 332.442613 
L 213.045889 334.699273 
L 214.394077 332.515425 
L 214.843473 335.281645 
L 215.742265 331.714638 
L 216.191661 330.234488 
L 217.539849 329.045486 
L 217.989245 328.050621 
L 218.438641 327.929295 
L 218.888037 327.3285 
L 219.337433 328.378631 
L 220.685621 327.670372 
L 221.584413 334.264435 
L 222.033809 333.849254 
L 222.483205 329.062454 
L 223.831393 325.960874 
L 224.280789 315.190644 
L 224.730185 320.978702 
L 225.179581 324.178028 
L 225.628977 324.886287 
L 226.977164 333.092161 
L 227.875956 327.133128 
L 228.325352 322.444034 
L 228.774748 324.055925 
L 230.122936 325.887585 
L 230.572332 322.908048 
L 231.021728 326.473722 
L 231.92052 318.194578 
L 233.268708 315.605805 
L 233.718104 318.878401 
L 234.616896 317.608461 
L 235.066292 322.737112 
L 236.41448 317.852646 
L 236.863876 314.848693 
L 237.313272 312.772828 
L 237.762668 313.310151 
L 238.212064 315.630242 
L 240.009648 312.870514 
L 240.459044 308.352416 
L 240.90844 309.45138 
L 241.357836 309.182718 
L 242.706023 310.892315 
L 243.155419 316.485001 
L 244.054211 309.427003 
L 244.503607 311.014398 
L 245.851795 316.802535 
L 246.301191 313.358945 
L 246.750587 312.748391 
L 247.199983 311.551701 
L 249.446963 307.375534 
L 249.896359 308.81645 
L 250.345755 305.665957 
L 250.795151 305.030968 
L 252.143339 305.494982 
L 252.592735 306.789378 
L 253.042131 313.554317 
L 253.491527 311.942486 
L 253.940923 306.42305 
L 255.289111 309.256047 
L 255.738507 313.920685 
L 256.187903 311.356349 
L 256.637299 311.454035 
L 257.086695 313.5299 
L 258.434883 316.06982 
L 258.884279 323.030191 
L 259.333674 322.224265 
L 259.78307 322.602742 
L 260.232466 320.538169 
L 261.580654 316.581074 
L 262.03005 308.961834 
L 262.479446 306.946393 
L 262.928842 302.546872 
L 263.378238 306.331956 
L 265.175822 305.4717 
L 265.625218 302.178234 
L 266.074614 303.235056 
L 266.52401 304.808072 
L 267.872198 316.605649 
L 268.321594 317.023499 
L 268.77099 313.533366 
L 269.220386 315.253857 
L 269.669782 315.05725 
L 271.01797 315.966617 
L 271.467366 316.114112 
L 271.916762 312.722302 
L 272.366158 313.09096 
L 272.815554 312.992657 
L 274.163742 309.674574 
L 274.613138 310.82976 
L 275.062534 308.691499 
L 275.51193 313.484214 
L 275.961326 313.607113 
L 277.309513 313.066364 
L 277.758909 308.765187 
L 278.208305 309.994081 
L 279.107097 309.256764 
L 280.904681 307.069292 
L 281.354077 303.185924 
L 281.803473 302.964722 
L 282.252869 304.021564 
L 283.601057 302.350265 
L 284.050453 303.824977 
L 284.499849 302.866418 
L 284.949245 303.087601 
L 285.398641 300.875593 
L 286.746829 300.65439 
L 287.196225 301.268846 
L 287.645621 304.46403 
L 288.095017 302.227405 
L 288.544413 301.145887 
L 289.892601 302.276497 
L 290.341997 301.490029 
L 291.240789 301.490029 
L 291.690185 299.351729 
L 293.038372 303.3334 
L 293.487768 302.276497 
L 294.835956 307.978679 
L 296.184144 307.560869 
L 296.63354 309.428815 
L 297.082936 308.15071 
L 297.532332 304.857283 
L 297.981728 304.562313 
L 299.329916 302.325669 
L 299.779312 302.79269 
L 300.228708 299.671275 
L 300.678104 299.40088 
L 301.1275 298.565221 
L 302.925084 299.351729 
L 303.37448 298.81102 
L 303.823876 300.230167 
L 304.273272 299.859298 
L 305.62146 298.499459 
L 306.070856 297.658821 
L 306.520252 300.0571 
L 306.969648 297.856643 
L 307.419044 301.144971 
L 308.767232 299.933464 
L 309.216628 298.573645 
L 309.666023 295.730331 
L 310.115419 294.914448 
L 310.564815 297.535205 
L 311.913003 297.312687 
L 312.362399 302.282273 
L 312.811795 304.037736 
L 313.710587 297.386853 
L 315.508171 300.52685 
L 315.957567 299.117581 
L 316.406963 296.299002 
L 316.856359 296.002299 
L 318.204547 304.408545 
L 318.653943 309.031997 
L 319.103339 312.171973 
L 319.552735 328.638391 
L 320.002131 329.305923 
L 321.350319 313.655468 
L 321.799715 317.092108 
L 322.249111 301.441634 
L 322.698507 308.537551 
L 323.147903 308.463346 
L 324.496091 322.308986 
L 324.945487 311.207719 
L 325.844279 357.466933 
L 326.293674 327.229101 
L 327.641862 341.000496 
L 328.091258 316.919082 
L 328.540654 318.872286 
L 328.99005 335.239763 
L 329.439446 356.008194 
L 330.787634 367.702768 
L 331.23703 353.931353 
L 331.686426 359.741557 
L 332.135822 343.769664 
L 332.585218 336.871529 
L 333.933406 324.929723 
L 334.382802 337.291869 
L 334.832198 338.94839 
L 335.281594 326.413158 
L 335.73099 324.731921 
L 337.079178 317.982197 
L 337.528574 330.443264 
L 337.97797 324.68251 
L 338.427366 325.770342 
L 340.22495 322.580934 
L 340.674346 310.194073 
L 341.573138 308.85899 
L 342.022534 300.971905 
L 343.370721 311.084122 
L 343.820117 313.358746 
L 344.269513 314.051033 
L 344.718909 312.082293 
L 345.168305 313.625416 
L 346.965889 318.329486 
L 347.415285 317.85659 
L 347.864681 315.89036 
L 348.314077 318.503748 
L 349.662265 321.117096 
L 350.111661 320.519727 
L 350.561057 327.762482 
L 351.010453 330.077175 
L 351.459849 320.669074 
L 352.808037 322.261965 
L 353.706829 325.721568 
L 354.156225 325.995348 
L 354.605621 324.004184 
L 355.953809 320.021956 
L 356.403205 329.405162 
L 356.852601 327.31448 
L 357.301997 331.446095 
L 357.751393 329.006949 
L 359.548977 330.425619 
L 360.447768 320.395274 
L 360.897164 320.743758 
L 362.245352 317.433482 
L 362.694748 315.417443 
L 363.144144 314.247679 
L 363.59354 320.420169 
L 364.042936 314.745411 
L 365.391124 312.953423 
L 365.84052 314.720556 
L 366.289916 312.505401 
L 366.739312 319.897503 
L 367.188708 321.490394 
L 368.536896 318.827277 
L 368.986292 315.243261 
L 369.435688 315.740993 
L 369.885084 312.380968 
L 371.682668 316.189035 
L 372.132064 316.238824 
L 372.58146 319.49929 
L 373.030856 315.840571 
L 373.480252 322.461062 
L 374.82844 316.413045 
L 375.277836 311.659186 
L 375.727232 310.638729 
L 376.176628 308.3987 
L 377.974211 306.532028 
L 378.873003 303.395994 
L 379.322399 304.416431 
L 379.771795 300.907079 
L 381.119983 300.508846 
L 381.569379 297.920393 
L 382.018775 299.388832 
L 382.468171 298.741713 
L 382.917567 296.576347 
L 384.715151 297.970122 
L 385.613943 293.275751 
L 386.063339 293.776688 
L 387.411527 292.874989 
L 387.860923 288.967782 
L 388.310319 287.890765 
L 388.759715 280.101406 
L 389.209111 280.852823 
L 390.557299 280.427046 
L 391.006695 274.165495 
L 391.456091 275.042061 
L 391.905487 276.870415 
L 392.354883 274.766548 
L 393.70307 273.388984 
L 394.152466 275.568072 
L 394.601862 269.982815 
L 395.051258 269.181251 
L 395.500654 270.884396 
L 396.848842 269.8826 
L 397.298238 267.352877 
L 397.747634 269.206265 
L 398.19703 266.501365 
L 398.646426 265.023626 
L 399.994614 262.34366 
L 400.44401 260.966136 
L 400.893406 262.644187 
L 401.342802 263.094997 
L 401.792198 261.692419 
L 403.589782 263.170198 
L 404.039178 257.334482 
L 404.488574 262.969807 
L 404.93797 263.721184 
L 406.735554 268.780509 
L 407.18495 263.24536 
L 407.634346 266.877053 
L 408.083742 263.270414 
L 409.43193 262.043093 
L 409.881326 262.043093 
L 410.330721 264.372425 
L 411.229513 265.198923 
L 412.577701 266.85196 
L 413.027097 263.721184 
L 413.476493 267.853835 
L 414.375285 264.572776 
L 415.723473 263.595954 
L 416.172869 265.474476 
L 416.622265 261.141433 
L 417.071661 260.515286 
L 417.521057 263.320481 
L 418.869245 260.139558 
L 419.318641 259.588572 
L 420.666829 251.298256 
L 422.015017 247.365995 
L 422.464413 248.067304 
L 423.363205 249.018992 
L 423.812601 247.616454 
L 425.160789 253.827898 
L 425.610185 252.400227 
L 426.059581 250.471717 
L 426.508977 253.012911 
L 426.958372 250.670714 
L 428.30656 253.390711 
L 428.755956 250.721101 
L 429.205352 262.558111 
L 429.654748 262.784791 
L 430.104144 263.968536 
L 431.452332 260.442594 
L 431.901728 253.592177 
L 432.351124 255.052908 
L 432.80052 250.670714 
L 433.249916 248.529944 
L 434.598104 261.726993 
L 435.496896 251.451447 
L 435.946292 251.24998 
L 436.395688 245.885508 
L 438.193272 251.929939 
L 438.642668 257.420358 
L 439.54146 258.42773 
L 440.889648 259.787808 
L 441.339044 260.921087 
L 441.78844 259.989275 
L 442.687232 260.165488 
L 444.035419 259.510742 
L 444.484815 258.251437 
L 445.383607 263.364057 
L 445.833003 263.036684 
L 447.181191 262.507765 
L 447.630587 261.575913 
L 448.079983 265.706333 
L 448.529379 267.97301 
L 448.978775 265.454441 
L 450.326963 267.116678 
L 452.124547 259.082596 
L 453.472735 262.910698 
L 453.922131 265.353707 
L 454.371527 265.882626 
L 454.820923 262.407071 
L 456.618507 259.989275 
L 457.067903 260.6441 
L 457.517299 262.281045 
L 457.966695 258.830703 
L 459.764279 262.155178 
L 460.213674 259.938888 
L 460.66307 256.261787 
L 461.112466 259.561129 
L 461.561862 259.712208 
L 462.91005 262.079619 
L 463.359446 264.094482 
L 463.808842 263.565563 
L 464.258238 267.242664 
L 464.707634 269.811501 
L 466.505218 272.78335 
L 466.954614 276.989311 
L 467.40401 277.316186 
L 467.853406 279.875204 
L 469.65099 272.046074 
L 470.100386 283.979834 
L 470.549782 278.963089 
L 470.999178 284.410589 
L 472.347366 282.484968 
L 472.796762 282.941035 
L 473.246158 282.535633 
L 473.695554 282.332932 
L 474.14495 280.964689 
L 475.493138 281.978235 
L 476.39193 284.385237 
L 476.841326 284.106518 
L 477.290721 285.905496 
L 479.088305 285.145376 
L 479.537701 283.777113 
L 479.987097 281.066059 
L 480.436493 287.172349 
L 481.784681 288.540552 
L 482.234077 286.158843 
L 482.683473 285.804126 
L 483.132869 288.540552 
L 483.582265 296.268412 
L 484.930453 294.34277 
L 485.379849 295.330924 
L 485.829245 297.20586 
L 486.278641 299.764918 
L 486.728037 290.060771 
L 488.076225 286.690948 
L 488.525621 289.554038 
L 488.975017 286.61495 
L 489.424413 287.704435 
L 489.873809 284.587958 
L 491.221997 283.523787 
L 491.671393 282.560966 
L 492.120789 283.878524 
L 492.570185 283.169069 
L 493.019581 284.917343 
L 494.367768 279.419157 
L 494.817164 273.287574 
L 495.26656 273.388945 
L 495.715956 271.057861 
L 496.165352 266.066487 
L 497.51354 260.694965 
L 497.962936 266.066487 
L 498.412332 266.117153 
L 498.861728 269.030888 
L 500.659312 263.532702 
L 501.108708 263.406079 
L 501.558104 262.797935 
L 502.0075 261.480397 
L 502.456896 263.735443 
L 503.805084 262.341907 
L 504.25448 266.927878 
L 504.703876 265.686378 
L 505.153272 261.531023 
L 505.602668 261.50573 
L 506.950856 263.12734 
L 507.400252 260.238857 
L 507.849648 262.519236 
L 508.299044 265.961612 
L 508.74844 267.721078 
L 510.096628 274.554965 
L 510.546023 274.758901 
L 510.995419 274.197917 
L 511.894211 269.04706 
L 513.242399 265.018209 
L 513.691795 266.191159 
L 514.141191 268.945092 
L 514.590587 264.661161 
L 515.039983 264.635709 
L 516.388171 258.209853 
L 516.837567 259.943827 
L 517.286963 263.641242 
L 517.736359 258.082354 
L 518.185755 257.342887 
L 519.533943 258.056862 
L 519.983339 261.652269 
L 520.432735 260.938294 
L 520.882131 257.368379 
L 522.679715 257.470347 
L 523.129111 256.271944 
L 523.578507 257.062395 
L 524.027903 265.069193 
L 524.477299 265.400628 
L 526.274883 270.424026 
L 526.724279 268.945092 
L 527.173674 262.850712 
L 527.62307 262.595712 
L 528.971258 261.397269 
L 529.420654 265.42612 
L 529.87005 265.55366 
L 530.319446 263.003743 
L 530.768842 265.375176 
L 532.11703 265.247716 
L 532.566426 265.910668 
L 533.015822 270.679065 
L 533.465218 267.593578 
L 533.914614 272.591483 
L 535.262802 269.939559 
L 535.712198 269.812059 
L 536.161594 270.296526 
L 536.61099 270.067058 
L 537.060386 265.222185 
L 538.408574 264.202186 
L 538.85797 266.548127 
L 539.307366 265.196693 
L 539.756762 264.406162 
L 540.206158 262.723252 
L 542.003742 262.519236 
L 542.453138 259.918295 
L 542.902534 259.969319 
L 544.700117 259.561328 
L 545.149513 259.994771 
L 546.048305 254.41047 
L 546.497701 250.968094 
L 547.845889 251.146538 
L 548.295285 253.058996 
L 549.194077 255.668381 
L 549.643473 250.562134 
L 550.991661 249.304821 
L 551.441057 247.842178 
L 551.890453 253.205097 
L 552.339849 251.357604 
L 552.789245 244.30118 
L 554.137433 245.199215 
L 554.586829 239.887758 
L 555.036225 243.787994 
L 555.485621 243.608315 
L 555.935017 246.405266 
L 557.283205 244.429476 
L 557.732601 244.198495 
L 558.631393 242.453687 
L 559.080789 240.683148 
L 560.428977 238.11718 
L 560.878372 237.501349 
L 561.327768 241.555572 
L 561.777164 237.219065 
L 562.22656 236.962512 
L 563.574748 238.861267 
L 564.024144 241.863508 
L 564.47354 243.172163 
L 564.922936 243.813646 
L 565.372332 244.09589 
L 566.72052 242.50503 
L 567.169916 243.890639 
L 567.619312 240.169963 
L 568.518104 239.631086 
L 570.315688 241.016775 
L 570.765084 238.219785 
L 571.21448 239.785073 
L 571.663876 239.425795 
L 573.012064 235.448605 
L 573.910856 236.885518 
L 574.360252 239.477098 
L 574.809648 238.886958 
L 576.157836 242.607635 
L 576.607232 242.043107 
L 577.506023 239.271848 
L 579.303607 245.763783 
L 579.753003 248.509351 
L 580.202399 244.839977 
L 580.651795 250.536483 
L 581.101191 251.100972 
L 582.449379 253.128143 
L 582.898775 251.742494 
L 583.348171 246.969754 
L 583.797567 244.070159 
L 584.246963 245.584145 
L 585.595151 244.070159 
L 586.044547 244.609115 
L 586.493943 243.762303 
L 586.943339 239.631086 
L 587.392735 238.681668 
L 588.740923 244.018936 
L 589.190319 248.329712 
L 589.639715 246.918412 
L 590.089111 249.526163 
L 590.538507 245.653331 
L 591.886695 245.60171 
L 592.336091 240.437947 
L 592.785487 243.07147 
L 593.234883 240.876888 
L 593.684279 240.076479 
L 595.032466 240.98017 
L 595.481862 237.313863 
L 595.931258 234.757812 
L 596.380654 234.060686 
L 596.83005 232.201761 
L 598.178238 235.016038 
L 598.627634 233.879971 
L 599.07703 230.187893 
L 599.526426 231.272299 
L 599.975822 230.859169 
L 601.32401 228.690438 
L 601.773406 229.232581 
L 602.222802 229.464956 
L 602.672198 229.413335 
L 603.121594 230.187893 
L 604.469782 227.657653 
L 604.919178 223.423392 
L 605.368574 225.43722 
L 606.267366 228.509683 
L 607.615554 224.507758 
L 608.06495 235.971271 
L 608.514346 231.272299 
L 608.963742 229.051906 
L 609.413138 222.287365 
L 610.761326 216.426516 
L 611.210721 217.459261 
L 611.660117 215.703579 
L 612.109513 213.405674 
L 612.558909 207.880483 
L 614.356493 200.677041 
L 614.805889 199.102074 
L 615.255285 193.292846 
L 615.704681 202.71672 
L 617.052869 201.683975 
L 617.502265 201.942161 
L 617.951661 197.914426 
L 618.401057 195.900558 
L 620.198641 191.072453 
L 620.648037 188.826249 
L 621.097433 185.340696 
L 621.546829 189.006924 
L 621.996225 186.915624 
L 623.344413 188.671306 
L 623.793809 187.199661 
L 624.243205 185.289035 
L 624.692601 188.85206 
L 625.141997 189.084396 
L 626.490185 194.816192 
L 626.939581 199.618486 
L 627.388977 198.714835 
L 627.838372 200.573799 
L 628.287768 196.649345 
L 630.085352 204.601535 
L 630.534748 190.994981 
L 630.984144 188.736629 
L 631.43354 187.127247 
L 632.781728 190.553691 
L 633.68052 198.730568 
L 634.129916 196.186626 
L 634.579312 192.630372 
L 635.9275 192.760182 
L 635.9275 192.760182 
" clip-path="url(#p87ef56483c)" style="fill: none; stroke: #0000ff; stroke-width: 1.5; stroke-linecap: square"/>
   </g>
   <g id="patch_3">
    <path d="M 33.2875 457.198125 
L 33.2875 22.318125 
" style="fill: none; stroke: #ffffff; stroke-width: 0.8; stroke-linejoin: miter; stroke-linecap: square"/>
   </g>
   <g id="patch_4">
    <path d="M 702.8875 457.198125 
L 702.8875 22.318125 
" style="fill: none; stroke: #ffffff; stroke-width: 0.8; stroke-linejoin: miter; stroke-linecap: square"/>
   </g>
   <g id="patch_5">
    <path d="M 33.2875 457.198125 
L 702.8875 457.198125 
" style="fill: none; stroke: #ffffff; stroke-width: 0.8; stroke-linejoin: miter; stroke-linecap: square"/>
   </g>
   <g id="patch_6">
    <path d="M 33.2875 22.318125 
L 702.8875 22.318125 
" style="fill: none; stroke: #ffffff; stroke-width: 0.8; stroke-linejoin: miter; stroke-linecap: square"/>
   </g>
   <g id="text_15">
    <!-- ARIMA Price Forecast and Confidence Interval -->
    <g style="fill: #ffffff" transform="translate(231.205938 16.318125)scale(0.12 -0.12)">
     <defs>
      <path id="DejaVuSans-41" d="M 2188 4044 
L 1331 1722 
L 3047 1722 
L 2188 4044 
z
M 1831 4666 
L 2547 4666 
L 4325 0 
L 3669 0 
L 3244 1197 
L 1141 1197 
L 716 0 
L 50 0 
L 1831 4666 
z
" transform="scale(0.015625)"/>
      <path id="DejaVuSans-52" d="M 2841 2188 
Q 3044 2119 3236 1894 
Q 3428 1669 3622 1275 
L 4263 0 
L 3584 0 
L 2988 1197 
Q 2756 1666 2539 1819 
Q 2322 1972 1947 1972 
L 1259 1972 
L 1259 0 
L 628 0 
L 628 4666 
L 2053 4666 
Q 2853 4666 3247 4331 
Q 3641 3997 3641 3322 
Q 3641 2881 3436 2590 
Q 3231 2300 2841 2188 
z
M 1259 4147 
L 1259 2491 
L 2053 2491 
Q 2509 2491 2742 2702 
Q 2975 2913 2975 3322 
Q 2975 3731 2742 3939 
Q 2509 4147 2053 4147 
L 1259 4147 
z
" transform="scale(0.015625)"/>
      <path id="DejaVuSans-49" d="M 628 4666 
L 1259 4666 
L 1259 0 
L 628 0 
L 628 4666 
z
" transform="scale(0.015625)"/>
      <path id="DejaVuSans-4d" d="M 628 4666 
L 1569 4666 
L 2759 1491 
L 3956 4666 
L 4897 4666 
L 4897 0 
L 4281 0 
L 4281 4097 
L 3078 897 
L 2444 897 
L 1241 4097 
L 1241 0 
L 628 0 
L 628 4666 
z
" transform="scale(0.015625)"/>
      <path id="DejaVuSans-20" transform="scale(0.015625)"/>
      <path id="DejaVuSans-50" d="M 1259 4147 
L 1259 2394 
L 2053 2394 
Q 2494 2394 2734 2622 
Q 2975 2850 2975 3272 
Q 2975 3691 2734 3919 
Q 2494 4147 2053 4147 
L 1259 4147 
z
M 628 4666 
L 2053 4666 
Q 2838 4666 3239 4311 
Q 3641 3956 3641 3272 
Q 3641 2581 3239 2228 
Q 2838 1875 2053 1875 
L 1259 1875 
L 1259 0 
L 628 0 
L 628 4666 
z
" transform="scale(0.015625)"/>
      <path id="DejaVuSans-72" d="M 2631 2963 
Q 2534 3019 2420 3045 
Q 2306 3072 2169 3072 
Q 1681 3072 1420 2755 
Q 1159 2438 1159 1844 
L 1159 0 
L 581 0 
L 581 3500 
L 1159 3500 
L 1159 2956 
Q 1341 3275 1631 3429 
Q 1922 3584 2338 3584 
Q 2397 3584 2469 3576 
Q 2541 3569 2628 3553 
L 2631 2963 
z
" transform="scale(0.015625)"/>
      <path id="DejaVuSans-69" d="M 603 3500 
L 1178 3500 
L 1178 0 
L 603 0 
L 603 3500 
z
M 603 4863 
L 1178 4863 
L 1178 4134 
L 603 4134 
L 603 4863 
z
" transform="scale(0.015625)"/>
      <path id="DejaVuSans-63" d="M 3122 3366 
L 3122 2828 
Q 2878 2963 2633 3030 
Q 2388 3097 2138 3097 
Q 1578 3097 1268 2742 
Q 959 2388 959 1747 
Q 959 1106 1268 751 
Q 1578 397 2138 397 
Q 2388 397 2633 464 
Q 2878 531 3122 666 
L 3122 134 
Q 2881 22 2623 -34 
Q 2366 -91 2075 -91 
Q 1284 -91 818 406 
Q 353 903 353 1747 
Q 353 2603 823 3093 
Q 1294 3584 2113 3584 
Q 2378 3584 2631 3529 
Q 2884 3475 3122 3366 
z
" transform="scale(0.015625)"/>
      <path id="DejaVuSans-46" d="M 628 4666 
L 3309 4666 
L 3309 4134 
L 1259 4134 
L 1259 2759 
L 3109 2759 
L 3109 2228 
L 1259 2228 
L 1259 0 
L 628 0 
L 628 4666 
z
" transform="scale(0.015625)"/>
      <path id="DejaVuSans-6f" d="M 1959 3097 
Q 1497 3097 1228 2736 
Q 959 2375 959 1747 
Q 959 1119 1226 758 
Q 1494 397 1959 397 
Q 2419 397 2687 759 
Q 2956 1122 2956 1747 
Q 2956 2369 2687 2733 
Q 2419 3097 1959 3097 
z
M 1959 3584 
Q 2709 3584 3137 3096 
Q 3566 2609 3566 1747 
Q 3566 888 3137 398 
Q 2709 -91 1959 -91 
Q 1206 -91 779 398 
Q 353 888 353 1747 
Q 353 2609 779 3096 
Q 1206 3584 1959 3584 
z
" transform="scale(0.015625)"/>
      <path id="DejaVuSans-73" d="M 2834 3397 
L 2834 2853 
Q 2591 2978 2328 3040 
Q 2066 3103 1784 3103 
Q 1356 3103 1142 2972 
Q 928 2841 928 2578 
Q 928 2378 1081 2264 
Q 1234 2150 1697 2047 
L 1894 2003 
Q 2506 1872 2764 1633 
Q 3022 1394 3022 966 
Q 3022 478 2636 193 
Q 2250 -91 1575 -91 
Q 1294 -91 989 -36 
Q 684 19 347 128 
L 347 722 
Q 666 556 975 473 
Q 1284 391 1588 391 
Q 1994 391 2212 530 
Q 2431 669 2431 922 
Q 2431 1156 2273 1281 
Q 2116 1406 1581 1522 
L 1381 1569 
Q 847 1681 609 1914 
Q 372 2147 372 2553 
Q 372 3047 722 3315 
Q 1072 3584 1716 3584 
Q 2034 3584 2315 3537 
Q 2597 3491 2834 3397 
z
" transform="scale(0.015625)"/>
      <path id="DejaVuSans-6e" d="M 3513 2113 
L 3513 0 
L 2938 0 
L 2938 2094 
Q 2938 2591 2744 2837 
Q 2550 3084 2163 3084 
Q 1697 3084 1428 2787 
Q 1159 2491 1159 1978 
L 1159 0 
L 581 0 
L 581 3500 
L 1159 3500 
L 1159 2956 
Q 1366 3272 1645 3428 
Q 1925 3584 2291 3584 
Q 2894 3584 3203 3211 
Q 3513 2838 3513 2113 
z
" transform="scale(0.015625)"/>
      <path id="DejaVuSans-64" d="M 2906 2969 
L 2906 4863 
L 3481 4863 
L 3481 0 
L 2906 0 
L 2906 525 
Q 2725 213 2448 61 
Q 2172 -91 1784 -91 
Q 1150 -91 751 415 
Q 353 922 353 1747 
Q 353 2572 751 3078 
Q 1150 3584 1784 3584 
Q 2172 3584 2448 3432 
Q 2725 3281 2906 2969 
z
M 947 1747 
Q 947 1113 1208 752 
Q 1469 391 1925 391 
Q 2381 391 2643 752 
Q 2906 1113 2906 1747 
Q 2906 2381 2643 2742 
Q 2381 3103 1925 3103 
Q 1469 3103 1208 2742 
Q 947 2381 947 1747 
z
" transform="scale(0.015625)"/>
      <path id="DejaVuSans-43" d="M 4122 4306 
L 4122 3641 
Q 3803 3938 3442 4084 
Q 3081 4231 2675 4231 
Q 1875 4231 1450 3742 
Q 1025 3253 1025 2328 
Q 1025 1406 1450 917 
Q 1875 428 2675 428 
Q 3081 428 3442 575 
Q 3803 722 4122 1019 
L 4122 359 
Q 3791 134 3420 21 
Q 3050 -91 2638 -91 
Q 1578 -91 968 557 
Q 359 1206 359 2328 
Q 359 3453 968 4101 
Q 1578 4750 2638 4750 
Q 3056 4750 3426 4639 
Q 3797 4528 4122 4306 
z
" transform="scale(0.015625)"/>
      <path id="DejaVuSans-66" d="M 2375 4863 
L 2375 4384 
L 1825 4384 
Q 1516 4384 1395 4259 
Q 1275 4134 1275 3809 
L 1275 3500 
L 2222 3500 
L 2222 3053 
L 1275 3053 
L 1275 0 
L 697 0 
L 697 3053 
L 147 3053 
L 147 3500 
L 697 3500 
L 697 3744 
Q 697 4328 969 4595 
Q 1241 4863 1831 4863 
L 2375 4863 
z
" transform="scale(0.015625)"/>
      <path id="DejaVuSans-76" d="M 191 3500 
L 800 3500 
L 1894 563 
L 2988 3500 
L 3597 3500 
L 2284 0 
L 1503 0 
L 191 3500 
z
" transform="scale(0.015625)"/>
      <path id="DejaVuSans-6c" d="M 603 4863 
L 1178 4863 
L 1178 0 
L 603 0 
L 603 4863 
z
" transform="scale(0.015625)"/>
     </defs>
     <use xlink:href="#DejaVuSans-41"/>
     <use xlink:href="#DejaVuSans-52" x="68.408203"/>
     <use xlink:href="#DejaVuSans-49" x="137.890625"/>
     <use xlink:href="#DejaVuSans-4d" x="167.382812"/>
     <use xlink:href="#DejaVuSans-41" x="253.662109"/>
     <use xlink:href="#DejaVuSans-20" x="322.070312"/>
     <use xlink:href="#DejaVuSans-50" x="353.857422"/>
     <use xlink:href="#DejaVuSans-72" x="412.410156"/>
     <use xlink:href="#DejaVuSans-69" x="453.523438"/>
     <use xlink:href="#DejaVuSans-63" x="481.306641"/>
     <use xlink:href="#DejaVuSans-65" x="536.287109"/>
     <use xlink:href="#DejaVuSans-20" x="597.810547"/>
     <use xlink:href="#DejaVuSans-46" x="629.597656"/>
     <use xlink:href="#DejaVuSans-6f" x="683.492188"/>
     <use xlink:href="#DejaVuSans-72" x="744.673828"/>
     <use xlink:href="#DejaVuSans-65" x="783.537109"/>
     <use xlink:href="#DejaVuSans-63" x="845.060547"/>
     <use xlink:href="#DejaVuSans-61" x="900.041016"/>
     <use xlink:href="#DejaVuSans-73" x="961.320312"/>
     <use xlink:href="#DejaVuSans-74" x="1013.419922"/>
     <use xlink:href="#DejaVuSans-20" x="1052.628906"/>
     <use xlink:href="#DejaVuSans-61" x="1084.416016"/>
     <use xlink:href="#DejaVuSans-6e" x="1145.695312"/>
     <use xlink:href="#DejaVuSans-64" x="1209.074219"/>
     <use xlink:href="#DejaVuSans-20" x="1272.550781"/>
     <use xlink:href="#DejaVuSans-43" x="1304.337891"/>
     <use xlink:href="#DejaVuSans-6f" x="1374.162109"/>
     <use xlink:href="#DejaVuSans-6e" x="1435.34375"/>
     <use xlink:href="#DejaVuSans-66" x="1498.722656"/>
     <use xlink:href="#DejaVuSans-69" x="1533.927734"/>
     <use xlink:href="#DejaVuSans-64" x="1561.710938"/>
     <use xlink:href="#DejaVuSans-65" x="1625.1875"/>
     <use xlink:href="#DejaVuSans-6e" x="1686.710938"/>
     <use xlink:href="#DejaVuSans-63" x="1750.089844"/>
     <use xlink:href="#DejaVuSans-65" x="1805.070312"/>
     <use xlink:href="#DejaVuSans-20" x="1866.59375"/>
     <use xlink:href="#DejaVuSans-49" x="1898.380859"/>
     <use xlink:href="#DejaVuSans-6e" x="1927.873047"/>
     <use xlink:href="#DejaVuSans-74" x="1991.251953"/>
     <use xlink:href="#DejaVuSans-65" x="2030.460938"/>
     <use xlink:href="#DejaVuSans-72" x="2091.984375"/>
     <use xlink:href="#DejaVuSans-76" x="2133.097656"/>
     <use xlink:href="#DejaVuSans-61" x="2192.277344"/>
     <use xlink:href="#DejaVuSans-6c" x="2253.556641"/>
    </g>
   </g>
   <g id="legend_1">
    <g id="patch_7">
     <path d="M 612.326563 74.3525 
L 695.8875 74.3525 
Q 697.8875 74.3525 697.8875 72.3525 
L 697.8875 29.318125 
Q 697.8875 27.318125 695.8875 27.318125 
L 612.326563 27.318125 
Q 610.326563 27.318125 610.326563 29.318125 
L 610.326563 72.3525 
Q 610.326563 74.3525 612.326563 74.3525 
z
" style="opacity: 0.8; stroke: #cccccc; stroke-linejoin: miter"/>
    </g>
    <g id="line2d_31">
     <path d="M 614.326563 35.416562 
L 624.326563 35.416562 
L 634.326563 35.416562 
" style="fill: none; stroke: #000000; stroke-width: 1.5; stroke-linecap: square"/>
    </g>
    <g id="text_16">
     <!-- Forecast -->
     <g style="fill: #ffffff" transform="translate(642.326563 38.916562)scale(0.1 -0.1)">
      <use xlink:href="#DejaVuSans-46"/>
      <use xlink:href="#DejaVuSans-6f" x="53.894531"/>
      <use xlink:href="#DejaVuSans-72" x="115.076172"/>
      <use xlink:href="#DejaVuSans-65" x="153.939453"/>
      <use xlink:href="#DejaVuSans-63" x="215.462891"/>
      <use xlink:href="#DejaVuSans-61" x="270.443359"/>
      <use xlink:href="#DejaVuSans-73" x="331.722656"/>
      <use xlink:href="#DejaVuSans-74" x="383.822266"/>
     </g>
    </g>
    <g id="line2d_32">
     <path d="M 614.326563 50.094687 
L 624.326563 50.094687 
L 634.326563 50.094687 
" style="fill: none; stroke: #ff0000; stroke-width: 1.5; stroke-linecap: square"/>
    </g>
    <g id="text_17">
     <!-- Test Price -->
     <g style="fill: #ffffff" transform="translate(642.326563 53.594687)scale(0.1 -0.1)">
      <defs>
       <path id="DejaVuSans-54" d="M -19 4666 
L 3928 4666 
L 3928 4134 
L 2272 4134 
L 2272 0 
L 1638 0 
L 1638 4134 
L -19 4134 
L -19 4666 
z
" transform="scale(0.015625)"/>
      </defs>
      <use xlink:href="#DejaVuSans-54"/>
      <use xlink:href="#DejaVuSans-65" x="44.083984"/>
      <use xlink:href="#DejaVuSans-73" x="105.607422"/>
      <use xlink:href="#DejaVuSans-74" x="157.707031"/>
      <use xlink:href="#DejaVuSans-20" x="196.916016"/>
      <use xlink:href="#DejaVuSans-50" x="228.703125"/>
      <use xlink:href="#DejaVuSans-72" x="287.255859"/>
      <use xlink:href="#DejaVuSans-69" x="328.369141"/>
      <use xlink:href="#DejaVuSans-63" x="356.152344"/>
      <use xlink:href="#DejaVuSans-65" x="411.132812"/>
     </g>
    </g>
    <g id="line2d_33">
     <path d="M 614.326563 64.772812 
L 624.326563 64.772812 
L 634.326563 64.772812 
" style="fill: none; stroke: #0000ff; stroke-width: 1.5; stroke-linecap: square"/>
    </g>
    <g id="text_18">
     <!-- Train Price -->
     <g style="fill: #ffffff" transform="translate(642.326563 68.272812)scale(0.1 -0.1)">
      <use xlink:href="#DejaVuSans-54"/>
      <use xlink:href="#DejaVuSans-72" x="46.333984"/>
      <use xlink:href="#DejaVuSans-61" x="87.447266"/>
      <use xlink:href="#DejaVuSans-69" x="148.726562"/>
      <use xlink:href="#DejaVuSans-6e" x="176.509766"/>
      <use xlink:href="#DejaVuSans-20" x="239.888672"/>
      <use xlink:href="#DejaVuSans-50" x="271.675781"/>
      <use xlink:href="#DejaVuSans-72" x="330.228516"/>
      <use xlink:href="#DejaVuSans-69" x="371.341797"/>
      <use xlink:href="#DejaVuSans-63" x="399.125"/>
      <use xlink:href="#DejaVuSans-65" x="454.105469"/>
     </g>
    </g>
   </g>
  </g>
 </g>
 <defs>
  <clipPath id="p87ef56483c">
   <rect x="33.2875" y="22.318125" width="669.6" height="434.88"/>
  </clipPath>
 </defs>
</svg>
