<?xml version="1.0" encoding="utf-8" standalone="no"?>
<!DOCTYPE svg PUBLIC "-//W3C//DTD SVG 1.1//EN"
  "http://www.w3.org/Graphics/SVG/1.1/DTD/svg11.dtd">
<svg xmlns:xlink="http://www.w3.org/1999/xlink" width="697.3625pt" height="372.35625pt" viewBox="0 0 697.3625 372.35625" xmlns="http://www.w3.org/2000/svg" version="1.1">
 <metadata>
  <rdf:RDF xmlns:dc="http://purl.org/dc/elements/1.1/" xmlns:cc="http://creativecommons.org/ns#" xmlns:rdf="http://www.w3.org/1999/02/22-rdf-syntax-ns#">
   <cc:Work>
    <dc:type rdf:resource="http://purl.org/dc/dcmitype/StillImage"/>
    <dc:date>2022-07-20T17:41:15.328373</dc:date>
    <dc:format>image/svg+xml</dc:format>
    <dc:creator>
     <cc:Agent>
      <dc:title>Matplotlib v3.5.1, https://matplotlib.org/</dc:title>
     </cc:Agent>
    </dc:creator>
   </cc:Work>
  </rdf:RDF>
 </metadata>
 <defs>
  <style type="text/css">*{stroke-linejoin: round; stroke-linecap: butt}</style>
 </defs>
 <g id="figure_1">
  <g id="patch_1">
   <path d="M 0 372.35625 
L 697.3625 372.35625 
L 697.3625 0 
L 0 0 
z
"/>
  </g>
  <g id="axes_1">
   <g id="patch_2">
    <path d="M 20.5625 348.478125 
L 690.1625 348.478125 
L 690.1625 22.318125 
L 20.5625 22.318125 
z
"/>
   </g>
   <g id="matplotlib.axis_1">
    <g id="xtick_1">
     <g id="line2d_1">
      <defs>
       <path id="md06fdc5a04" d="M 0 0 
L 0 3.5 
" style="stroke: #ffffff; stroke-width: 0.8"/>
      </defs>
      <g>
       <use xlink:href="#md06fdc5a04" x="52.851915" y="348.478125" style="fill: #ffffff; stroke: #ffffff; stroke-width: 0.8"/>
      </g>
     </g>
     <g id="text_1">
      <!-- 2018-07 -->
      <g style="fill: #ffffff" transform="translate(31.960508 363.076563)scale(0.1 -0.1)">
       <defs>
        <path id="DejaVuSans-32" d="M 1228 531 
L 3431 531 
L 3431 0 
L 469 0 
L 469 531 
Q 828 903 1448 1529 
Q 2069 2156 2228 2338 
Q 2531 2678 2651 2914 
Q 2772 3150 2772 3378 
Q 2772 3750 2511 3984 
Q 2250 4219 1831 4219 
Q 1534 4219 1204 4116 
Q 875 4013 500 3803 
L 500 4441 
Q 881 4594 1212 4672 
Q 1544 4750 1819 4750 
Q 2544 4750 2975 4387 
Q 3406 4025 3406 3419 
Q 3406 3131 3298 2873 
Q 3191 2616 2906 2266 
Q 2828 2175 2409 1742 
Q 1991 1309 1228 531 
z
" transform="scale(0.015625)"/>
        <path id="DejaVuSans-30" d="M 2034 4250 
Q 1547 4250 1301 3770 
Q 1056 3291 1056 2328 
Q 1056 1369 1301 889 
Q 1547 409 2034 409 
Q 2525 409 2770 889 
Q 3016 1369 3016 2328 
Q 3016 3291 2770 3770 
Q 2525 4250 2034 4250 
z
M 2034 4750 
Q 2819 4750 3233 4129 
Q 3647 3509 3647 2328 
Q 3647 1150 3233 529 
Q 2819 -91 2034 -91 
Q 1250 -91 836 529 
Q 422 1150 422 2328 
Q 422 3509 836 4129 
Q 1250 4750 2034 4750 
z
" transform="scale(0.015625)"/>
        <path id="DejaVuSans-31" d="M 794 531 
L 1825 531 
L 1825 4091 
L 703 3866 
L 703 4441 
L 1819 4666 
L 2450 4666 
L 2450 531 
L 3481 531 
L 3481 0 
L 794 0 
L 794 531 
z
" transform="scale(0.015625)"/>
        <path id="DejaVuSans-38" d="M 2034 2216 
Q 1584 2216 1326 1975 
Q 1069 1734 1069 1313 
Q 1069 891 1326 650 
Q 1584 409 2034 409 
Q 2484 409 2743 651 
Q 3003 894 3003 1313 
Q 3003 1734 2745 1975 
Q 2488 2216 2034 2216 
z
M 1403 2484 
Q 997 2584 770 2862 
Q 544 3141 544 3541 
Q 544 4100 942 4425 
Q 1341 4750 2034 4750 
Q 2731 4750 3128 4425 
Q 3525 4100 3525 3541 
Q 3525 3141 3298 2862 
Q 3072 2584 2669 2484 
Q 3125 2378 3379 2068 
Q 3634 1759 3634 1313 
Q 3634 634 3220 271 
Q 2806 -91 2034 -91 
Q 1263 -91 848 271 
Q 434 634 434 1313 
Q 434 1759 690 2068 
Q 947 2378 1403 2484 
z
M 1172 3481 
Q 1172 3119 1398 2916 
Q 1625 2713 2034 2713 
Q 2441 2713 2670 2916 
Q 2900 3119 2900 3481 
Q 2900 3844 2670 4047 
Q 2441 4250 2034 4250 
Q 1625 4250 1398 4047 
Q 1172 3844 1172 3481 
z
" transform="scale(0.015625)"/>
        <path id="DejaVuSans-2d" d="M 313 2009 
L 1997 2009 
L 1997 1497 
L 313 1497 
L 313 2009 
z
" transform="scale(0.015625)"/>
        <path id="DejaVuSans-37" d="M 525 4666 
L 3525 4666 
L 3525 4397 
L 1831 0 
L 1172 0 
L 2766 4134 
L 525 4134 
L 525 4666 
z
" transform="scale(0.015625)"/>
       </defs>
       <use xlink:href="#DejaVuSans-32"/>
       <use xlink:href="#DejaVuSans-30" x="63.623047"/>
       <use xlink:href="#DejaVuSans-31" x="127.246094"/>
       <use xlink:href="#DejaVuSans-38" x="190.869141"/>
       <use xlink:href="#DejaVuSans-2d" x="254.492188"/>
       <use xlink:href="#DejaVuSans-30" x="290.576172"/>
       <use xlink:href="#DejaVuSans-37" x="354.199219"/>
      </g>
     </g>
    </g>
    <g id="xtick_2">
     <g id="line2d_2">
      <g>
       <use xlink:href="#md06fdc5a04" x="138.092263" y="348.478125" style="fill: #ffffff; stroke: #ffffff; stroke-width: 0.8"/>
      </g>
     </g>
     <g id="text_2">
      <!-- 2019-01 -->
      <g style="fill: #ffffff" transform="translate(117.200857 363.076563)scale(0.1 -0.1)">
       <defs>
        <path id="DejaVuSans-39" d="M 703 97 
L 703 672 
Q 941 559 1184 500 
Q 1428 441 1663 441 
Q 2288 441 2617 861 
Q 2947 1281 2994 2138 
Q 2813 1869 2534 1725 
Q 2256 1581 1919 1581 
Q 1219 1581 811 2004 
Q 403 2428 403 3163 
Q 403 3881 828 4315 
Q 1253 4750 1959 4750 
Q 2769 4750 3195 4129 
Q 3622 3509 3622 2328 
Q 3622 1225 3098 567 
Q 2575 -91 1691 -91 
Q 1453 -91 1209 -44 
Q 966 3 703 97 
z
M 1959 2075 
Q 2384 2075 2632 2365 
Q 2881 2656 2881 3163 
Q 2881 3666 2632 3958 
Q 2384 4250 1959 4250 
Q 1534 4250 1286 3958 
Q 1038 3666 1038 3163 
Q 1038 2656 1286 2365 
Q 1534 2075 1959 2075 
z
" transform="scale(0.015625)"/>
       </defs>
       <use xlink:href="#DejaVuSans-32"/>
       <use xlink:href="#DejaVuSans-30" x="63.623047"/>
       <use xlink:href="#DejaVuSans-31" x="127.246094"/>
       <use xlink:href="#DejaVuSans-39" x="190.869141"/>
       <use xlink:href="#DejaVuSans-2d" x="254.492188"/>
       <use xlink:href="#DejaVuSans-30" x="290.576172"/>
       <use xlink:href="#DejaVuSans-31" x="354.199219"/>
      </g>
     </g>
    </g>
    <g id="xtick_3">
     <g id="line2d_3">
      <g>
       <use xlink:href="#md06fdc5a04" x="221.942824" y="348.478125" style="fill: #ffffff; stroke: #ffffff; stroke-width: 0.8"/>
      </g>
     </g>
     <g id="text_3">
      <!-- 2019-07 -->
      <g style="fill: #ffffff" transform="translate(201.051418 363.076563)scale(0.1 -0.1)">
       <use xlink:href="#DejaVuSans-32"/>
       <use xlink:href="#DejaVuSans-30" x="63.623047"/>
       <use xlink:href="#DejaVuSans-31" x="127.246094"/>
       <use xlink:href="#DejaVuSans-39" x="190.869141"/>
       <use xlink:href="#DejaVuSans-2d" x="254.492188"/>
       <use xlink:href="#DejaVuSans-30" x="290.576172"/>
       <use xlink:href="#DejaVuSans-37" x="354.199219"/>
      </g>
     </g>
    </g>
    <g id="xtick_4">
     <g id="line2d_4">
      <g>
       <use xlink:href="#md06fdc5a04" x="307.183172" y="348.478125" style="fill: #ffffff; stroke: #ffffff; stroke-width: 0.8"/>
      </g>
     </g>
     <g id="text_4">
      <!-- 2020-01 -->
      <g style="fill: #ffffff" transform="translate(286.291766 363.076563)scale(0.1 -0.1)">
       <use xlink:href="#DejaVuSans-32"/>
       <use xlink:href="#DejaVuSans-30" x="63.623047"/>
       <use xlink:href="#DejaVuSans-32" x="127.246094"/>
       <use xlink:href="#DejaVuSans-30" x="190.869141"/>
       <use xlink:href="#DejaVuSans-2d" x="254.492188"/>
       <use xlink:href="#DejaVuSans-30" x="290.576172"/>
       <use xlink:href="#DejaVuSans-31" x="354.199219"/>
      </g>
     </g>
    </g>
    <g id="xtick_5">
     <g id="line2d_5">
      <g>
       <use xlink:href="#md06fdc5a04" x="391.496996" y="348.478125" style="fill: #ffffff; stroke: #ffffff; stroke-width: 0.8"/>
      </g>
     </g>
     <g id="text_5">
      <!-- 2020-07 -->
      <g style="fill: #ffffff" transform="translate(370.605589 363.076563)scale(0.1 -0.1)">
       <use xlink:href="#DejaVuSans-32"/>
       <use xlink:href="#DejaVuSans-30" x="63.623047"/>
       <use xlink:href="#DejaVuSans-32" x="127.246094"/>
       <use xlink:href="#DejaVuSans-30" x="190.869141"/>
       <use xlink:href="#DejaVuSans-2d" x="254.492188"/>
       <use xlink:href="#DejaVuSans-30" x="290.576172"/>
       <use xlink:href="#DejaVuSans-37" x="354.199219"/>
      </g>
     </g>
    </g>
    <g id="xtick_6">
     <g id="line2d_6">
      <g>
       <use xlink:href="#md06fdc5a04" x="476.737344" y="348.478125" style="fill: #ffffff; stroke: #ffffff; stroke-width: 0.8"/>
      </g>
     </g>
     <g id="text_6">
      <!-- 2021-01 -->
      <g style="fill: #ffffff" transform="translate(455.845938 363.076563)scale(0.1 -0.1)">
       <use xlink:href="#DejaVuSans-32"/>
       <use xlink:href="#DejaVuSans-30" x="63.623047"/>
       <use xlink:href="#DejaVuSans-32" x="127.246094"/>
       <use xlink:href="#DejaVuSans-31" x="190.869141"/>
       <use xlink:href="#DejaVuSans-2d" x="254.492188"/>
       <use xlink:href="#DejaVuSans-30" x="290.576172"/>
       <use xlink:href="#DejaVuSans-31" x="354.199219"/>
      </g>
     </g>
    </g>
    <g id="xtick_7">
     <g id="line2d_7">
      <g>
       <use xlink:href="#md06fdc5a04" x="560.587905" y="348.478125" style="fill: #ffffff; stroke: #ffffff; stroke-width: 0.8"/>
      </g>
     </g>
     <g id="text_7">
      <!-- 2021-07 -->
      <g style="fill: #ffffff" transform="translate(539.696498 363.076563)scale(0.1 -0.1)">
       <use xlink:href="#DejaVuSans-32"/>
       <use xlink:href="#DejaVuSans-30" x="63.623047"/>
       <use xlink:href="#DejaVuSans-32" x="127.246094"/>
       <use xlink:href="#DejaVuSans-31" x="190.869141"/>
       <use xlink:href="#DejaVuSans-2d" x="254.492188"/>
       <use xlink:href="#DejaVuSans-30" x="290.576172"/>
       <use xlink:href="#DejaVuSans-37" x="354.199219"/>
      </g>
     </g>
    </g>
    <g id="xtick_8">
     <g id="line2d_8">
      <g>
       <use xlink:href="#md06fdc5a04" x="645.828253" y="348.478125" style="fill: #ffffff; stroke: #ffffff; stroke-width: 0.8"/>
      </g>
     </g>
     <g id="text_8">
      <!-- 2022-01 -->
      <g style="fill: #ffffff" transform="translate(624.936847 363.076563)scale(0.1 -0.1)">
       <use xlink:href="#DejaVuSans-32"/>
       <use xlink:href="#DejaVuSans-30" x="63.623047"/>
       <use xlink:href="#DejaVuSans-32" x="127.246094"/>
       <use xlink:href="#DejaVuSans-32" x="190.869141"/>
       <use xlink:href="#DejaVuSans-2d" x="254.492188"/>
       <use xlink:href="#DejaVuSans-30" x="290.576172"/>
       <use xlink:href="#DejaVuSans-31" x="354.199219"/>
      </g>
     </g>
    </g>
   </g>
   <g id="matplotlib.axis_2">
    <g id="ytick_1">
     <g id="line2d_9">
      <defs>
       <path id="m52059bc6a5" d="M 0 0 
L -3.5 0 
" style="stroke: #ffffff; stroke-width: 0.8"/>
      </defs>
      <g>
       <use xlink:href="#m52059bc6a5" x="20.5625" y="312.976664" style="fill: #ffffff; stroke: #ffffff; stroke-width: 0.8"/>
      </g>
     </g>
     <g id="text_9">
      <!-- 1 -->
      <g style="fill: #ffffff" transform="translate(7.2 316.775883)scale(0.1 -0.1)">
       <use xlink:href="#DejaVuSans-31"/>
      </g>
     </g>
    </g>
    <g id="ytick_2">
     <g id="line2d_10">
      <g>
       <use xlink:href="#m52059bc6a5" x="20.5625" y="271.405326" style="fill: #ffffff; stroke: #ffffff; stroke-width: 0.8"/>
      </g>
     </g>
     <g id="text_10">
      <!-- 2 -->
      <g style="fill: #ffffff" transform="translate(7.2 275.204545)scale(0.1 -0.1)">
       <use xlink:href="#DejaVuSans-32"/>
      </g>
     </g>
    </g>
    <g id="ytick_3">
     <g id="line2d_11">
      <g>
       <use xlink:href="#m52059bc6a5" x="20.5625" y="229.833988" style="fill: #ffffff; stroke: #ffffff; stroke-width: 0.8"/>
      </g>
     </g>
     <g id="text_11">
      <!-- 3 -->
      <g style="fill: #ffffff" transform="translate(7.2 233.633206)scale(0.1 -0.1)">
       <defs>
        <path id="DejaVuSans-33" d="M 2597 2516 
Q 3050 2419 3304 2112 
Q 3559 1806 3559 1356 
Q 3559 666 3084 287 
Q 2609 -91 1734 -91 
Q 1441 -91 1130 -33 
Q 819 25 488 141 
L 488 750 
Q 750 597 1062 519 
Q 1375 441 1716 441 
Q 2309 441 2620 675 
Q 2931 909 2931 1356 
Q 2931 1769 2642 2001 
Q 2353 2234 1838 2234 
L 1294 2234 
L 1294 2753 
L 1863 2753 
Q 2328 2753 2575 2939 
Q 2822 3125 2822 3475 
Q 2822 3834 2567 4026 
Q 2313 4219 1838 4219 
Q 1578 4219 1281 4162 
Q 984 4106 628 3988 
L 628 4550 
Q 988 4650 1302 4700 
Q 1616 4750 1894 4750 
Q 2613 4750 3031 4423 
Q 3450 4097 3450 3541 
Q 3450 3153 3228 2886 
Q 3006 2619 2597 2516 
z
" transform="scale(0.015625)"/>
       </defs>
       <use xlink:href="#DejaVuSans-33"/>
      </g>
     </g>
    </g>
    <g id="ytick_4">
     <g id="line2d_12">
      <g>
       <use xlink:href="#m52059bc6a5" x="20.5625" y="188.262649" style="fill: #ffffff; stroke: #ffffff; stroke-width: 0.8"/>
      </g>
     </g>
     <g id="text_12">
      <!-- 4 -->
      <g style="fill: #ffffff" transform="translate(7.2 192.061868)scale(0.1 -0.1)">
       <defs>
        <path id="DejaVuSans-34" d="M 2419 4116 
L 825 1625 
L 2419 1625 
L 2419 4116 
z
M 2253 4666 
L 3047 4666 
L 3047 1625 
L 3713 1625 
L 3713 1100 
L 3047 1100 
L 3047 0 
L 2419 0 
L 2419 1100 
L 313 1100 
L 313 1709 
L 2253 4666 
z
" transform="scale(0.015625)"/>
       </defs>
       <use xlink:href="#DejaVuSans-34"/>
      </g>
     </g>
    </g>
    <g id="ytick_5">
     <g id="line2d_13">
      <g>
       <use xlink:href="#m52059bc6a5" x="20.5625" y="146.691311" style="fill: #ffffff; stroke: #ffffff; stroke-width: 0.8"/>
      </g>
     </g>
     <g id="text_13">
      <!-- 5 -->
      <g style="fill: #ffffff" transform="translate(7.2 150.49053)scale(0.1 -0.1)">
       <defs>
        <path id="DejaVuSans-35" d="M 691 4666 
L 3169 4666 
L 3169 4134 
L 1269 4134 
L 1269 2991 
Q 1406 3038 1543 3061 
Q 1681 3084 1819 3084 
Q 2600 3084 3056 2656 
Q 3513 2228 3513 1497 
Q 3513 744 3044 326 
Q 2575 -91 1722 -91 
Q 1428 -91 1123 -41 
Q 819 9 494 109 
L 494 744 
Q 775 591 1075 516 
Q 1375 441 1709 441 
Q 2250 441 2565 725 
Q 2881 1009 2881 1497 
Q 2881 1984 2565 2268 
Q 2250 2553 1709 2553 
Q 1456 2553 1204 2497 
Q 953 2441 691 2322 
L 691 4666 
z
" transform="scale(0.015625)"/>
       </defs>
       <use xlink:href="#DejaVuSans-35"/>
      </g>
     </g>
    </g>
    <g id="ytick_6">
     <g id="line2d_14">
      <g>
       <use xlink:href="#m52059bc6a5" x="20.5625" y="105.119973" style="fill: #ffffff; stroke: #ffffff; stroke-width: 0.8"/>
      </g>
     </g>
     <g id="text_14">
      <!-- 6 -->
      <g style="fill: #ffffff" transform="translate(7.2 108.919191)scale(0.1 -0.1)">
       <defs>
        <path id="DejaVuSans-36" d="M 2113 2584 
Q 1688 2584 1439 2293 
Q 1191 2003 1191 1497 
Q 1191 994 1439 701 
Q 1688 409 2113 409 
Q 2538 409 2786 701 
Q 3034 994 3034 1497 
Q 3034 2003 2786 2293 
Q 2538 2584 2113 2584 
z
M 3366 4563 
L 3366 3988 
Q 3128 4100 2886 4159 
Q 2644 4219 2406 4219 
Q 1781 4219 1451 3797 
Q 1122 3375 1075 2522 
Q 1259 2794 1537 2939 
Q 1816 3084 2150 3084 
Q 2853 3084 3261 2657 
Q 3669 2231 3669 1497 
Q 3669 778 3244 343 
Q 2819 -91 2113 -91 
Q 1303 -91 875 529 
Q 447 1150 447 2328 
Q 447 3434 972 4092 
Q 1497 4750 2381 4750 
Q 2619 4750 2861 4703 
Q 3103 4656 3366 4563 
z
" transform="scale(0.015625)"/>
       </defs>
       <use xlink:href="#DejaVuSans-36"/>
      </g>
     </g>
    </g>
    <g id="ytick_7">
     <g id="line2d_15">
      <g>
       <use xlink:href="#m52059bc6a5" x="20.5625" y="63.548634" style="fill: #ffffff; stroke: #ffffff; stroke-width: 0.8"/>
      </g>
     </g>
     <g id="text_15">
      <!-- 7 -->
      <g style="fill: #ffffff" transform="translate(7.2 67.347853)scale(0.1 -0.1)">
       <use xlink:href="#DejaVuSans-37"/>
      </g>
     </g>
    </g>
   </g>
   <g id="line2d_16">
    <path d="M 50.998864 297.39831 
L 51.925389 306.116419 
L 53.315177 309.347563 
L 53.77844 315.807943 
L 54.704966 318.805196 
L 55.168229 317.142188 
L 56.558017 316.99262 
L 57.02128 311.974113 
L 57.484542 309.987075 
L 57.947805 310.051098 
L 58.411068 311.104359 
L 59.800856 309.39391 
L 60.264119 310.779617 
L 60.727382 312.520412 
L 61.653907 323.061548 
L 63.506958 325.636178 
L 63.970221 324.980039 
L 64.433484 323.881122 
L 64.896747 320.814377 
L 66.286535 320.370688 
L 66.749798 318.255118 
L 67.21306 319.073193 
L 68.139586 305.538955 
L 69.529374 303.770549 
L 69.992637 298.657532 
L 70.4559 296.752187 
L 70.919163 298.51829 
L 71.382425 299.840493 
L 72.772214 301.074497 
L 73.235476 301.933684 
L 73.698739 302.38212 
L 74.162002 300.581596 
L 74.625265 300.70179 
L 76.015053 303.493098 
L 76.478316 305.41613 
L 76.941578 308.487288 
L 77.404841 310.796824 
L 77.868104 312.163561 
L 79.257892 315.647178 
L 79.721155 317.541891 
L 80.184418 321.266985 
L 81.110943 321.827619 
L 82.963994 321.93169 
L 83.427257 321.809042 
L 83.89052 322.089448 
L 84.353783 323.623497 
L 85.743571 326.164647 
L 86.206834 327.809502 
L 86.670097 332.490585 
L 87.133359 333.511708 
L 87.596622 333.65267 
L 88.98641 332.101184 
L 89.449673 331.358548 
L 89.912936 331.118492 
L 90.839461 318.097191 
L 92.692512 317.308751 
L 93.155775 317.270024 
L 93.619038 316.940552 
L 94.082301 316.906128 
L 95.472089 317.077832 
L 96.398615 316.753785 
L 96.861877 315.034927 
L 97.32514 315.70393 
L 98.714928 315.746581 
L 99.178191 316.261498 
L 99.641454 312.560424 
L 100.104717 297.661875 
L 100.567979 288.031849 
L 101.957768 284.988558 
L 102.421031 284.418233 
L 102.884293 285.282411 
L 103.347556 289.029515 
L 103.810819 278.074267 
L 105.200607 268.516964 
L 105.66387 257.27769 
L 106.127133 238.636395 
L 106.590395 225.849924 
L 107.053658 218.759547 
L 108.443446 211.689106 
L 108.906709 203.085491 
L 109.833235 192.287927 
L 110.296498 187.979905 
L 111.686286 181.64879 
L 112.149549 177.078032 
L 112.612811 176.873782 
L 113.539337 199.587012 
L 114.929125 212.231057 
L 115.855651 239.389314 
L 116.318913 268.594422 
L 116.782176 267.504729 
L 118.171965 272.054699 
L 118.635227 278.528347 
L 120.025016 282.629113 
L 121.414804 289.642148 
L 121.878067 296.158789 
L 122.341329 300.099704 
L 122.804592 308.332173 
L 125.120906 318.041942 
L 126.047432 318.963682 
L 126.510694 321.419606 
L 127.900483 324.227558 
L 128.363745 323.531698 
L 128.827008 322.499625 
L 129.753534 302.455087 
L 131.143322 302.362813 
L 131.606585 302.082141 
L 132.069847 300.540346 
L 132.53311 298.032641 
L 132.996373 296.896052 
L 134.386161 279.764861 
L 135.312687 276.366381 
L 135.77595 276.077984 
L 136.239212 274.956751 
L 137.629001 274.705704 
L 138.555526 275.7518 
L 139.018789 274.64265 
L 139.482052 275.095629 
L 140.87184 275.879704 
L 141.335103 275.877535 
L 141.798366 275.496255 
L 142.261628 276.778456 
L 142.724891 278.95028 
L 144.114679 291.115751 
L 144.577942 309.554955 
L 145.041205 311.312583 
L 145.504468 312.617337 
L 145.96773 312.139482 
L 147.820781 312.205191 
L 148.284044 298.680959 
L 148.747307 304.206821 
L 149.21057 302.851139 
L 150.600358 299.721127 
L 151.063621 297.887015 
L 151.526884 292.983605 
L 152.453409 271.799247 
L 153.843197 259.499371 
L 154.769723 245.411873 
L 155.232986 244.911821 
L 155.696248 244.183967 
L 157.086037 242.382842 
L 158.012562 240.735936 
L 158.475825 245.958013 
L 158.939088 253.77903 
L 160.792139 257.901895 
L 161.255402 272.409089 
L 161.718664 271.424567 
L 162.181927 271.951785 
L 163.571715 278.257423 
L 164.034978 287.101084 
L 164.961504 314.283385 
L 165.424767 319.11035 
L 167.277818 321.472447 
L 167.74108 323.924145 
L 168.204343 325.02694 
L 168.667606 329.291476 
L 170.057394 331.671512 
L 170.520657 331.500267 
L 171.447182 320.846434 
L 171.910445 312.871449 
L 173.300233 310.974968 
L 173.763496 307.164531 
L 174.226759 304.763153 
L 174.690022 300.23108 
L 175.153285 298.566215 
L 176.543073 296.758374 
L 177.006336 292.326457 
L 178.396124 287.237452 
L 179.785912 287.365255 
L 180.249175 287.872527 
L 180.712438 290.3501 
L 181.1757 296.542654 
L 181.638963 305.772367 
L 183.028752 307.821423 
L 183.492014 311.021745 
L 183.955277 311.308404 
L 184.41854 311.919799 
L 184.881803 309.759766 
L 186.271591 308.577852 
L 186.734854 305.016415 
L 187.198116 303.150081 
L 187.661379 299.966399 
L 189.51443 301.174582 
L 189.977693 305.939093 
L 190.904219 310.375506 
L 191.367481 308.905899 
L 192.75727 309.227536 
L 193.220532 306.857254 
L 194.610321 311.512914 
L 196.000109 314.397698 
L 196.463372 314.827674 
L 196.926634 315.924866 
L 197.389897 316.545366 
L 197.85316 316.785776 
L 199.706211 316.508369 
L 200.169474 314.604355 
L 200.632737 307.910184 
L 201.095999 304.915628 
L 202.485788 302.543431 
L 202.94905 306.877955 
L 203.412313 309.82798 
L 203.875576 315.861778 
L 204.338839 315.48047 
L 206.19189 314.563896 
L 206.655153 311.694862 
L 207.118415 312.299242 
L 207.581678 304.797867 
L 209.434729 301.14745 
L 209.897992 301.139218 
L 210.361255 299.782327 
L 210.824517 296.541612 
L 212.214306 292.317658 
L 213.140831 281.533014 
L 214.067357 264.794754 
L 215.920408 256.030509 
L 216.383671 252.756194 
L 216.846933 246.592054 
L 217.310196 242.930397 
L 218.699984 237.388896 
L 219.163247 238.920873 
L 219.62651 245.760098 
L 220.089773 250.416096 
L 220.553035 266.828187 
L 221.942824 282.951925 
L 222.406087 298.388424 
L 222.869349 297.104448 
L 223.795875 299.869042 
L 225.185663 296.005982 
L 225.648926 297.746163 
L 226.112189 296.364694 
L 226.575451 293.456586 
L 227.038714 287.596399 
L 228.428502 281.121661 
L 228.891765 274.972537 
L 229.355028 273.296371 
L 230.281554 267.952594 
L 231.671342 266.404534 
L 232.134605 266.378842 
L 232.597867 267.851333 
L 233.524393 282.836562 
L 234.914181 291.384639 
L 235.377444 277.457554 
L 235.840707 277.359677 
L 236.303969 276.033778 
L 236.767232 277.71802 
L 238.157021 277.294272 
L 238.620283 281.170928 
L 239.083546 283.451028 
L 239.546809 282.234435 
L 240.010072 281.946627 
L 241.39986 282.122115 
L 241.863123 280.734751 
L 242.326385 280.842574 
L 242.789648 279.399621 
L 243.252911 274.195511 
L 244.642699 266.417376 
L 245.105962 266.320495 
L 245.569225 270.875146 
L 246.032488 276.650661 
L 246.49575 279.845728 
L 248.348801 278.328509 
L 248.812064 270.991828 
L 249.275327 265.926834 
L 249.73859 264.559277 
L 251.591641 272.306209 
L 252.518166 271.084764 
L 252.981429 267.178685 
L 254.371217 268.061113 
L 254.83448 275.194575 
L 255.297743 278.58012 
L 255.761006 286.911806 
L 256.224268 292.08889 
L 257.614057 293.05303 
L 258.077319 293.194929 
L 258.540582 295.687606 
L 259.467108 298.852326 
L 260.856896 309.283567 
L 261.320159 310.668664 
L 261.783422 310.802194 
L 262.709947 302.125852 
L 264.099735 302.064432 
L 264.562998 301.524236 
L 265.026261 300.494035 
L 265.489524 300.281867 
L 265.952786 298.583059 
L 267.342575 298.52043 
L 267.805837 301.710604 
L 268.2691 302.68375 
L 268.732363 302.469816 
L 269.195626 301.114769 
L 270.585414 302.271006 
L 271.048677 285.682399 
L 271.975202 264.630097 
L 272.438465 259.383794 
L 273.828253 259.293513 
L 274.291516 260.288761 
L 274.754779 259.043321 
L 275.218042 255.455659 
L 275.681304 256.648186 
L 277.071093 256.902385 
L 277.534356 255.769137 
L 277.997618 249.402771 
L 278.460881 245.017104 
L 278.924144 243.888224 
L 280.313932 242.648153 
L 280.777195 241.291878 
L 281.240458 241.15666 
L 281.70372 240.582435 
L 282.166983 240.20855 
L 283.556771 240.254131 
L 284.483297 253.558483 
L 285.409823 269.152389 
L 286.799611 272.164696 
L 287.262874 272.275234 
L 287.726136 272.995326 
L 288.189399 277.890982 
L 288.652662 279.367039 
L 290.04245 282.101343 
L 290.505713 284.970327 
L 290.968976 294.541812 
L 291.895501 303.408813 
L 293.28529 308.351954 
L 293.748552 306.747601 
L 294.675078 293.143539 
L 295.138341 290.625096 
L 296.528129 287.042372 
L 296.991392 288.071072 
L 297.454654 289.835273 
L 297.917917 289.126012 
L 298.38118 287.320866 
L 299.770968 286.637944 
L 300.234231 284.822639 
L 300.697494 286.589019 
L 301.160757 286.038166 
L 301.624019 290.743353 
L 303.013808 298.594997 
L 303.47707 307.663503 
L 304.403596 310.522649 
L 304.866859 315.052086 
L 306.256647 322.49558 
L 306.71991 328.149533 
L 307.646435 330.55826 
L 308.109698 323.558454 
L 309.499486 319.031743 
L 309.962749 312.232651 
L 310.426012 308.86974 
L 310.889275 308.619809 
L 312.742326 308.355382 
L 313.205588 309.361661 
L 313.668851 308.358849 
L 314.132114 306.637558 
L 314.595377 303.65069 
L 316.448428 301.886505 
L 316.911691 300.105269 
L 317.838216 298.425396 
L 319.228004 296.517902 
L 319.691267 294.942808 
L 320.15453 294.369225 
L 320.617793 292.229096 
L 321.081055 293.7717 
L 322.470844 297.828016 
L 322.934106 301.67232 
L 323.860632 314.447728 
L 324.323895 318.665474 
L 325.713683 323.728807 
L 326.176946 323.790779 
L 326.640209 321.511265 
L 327.103471 321.281679 
L 327.566734 320.753505 
L 329.883048 320.385156 
L 330.809573 317.813994 
L 332.199362 312.758647 
L 333.125887 284.024008 
L 333.58915 231.261552 
L 334.052413 197.869856 
L 335.442201 193.81403 
L 335.905464 187.901792 
L 336.368727 189.003623 
L 336.831989 192.179666 
L 337.295252 196.869879 
L 338.68504 190.446507 
L 339.148303 194.455238 
L 339.611566 172.774169 
L 340.074829 107.13115 
L 340.538092 106.033672 
L 341.92788 95.885008 
L 342.391143 102.352726 
L 342.854405 111.057831 
L 343.317668 117.274232 
L 343.780931 101.312506 
L 345.170719 64.443509 
L 345.633982 55.138152 
L 346.097245 41.17043 
L 346.560507 37.696674 
L 347.02377 37.14358 
L 348.413559 43.141281 
L 348.876821 47.868122 
L 349.340084 71.39239 
L 350.26661 103.445354 
L 351.656398 99.691296 
L 352.119661 116.502743 
L 352.582923 112.543315 
L 353.046186 122.17995 
L 354.899237 119.418692 
L 355.3625 104.462047 
L 355.825763 96.628361 
L 356.289026 86.87982 
L 356.752288 64.222369 
L 358.142077 71.75685 
L 358.605339 107.538881 
L 359.068602 127.488057 
L 359.531865 167.395974 
L 359.995128 184.809986 
L 361.384916 196.468227 
L 361.848179 197.90723 
L 362.311441 213.904379 
L 362.774704 238.01543 
L 363.237967 243.47648 
L 364.627755 246.399784 
L 365.091018 245.466094 
L 365.554281 249.766086 
L 366.017544 242.423478 
L 366.480806 246.689655 
L 367.870595 246.935802 
L 368.333857 245.833642 
L 368.79712 245.142718 
L 369.260383 246.600906 
L 369.723646 267.530075 
L 371.113434 273.743918 
L 371.576697 271.562833 
L 372.503222 273.906714 
L 372.966485 278.220323 
L 374.819536 278.235018 
L 375.746062 283.597804 
L 376.209324 289.633234 
L 377.599113 288.159663 
L 378.525638 273.801703 
L 378.988901 273.996028 
L 380.841952 264.492559 
L 381.305215 260.217039 
L 381.768478 254.462512 
L 382.23174 255.492445 
L 382.695003 257.028517 
L 384.084791 257.330564 
L 384.548054 255.311845 
L 385.011317 259.619648 
L 385.47458 260.214709 
L 385.937842 270.043601 
L 387.327631 280.016678 
L 387.790894 297.401849 
L 388.254156 306.813734 
L 388.717419 308.914961 
L 389.180682 306.388401 
L 390.57047 306.522165 
L 391.496996 300.292948 
L 391.960258 296.445073 
L 393.813309 288.311928 
L 395.666361 255.480641 
L 397.056149 252.126551 
L 397.519412 244.799964 
L 398.9092 228.023286 
L 400.298988 224.104365 
L 400.762251 224.324948 
L 401.225514 223.875817 
L 401.688776 228.189687 
L 402.152039 231.047173 
L 404.00509 256.111047 
L 404.468353 256.67939 
L 404.931616 245.37297 
L 405.394879 238.314151 
L 406.784667 232.555104 
L 407.24793 218.464307 
L 407.711192 209.517164 
L 408.174455 208.252866 
L 408.637718 203.638158 
L 410.490769 199.088554 
L 410.954032 195.953873 
L 411.417295 194.704348 
L 411.880557 196.096405 
L 413.270346 200.742483 
L 413.733608 207.169168 
L 414.196871 215.391523 
L 414.660134 221.523478 
L 415.123397 231.209058 
L 416.513185 241.289289 
L 416.976448 247.209401 
L 417.43971 258.400573 
L 417.902973 260.225882 
L 418.366236 263.944457 
L 419.756024 270.97755 
L 420.219287 271.638926 
L 420.68255 267.775021 
L 421.609075 280.675556 
L 423.462126 285.242465 
L 423.925389 295.661569 
L 424.851915 300.281746 
L 426.241703 305.051839 
L 426.704966 309.508562 
L 427.168229 311.48036 
L 427.631491 316.561378 
L 428.094754 317.721972 
L 429.484542 316.055424 
L 429.947805 316.253646 
L 430.411068 314.477296 
L 430.874331 313.78672 
L 431.337593 313.889582 
L 432.727382 314.829425 
L 433.190644 314.929383 
L 433.653907 313.515266 
L 434.11717 319.504243 
L 434.580433 319.669397 
L 435.970221 316.562571 
L 436.433484 317.233876 
L 437.360009 301.599869 
L 437.823272 287.66168 
L 439.21306 269.276559 
L 439.676323 256.890985 
L 440.139586 248.667098 
L 441.066111 238.625267 
L 442.919163 243.124117 
L 444.308951 259.568824 
L 445.698739 265.307949 
L 446.162002 274.890116 
L 446.625265 272.967999 
L 447.088527 270.084413 
L 447.55179 269.08419 
L 448.941578 268.779601 
L 449.404841 271.518992 
L 449.868104 272.232921 
L 450.331367 271.745522 
L 450.79463 270.290981 
L 452.184418 267.924804 
L 453.110943 272.489069 
L 453.574206 274.071084 
L 454.037469 271.88624 
L 455.427257 270.752812 
L 455.89052 270.597136 
L 456.353783 271.107977 
L 456.817045 270.545833 
L 457.280308 271.123697 
L 458.670097 269.885172 
L 459.133359 269.827465 
L 459.596622 271.999497 
L 460.523148 274.419055 
L 462.376199 280.565712 
L 462.839461 278.558709 
L 463.302724 274.033036 
L 463.765987 273.378635 
L 465.155775 277.319833 
L 465.619038 277.427337 
L 466.082301 272.417486 
L 466.545564 269.04774 
L 467.008826 270.948241 
L 468.398615 284.14042 
L 469.32514 304.331378 
L 469.788403 307.096136 
L 470.251666 308.388655 
L 471.641454 310.52785 
L 472.104717 310.463037 
L 472.567979 309.561357 
L 473.031242 310.858338 
L 474.884293 310.69934 
L 475.347556 311.740728 
L 475.810819 315.58601 
L 476.274082 313.343588 
L 478.127133 313.186567 
L 478.590395 311.649659 
L 479.053658 305.424768 
L 479.516921 304.31763 
L 479.980184 304.791263 
L 481.369972 309.627353 
L 481.833235 310.789947 
L 482.296498 314.796276 
L 482.75976 311.752957 
L 483.223023 303.397078 
L 485.076074 291.140055 
L 486.465862 246.079686 
L 488.318913 239.620237 
L 488.782176 225.408174 
L 489.245439 221.349412 
L 489.708702 211.288101 
L 491.09849 209.371046 
L 491.561753 206.241996 
L 492.025016 207.755803 
L 492.951541 226.164884 
L 494.341329 237.367394 
L 495.267855 255.998693 
L 495.731118 270.341578 
L 496.19438 279.815039 
L 498.047432 288.440711 
L 498.510694 295.038938 
L 498.973957 297.32635 
L 499.43722 296.380209 
L 500.827008 292.688383 
L 501.290271 299.891508 
L 501.753534 318.147169 
L 502.216796 314.406953 
L 502.680059 299.128737 
L 504.069847 289.774509 
L 504.996373 272.701524 
L 505.459636 262.194669 
L 505.922899 263.997304 
L 507.312687 267.705963 
L 507.77595 270.906382 
L 508.702475 274.548287 
L 509.165738 274.922906 
L 510.555526 273.248552 
L 511.018789 271.164262 
L 511.482052 271.244468 
L 511.945314 273.534938 
L 512.408577 272.511272 
L 513.798366 266.011269 
L 514.724891 239.451577 
L 515.651417 213.67633 
L 517.041205 194.85864 
L 517.504468 191.126175 
L 517.96773 193.499841 
L 518.430993 207.368588 
L 520.284044 205.077493 
L 520.747307 202.06649 
L 521.21057 204.22711 
L 521.673833 204.416662 
L 522.137095 210.918213 
L 523.526884 214.869921 
L 524.453409 230.033085 
L 524.916672 239.790538 
L 525.379935 252.16539 
L 526.769723 276.015805 
L 527.232986 291.366397 
L 527.696248 298.790299 
L 528.159511 309.178924 
L 528.622774 314.699965 
L 530.012562 300.102371 
L 530.939088 283.133402 
L 531.402351 280.198216 
L 531.865613 280.188875 
L 533.255402 280.612394 
L 533.718664 281.201672 
L 534.181927 281.557947 
L 534.64519 283.534324 
L 535.108453 283.931217 
L 536.498241 279.267809 
L 536.961504 275.959863 
L 537.424767 275.517796 
L 538.351292 268.02914 
L 539.74108 264.36023 
L 540.204343 265.273706 
L 540.667606 264.436778 
L 541.130869 260.248693 
L 541.594131 257.343218 
L 542.98392 262.502327 
L 543.447182 269.563265 
L 544.373708 287.650272 
L 544.836971 292.141959 
L 546.690022 285.114919 
L 547.153285 281.976168 
L 547.616547 287.179862 
L 548.07981 288.1736 
L 549.469598 289.443314 
L 549.932861 288.513409 
L 550.396124 287.118491 
L 551.322649 287.430358 
L 552.712438 288.829936 
L 553.1757 289.772254 
L 553.638963 284.116172 
L 554.102226 283.012802 
L 554.565489 280.093535 
L 555.955277 282.317788 
L 556.41854 286.082825 
L 557.345065 303.002854 
L 557.808328 303.072913 
L 559.198116 302.428902 
L 559.661379 304.17167 
L 560.124642 304.672475 
L 560.587905 305.888679 
L 561.051167 306.025213 
L 562.904219 307.475744 
L 563.830744 297.205734 
L 564.294007 293.942749 
L 565.683795 289.867658 
L 566.147058 286.838427 
L 567.073583 275.624585 
L 567.536846 264.057286 
L 569.389897 260.638775 
L 569.85316 263.058135 
L 570.316423 269.149747 
L 570.779686 272.08012 
L 572.169474 268.99251 
L 572.632737 264.867004 
L 573.559262 275.505005 
L 574.022525 272.007163 
L 575.412313 270.588955 
L 575.875576 262.821655 
L 576.338839 261.331718 
L 576.802101 261.585241 
L 577.265364 265.906517 
L 578.655153 270.04503 
L 579.118415 276.933747 
L 579.581678 281.07356 
L 580.044941 281.911279 
L 580.508204 278.826159 
L 581.897992 273.763528 
L 582.361255 271.444967 
L 583.28778 282.308807 
L 583.751043 281.948631 
L 585.140831 283.458451 
L 585.604094 285.692122 
L 586.53062 308.701023 
L 586.993882 308.840956 
L 588.383671 310.494597 
L 588.846933 310.412152 
L 589.773459 310.68851 
L 590.236722 314.195934 
L 592.089773 316.036073 
L 592.553035 316.691605 
L 593.016298 317.804494 
L 593.479561 318.297496 
L 594.869349 314.241319 
L 595.332612 312.273479 
L 595.795875 311.723466 
L 596.259138 312.076913 
L 596.7224 313.090098 
L 598.112189 313.750616 
L 598.575451 313.661257 
L 599.038714 313.981209 
L 599.501977 315.189669 
L 599.96524 317.457227 
L 601.355028 314.6598 
L 601.818291 305.272321 
L 602.281554 304.277851 
L 603.208079 283.3841 
L 604.597867 272.825089 
L 605.06113 266.297761 
L 605.524393 266.824897 
L 606.450918 268.758937 
L 607.840707 274.575464 
L 608.767232 286.247538 
L 609.230495 286.409742 
L 609.693758 286.162781 
L 611.083546 286.619697 
L 611.546809 286.585637 
L 612.010072 288.562338 
L 612.936597 294.772006 
L 614.326385 294.747201 
L 614.789648 291.778338 
L 615.252911 291.045234 
L 615.716174 291.199669 
L 616.179436 292.313136 
L 618.032488 301.610354 
L 618.959013 287.296747 
L 619.422276 279.345133 
L 620.812064 276.259311 
L 621.275327 273.097134 
L 621.73859 265.803622 
L 622.665115 255.380034 
L 624.054903 250.321712 
L 624.518166 252.229677 
L 624.981429 254.759376 
L 625.444692 264.115312 
L 625.907955 270.393581 
L 627.297743 276.904657 
L 627.761006 272.285992 
L 628.224268 276.890017 
L 629.150794 282.980943 
L 630.540582 286.098325 
L 631.003845 294.13889 
L 631.467108 299.506082 
L 631.93037 301.979485 
L 632.393633 297.54324 
L 634.246684 276.091081 
L 634.709947 268.669362 
L 635.17321 257.329053 
L 635.636473 240.070587 
L 637.026261 216.957027 
L 638.416049 158.16118 
L 638.879312 154.636912 
L 640.2691 153.292553 
L 640.732363 152.459787 
L 641.195626 146.908977 
L 641.658889 143.213504 
L 643.51194 140.471768 
L 643.975202 135.060123 
L 644.438465 146.711951 
L 645.364991 178.827427 
L 646.754779 191.636488 
L 647.218042 198.331067 
L 647.681304 209.252198 
L 648.60783 242.912269 
L 649.997618 255.31336 
L 650.460881 257.903991 
L 650.924144 259.640234 
L 651.387407 258.303561 
L 651.850669 257.600604 
L 653.70372 255.020963 
L 654.630246 264.264511 
L 655.093509 264.826951 
L 656.483297 265.996938 
L 656.94656 265.168162 
L 657.409823 262.693708 
L 657.873085 265.636946 
L 658.336348 266.81113 
L 659.726136 269.853018 
L 659.726136 269.853018 
" clip-path="url(#pca22da8866)" style="fill: none; stroke: #ff0000; stroke-width: 1.5; stroke-linecap: square"/>
   </g>
   <g id="patch_3">
    <path d="M 20.5625 348.478125 
L 20.5625 22.318125 
" style="fill: none; stroke: #ffffff; stroke-width: 0.8; stroke-linejoin: miter; stroke-linecap: square"/>
   </g>
   <g id="patch_4">
    <path d="M 690.1625 348.478125 
L 690.1625 22.318125 
" style="fill: none; stroke: #ffffff; stroke-width: 0.8; stroke-linejoin: miter; stroke-linecap: square"/>
   </g>
   <g id="patch_5">
    <path d="M 20.5625 348.478125 
L 690.1625 348.478125 
" style="fill: none; stroke: #ffffff; stroke-width: 0.8; stroke-linejoin: miter; stroke-linecap: square"/>
   </g>
   <g id="patch_6">
    <path d="M 20.5625 22.318125 
L 690.1625 22.318125 
" style="fill: none; stroke: #ffffff; stroke-width: 0.8; stroke-linejoin: miter; stroke-linecap: square"/>
   </g>
   <g id="text_16">
    <!-- Rolling Standard Deviation -->
    <g style="fill: #ffffff" transform="translate(275.369375 16.318125)scale(0.12 -0.12)">
     <defs>
      <path id="DejaVuSans-52" d="M 2841 2188 
Q 3044 2119 3236 1894 
Q 3428 1669 3622 1275 
L 4263 0 
L 3584 0 
L 2988 1197 
Q 2756 1666 2539 1819 
Q 2322 1972 1947 1972 
L 1259 1972 
L 1259 0 
L 628 0 
L 628 4666 
L 2053 4666 
Q 2853 4666 3247 4331 
Q 3641 3997 3641 3322 
Q 3641 2881 3436 2590 
Q 3231 2300 2841 2188 
z
M 1259 4147 
L 1259 2491 
L 2053 2491 
Q 2509 2491 2742 2702 
Q 2975 2913 2975 3322 
Q 2975 3731 2742 3939 
Q 2509 4147 2053 4147 
L 1259 4147 
z
" transform="scale(0.015625)"/>
      <path id="DejaVuSans-6f" d="M 1959 3097 
Q 1497 3097 1228 2736 
Q 959 2375 959 1747 
Q 959 1119 1226 758 
Q 1494 397 1959 397 
Q 2419 397 2687 759 
Q 2956 1122 2956 1747 
Q 2956 2369 2687 2733 
Q 2419 3097 1959 3097 
z
M 1959 3584 
Q 2709 3584 3137 3096 
Q 3566 2609 3566 1747 
Q 3566 888 3137 398 
Q 2709 -91 1959 -91 
Q 1206 -91 779 398 
Q 353 888 353 1747 
Q 353 2609 779 3096 
Q 1206 3584 1959 3584 
z
" transform="scale(0.015625)"/>
      <path id="DejaVuSans-6c" d="M 603 4863 
L 1178 4863 
L 1178 0 
L 603 0 
L 603 4863 
z
" transform="scale(0.015625)"/>
      <path id="DejaVuSans-69" d="M 603 3500 
L 1178 3500 
L 1178 0 
L 603 0 
L 603 3500 
z
M 603 4863 
L 1178 4863 
L 1178 4134 
L 603 4134 
L 603 4863 
z
" transform="scale(0.015625)"/>
      <path id="DejaVuSans-6e" d="M 3513 2113 
L 3513 0 
L 2938 0 
L 2938 2094 
Q 2938 2591 2744 2837 
Q 2550 3084 2163 3084 
Q 1697 3084 1428 2787 
Q 1159 2491 1159 1978 
L 1159 0 
L 581 0 
L 581 3500 
L 1159 3500 
L 1159 2956 
Q 1366 3272 1645 3428 
Q 1925 3584 2291 3584 
Q 2894 3584 3203 3211 
Q 3513 2838 3513 2113 
z
" transform="scale(0.015625)"/>
      <path id="DejaVuSans-67" d="M 2906 1791 
Q 2906 2416 2648 2759 
Q 2391 3103 1925 3103 
Q 1463 3103 1205 2759 
Q 947 2416 947 1791 
Q 947 1169 1205 825 
Q 1463 481 1925 481 
Q 2391 481 2648 825 
Q 2906 1169 2906 1791 
z
M 3481 434 
Q 3481 -459 3084 -895 
Q 2688 -1331 1869 -1331 
Q 1566 -1331 1297 -1286 
Q 1028 -1241 775 -1147 
L 775 -588 
Q 1028 -725 1275 -790 
Q 1522 -856 1778 -856 
Q 2344 -856 2625 -561 
Q 2906 -266 2906 331 
L 2906 616 
Q 2728 306 2450 153 
Q 2172 0 1784 0 
Q 1141 0 747 490 
Q 353 981 353 1791 
Q 353 2603 747 3093 
Q 1141 3584 1784 3584 
Q 2172 3584 2450 3431 
Q 2728 3278 2906 2969 
L 2906 3500 
L 3481 3500 
L 3481 434 
z
" transform="scale(0.015625)"/>
      <path id="DejaVuSans-20" transform="scale(0.015625)"/>
      <path id="DejaVuSans-53" d="M 3425 4513 
L 3425 3897 
Q 3066 4069 2747 4153 
Q 2428 4238 2131 4238 
Q 1616 4238 1336 4038 
Q 1056 3838 1056 3469 
Q 1056 3159 1242 3001 
Q 1428 2844 1947 2747 
L 2328 2669 
Q 3034 2534 3370 2195 
Q 3706 1856 3706 1288 
Q 3706 609 3251 259 
Q 2797 -91 1919 -91 
Q 1588 -91 1214 -16 
Q 841 59 441 206 
L 441 856 
Q 825 641 1194 531 
Q 1563 422 1919 422 
Q 2459 422 2753 634 
Q 3047 847 3047 1241 
Q 3047 1584 2836 1778 
Q 2625 1972 2144 2069 
L 1759 2144 
Q 1053 2284 737 2584 
Q 422 2884 422 3419 
Q 422 4038 858 4394 
Q 1294 4750 2059 4750 
Q 2388 4750 2728 4690 
Q 3069 4631 3425 4513 
z
" transform="scale(0.015625)"/>
      <path id="DejaVuSans-74" d="M 1172 4494 
L 1172 3500 
L 2356 3500 
L 2356 3053 
L 1172 3053 
L 1172 1153 
Q 1172 725 1289 603 
Q 1406 481 1766 481 
L 2356 481 
L 2356 0 
L 1766 0 
Q 1100 0 847 248 
Q 594 497 594 1153 
L 594 3053 
L 172 3053 
L 172 3500 
L 594 3500 
L 594 4494 
L 1172 4494 
z
" transform="scale(0.015625)"/>
      <path id="DejaVuSans-61" d="M 2194 1759 
Q 1497 1759 1228 1600 
Q 959 1441 959 1056 
Q 959 750 1161 570 
Q 1363 391 1709 391 
Q 2188 391 2477 730 
Q 2766 1069 2766 1631 
L 2766 1759 
L 2194 1759 
z
M 3341 1997 
L 3341 0 
L 2766 0 
L 2766 531 
Q 2569 213 2275 61 
Q 1981 -91 1556 -91 
Q 1019 -91 701 211 
Q 384 513 384 1019 
Q 384 1609 779 1909 
Q 1175 2209 1959 2209 
L 2766 2209 
L 2766 2266 
Q 2766 2663 2505 2880 
Q 2244 3097 1772 3097 
Q 1472 3097 1187 3025 
Q 903 2953 641 2809 
L 641 3341 
Q 956 3463 1253 3523 
Q 1550 3584 1831 3584 
Q 2591 3584 2966 3190 
Q 3341 2797 3341 1997 
z
" transform="scale(0.015625)"/>
      <path id="DejaVuSans-64" d="M 2906 2969 
L 2906 4863 
L 3481 4863 
L 3481 0 
L 2906 0 
L 2906 525 
Q 2725 213 2448 61 
Q 2172 -91 1784 -91 
Q 1150 -91 751 415 
Q 353 922 353 1747 
Q 353 2572 751 3078 
Q 1150 3584 1784 3584 
Q 2172 3584 2448 3432 
Q 2725 3281 2906 2969 
z
M 947 1747 
Q 947 1113 1208 752 
Q 1469 391 1925 391 
Q 2381 391 2643 752 
Q 2906 1113 2906 1747 
Q 2906 2381 2643 2742 
Q 2381 3103 1925 3103 
Q 1469 3103 1208 2742 
Q 947 2381 947 1747 
z
" transform="scale(0.015625)"/>
      <path id="DejaVuSans-72" d="M 2631 2963 
Q 2534 3019 2420 3045 
Q 2306 3072 2169 3072 
Q 1681 3072 1420 2755 
Q 1159 2438 1159 1844 
L 1159 0 
L 581 0 
L 581 3500 
L 1159 3500 
L 1159 2956 
Q 1341 3275 1631 3429 
Q 1922 3584 2338 3584 
Q 2397 3584 2469 3576 
Q 2541 3569 2628 3553 
L 2631 2963 
z
" transform="scale(0.015625)"/>
      <path id="DejaVuSans-44" d="M 1259 4147 
L 1259 519 
L 2022 519 
Q 2988 519 3436 956 
Q 3884 1394 3884 2338 
Q 3884 3275 3436 3711 
Q 2988 4147 2022 4147 
L 1259 4147 
z
M 628 4666 
L 1925 4666 
Q 3281 4666 3915 4102 
Q 4550 3538 4550 2338 
Q 4550 1131 3912 565 
Q 3275 0 1925 0 
L 628 0 
L 628 4666 
z
" transform="scale(0.015625)"/>
      <path id="DejaVuSans-65" d="M 3597 1894 
L 3597 1613 
L 953 1613 
Q 991 1019 1311 708 
Q 1631 397 2203 397 
Q 2534 397 2845 478 
Q 3156 559 3463 722 
L 3463 178 
Q 3153 47 2828 -22 
Q 2503 -91 2169 -91 
Q 1331 -91 842 396 
Q 353 884 353 1716 
Q 353 2575 817 3079 
Q 1281 3584 2069 3584 
Q 2775 3584 3186 3129 
Q 3597 2675 3597 1894 
z
M 3022 2063 
Q 3016 2534 2758 2815 
Q 2500 3097 2075 3097 
Q 1594 3097 1305 2825 
Q 1016 2553 972 2059 
L 3022 2063 
z
" transform="scale(0.015625)"/>
      <path id="DejaVuSans-76" d="M 191 3500 
L 800 3500 
L 1894 563 
L 2988 3500 
L 3597 3500 
L 2284 0 
L 1503 0 
L 191 3500 
z
" transform="scale(0.015625)"/>
     </defs>
     <use xlink:href="#DejaVuSans-52"/>
     <use xlink:href="#DejaVuSans-6f" x="64.982422"/>
     <use xlink:href="#DejaVuSans-6c" x="126.164062"/>
     <use xlink:href="#DejaVuSans-6c" x="153.947266"/>
     <use xlink:href="#DejaVuSans-69" x="181.730469"/>
     <use xlink:href="#DejaVuSans-6e" x="209.513672"/>
     <use xlink:href="#DejaVuSans-67" x="272.892578"/>
     <use xlink:href="#DejaVuSans-20" x="336.369141"/>
     <use xlink:href="#DejaVuSans-53" x="368.15625"/>
     <use xlink:href="#DejaVuSans-74" x="431.632812"/>
     <use xlink:href="#DejaVuSans-61" x="470.841797"/>
     <use xlink:href="#DejaVuSans-6e" x="532.121094"/>
     <use xlink:href="#DejaVuSans-64" x="595.5"/>
     <use xlink:href="#DejaVuSans-61" x="658.976562"/>
     <use xlink:href="#DejaVuSans-72" x="720.255859"/>
     <use xlink:href="#DejaVuSans-64" x="759.619141"/>
     <use xlink:href="#DejaVuSans-20" x="823.095703"/>
     <use xlink:href="#DejaVuSans-44" x="854.882812"/>
     <use xlink:href="#DejaVuSans-65" x="931.884766"/>
     <use xlink:href="#DejaVuSans-76" x="993.408203"/>
     <use xlink:href="#DejaVuSans-69" x="1052.587891"/>
     <use xlink:href="#DejaVuSans-61" x="1080.371094"/>
     <use xlink:href="#DejaVuSans-74" x="1141.650391"/>
     <use xlink:href="#DejaVuSans-69" x="1180.859375"/>
     <use xlink:href="#DejaVuSans-6f" x="1208.642578"/>
     <use xlink:href="#DejaVuSans-6e" x="1269.824219"/>
    </g>
   </g>
  </g>
 </g>
 <defs>
  <clipPath id="pca22da8866">
   <rect x="20.5625" y="22.318125" width="669.6" height="326.16"/>
  </clipPath>
 </defs>
</svg>
