<?xml version="1.0" encoding="utf-8" standalone="no"?>
<!DOCTYPE svg PUBLIC "-//W3C//DTD SVG 1.1//EN"
  "http://www.w3.org/Graphics/SVG/1.1/DTD/svg11.dtd">
<svg xmlns:xlink="http://www.w3.org/1999/xlink" width="710.0875pt" height="372.35625pt" viewBox="0 0 710.0875 372.35625" xmlns="http://www.w3.org/2000/svg" version="1.1">
 <metadata>
  <rdf:RDF xmlns:dc="http://purl.org/dc/elements/1.1/" xmlns:cc="http://creativecommons.org/ns#" xmlns:rdf="http://www.w3.org/1999/02/22-rdf-syntax-ns#">
   <cc:Work>
    <dc:type rdf:resource="http://purl.org/dc/dcmitype/StillImage"/>
    <dc:date>2022-07-20T17:41:13.206499</dc:date>
    <dc:format>image/svg+xml</dc:format>
    <dc:creator>
     <cc:Agent>
      <dc:title>Matplotlib v3.5.1, https://matplotlib.org/</dc:title>
     </cc:Agent>
    </dc:creator>
   </cc:Work>
  </rdf:RDF>
 </metadata>
 <defs>
  <style type="text/css">*{stroke-linejoin: round; stroke-linecap: butt}</style>
 </defs>
 <g id="figure_1">
  <g id="patch_1">
   <path d="M 0 372.35625 
L 710.0875 372.35625 
L 710.0875 0 
L 0 0 
z
"/>
  </g>
  <g id="axes_1">
   <g id="patch_2">
    <path d="M 33.2875 348.478125 
L 702.8875 348.478125 
L 702.8875 22.318125 
L 33.2875 22.318125 
z
"/>
   </g>
   <g id="matplotlib.axis_1">
    <g id="xtick_1">
     <g id="line2d_1">
      <defs>
       <path id="mbc909d2d13" d="M 0 0 
L 0 3.5 
" style="stroke: #ffffff; stroke-width: 0.8"/>
      </defs>
      <g>
       <use xlink:href="#mbc909d2d13" x="77.795859" y="348.478125" style="fill: #ffffff; stroke: #ffffff; stroke-width: 0.8"/>
      </g>
     </g>
     <g id="text_1">
      <!-- 2018-07 -->
      <g style="fill: #ffffff" transform="translate(56.904453 363.076563)scale(0.1 -0.1)">
       <defs>
        <path id="DejaVuSans-32" d="M 1228 531 
L 3431 531 
L 3431 0 
L 469 0 
L 469 531 
Q 828 903 1448 1529 
Q 2069 2156 2228 2338 
Q 2531 2678 2651 2914 
Q 2772 3150 2772 3378 
Q 2772 3750 2511 3984 
Q 2250 4219 1831 4219 
Q 1534 4219 1204 4116 
Q 875 4013 500 3803 
L 500 4441 
Q 881 4594 1212 4672 
Q 1544 4750 1819 4750 
Q 2544 4750 2975 4387 
Q 3406 4025 3406 3419 
Q 3406 3131 3298 2873 
Q 3191 2616 2906 2266 
Q 2828 2175 2409 1742 
Q 1991 1309 1228 531 
z
" transform="scale(0.015625)"/>
        <path id="DejaVuSans-30" d="M 2034 4250 
Q 1547 4250 1301 3770 
Q 1056 3291 1056 2328 
Q 1056 1369 1301 889 
Q 1547 409 2034 409 
Q 2525 409 2770 889 
Q 3016 1369 3016 2328 
Q 3016 3291 2770 3770 
Q 2525 4250 2034 4250 
z
M 2034 4750 
Q 2819 4750 3233 4129 
Q 3647 3509 3647 2328 
Q 3647 1150 3233 529 
Q 2819 -91 2034 -91 
Q 1250 -91 836 529 
Q 422 1150 422 2328 
Q 422 3509 836 4129 
Q 1250 4750 2034 4750 
z
" transform="scale(0.015625)"/>
        <path id="DejaVuSans-31" d="M 794 531 
L 1825 531 
L 1825 4091 
L 703 3866 
L 703 4441 
L 1819 4666 
L 2450 4666 
L 2450 531 
L 3481 531 
L 3481 0 
L 794 0 
L 794 531 
z
" transform="scale(0.015625)"/>
        <path id="DejaVuSans-38" d="M 2034 2216 
Q 1584 2216 1326 1975 
Q 1069 1734 1069 1313 
Q 1069 891 1326 650 
Q 1584 409 2034 409 
Q 2484 409 2743 651 
Q 3003 894 3003 1313 
Q 3003 1734 2745 1975 
Q 2488 2216 2034 2216 
z
M 1403 2484 
Q 997 2584 770 2862 
Q 544 3141 544 3541 
Q 544 4100 942 4425 
Q 1341 4750 2034 4750 
Q 2731 4750 3128 4425 
Q 3525 4100 3525 3541 
Q 3525 3141 3298 2862 
Q 3072 2584 2669 2484 
Q 3125 2378 3379 2068 
Q 3634 1759 3634 1313 
Q 3634 634 3220 271 
Q 2806 -91 2034 -91 
Q 1263 -91 848 271 
Q 434 634 434 1313 
Q 434 1759 690 2068 
Q 947 2378 1403 2484 
z
M 1172 3481 
Q 1172 3119 1398 2916 
Q 1625 2713 2034 2713 
Q 2441 2713 2670 2916 
Q 2900 3119 2900 3481 
Q 2900 3844 2670 4047 
Q 2441 4250 2034 4250 
Q 1625 4250 1398 4047 
Q 1172 3844 1172 3481 
z
" transform="scale(0.015625)"/>
        <path id="DejaVuSans-2d" d="M 313 2009 
L 1997 2009 
L 1997 1497 
L 313 1497 
L 313 2009 
z
" transform="scale(0.015625)"/>
        <path id="DejaVuSans-37" d="M 525 4666 
L 3525 4666 
L 3525 4397 
L 1831 0 
L 1172 0 
L 2766 4134 
L 525 4134 
L 525 4666 
z
" transform="scale(0.015625)"/>
       </defs>
       <use xlink:href="#DejaVuSans-32"/>
       <use xlink:href="#DejaVuSans-30" x="63.623047"/>
       <use xlink:href="#DejaVuSans-31" x="127.246094"/>
       <use xlink:href="#DejaVuSans-38" x="190.869141"/>
       <use xlink:href="#DejaVuSans-2d" x="254.492188"/>
       <use xlink:href="#DejaVuSans-30" x="290.576172"/>
       <use xlink:href="#DejaVuSans-37" x="354.199219"/>
      </g>
     </g>
    </g>
    <g id="xtick_2">
     <g id="line2d_2">
      <g>
       <use xlink:href="#mbc909d2d13" x="161.319959" y="348.478125" style="fill: #ffffff; stroke: #ffffff; stroke-width: 0.8"/>
      </g>
     </g>
     <g id="text_2">
      <!-- 2019-01 -->
      <g style="fill: #ffffff" transform="translate(140.428553 363.076563)scale(0.1 -0.1)">
       <defs>
        <path id="DejaVuSans-39" d="M 703 97 
L 703 672 
Q 941 559 1184 500 
Q 1428 441 1663 441 
Q 2288 441 2617 861 
Q 2947 1281 2994 2138 
Q 2813 1869 2534 1725 
Q 2256 1581 1919 1581 
Q 1219 1581 811 2004 
Q 403 2428 403 3163 
Q 403 3881 828 4315 
Q 1253 4750 1959 4750 
Q 2769 4750 3195 4129 
Q 3622 3509 3622 2328 
Q 3622 1225 3098 567 
Q 2575 -91 1691 -91 
Q 1453 -91 1209 -44 
Q 966 3 703 97 
z
M 1959 2075 
Q 2384 2075 2632 2365 
Q 2881 2656 2881 3163 
Q 2881 3666 2632 3958 
Q 2384 4250 1959 4250 
Q 1534 4250 1286 3958 
Q 1038 3666 1038 3163 
Q 1038 2656 1286 2365 
Q 1534 2075 1959 2075 
z
" transform="scale(0.015625)"/>
       </defs>
       <use xlink:href="#DejaVuSans-32"/>
       <use xlink:href="#DejaVuSans-30" x="63.623047"/>
       <use xlink:href="#DejaVuSans-31" x="127.246094"/>
       <use xlink:href="#DejaVuSans-39" x="190.869141"/>
       <use xlink:href="#DejaVuSans-2d" x="254.492188"/>
       <use xlink:href="#DejaVuSans-30" x="290.576172"/>
       <use xlink:href="#DejaVuSans-31" x="354.199219"/>
      </g>
     </g>
    </g>
    <g id="xtick_3">
     <g id="line2d_3">
      <g>
       <use xlink:href="#mbc909d2d13" x="243.482253" y="348.478125" style="fill: #ffffff; stroke: #ffffff; stroke-width: 0.8"/>
      </g>
     </g>
     <g id="text_3">
      <!-- 2019-07 -->
      <g style="fill: #ffffff" transform="translate(222.590847 363.076563)scale(0.1 -0.1)">
       <use xlink:href="#DejaVuSans-32"/>
       <use xlink:href="#DejaVuSans-30" x="63.623047"/>
       <use xlink:href="#DejaVuSans-31" x="127.246094"/>
       <use xlink:href="#DejaVuSans-39" x="190.869141"/>
       <use xlink:href="#DejaVuSans-2d" x="254.492188"/>
       <use xlink:href="#DejaVuSans-30" x="290.576172"/>
       <use xlink:href="#DejaVuSans-37" x="354.199219"/>
      </g>
     </g>
    </g>
    <g id="xtick_4">
     <g id="line2d_4">
      <g>
       <use xlink:href="#mbc909d2d13" x="327.006353" y="348.478125" style="fill: #ffffff; stroke: #ffffff; stroke-width: 0.8"/>
      </g>
     </g>
     <g id="text_4">
      <!-- 2020-01 -->
      <g style="fill: #ffffff" transform="translate(306.114947 363.076563)scale(0.1 -0.1)">
       <use xlink:href="#DejaVuSans-32"/>
       <use xlink:href="#DejaVuSans-30" x="63.623047"/>
       <use xlink:href="#DejaVuSans-32" x="127.246094"/>
       <use xlink:href="#DejaVuSans-30" x="190.869141"/>
       <use xlink:href="#DejaVuSans-2d" x="254.492188"/>
       <use xlink:href="#DejaVuSans-30" x="290.576172"/>
       <use xlink:href="#DejaVuSans-31" x="354.199219"/>
      </g>
     </g>
    </g>
    <g id="xtick_5">
     <g id="line2d_5">
      <g>
       <use xlink:href="#mbc909d2d13" x="409.622582" y="348.478125" style="fill: #ffffff; stroke: #ffffff; stroke-width: 0.8"/>
      </g>
     </g>
     <g id="text_5">
      <!-- 2020-07 -->
      <g style="fill: #ffffff" transform="translate(388.731176 363.076563)scale(0.1 -0.1)">
       <use xlink:href="#DejaVuSans-32"/>
       <use xlink:href="#DejaVuSans-30" x="63.623047"/>
       <use xlink:href="#DejaVuSans-32" x="127.246094"/>
       <use xlink:href="#DejaVuSans-30" x="190.869141"/>
       <use xlink:href="#DejaVuSans-2d" x="254.492188"/>
       <use xlink:href="#DejaVuSans-30" x="290.576172"/>
       <use xlink:href="#DejaVuSans-37" x="354.199219"/>
      </g>
     </g>
    </g>
    <g id="xtick_6">
     <g id="line2d_6">
      <g>
       <use xlink:href="#mbc909d2d13" x="493.146682" y="348.478125" style="fill: #ffffff; stroke: #ffffff; stroke-width: 0.8"/>
      </g>
     </g>
     <g id="text_6">
      <!-- 2021-01 -->
      <g style="fill: #ffffff" transform="translate(472.255276 363.076563)scale(0.1 -0.1)">
       <use xlink:href="#DejaVuSans-32"/>
       <use xlink:href="#DejaVuSans-30" x="63.623047"/>
       <use xlink:href="#DejaVuSans-32" x="127.246094"/>
       <use xlink:href="#DejaVuSans-31" x="190.869141"/>
       <use xlink:href="#DejaVuSans-2d" x="254.492188"/>
       <use xlink:href="#DejaVuSans-30" x="290.576172"/>
       <use xlink:href="#DejaVuSans-31" x="354.199219"/>
      </g>
     </g>
    </g>
    <g id="xtick_7">
     <g id="line2d_7">
      <g>
       <use xlink:href="#mbc909d2d13" x="575.308977" y="348.478125" style="fill: #ffffff; stroke: #ffffff; stroke-width: 0.8"/>
      </g>
     </g>
     <g id="text_7">
      <!-- 2021-07 -->
      <g style="fill: #ffffff" transform="translate(554.41757 363.076563)scale(0.1 -0.1)">
       <use xlink:href="#DejaVuSans-32"/>
       <use xlink:href="#DejaVuSans-30" x="63.623047"/>
       <use xlink:href="#DejaVuSans-32" x="127.246094"/>
       <use xlink:href="#DejaVuSans-31" x="190.869141"/>
       <use xlink:href="#DejaVuSans-2d" x="254.492188"/>
       <use xlink:href="#DejaVuSans-30" x="290.576172"/>
       <use xlink:href="#DejaVuSans-37" x="354.199219"/>
      </g>
     </g>
    </g>
    <g id="xtick_8">
     <g id="line2d_8">
      <g>
       <use xlink:href="#mbc909d2d13" x="658.833077" y="348.478125" style="fill: #ffffff; stroke: #ffffff; stroke-width: 0.8"/>
      </g>
     </g>
     <g id="text_8">
      <!-- 2022-01 -->
      <g style="fill: #ffffff" transform="translate(637.94167 363.076563)scale(0.1 -0.1)">
       <use xlink:href="#DejaVuSans-32"/>
       <use xlink:href="#DejaVuSans-30" x="63.623047"/>
       <use xlink:href="#DejaVuSans-32" x="127.246094"/>
       <use xlink:href="#DejaVuSans-32" x="190.869141"/>
       <use xlink:href="#DejaVuSans-2d" x="254.492188"/>
       <use xlink:href="#DejaVuSans-30" x="290.576172"/>
       <use xlink:href="#DejaVuSans-31" x="354.199219"/>
      </g>
     </g>
    </g>
   </g>
   <g id="matplotlib.axis_2">
    <g id="ytick_1">
     <g id="line2d_9">
      <defs>
       <path id="mdba909c3b5" d="M 0 0 
L -3.5 0 
" style="stroke: #ffffff; stroke-width: 0.8"/>
      </defs>
      <g>
       <use xlink:href="#mdba909c3b5" x="33.2875" y="290.139442" style="fill: #ffffff; stroke: #ffffff; stroke-width: 0.8"/>
      </g>
     </g>
     <g id="text_9">
      <!-- 80 -->
      <g style="fill: #ffffff" transform="translate(13.5625 293.938661)scale(0.1 -0.1)">
       <use xlink:href="#DejaVuSans-38"/>
       <use xlink:href="#DejaVuSans-30" x="63.623047"/>
      </g>
     </g>
    </g>
    <g id="ytick_2">
     <g id="line2d_10">
      <g>
       <use xlink:href="#mdba909c3b5" x="33.2875" y="228.745294" style="fill: #ffffff; stroke: #ffffff; stroke-width: 0.8"/>
      </g>
     </g>
     <g id="text_10">
      <!-- 100 -->
      <g style="fill: #ffffff" transform="translate(7.2 232.544513)scale(0.1 -0.1)">
       <use xlink:href="#DejaVuSans-31"/>
       <use xlink:href="#DejaVuSans-30" x="63.623047"/>
       <use xlink:href="#DejaVuSans-30" x="127.246094"/>
      </g>
     </g>
    </g>
    <g id="ytick_3">
     <g id="line2d_11">
      <g>
       <use xlink:href="#mdba909c3b5" x="33.2875" y="167.351146" style="fill: #ffffff; stroke: #ffffff; stroke-width: 0.8"/>
      </g>
     </g>
     <g id="text_11">
      <!-- 120 -->
      <g style="fill: #ffffff" transform="translate(7.2 171.150365)scale(0.1 -0.1)">
       <use xlink:href="#DejaVuSans-31"/>
       <use xlink:href="#DejaVuSans-32" x="63.623047"/>
       <use xlink:href="#DejaVuSans-30" x="127.246094"/>
      </g>
     </g>
    </g>
    <g id="ytick_4">
     <g id="line2d_12">
      <g>
       <use xlink:href="#mdba909c3b5" x="33.2875" y="105.956999" style="fill: #ffffff; stroke: #ffffff; stroke-width: 0.8"/>
      </g>
     </g>
     <g id="text_12">
      <!-- 140 -->
      <g style="fill: #ffffff" transform="translate(7.2 109.756217)scale(0.1 -0.1)">
       <defs>
        <path id="DejaVuSans-34" d="M 2419 4116 
L 825 1625 
L 2419 1625 
L 2419 4116 
z
M 2253 4666 
L 3047 4666 
L 3047 1625 
L 3713 1625 
L 3713 1100 
L 3047 1100 
L 3047 0 
L 2419 0 
L 2419 1100 
L 313 1100 
L 313 1709 
L 2253 4666 
z
" transform="scale(0.015625)"/>
       </defs>
       <use xlink:href="#DejaVuSans-31"/>
       <use xlink:href="#DejaVuSans-34" x="63.623047"/>
       <use xlink:href="#DejaVuSans-30" x="127.246094"/>
      </g>
     </g>
    </g>
    <g id="ytick_5">
     <g id="line2d_13">
      <g>
       <use xlink:href="#mdba909c3b5" x="33.2875" y="44.562851" style="fill: #ffffff; stroke: #ffffff; stroke-width: 0.8"/>
      </g>
     </g>
     <g id="text_13">
      <!-- 160 -->
      <g style="fill: #ffffff" transform="translate(7.2 48.36207)scale(0.1 -0.1)">
       <defs>
        <path id="DejaVuSans-36" d="M 2113 2584 
Q 1688 2584 1439 2293 
Q 1191 2003 1191 1497 
Q 1191 994 1439 701 
Q 1688 409 2113 409 
Q 2538 409 2786 701 
Q 3034 994 3034 1497 
Q 3034 2003 2786 2293 
Q 2538 2584 2113 2584 
z
M 3366 4563 
L 3366 3988 
Q 3128 4100 2886 4159 
Q 2644 4219 2406 4219 
Q 1781 4219 1451 3797 
Q 1122 3375 1075 2522 
Q 1259 2794 1537 2939 
Q 1816 3084 2150 3084 
Q 2853 3084 3261 2657 
Q 3669 2231 3669 1497 
Q 3669 778 3244 343 
Q 2819 -91 2113 -91 
Q 1303 -91 875 529 
Q 447 1150 447 2328 
Q 447 3434 972 4092 
Q 1497 4750 2381 4750 
Q 2619 4750 2861 4703 
Q 3103 4656 3366 4563 
z
" transform="scale(0.015625)"/>
       </defs>
       <use xlink:href="#DejaVuSans-31"/>
       <use xlink:href="#DejaVuSans-36" x="63.623047"/>
       <use xlink:href="#DejaVuSans-30" x="127.246094"/>
      </g>
     </g>
    </g>
   </g>
   <g id="line2d_14">
    <path d="M 63.723864 333.65267 
L 64.177799 332.879435 
L 65.539605 330.863418 
L 65.99354 331.443414 
L 66.447476 330.39401 
L 67.355346 322.5788 
L 68.717152 321.612233 
L 69.171088 322.413057 
L 69.625023 324.539477 
L 70.078958 325.865026 
L 70.532894 322.026439 
L 71.8947 326.279279 
L 72.348635 324.926118 
L 72.80257 326.25169 
L 73.256505 324.622337 
L 73.710441 321.888402 
L 75.072247 320.894246 
L 75.526182 320.314296 
L 75.980117 321.170391 
L 76.434053 320.176165 
L 78.249794 319.955291 
L 78.703729 320.590418 
L 79.6116 316.972823 
L 80.065535 316.696654 
L 81.427341 320.700937 
L 81.881277 315.288245 
L 82.335212 317.110837 
L 82.789147 317.85653 
L 83.243083 316.696654 
L 84.604889 316.089093 
L 85.058824 314.708319 
L 85.966695 316.325143 
L 87.782436 316.938255 
L 88.690307 314.263034 
L 89.598177 311.16986 
L 90.959983 312.228843 
L 91.413919 310.33393 
L 91.867854 310.974818 
L 92.321789 307.212839 
L 92.775725 306.293346 
L 94.137531 305.763866 
L 94.591466 305.429452 
L 95.045401 306.237606 
L 95.499336 308.88491 
L 97.315078 308.55052 
L 97.769013 309.135692 
L 98.222948 306.376909 
L 98.676884 302.50352 
L 99.130819 302.50352 
L 100.492625 302.642822 
L 100.94656 301.918324 
L 101.400496 303.339544 
L 101.854431 303.757521 
L 102.308366 303.423083 
L 104.578043 303.060823 
L 105.031978 303.283781 
L 105.485914 304.565558 
L 107.301655 305.262304 
L 107.75559 303.618125 
L 108.663461 307.463691 
L 110.025267 306.153997 
L 110.479202 307.184993 
L 110.933138 304.119735 
L 111.387073 303.172325 
L 111.841008 302.726385 
L 113.202814 300.942975 
L 113.65675 301.63965 
L 114.110685 301.63965 
L 114.56462 297.849824 
L 115.018556 296.568 
L 116.380362 300.887305 
L 116.834297 304.091889 
L 117.288232 303.701758 
L 117.742167 304.816387 
L 118.196103 303.785344 
L 119.557909 302.559236 
L 120.011844 300.636477 
L 120.919715 307.435844 
L 121.37365 306.794885 
L 122.735456 306.09821 
L 123.189391 306.655583 
L 123.643327 308.773408 
L 124.097262 315.935083 
L 124.551197 315.405603 
L 125.913003 312.423908 
L 126.820874 307.60304 
L 127.274809 310.141628 
L 127.728745 290.294154 
L 129.090551 292.262067 
L 129.544486 290.687774 
L 129.998421 284.221861 
L 130.452357 285.515091 
L 130.906292 288.719885 
L 132.268098 287.651628 
L 132.722033 284.980904 
L 133.175969 286.4147 
L 133.629904 283.856462 
L 134.083839 283.23801 
L 135.445645 279.330358 
L 135.899581 278.45883 
L 136.353516 279.077329 
L 136.807451 278.880507 
L 137.261387 275.928696 
L 138.623192 275.113469 
L 139.077128 272.948781 
L 139.531063 272.892596 
L 139.984998 271.936755 
L 140.438934 271.964859 
L 141.80074 273.454817 
L 142.254675 276.800225 
L 142.70861 278.739963 
L 143.616481 278.374518 
L 144.978287 277.249982 
L 145.432222 275.057237 
L 145.886158 274.241963 
L 146.340093 274.776103 
L 146.794028 270.025097 
L 148.155834 273.370505 
L 148.60977 273.398609 
L 149.51764 272.723878 
L 149.971576 275.816233 
L 151.333382 274.185732 
L 151.787317 271.711853 
L 152.241252 271.374464 
L 152.695188 264.458817 
L 153.149123 264.037163 
L 154.510929 274.916647 
L 154.964864 275.703817 
L 155.872735 279.948764 
L 156.32667 279.976891 
L 157.688476 290.12553 
L 158.596347 282.45084 
L 159.050282 277.02515 
L 159.504218 279.386543 
L 160.866023 277.30619 
L 161.773894 279.105409 
L 162.227829 280.904581 
L 162.681765 275.703817 
L 164.043571 276.743946 
L 164.497506 275.788129 
L 164.951441 280.033123 
L 165.405377 279.414647 
L 165.859312 277.727891 
L 167.221118 279.470855 
L 167.675053 277.053278 
L 168.128989 278.852379 
L 168.582924 278.889266 
L 169.036859 276.679166 
L 170.852601 279.45596 
L 171.306536 266.988646 
L 171.760471 268.518675 
L 172.214407 270.502186 
L 173.576213 270.728868 
L 174.030148 270.672145 
L 174.484083 267.895399 
L 174.938019 262.37008 
L 175.391954 259.536563 
L 176.75376 257.949834 
L 177.207695 259.621578 
L 177.661631 258.261555 
L 178.115566 260.47163 
L 178.569501 258.856563 
L 179.931307 257.269787 
L 180.385243 254.464609 
L 180.839178 254.521332 
L 181.293113 256.731432 
L 181.747049 256.674732 
L 183.56279 252.396224 
L 184.016725 254.408003 
L 184.924596 251.659501 
L 186.286402 253.586288 
L 186.740337 252.849542 
L 187.194272 255.456376 
L 187.648208 256.476435 
L 188.102143 256.788108 
L 189.463949 255.569682 
L 189.917884 254.946382 
L 190.37182 255.399676 
L 190.825755 256.476435 
L 191.27969 256.873099 
L 193.095432 252.226171 
L 193.549367 249.024352 
L 194.003302 248.627664 
L 194.457238 245.454182 
L 195.819044 248.089285 
L 196.272979 246.984258 
L 196.726914 247.494276 
L 197.18085 245.312515 
L 197.634785 247.664235 
L 198.996591 246.814252 
L 199.450526 243.810753 
L 199.904462 244.150765 
L 200.812332 240.892222 
L 202.174138 242.053995 
L 202.628074 241.742322 
L 203.082009 241.912327 
L 203.535944 242.649051 
L 203.989879 242.025633 
L 205.351685 238.285435 
L 205.805621 239.163802 
L 206.259556 239.19214 
L 206.713491 238.908828 
L 207.167427 238.030484 
L 208.529233 236.132012 
L 208.983168 234.176909 
L 209.891039 233.104015 
L 211.70678 233.218118 
L 212.160715 241.350552 
L 212.614651 239.838228 
L 213.068586 241.008151 
L 213.522521 233.646165 
L 214.884327 236.727934 
L 215.338263 231.876971 
L 215.792198 236.299933 
L 216.700069 233.018415 
L 218.061875 234.159766 
L 218.51581 236.956185 
L 218.969745 235.900388 
L 219.423681 238.26883 
L 219.877616 233.218118 
L 221.239422 232.932792 
L 221.693357 234.388088 
L 222.147293 231.249197 
L 222.601228 227.22578 
L 223.055163 229.109101 
L 224.416969 229.451524 
L 224.870905 232.190893 
L 225.32484 231.192146 
L 225.778775 231.078021 
L 226.23271 231.27777 
L 228.048452 237.641033 
L 228.502387 238.411458 
L 228.956322 235.158512 
L 229.410258 242.063925 
L 230.772064 239.524306 
L 231.225999 237.013307 
L 231.679934 231.163597 
L 232.13387 229.30892 
L 232.587805 225.342531 
L 233.949611 225.485205 
L 234.403546 223.601885 
L 234.857482 222.745837 
L 235.311417 219.236021 
L 235.765352 218.408545 
L 237.127158 219.007817 
L 237.581094 222.974136 
L 238.035029 220.634242 
L 238.488964 216.867696 
L 238.9429 218.408545 
L 240.304706 215.184079 
L 240.758641 216.924747 
L 241.212576 222.603163 
L 241.666512 222.460511 
L 242.120447 222.831461 
L 243.482253 220.434517 
L 243.936188 217.609572 
L 244.390124 210.190535 
L 245.297994 212.844279 
L 246.6598 210.276158 
L 247.113736 213.529127 
L 247.567671 211.132183 
L 248.475541 207.593864 
L 249.837347 206.195643 
L 250.291283 205.02572 
L 250.745218 204.883045 
L 251.199153 204.176534 
L 251.653089 205.411448 
L 253.014895 204.578562 
L 253.922765 212.332927 
L 254.376701 211.84469 
L 254.830636 206.215597 
L 256.192442 202.568258 
L 256.646377 189.902882 
L 257.100313 196.709415 
L 257.554248 200.471699 
L 258.008183 201.304585 
L 259.369989 210.954378 
L 260.27786 203.946784 
L 260.731795 198.432589 
L 261.185731 200.328111 
L 262.547537 202.482073 
L 263.001472 198.978252 
L 263.455407 203.171347 
L 264.363278 193.435392 
L 265.725084 190.391095 
L 266.179019 194.239541 
L 267.08689 192.746141 
L 267.540825 198.777238 
L 268.902631 193.033294 
L 269.356567 189.50076 
L 269.810502 187.059622 
L 270.264437 187.691494 
L 270.718372 190.419832 
L 272.534114 187.174498 
L 272.988049 181.861388 
L 273.441984 183.153727 
L 273.89592 182.837791 
L 275.257726 184.848211 
L 275.711661 191.424995 
L 276.619532 183.125061 
L 277.073467 184.991776 
L 278.435273 191.798404 
L 278.889208 187.748873 
L 279.343144 187.030886 
L 279.797079 185.623625 
L 282.066756 180.712613 
L 282.520691 182.407074 
L 282.974626 178.702216 
L 283.428562 177.955492 
L 284.790368 178.501155 
L 285.244303 180.023315 
L 285.698238 187.978624 
L 286.152174 186.083172 
L 286.606109 179.592527 
L 287.967915 182.924024 
L 288.42185 188.409458 
L 288.875786 185.393898 
L 289.329721 185.508773 
L 289.783656 187.949911 
L 291.145462 190.936758 
L 291.599397 199.121887 
L 292.053333 198.17415 
L 292.507268 198.619223 
L 292.961203 196.191365 
L 294.323009 191.537973 
L 294.776945 182.57804 
L 295.23088 180.207958 
L 295.684815 175.034291 
L 296.138751 179.485404 
L 297.500557 178.820627 
L 297.954492 178.473777 
L 298.408427 174.600787 
L 298.862363 175.843569 
L 299.316298 177.693375 
L 300.678104 191.566873 
L 301.132039 192.058249 
L 301.585975 187.953986 
L 302.03991 189.977217 
L 302.493845 189.746014 
L 303.855651 190.815396 
L 304.309587 190.988844 
L 304.763522 187.000206 
L 305.217457 187.433734 
L 305.671393 187.318132 
L 307.033199 183.416195 
L 307.487134 184.774649 
L 307.941069 182.260137 
L 308.395005 187.896185 
L 308.84894 188.04071 
L 310.210746 187.40481 
L 310.664681 182.346791 
L 311.118617 183.791922 
L 312.026487 182.924867 
L 313.842228 180.352483 
L 314.296164 175.785792 
L 314.750099 175.525666 
L 315.204034 176.768472 
L 316.56584 174.803089 
L 317.019776 176.537294 
L 317.473711 175.410065 
L 317.927646 175.670168 
L 318.381582 173.068931 
L 319.743388 172.808805 
L 320.197323 173.531382 
L 320.651258 177.288795 
L 321.105194 174.658611 
L 321.559129 173.386787 
L 322.920935 174.716341 
L 323.37487 173.791485 
L 324.282741 173.791485 
L 324.736676 171.276925 
L 326.098482 175.959217 
L 326.552418 174.716341 
L 327.914224 181.421888 
L 329.27603 180.930559 
L 329.729965 183.127192 
L 330.1839 181.62419 
L 330.637836 177.751246 
L 331.091771 177.404372 
L 332.453577 174.774165 
L 332.907512 175.323364 
L 333.361448 171.652699 
L 333.815383 171.334726 
L 334.269318 170.352022 
L 336.085059 171.276925 
L 336.538995 170.641072 
L 336.99293 172.309935 
L 337.446865 171.873808 
L 338.808671 170.274689 
L 339.262607 169.286131 
L 339.716542 172.106415 
L 340.170477 169.518762 
L 340.624413 173.38571 
L 341.986219 171.961024 
L 342.440154 170.361929 
L 342.894089 167.018301 
L 343.348025 166.058854 
L 343.80196 169.140763 
L 345.163766 168.879091 
L 345.617701 174.723133 
L 346.071637 176.787489 
L 346.979507 168.966307 
L 348.795249 172.658823 
L 349.249184 171.001576 
L 349.703119 167.687036 
L 350.157055 167.338125 
L 351.518861 177.223547 
L 351.972796 182.660548 
L 352.426731 186.353041 
L 352.880667 205.716915 
L 353.334602 206.501907 
L 354.696408 188.097574 
L 355.150343 192.13893 
L 355.604279 173.734574 
L 356.058214 182.0791 
L 356.512149 181.991837 
L 357.873955 198.273778 
L 358.32789 185.219114 
L 359.235761 239.618174 
L 359.689696 204.059645 
L 361.051502 220.254276 
L 361.505438 191.935457 
L 361.959373 194.232351 
L 362.413308 213.479875 
L 362.867244 237.902752 
L 364.22905 251.655121 
L 364.682985 235.460466 
L 365.13692 242.293043 
L 365.590856 223.510711 
L 366.044791 215.39877 
L 367.406597 201.355664 
L 367.860532 215.893072 
L 368.314468 217.841079 
L 368.768403 203.100127 
L 369.222338 201.123057 
L 370.584144 193.185641 
L 371.03808 207.839376 
L 371.492015 201.064952 
L 371.94595 202.344199 
L 373.761692 198.593579 
L 374.215627 184.027106 
L 375.123498 182.457099 
L 375.577433 173.18219 
L 376.939239 185.07377 
L 377.393174 187.748639 
L 377.84711 188.562742 
L 378.301045 186.24758 
L 378.75498 188.062233 
L 380.116786 191.95499 
L 380.570721 193.594039 
L 381.024657 193.037931 
L 381.478592 190.72572 
L 381.932527 193.798964 
L 383.294333 196.872161 
L 383.748269 196.169678 
L 384.202204 204.686879 
L 384.656139 207.40887 
L 385.110075 196.345305 
L 386.471881 198.218484 
L 387.379751 202.286844 
L 387.833687 202.608799 
L 388.287622 200.267266 
L 389.649428 195.584318 
L 390.103363 206.618608 
L 390.557299 204.160046 
L 391.011234 209.018668 
L 391.465169 206.150325 
L 393.280911 207.818626 
L 394.188781 196.023326 
L 394.642717 196.43313 
L 396.004523 192.540373 
L 396.458458 190.169589 
L 396.912393 188.793991 
L 397.366329 196.052601 
L 397.820264 189.379304 
L 399.18207 187.271995 
L 399.636005 189.350076 
L 400.089941 186.745139 
L 400.543876 195.437967 
L 400.997811 197.311146 
L 402.359617 194.179422 
L 402.813552 189.964757 
L 403.267488 190.55007 
L 403.721423 186.59881 
L 405.537164 191.07695 
L 405.9911 191.1355 
L 406.445035 194.969684 
L 406.89897 190.66717 
L 407.352906 198.452614 
L 408.714712 191.340378 
L 409.168647 185.750022 
L 409.622582 184.550005 
L 410.076518 181.915816 
L 411.892259 179.720682 
L 412.80013 176.032827 
L 413.254065 177.232821 
L 413.708 173.105958 
L 415.069806 172.637651 
L 415.523742 169.593729 
L 415.977677 171.320557 
L 416.431612 170.55957 
L 416.885548 168.013183 
L 418.701289 169.652209 
L 419.60916 164.131809 
L 420.063095 164.720892 
L 421.424901 163.660528 
L 421.878836 159.065803 
L 422.332772 157.799272 
L 422.786707 148.639285 
L 423.240642 149.522922 
L 424.602448 149.022226 
L 425.056383 141.658882 
L 425.510319 142.68969 
L 425.964254 144.839764 
L 426.418189 142.365697 
L 427.779995 140.745735 
L 428.233931 143.308259 
L 428.687866 136.740211 
L 429.141801 135.797603 
L 429.595737 137.800435 
L 430.957543 136.622362 
L 431.411478 133.647505 
L 431.865413 135.827018 
L 432.319349 132.64616 
L 432.773284 130.908395 
L 434.13509 127.756858 
L 434.589025 126.136943 
L 435.042961 128.110266 
L 435.496896 128.640401 
L 435.950831 126.991024 
L 437.766573 128.728835 
L 438.220508 121.866257 
L 438.674443 128.493183 
L 439.128379 129.376773 
L 440.94412 135.326345 
L 441.398055 128.817222 
L 441.851991 133.087955 
L 442.305926 128.846685 
L 443.667732 127.403403 
L 444.121667 127.403403 
L 444.575603 130.142607 
L 445.483473 131.114538 
L 446.845279 133.058445 
L 447.299214 129.376773 
L 447.75315 134.236612 
L 448.66102 130.378213 
L 450.022826 129.229508 
L 450.476762 131.438577 
L 450.930697 126.343086 
L 451.384632 125.606761 
L 451.838568 128.905563 
L 453.200374 125.164919 
L 453.654309 124.516981 
L 455.016115 114.767887 
L 456.377921 110.1437 
L 456.831856 110.968412 
L 457.739727 112.087561 
L 458.193662 110.43823 
L 459.555468 117.74265 
L 460.009404 116.063763 
L 460.463339 113.79591 
L 460.917274 116.784256 
L 461.37121 114.029923 
L 462.733016 117.228534 
L 463.186951 114.089175 
L 463.640886 128.009045 
L 464.094822 128.275611 
L 464.548757 129.66765 
L 465.910563 125.521278 
L 466.364498 117.46545 
L 466.818433 119.183214 
L 467.272369 114.029923 
L 467.726304 111.512459 
L 469.08811 127.031681 
L 469.995981 114.948034 
L 470.449916 114.711117 
L 470.903851 108.402703 
L 472.719593 115.510723 
L 473.173528 121.967245 
L 473.627463 122.470775 
L 474.081399 123.151875 
L 475.443205 124.751275 
L 475.89714 126.083967 
L 476.351075 124.988191 
L 477.258946 125.195412 
L 478.620752 124.425455 
L 479.074687 122.944561 
L 479.982558 128.956806 
L 480.436493 128.571828 
L 481.798299 127.949839 
L 482.252235 126.854017 
L 482.70617 131.711233 
L 483.160105 134.376758 
L 483.614041 131.415017 
L 484.975847 133.369744 
L 486.791588 123.921972 
L 488.153394 128.423673 
L 488.607329 131.296558 
L 489.061264 131.918547 
L 489.5152 127.831427 
L 491.330941 124.988191 
L 491.784876 125.758241 
L 492.238812 127.683226 
L 492.692747 123.625756 
L 494.508488 127.535211 
L 494.962424 124.928939 
L 495.416359 120.604809 
L 495.870294 124.484708 
L 496.32423 124.662372 
L 497.686036 127.446356 
L 498.139971 129.815758 
L 498.593906 129.193769 
L 499.047842 133.517899 
L 499.501777 136.538752 
L 501.317518 140.033533 
L 501.771454 144.979581 
L 502.225389 145.363974 
L 502.679324 148.373281 
L 504.495066 139.166524 
L 504.949001 153.200168 
L 505.402936 147.300668 
L 505.856872 153.70672 
L 507.218678 151.442262 
L 507.672613 151.978581 
L 508.126548 151.501843 
L 508.580484 151.263474 
L 509.034419 149.654473 
L 510.396225 150.846364 
L 511.304095 153.676906 
L 511.758031 153.349143 
L 512.211966 155.464672 
L 514.027707 154.570801 
L 514.481643 152.961776 
L 514.935578 149.77368 
L 515.389513 156.954442 
L 516.751319 158.563397 
L 517.205255 155.762598 
L 517.65919 155.345464 
L 518.113125 158.563397 
L 518.567061 167.651063 
L 519.928867 165.386582 
L 520.382802 166.548613 
L 520.836737 168.753466 
L 521.290673 171.76282 
L 521.744608 160.351117 
L 523.106414 156.388334 
L 523.560349 159.755218 
L 524.014285 156.298963 
L 524.46822 157.580155 
L 524.922155 153.915298 
L 526.283961 152.663873 
L 526.737897 151.531633 
L 527.191832 153.081031 
L 527.645767 152.24674 
L 528.099703 154.302642 
L 529.461509 147.836986 
L 529.915444 140.626481 
L 530.369379 140.745689 
L 530.823315 138.004423 
L 531.27725 132.13476 
L 532.639056 125.818056 
L 533.092991 132.13476 
L 533.546926 132.194341 
L 534.000862 135.620782 
L 535.816603 129.155126 
L 536.270538 129.006222 
L 536.724474 128.291068 
L 537.178409 126.741694 
L 537.632344 129.393542 
L 538.99415 127.754797 
L 539.448086 133.147722 
L 539.902021 131.687766 
L 540.355956 126.801228 
L 540.809892 126.771485 
L 542.171698 128.678435 
L 542.625633 125.281691 
L 543.079568 127.963329 
L 543.533504 132.011431 
L 543.987439 134.080495 
L 545.349245 142.116883 
L 545.80318 142.356704 
L 546.257116 141.697009 
L 547.164986 135.639799 
L 548.526792 130.902025 
L 548.980728 132.28137 
L 549.434663 135.519888 
L 549.888598 130.482151 
L 550.342534 130.45222 
L 551.70434 122.895661 
L 552.158275 124.934747 
L 552.61221 129.282765 
L 553.066146 122.745726 
L 553.520081 121.876141 
L 554.881887 122.715748 
L 555.335822 126.943809 
L 555.789757 126.104202 
L 556.243693 121.906118 
L 556.697628 121.906118 
L 558.059434 122.026029 
L 558.513369 120.616753 
L 558.967305 121.546293 
L 559.42124 130.96198 
L 559.875175 131.351736 
L 561.690917 137.259058 
L 562.144852 135.519888 
L 562.598787 128.353131 
L 563.052723 128.053262 
L 564.414529 126.643939 
L 564.868464 131.381713 
L 565.322399 131.531695 
L 565.776335 128.533091 
L 566.23027 131.321805 
L 567.592076 131.171917 
L 568.046011 131.951522 
L 568.499947 137.558975 
L 568.953882 133.93056 
L 569.407817 139.807905 
L 570.769623 136.689343 
L 571.223559 136.539408 
L 571.677494 137.109123 
L 572.131429 136.839278 
L 572.585365 131.141892 
L 573.947171 129.942413 
L 574.401106 132.70115 
L 574.855041 131.111915 
L 575.308977 130.182281 
L 575.762912 128.203243 
L 577.578653 127.963329 
L 578.032588 124.904723 
L 578.486524 124.964725 
L 578.940459 124.81479 
L 580.302265 124.484942 
L 580.7562 124.994655 
L 581.664071 118.427732 
L 582.118006 114.37963 
L 583.479812 114.589473 
L 583.933748 116.83845 
L 584.841618 119.906986 
L 585.295554 113.902237 
L 586.65736 112.423685 
L 587.111295 110.703672 
L 587.56523 117.010259 
L 588.019166 114.837679 
L 588.473101 106.539595 
L 589.834907 107.59565 
L 590.288842 101.34958 
L 590.742778 105.936108 
L 591.196713 105.724813 
L 591.650648 109.013919 
L 593.012454 106.690466 
L 593.46639 106.418841 
L 594.37426 104.367014 
L 594.828196 102.284929 
L 596.190002 99.267448 
L 596.643937 98.543254 
L 597.097872 103.310866 
L 597.551808 98.211299 
L 598.005743 97.909603 
L 599.367549 100.142466 
L 599.821484 103.672986 
L 600.275419 105.211915 
L 600.729355 105.966273 
L 601.18329 106.298181 
L 602.545096 104.427391 
L 602.999031 106.056815 
L 603.452967 101.681442 
L 604.360837 101.047743 
L 606.176579 102.677261 
L 606.630514 99.388108 
L 607.084449 101.228827 
L 607.538385 100.80633 
L 608.900191 96.129307 
L 609.808061 97.819061 
L 610.261997 100.86666 
L 610.715932 100.172678 
L 612.077738 104.548051 
L 612.531673 103.884187 
L 613.439544 100.625293 
L 615.255285 108.25956 
L 615.709221 111.488243 
L 616.163156 107.1732 
L 616.617091 113.872072 
L 617.071027 114.535888 
L 618.432833 116.919764 
L 618.886768 115.290294 
L 619.340703 109.677735 
L 619.794638 106.267923 
L 620.248574 108.048312 
L 621.61038 106.267923 
L 622.064315 106.901715 
L 622.51825 105.905896 
L 622.972186 101.047743 
L 623.426121 99.931265 
L 624.787927 106.207686 
L 625.241862 111.276994 
L 625.695798 109.617359 
L 626.149733 112.683975 
L 626.603668 108.129673 
L 627.965474 108.068968 
L 628.41941 101.996582 
L 628.873345 105.093503 
L 629.32728 102.512758 
L 629.781216 101.571508 
L 631.143022 102.634215 
L 631.596957 98.322778 
L 632.050892 95.316961 
L 632.504828 94.497167 
L 632.958763 92.311143 
L 634.320569 95.620625 
L 634.774504 94.284654 
L 635.22844 89.942912 
L 635.682375 91.218131 
L 636.13631 90.732307 
L 637.498116 88.181961 
L 637.952052 88.819501 
L 638.405987 89.092766 
L 638.859922 89.032061 
L 639.313858 89.942912 
L 640.675664 86.967447 
L 641.129599 81.988119 
L 641.583534 84.356303 
L 642.491405 87.969401 
L 643.853211 83.263291 
L 644.307146 96.743942 
L 644.761081 91.218131 
L 645.215017 88.607035 
L 645.668952 80.652194 
L 647.030758 73.760061 
L 647.484693 74.974529 
L 647.938629 72.909914 
L 648.392564 70.207667 
L 648.846499 63.710254 
L 650.662241 55.239283 
L 651.116176 53.387182 
L 651.570111 46.555753 
L 652.024047 57.637867 
L 653.385853 56.423399 
L 653.839788 56.727016 
L 654.293723 51.990554 
L 654.747659 49.622322 
L 656.5634 43.944656 
L 657.017335 41.303207 
L 657.471271 37.204331 
L 657.925206 41.515674 
L 658.379141 39.056385 
L 659.740947 41.121 
L 660.194883 39.390402 
L 660.648818 37.14358 
L 661.102753 41.33356 
L 661.556689 41.606777 
L 662.918495 48.34715 
L 663.37243 53.994463 
L 663.826365 52.931804 
L 664.2803 55.117874 
L 664.734236 50.502868 
L 666.549977 59.854337 
L 667.003912 43.853553 
L 667.457848 41.197817 
L 667.911783 39.305246 
L 669.273589 43.334612 
L 670.18146 52.950306 
L 670.635395 49.958727 
L 671.08933 45.77671 
L 672.451136 45.929362 
L 672.451136 45.929362 
" clip-path="url(#p526625429f)" style="fill: none; stroke: #ff0000; stroke-width: 1.5; stroke-linecap: square"/>
   </g>
   <g id="patch_3">
    <path d="M 33.2875 348.478125 
L 33.2875 22.318125 
" style="fill: none; stroke: #ffffff; stroke-width: 0.8; stroke-linejoin: miter; stroke-linecap: square"/>
   </g>
   <g id="patch_4">
    <path d="M 702.8875 348.478125 
L 702.8875 22.318125 
" style="fill: none; stroke: #ffffff; stroke-width: 0.8; stroke-linejoin: miter; stroke-linecap: square"/>
   </g>
   <g id="patch_5">
    <path d="M 33.2875 348.478125 
L 702.8875 348.478125 
" style="fill: none; stroke: #ffffff; stroke-width: 0.8; stroke-linejoin: miter; stroke-linecap: square"/>
   </g>
   <g id="patch_6">
    <path d="M 33.2875 22.318125 
L 702.8875 22.318125 
" style="fill: none; stroke: #ffffff; stroke-width: 0.8; stroke-linejoin: miter; stroke-linecap: square"/>
   </g>
   <g id="text_14">
    <!-- Price -->
    <g style="fill: #ffffff" transform="translate(353.450313 16.318125)scale(0.12 -0.12)">
     <defs>
      <path id="DejaVuSans-50" d="M 1259 4147 
L 1259 2394 
L 2053 2394 
Q 2494 2394 2734 2622 
Q 2975 2850 2975 3272 
Q 2975 3691 2734 3919 
Q 2494 4147 2053 4147 
L 1259 4147 
z
M 628 4666 
L 2053 4666 
Q 2838 4666 3239 4311 
Q 3641 3956 3641 3272 
Q 3641 2581 3239 2228 
Q 2838 1875 2053 1875 
L 1259 1875 
L 1259 0 
L 628 0 
L 628 4666 
z
" transform="scale(0.015625)"/>
      <path id="DejaVuSans-72" d="M 2631 2963 
Q 2534 3019 2420 3045 
Q 2306 3072 2169 3072 
Q 1681 3072 1420 2755 
Q 1159 2438 1159 1844 
L 1159 0 
L 581 0 
L 581 3500 
L 1159 3500 
L 1159 2956 
Q 1341 3275 1631 3429 
Q 1922 3584 2338 3584 
Q 2397 3584 2469 3576 
Q 2541 3569 2628 3553 
L 2631 2963 
z
" transform="scale(0.015625)"/>
      <path id="DejaVuSans-69" d="M 603 3500 
L 1178 3500 
L 1178 0 
L 603 0 
L 603 3500 
z
M 603 4863 
L 1178 4863 
L 1178 4134 
L 603 4134 
L 603 4863 
z
" transform="scale(0.015625)"/>
      <path id="DejaVuSans-63" d="M 3122 3366 
L 3122 2828 
Q 2878 2963 2633 3030 
Q 2388 3097 2138 3097 
Q 1578 3097 1268 2742 
Q 959 2388 959 1747 
Q 959 1106 1268 751 
Q 1578 397 2138 397 
Q 2388 397 2633 464 
Q 2878 531 3122 666 
L 3122 134 
Q 2881 22 2623 -34 
Q 2366 -91 2075 -91 
Q 1284 -91 818 406 
Q 353 903 353 1747 
Q 353 2603 823 3093 
Q 1294 3584 2113 3584 
Q 2378 3584 2631 3529 
Q 2884 3475 3122 3366 
z
" transform="scale(0.015625)"/>
      <path id="DejaVuSans-65" d="M 3597 1894 
L 3597 1613 
L 953 1613 
Q 991 1019 1311 708 
Q 1631 397 2203 397 
Q 2534 397 2845 478 
Q 3156 559 3463 722 
L 3463 178 
Q 3153 47 2828 -22 
Q 2503 -91 2169 -91 
Q 1331 -91 842 396 
Q 353 884 353 1716 
Q 353 2575 817 3079 
Q 1281 3584 2069 3584 
Q 2775 3584 3186 3129 
Q 3597 2675 3597 1894 
z
M 3022 2063 
Q 3016 2534 2758 2815 
Q 2500 3097 2075 3097 
Q 1594 3097 1305 2825 
Q 1016 2553 972 2059 
L 3022 2063 
z
" transform="scale(0.015625)"/>
     </defs>
     <use xlink:href="#DejaVuSans-50"/>
     <use xlink:href="#DejaVuSans-72" x="58.552734"/>
     <use xlink:href="#DejaVuSans-69" x="99.666016"/>
     <use xlink:href="#DejaVuSans-63" x="127.449219"/>
     <use xlink:href="#DejaVuSans-65" x="182.429688"/>
    </g>
   </g>
  </g>
 </g>
 <defs>
  <clipPath id="p526625429f">
   <rect x="33.2875" y="22.318125" width="669.6" height="326.16"/>
  </clipPath>
 </defs>
</svg>
