<?xml version="1.0" encoding="utf-8" standalone="no"?>
<!DOCTYPE svg PUBLIC "-//W3C//DTD SVG 1.1//EN"
  "http://www.w3.org/Graphics/SVG/1.1/DTD/svg11.dtd">
<svg xmlns:xlink="http://www.w3.org/1999/xlink" width="710.0875pt" height="494.754375pt" viewBox="0 0 710.0875 494.754375" xmlns="http://www.w3.org/2000/svg" version="1.1">
 <metadata>
  <rdf:RDF xmlns:dc="http://purl.org/dc/elements/1.1/" xmlns:cc="http://creativecommons.org/ns#" xmlns:rdf="http://www.w3.org/1999/02/22-rdf-syntax-ns#">
   <cc:Work>
    <dc:type rdf:resource="http://purl.org/dc/dcmitype/StillImage"/>
    <dc:date>2022-07-20T17:42:26.239612</dc:date>
    <dc:format>image/svg+xml</dc:format>
    <dc:creator>
     <cc:Agent>
      <dc:title>Matplotlib v3.5.1, https://matplotlib.org/</dc:title>
     </cc:Agent>
    </dc:creator>
   </cc:Work>
  </rdf:RDF>
 </metadata>
 <defs>
  <style type="text/css">*{stroke-linejoin: round; stroke-linecap: butt}</style>
 </defs>
 <g id="figure_1">
  <g id="patch_1">
   <path d="M 0 494.754375 
L 710.0875 494.754375 
L 710.0875 0 
L 0 0 
z
"/>
  </g>
  <g id="axes_1">
   <g id="patch_2">
    <path d="M 33.2875 457.198125 
L 702.8875 457.198125 
L 702.8875 22.318125 
L 33.2875 22.318125 
z
"/>
   </g>
   <g id="PolyCollection_1">
    <defs>
     <path id="m996f0b8783" d="M 636.376896 -433.598327 
L 636.376896 -199.612986 
L 636.826292 -199.473711 
L 637.275688 -199.334602 
L 637.725084 -199.195657 
L 638.17448 -199.056876 
L 638.623876 -198.918259 
L 639.073272 -198.779805 
L 639.522668 -198.641514 
L 639.972064 -198.503385 
L 640.42146 -198.365417 
L 640.870856 -198.227609 
L 641.320252 -198.089962 
L 641.769648 -197.952475 
L 642.219044 -197.815147 
L 642.66844 -197.677977 
L 643.117836 -197.540965 
L 643.567232 -197.404111 
L 644.016628 -197.267414 
L 644.466023 -197.130873 
L 644.915419 -196.994488 
L 645.364815 -196.858259 
L 645.814211 -196.722184 
L 646.263607 -196.586264 
L 646.713003 -196.450497 
L 647.162399 -196.314883 
L 647.611795 -196.179422 
L 648.061191 -196.044114 
L 648.510587 -195.908957 
L 648.959983 -195.773951 
L 649.409379 -195.639096 
L 649.858775 -195.504391 
L 650.308171 -195.369836 
L 650.757567 -195.23543 
L 651.206963 -195.101173 
L 651.656359 -194.967064 
L 652.105755 -194.833102 
L 652.555151 -194.699288 
L 653.004547 -194.56562 
L 653.453943 -194.432099 
L 653.903339 -194.298723 
L 654.352735 -194.165493 
L 654.802131 -194.032408 
L 655.251527 -193.899467 
L 655.700923 -193.766669 
L 656.150319 -193.634016 
L 656.599715 -193.501505 
L 657.049111 -193.369136 
L 657.498507 -193.23691 
L 657.947903 -193.104825 
L 658.397299 -192.972881 
L 658.846695 -192.841078 
L 659.296091 -192.709416 
L 659.745487 -192.577893 
L 660.194883 -192.446509 
L 660.644279 -192.315264 
L 661.093674 -192.184158 
L 661.54307 -192.053189 
L 661.992466 -191.922358 
L 662.441862 -191.791665 
L 662.891258 -191.661108 
L 663.340654 -191.530687 
L 663.79005 -191.400402 
L 664.239446 -191.270253 
L 664.688842 -191.140238 
L 665.138238 -191.010359 
L 665.587634 -190.880613 
L 666.03703 -190.751001 
L 666.486426 -190.621523 
L 666.935822 -190.492177 
L 667.385218 -190.362964 
L 667.834614 -190.233883 
L 668.28401 -190.104934 
L 668.733406 -189.976116 
L 669.182802 -189.847429 
L 669.632198 -189.718872 
L 670.081594 -189.590446 
L 670.53099 -189.462149 
L 670.980386 -189.333982 
L 671.429782 -189.205943 
L 671.879178 -189.078034 
L 672.328574 -188.950252 
L 672.77797 -188.822598 
L 673.227366 -188.695071 
L 673.676762 -188.567672 
L 674.126158 -188.440399 
L 674.575554 -188.313252 
L 675.02495 -188.186232 
L 675.474346 -188.059337 
L 675.923742 -187.932567 
L 676.373138 -187.805921 
L 676.822534 -187.6794 
L 677.27193 -187.553004 
L 677.721326 -187.42673 
L 678.170721 -187.30058 
L 678.620117 -187.174554 
L 679.069513 -187.048649 
L 679.518909 -186.922867 
L 679.968305 -186.797207 
L 680.417701 -186.671668 
L 680.867097 -186.546251 
L 681.316493 -186.420954 
L 681.765889 -186.295778 
L 682.215285 -186.170722 
L 682.664681 -186.045786 
L 683.114077 -185.920969 
L 683.563473 -185.796271 
L 684.012869 -185.671692 
L 684.462265 -185.547232 
L 684.911661 -185.422889 
L 685.361057 -185.298664 
L 685.810453 -185.174557 
L 686.259849 -185.050567 
L 686.709245 -184.926693 
L 687.158641 -184.802936 
L 687.608037 -184.679295 
L 688.057433 -184.55577 
L 688.506829 -184.43236 
L 688.956225 -184.309066 
L 689.405621 -184.185886 
L 689.855017 -184.062821 
L 690.304413 -183.939869 
L 690.753809 -183.817032 
L 691.203205 -183.694308 
L 691.652601 -183.571698 
L 692.101997 -183.4492 
L 692.551393 -183.326815 
L 693.000789 -183.204542 
L 693.450185 -183.082381 
L 693.899581 -182.960332 
L 694.348977 -182.838394 
L 694.798372 -182.716567 
L 695.247768 -182.594851 
L 695.697164 -182.473245 
L 696.14656 -182.35175 
L 696.595956 -182.230364 
L 697.045352 -182.109088 
L 697.494748 -181.987922 
L 697.944144 -181.866864 
L 698.39354 -181.745915 
L 698.842936 -181.625074 
L 699.292332 -181.504341 
L 699.741728 -181.383716 
L 700.191124 -181.263199 
L 700.64052 -181.142789 
L 701.089916 -181.022485 
L 701.539312 -180.902289 
L 701.988708 -180.782198 
L 702.438104 -180.662214 
L 702.8875 -180.542336 
L 702.8875 -452.668977 
L 702.8875 -452.668977 
L 702.438104 -452.549099 
L 701.988708 -452.429115 
L 701.539312 -452.309025 
L 701.089916 -452.188828 
L 700.64052 -452.068525 
L 700.191124 -451.948115 
L 699.741728 -451.827597 
L 699.292332 -451.706972 
L 698.842936 -451.58624 
L 698.39354 -451.465399 
L 697.944144 -451.34445 
L 697.494748 -451.223392 
L 697.045352 -451.102225 
L 696.595956 -450.980949 
L 696.14656 -450.859563 
L 695.697164 -450.738068 
L 695.247768 -450.616462 
L 694.798372 -450.494746 
L 694.348977 -450.372919 
L 693.899581 -450.250981 
L 693.450185 -450.128932 
L 693.000789 -450.006771 
L 692.551393 -449.884499 
L 692.101997 -449.762113 
L 691.652601 -449.639616 
L 691.203205 -449.517005 
L 690.753809 -449.394281 
L 690.304413 -449.271444 
L 689.855017 -449.148493 
L 689.405621 -449.025427 
L 688.956225 -448.902248 
L 688.506829 -448.778953 
L 688.057433 -448.655543 
L 687.608037 -448.532018 
L 687.158641 -448.408377 
L 686.709245 -448.28462 
L 686.259849 -448.160746 
L 685.810453 -448.036756 
L 685.361057 -447.912649 
L 684.911661 -447.788424 
L 684.462265 -447.664082 
L 684.012869 -447.539621 
L 683.563473 -447.415042 
L 683.114077 -447.290344 
L 682.664681 -447.165528 
L 682.215285 -447.040591 
L 681.765889 -446.915535 
L 681.316493 -446.790359 
L 680.867097 -446.665062 
L 680.417701 -446.539645 
L 679.968305 -446.414106 
L 679.518909 -446.288446 
L 679.069513 -446.162664 
L 678.620117 -446.03676 
L 678.170721 -445.910733 
L 677.721326 -445.784583 
L 677.27193 -445.65831 
L 676.822534 -445.531913 
L 676.373138 -445.405392 
L 675.923742 -445.278747 
L 675.474346 -445.151977 
L 675.02495 -445.025082 
L 674.575554 -444.898061 
L 674.126158 -444.770914 
L 673.676762 -444.643641 
L 673.227366 -444.516242 
L 672.77797 -444.388715 
L 672.328574 -444.261061 
L 671.879178 -444.13328 
L 671.429782 -444.00537 
L 670.980386 -443.877332 
L 670.53099 -443.749164 
L 670.081594 -443.620867 
L 669.632198 -443.492441 
L 669.182802 -443.363885 
L 668.733406 -443.235198 
L 668.28401 -443.10638 
L 667.834614 -442.97743 
L 667.385218 -442.848349 
L 666.935822 -442.719136 
L 666.486426 -442.589791 
L 666.03703 -442.460312 
L 665.587634 -442.3307 
L 665.138238 -442.200955 
L 664.688842 -442.071075 
L 664.239446 -441.94106 
L 663.79005 -441.810911 
L 663.340654 -441.680626 
L 662.891258 -441.550206 
L 662.441862 -441.419649 
L 661.992466 -441.288955 
L 661.54307 -441.158124 
L 661.093674 -441.027156 
L 660.644279 -440.896049 
L 660.194883 -440.764804 
L 659.745487 -440.633421 
L 659.296091 -440.501898 
L 658.846695 -440.370235 
L 658.397299 -440.238432 
L 657.947903 -440.106488 
L 657.498507 -439.974403 
L 657.049111 -439.842177 
L 656.599715 -439.709809 
L 656.150319 -439.577298 
L 655.700923 -439.444644 
L 655.251527 -439.311847 
L 654.802131 -439.178906 
L 654.352735 -439.04582 
L 653.903339 -438.91259 
L 653.453943 -438.779214 
L 653.004547 -438.645693 
L 652.555151 -438.512026 
L 652.105755 -438.378211 
L 651.656359 -438.24425 
L 651.206963 -438.110141 
L 650.757567 -437.975883 
L 650.308171 -437.841477 
L 649.858775 -437.706922 
L 649.409379 -437.572217 
L 648.959983 -437.437362 
L 648.510587 -437.302356 
L 648.061191 -437.167199 
L 647.611795 -437.031891 
L 647.162399 -436.89643 
L 646.713003 -436.760816 
L 646.263607 -436.62505 
L 645.814211 -436.489129 
L 645.364815 -436.353054 
L 644.915419 -436.216825 
L 644.466023 -436.08044 
L 644.016628 -435.943899 
L 643.567232 -435.807202 
L 643.117836 -435.670348 
L 642.66844 -435.533336 
L 642.219044 -435.396167 
L 641.769648 -435.258838 
L 641.320252 -435.121351 
L 640.870856 -434.983704 
L 640.42146 -434.845897 
L 639.972064 -434.707929 
L 639.522668 -434.569799 
L 639.073272 -434.431508 
L 638.623876 -434.293054 
L 638.17448 -434.154437 
L 637.725084 -434.015657 
L 637.275688 -433.876712 
L 636.826292 -433.737602 
L 636.376896 -433.598327 
z
" style="stroke: #808080"/>
    </defs>
    <g clip-path="url(#p53113b2650)">
     <use xlink:href="#m996f0b8783" x="0" y="494.754375" style="fill: #808080; stroke: #808080"/>
    </g>
   </g>
   <g id="matplotlib.axis_1">
    <g id="xtick_1">
     <g id="line2d_1">
      <defs>
       <path id="m6db2d73efc" d="M 0 0 
L 0 3.5 
" style="stroke: #ffffff; stroke-width: 0.8"/>
      </defs>
      <g>
       <use xlink:href="#m6db2d73efc" x="33.2875" y="457.198125" style="fill: #ffffff; stroke: #ffffff; stroke-width: 0.8"/>
      </g>
     </g>
    </g>
    <g id="xtick_2">
     <g id="line2d_2">
      <g>
       <use xlink:href="#m6db2d73efc" x="129.907634" y="457.198125" style="fill: #ffffff; stroke: #ffffff; stroke-width: 0.8"/>
      </g>
     </g>
     <g id="text_1">
      <!-- 2019 -->
      <g style="fill: #ffffff" transform="translate(117.182634 471.796562)scale(0.1 -0.1)">
       <defs>
        <path id="DejaVuSans-32" d="M 1228 531 
L 3431 531 
L 3431 0 
L 469 0 
L 469 531 
Q 828 903 1448 1529 
Q 2069 2156 2228 2338 
Q 2531 2678 2651 2914 
Q 2772 3150 2772 3378 
Q 2772 3750 2511 3984 
Q 2250 4219 1831 4219 
Q 1534 4219 1204 4116 
Q 875 4013 500 3803 
L 500 4441 
Q 881 4594 1212 4672 
Q 1544 4750 1819 4750 
Q 2544 4750 2975 4387 
Q 3406 4025 3406 3419 
Q 3406 3131 3298 2873 
Q 3191 2616 2906 2266 
Q 2828 2175 2409 1742 
Q 1991 1309 1228 531 
z
" transform="scale(0.015625)"/>
        <path id="DejaVuSans-30" d="M 2034 4250 
Q 1547 4250 1301 3770 
Q 1056 3291 1056 2328 
Q 1056 1369 1301 889 
Q 1547 409 2034 409 
Q 2525 409 2770 889 
Q 3016 1369 3016 2328 
Q 3016 3291 2770 3770 
Q 2525 4250 2034 4250 
z
M 2034 4750 
Q 2819 4750 3233 4129 
Q 3647 3509 3647 2328 
Q 3647 1150 3233 529 
Q 2819 -91 2034 -91 
Q 1250 -91 836 529 
Q 422 1150 422 2328 
Q 422 3509 836 4129 
Q 1250 4750 2034 4750 
z
" transform="scale(0.015625)"/>
        <path id="DejaVuSans-31" d="M 794 531 
L 1825 531 
L 1825 4091 
L 703 3866 
L 703 4441 
L 1819 4666 
L 2450 4666 
L 2450 531 
L 3481 531 
L 3481 0 
L 794 0 
L 794 531 
z
" transform="scale(0.015625)"/>
        <path id="DejaVuSans-39" d="M 703 97 
L 703 672 
Q 941 559 1184 500 
Q 1428 441 1663 441 
Q 2288 441 2617 861 
Q 2947 1281 2994 2138 
Q 2813 1869 2534 1725 
Q 2256 1581 1919 1581 
Q 1219 1581 811 2004 
Q 403 2428 403 3163 
Q 403 3881 828 4315 
Q 1253 4750 1959 4750 
Q 2769 4750 3195 4129 
Q 3622 3509 3622 2328 
Q 3622 1225 3098 567 
Q 2575 -91 1691 -91 
Q 1453 -91 1209 -44 
Q 966 3 703 97 
z
M 1959 2075 
Q 2384 2075 2632 2365 
Q 2881 2656 2881 3163 
Q 2881 3666 2632 3958 
Q 2384 4250 1959 4250 
Q 1534 4250 1286 3958 
Q 1038 3666 1038 3163 
Q 1038 2656 1286 2365 
Q 1534 2075 1959 2075 
z
" transform="scale(0.015625)"/>
       </defs>
       <use xlink:href="#DejaVuSans-32"/>
       <use xlink:href="#DejaVuSans-30" x="63.623047"/>
       <use xlink:href="#DejaVuSans-31" x="127.246094"/>
       <use xlink:href="#DejaVuSans-39" x="190.869141"/>
      </g>
     </g>
    </g>
    <g id="xtick_3">
     <g id="line2d_3">
      <g>
       <use xlink:href="#m6db2d73efc" x="293.937164" y="457.198125" style="fill: #ffffff; stroke: #ffffff; stroke-width: 0.8"/>
      </g>
     </g>
     <g id="text_2">
      <!-- 2020 -->
      <g style="fill: #ffffff" transform="translate(281.212164 471.796562)scale(0.1 -0.1)">
       <use xlink:href="#DejaVuSans-32"/>
       <use xlink:href="#DejaVuSans-30" x="63.623047"/>
       <use xlink:href="#DejaVuSans-32" x="127.246094"/>
       <use xlink:href="#DejaVuSans-30" x="190.869141"/>
      </g>
     </g>
    </g>
    <g id="xtick_4">
     <g id="line2d_4">
      <g>
       <use xlink:href="#m6db2d73efc" x="458.416091" y="457.198125" style="fill: #ffffff; stroke: #ffffff; stroke-width: 0.8"/>
      </g>
     </g>
     <g id="text_3">
      <!-- 2021 -->
      <g style="fill: #ffffff" transform="translate(445.691091 471.796562)scale(0.1 -0.1)">
       <use xlink:href="#DejaVuSans-32"/>
       <use xlink:href="#DejaVuSans-30" x="63.623047"/>
       <use xlink:href="#DejaVuSans-32" x="127.246094"/>
       <use xlink:href="#DejaVuSans-31" x="190.869141"/>
      </g>
     </g>
    </g>
    <g id="xtick_5">
     <g id="line2d_5">
      <g>
       <use xlink:href="#m6db2d73efc" x="622.445621" y="457.198125" style="fill: #ffffff; stroke: #ffffff; stroke-width: 0.8"/>
      </g>
     </g>
     <g id="text_4">
      <!-- 2022 -->
      <g style="fill: #ffffff" transform="translate(609.720621 471.796562)scale(0.1 -0.1)">
       <use xlink:href="#DejaVuSans-32"/>
       <use xlink:href="#DejaVuSans-30" x="63.623047"/>
       <use xlink:href="#DejaVuSans-32" x="127.246094"/>
       <use xlink:href="#DejaVuSans-32" x="190.869141"/>
      </g>
     </g>
    </g>
    <g id="xtick_6">
     <g id="line2d_6">
      <g>
       <use xlink:href="#m6db2d73efc" x="702.8875" y="457.198125" style="fill: #ffffff; stroke: #ffffff; stroke-width: 0.8"/>
      </g>
     </g>
    </g>
    <g id="xtick_7">
     <g id="line2d_7">
      <defs>
       <path id="m9df0f25260" d="M 0 0 
L 0 2 
" style="stroke: #ffffff; stroke-width: 0.6"/>
      </defs>
      <g>
       <use xlink:href="#m9df0f25260" x="47.218775" y="457.198125" style="fill: #ffffff; stroke: #ffffff; stroke-width: 0.6"/>
      </g>
     </g>
    </g>
    <g id="xtick_8">
     <g id="line2d_8">
      <g>
       <use xlink:href="#m9df0f25260" x="88.563205" y="457.198125" style="fill: #ffffff; stroke: #ffffff; stroke-width: 0.6"/>
      </g>
     </g>
    </g>
    <g id="xtick_9">
     <g id="line2d_9">
      <g>
       <use xlink:href="#m9df0f25260" x="170.353272" y="457.198125" style="fill: #ffffff; stroke: #ffffff; stroke-width: 0.6"/>
      </g>
     </g>
    </g>
    <g id="xtick_10">
     <g id="line2d_10">
      <g>
       <use xlink:href="#m9df0f25260" x="211.248305" y="457.198125" style="fill: #ffffff; stroke: #ffffff; stroke-width: 0.6"/>
      </g>
     </g>
    </g>
    <g id="xtick_11">
     <g id="line2d_11">
      <g>
       <use xlink:href="#m9df0f25260" x="252.592735" y="457.198125" style="fill: #ffffff; stroke: #ffffff; stroke-width: 0.6"/>
      </g>
     </g>
    </g>
    <g id="xtick_12">
     <g id="line2d_12">
      <g>
       <use xlink:href="#m9df0f25260" x="334.832198" y="457.198125" style="fill: #ffffff; stroke: #ffffff; stroke-width: 0.6"/>
      </g>
     </g>
    </g>
    <g id="xtick_13">
     <g id="line2d_13">
      <g>
       <use xlink:href="#m9df0f25260" x="375.727232" y="457.198125" style="fill: #ffffff; stroke: #ffffff; stroke-width: 0.6"/>
      </g>
     </g>
    </g>
    <g id="xtick_14">
     <g id="line2d_14">
      <g>
       <use xlink:href="#m9df0f25260" x="417.071661" y="457.198125" style="fill: #ffffff; stroke: #ffffff; stroke-width: 0.6"/>
      </g>
     </g>
    </g>
    <g id="xtick_15">
     <g id="line2d_15">
      <g>
       <use xlink:href="#m9df0f25260" x="498.861728" y="457.198125" style="fill: #ffffff; stroke: #ffffff; stroke-width: 0.6"/>
      </g>
     </g>
    </g>
    <g id="xtick_16">
     <g id="line2d_16">
      <g>
       <use xlink:href="#m9df0f25260" x="539.756762" y="457.198125" style="fill: #ffffff; stroke: #ffffff; stroke-width: 0.6"/>
      </g>
     </g>
    </g>
    <g id="xtick_17">
     <g id="line2d_17">
      <g>
       <use xlink:href="#m9df0f25260" x="581.101191" y="457.198125" style="fill: #ffffff; stroke: #ffffff; stroke-width: 0.6"/>
      </g>
     </g>
    </g>
    <g id="xtick_18">
     <g id="line2d_18">
      <g>
       <use xlink:href="#m9df0f25260" x="662.891258" y="457.198125" style="fill: #ffffff; stroke: #ffffff; stroke-width: 0.6"/>
      </g>
     </g>
    </g>
    <g id="text_5">
     <!-- Date -->
     <g style="fill: #ffffff" transform="translate(356.136719 485.474687)scale(0.1 -0.1)">
      <defs>
       <path id="DejaVuSans-44" d="M 1259 4147 
L 1259 519 
L 2022 519 
Q 2988 519 3436 956 
Q 3884 1394 3884 2338 
Q 3884 3275 3436 3711 
Q 2988 4147 2022 4147 
L 1259 4147 
z
M 628 4666 
L 1925 4666 
Q 3281 4666 3915 4102 
Q 4550 3538 4550 2338 
Q 4550 1131 3912 565 
Q 3275 0 1925 0 
L 628 0 
L 628 4666 
z
" transform="scale(0.015625)"/>
       <path id="DejaVuSans-61" d="M 2194 1759 
Q 1497 1759 1228 1600 
Q 959 1441 959 1056 
Q 959 750 1161 570 
Q 1363 391 1709 391 
Q 2188 391 2477 730 
Q 2766 1069 2766 1631 
L 2766 1759 
L 2194 1759 
z
M 3341 1997 
L 3341 0 
L 2766 0 
L 2766 531 
Q 2569 213 2275 61 
Q 1981 -91 1556 -91 
Q 1019 -91 701 211 
Q 384 513 384 1019 
Q 384 1609 779 1909 
Q 1175 2209 1959 2209 
L 2766 2209 
L 2766 2266 
Q 2766 2663 2505 2880 
Q 2244 3097 1772 3097 
Q 1472 3097 1187 3025 
Q 903 2953 641 2809 
L 641 3341 
Q 956 3463 1253 3523 
Q 1550 3584 1831 3584 
Q 2591 3584 2966 3190 
Q 3341 2797 3341 1997 
z
" transform="scale(0.015625)"/>
       <path id="DejaVuSans-74" d="M 1172 4494 
L 1172 3500 
L 2356 3500 
L 2356 3053 
L 1172 3053 
L 1172 1153 
Q 1172 725 1289 603 
Q 1406 481 1766 481 
L 2356 481 
L 2356 0 
L 1766 0 
Q 1100 0 847 248 
Q 594 497 594 1153 
L 594 3053 
L 172 3053 
L 172 3500 
L 594 3500 
L 594 4494 
L 1172 4494 
z
" transform="scale(0.015625)"/>
       <path id="DejaVuSans-65" d="M 3597 1894 
L 3597 1613 
L 953 1613 
Q 991 1019 1311 708 
Q 1631 397 2203 397 
Q 2534 397 2845 478 
Q 3156 559 3463 722 
L 3463 178 
Q 3153 47 2828 -22 
Q 2503 -91 2169 -91 
Q 1331 -91 842 396 
Q 353 884 353 1716 
Q 353 2575 817 3079 
Q 1281 3584 2069 3584 
Q 2775 3584 3186 3129 
Q 3597 2675 3597 1894 
z
M 3022 2063 
Q 3016 2534 2758 2815 
Q 2500 3097 2075 3097 
Q 1594 3097 1305 2825 
Q 1016 2553 972 2059 
L 3022 2063 
z
" transform="scale(0.015625)"/>
      </defs>
      <use xlink:href="#DejaVuSans-44"/>
      <use xlink:href="#DejaVuSans-61" x="77.001953"/>
      <use xlink:href="#DejaVuSans-74" x="138.28125"/>
      <use xlink:href="#DejaVuSans-65" x="177.490234"/>
     </g>
    </g>
   </g>
   <g id="matplotlib.axis_2">
    <g id="ytick_1">
     <g id="line2d_19">
      <defs>
       <path id="mf6c84ed51a" d="M 0 0 
L -3.5 0 
" style="stroke: #ffffff; stroke-width: 0.8"/>
      </defs>
      <g>
       <use xlink:href="#mf6c84ed51a" x="33.2875" y="453.558471" style="fill: #ffffff; stroke: #ffffff; stroke-width: 0.8"/>
      </g>
     </g>
     <g id="text_6">
      <!-- 60 -->
      <g style="fill: #ffffff" transform="translate(13.5625 457.35769)scale(0.1 -0.1)">
       <defs>
        <path id="DejaVuSans-36" d="M 2113 2584 
Q 1688 2584 1439 2293 
Q 1191 2003 1191 1497 
Q 1191 994 1439 701 
Q 1688 409 2113 409 
Q 2538 409 2786 701 
Q 3034 994 3034 1497 
Q 3034 2003 2786 2293 
Q 2538 2584 2113 2584 
z
M 3366 4563 
L 3366 3988 
Q 3128 4100 2886 4159 
Q 2644 4219 2406 4219 
Q 1781 4219 1451 3797 
Q 1122 3375 1075 2522 
Q 1259 2794 1537 2939 
Q 1816 3084 2150 3084 
Q 2853 3084 3261 2657 
Q 3669 2231 3669 1497 
Q 3669 778 3244 343 
Q 2819 -91 2113 -91 
Q 1303 -91 875 529 
Q 447 1150 447 2328 
Q 447 3434 972 4092 
Q 1497 4750 2381 4750 
Q 2619 4750 2861 4703 
Q 3103 4656 3366 4563 
z
" transform="scale(0.015625)"/>
       </defs>
       <use xlink:href="#DejaVuSans-36"/>
       <use xlink:href="#DejaVuSans-30" x="63.623047"/>
      </g>
     </g>
    </g>
    <g id="ytick_2">
     <g id="line2d_20">
      <g>
       <use xlink:href="#mf6c84ed51a" x="33.2875" y="398.18428" style="fill: #ffffff; stroke: #ffffff; stroke-width: 0.8"/>
      </g>
     </g>
     <g id="text_7">
      <!-- 80 -->
      <g style="fill: #ffffff" transform="translate(13.5625 401.983499)scale(0.1 -0.1)">
       <defs>
        <path id="DejaVuSans-38" d="M 2034 2216 
Q 1584 2216 1326 1975 
Q 1069 1734 1069 1313 
Q 1069 891 1326 650 
Q 1584 409 2034 409 
Q 2484 409 2743 651 
Q 3003 894 3003 1313 
Q 3003 1734 2745 1975 
Q 2488 2216 2034 2216 
z
M 1403 2484 
Q 997 2584 770 2862 
Q 544 3141 544 3541 
Q 544 4100 942 4425 
Q 1341 4750 2034 4750 
Q 2731 4750 3128 4425 
Q 3525 4100 3525 3541 
Q 3525 3141 3298 2862 
Q 3072 2584 2669 2484 
Q 3125 2378 3379 2068 
Q 3634 1759 3634 1313 
Q 3634 634 3220 271 
Q 2806 -91 2034 -91 
Q 1263 -91 848 271 
Q 434 634 434 1313 
Q 434 1759 690 2068 
Q 947 2378 1403 2484 
z
M 1172 3481 
Q 1172 3119 1398 2916 
Q 1625 2713 2034 2713 
Q 2441 2713 2670 2916 
Q 2900 3119 2900 3481 
Q 2900 3844 2670 4047 
Q 2441 4250 2034 4250 
Q 1625 4250 1398 4047 
Q 1172 3844 1172 3481 
z
" transform="scale(0.015625)"/>
       </defs>
       <use xlink:href="#DejaVuSans-38"/>
       <use xlink:href="#DejaVuSans-30" x="63.623047"/>
      </g>
     </g>
    </g>
    <g id="ytick_3">
     <g id="line2d_21">
      <g>
       <use xlink:href="#mf6c84ed51a" x="33.2875" y="342.810088" style="fill: #ffffff; stroke: #ffffff; stroke-width: 0.8"/>
      </g>
     </g>
     <g id="text_8">
      <!-- 100 -->
      <g style="fill: #ffffff" transform="translate(7.2 346.609307)scale(0.1 -0.1)">
       <use xlink:href="#DejaVuSans-31"/>
       <use xlink:href="#DejaVuSans-30" x="63.623047"/>
       <use xlink:href="#DejaVuSans-30" x="127.246094"/>
      </g>
     </g>
    </g>
    <g id="ytick_4">
     <g id="line2d_22">
      <g>
       <use xlink:href="#mf6c84ed51a" x="33.2875" y="287.435897" style="fill: #ffffff; stroke: #ffffff; stroke-width: 0.8"/>
      </g>
     </g>
     <g id="text_9">
      <!-- 120 -->
      <g style="fill: #ffffff" transform="translate(7.2 291.235116)scale(0.1 -0.1)">
       <use xlink:href="#DejaVuSans-31"/>
       <use xlink:href="#DejaVuSans-32" x="63.623047"/>
       <use xlink:href="#DejaVuSans-30" x="127.246094"/>
      </g>
     </g>
    </g>
    <g id="ytick_5">
     <g id="line2d_23">
      <g>
       <use xlink:href="#mf6c84ed51a" x="33.2875" y="232.061705" style="fill: #ffffff; stroke: #ffffff; stroke-width: 0.8"/>
      </g>
     </g>
     <g id="text_10">
      <!-- 140 -->
      <g style="fill: #ffffff" transform="translate(7.2 235.860924)scale(0.1 -0.1)">
       <defs>
        <path id="DejaVuSans-34" d="M 2419 4116 
L 825 1625 
L 2419 1625 
L 2419 4116 
z
M 2253 4666 
L 3047 4666 
L 3047 1625 
L 3713 1625 
L 3713 1100 
L 3047 1100 
L 3047 0 
L 2419 0 
L 2419 1100 
L 313 1100 
L 313 1709 
L 2253 4666 
z
" transform="scale(0.015625)"/>
       </defs>
       <use xlink:href="#DejaVuSans-31"/>
       <use xlink:href="#DejaVuSans-34" x="63.623047"/>
       <use xlink:href="#DejaVuSans-30" x="127.246094"/>
      </g>
     </g>
    </g>
    <g id="ytick_6">
     <g id="line2d_24">
      <g>
       <use xlink:href="#mf6c84ed51a" x="33.2875" y="176.687514" style="fill: #ffffff; stroke: #ffffff; stroke-width: 0.8"/>
      </g>
     </g>
     <g id="text_11">
      <!-- 160 -->
      <g style="fill: #ffffff" transform="translate(7.2 180.486732)scale(0.1 -0.1)">
       <use xlink:href="#DejaVuSans-31"/>
       <use xlink:href="#DejaVuSans-36" x="63.623047"/>
       <use xlink:href="#DejaVuSans-30" x="127.246094"/>
      </g>
     </g>
    </g>
    <g id="ytick_7">
     <g id="line2d_25">
      <g>
       <use xlink:href="#mf6c84ed51a" x="33.2875" y="121.313322" style="fill: #ffffff; stroke: #ffffff; stroke-width: 0.8"/>
      </g>
     </g>
     <g id="text_12">
      <!-- 180 -->
      <g style="fill: #ffffff" transform="translate(7.2 125.112541)scale(0.1 -0.1)">
       <use xlink:href="#DejaVuSans-31"/>
       <use xlink:href="#DejaVuSans-38" x="63.623047"/>
       <use xlink:href="#DejaVuSans-30" x="127.246094"/>
      </g>
     </g>
    </g>
    <g id="ytick_8">
     <g id="line2d_26">
      <g>
       <use xlink:href="#mf6c84ed51a" x="33.2875" y="65.939131" style="fill: #ffffff; stroke: #ffffff; stroke-width: 0.8"/>
      </g>
     </g>
     <g id="text_13">
      <!-- 200 -->
      <g style="fill: #ffffff" transform="translate(7.2 69.738349)scale(0.1 -0.1)">
       <use xlink:href="#DejaVuSans-32"/>
       <use xlink:href="#DejaVuSans-30" x="63.623047"/>
       <use xlink:href="#DejaVuSans-30" x="127.246094"/>
      </g>
     </g>
    </g>
   </g>
   <g id="line2d_27">
    <path d="M 636.376896 178.148718 
L 702.8875 178.148718 
L 702.8875 178.148718 
" clip-path="url(#p53113b2650)" style="fill: none; stroke: #000000; stroke-width: 1.5; stroke-linecap: square"/>
   </g>
   <g id="line2d_28">
    <path d="M 636.376896 179.874808 
L 636.826292 172.000488 
L 637.275688 167.760479 
L 637.725084 174.946466 
L 639.073272 178.277908 
L 639.522668 179.269068 
L 639.972064 180.260271 
L 640.42146 186.9507 
L 640.870856 189.373616 
L 642.219044 188.134592 
L 642.66844 187.914315 
L 643.117836 184.637964 
L 643.567232 179.654531 
L 644.016628 179.434297 
L 645.814211 184.85824 
L 646.263607 190.282141 
L 646.713003 201.845864 
L 647.162399 184.004721 
L 648.510587 190.474873 
L 648.959983 197.57831 
L 649.409379 196.256734 
L 649.858775 194.687379 
L 650.308171 192.539829 
L 651.656359 198.87234 
L 652.105755 215.529591 
L 652.555151 210.078102 
L 653.004547 220.623119 
L 653.453943 225.358729 
L 654.802131 220.320249 
L 655.251527 205.948189 
L 655.700923 207.3524 
L 656.150319 206.05837 
L 656.599715 206.278647 
L 657.947903 204.709249 
L 658.397299 201.515449 
L 658.846695 204.433925 
L 659.296091 203.718089 
L 659.745487 198.899843 
L 661.093674 196.008912 
L 661.54307 191.658765 
L 661.992466 194.604786 
L 662.441862 198.982478 
L 662.891258 192.677513 
L 664.239446 195.458305 
L 664.688842 193.971543 
L 665.138238 187.886812 
L 665.587634 182.297682 
L 666.03703 178.883648 
L 667.385218 180.563141 
L 667.834614 181.884717 
L 668.28401 180.645734 
L 668.733406 183.096111 
L 670.53099 187.25357 
L 670.980386 180.783375 
L 671.429782 169.109599 
L 671.879178 169.46118 
L 672.328574 173.226627 
L 673.676762 169.627296 
L 674.126158 177.268961 
L 674.575554 178.459486 
L 675.02495 167.246204 
L 675.474346 175.164715 
L 676.822534 181.17281 
L 677.27193 187.180904 
L 677.721326 183.996905 
L 678.170721 192.026146 
L 678.620117 187.762352 
L 679.968305 188.842147 
L 680.417701 191.112509 
L 680.867097 197.148276 
L 681.316493 198.864862 
L 681.765889 194.351894 
L 683.114077 190.19883 
L 683.563473 191.417069 
L 684.012869 218.107428 
L 684.462265 227.354907 
L 684.911661 227.105734 
L 686.259849 218.079713 
L 686.709245 210.936438 
L 687.158641 217.63671 
L 687.608037 214.120479 
L 688.057433 207.918554 
L 689.855017 210.24426 
L 690.304413 216.446185 
L 690.753809 212.099291 
L 691.203205 215.754008 
L 692.551393 217.33215 
L 693.000789 212.846854 
L 693.450185 217.913598 
L 693.899581 225.167603 
L 694.348977 226.66273 
L 695.697164 237.183835 
L 696.14656 249.116966 
L 696.595956 252.799355 
L 697.045352 250.556665 
L 697.494748 253.214645 
L 699.292332 242.112135 
L 699.741728 236.21477 
L 700.191124 225.693665 
L 700.64052 220.017802 
L 701.988708 223.063399 
L 702.438104 229.514498 
L 702.8875 225.970553 
" clip-path="url(#p53113b2650)" style="fill: none; stroke: #ff0000; stroke-width: 1.5; stroke-linecap: square"/>
   </g>
   <g id="line2d_29">
    <path d="M 33.2875 437.430852 
L 33.736896 436.733436 
L 35.085084 434.915098 
L 35.53448 435.438223 
L 35.983876 434.491718 
L 36.882668 427.442822 
L 38.230856 426.571031 
L 38.680252 427.29333 
L 39.129648 429.211246 
L 39.579044 430.406819 
L 40.02844 426.944622 
L 41.376628 430.780453 
L 41.826023 429.559975 
L 42.275419 430.755569 
L 42.724815 429.285981 
L 43.174211 426.82012 
L 44.522399 425.923445 
L 44.971795 425.400362 
L 45.421191 426.172513 
L 45.870587 425.275775 
L 47.668171 425.076559 
L 48.117567 425.649409 
L 49.016359 422.386535 
L 49.465755 422.137445 
L 50.813943 425.749091 
L 51.263339 420.867137 
L 51.712735 422.511016 
L 52.162131 423.183591 
L 52.611527 422.137445 
L 53.959715 421.589458 
L 54.409111 420.344075 
L 55.307903 421.802362 
L 57.105487 422.355356 
L 58.004279 419.942452 
L 58.90307 417.152577 
L 60.251258 418.107722 
L 60.700654 416.398613 
L 61.15005 416.97666 
L 61.599446 413.583558 
L 62.048842 412.754225 
L 63.39703 412.276664 
L 63.846426 411.97504 
L 64.295822 412.703951 
L 64.745218 415.091676 
L 66.542802 414.790074 
L 66.992198 415.317867 
L 67.441594 412.829594 
L 67.89099 409.336008 
L 68.340386 409.336008 
L 69.688574 409.461651 
L 70.13797 408.808193 
L 70.587366 410.090056 
L 71.036762 410.467049 
L 71.486158 410.165404 
L 73.733138 409.838665 
L 74.182534 410.039761 
L 74.63193 411.195855 
L 76.429513 411.824281 
L 76.878909 410.341321 
L 77.777701 413.809813 
L 79.125889 412.62854 
L 79.575285 413.558442 
L 80.024681 410.793746 
L 80.474077 409.939234 
L 80.923473 409.53702 
L 82.271661 407.928481 
L 82.721057 408.556844 
L 83.170453 408.556844 
L 83.619849 405.138626 
L 84.069245 403.982491 
L 85.417433 407.87827 
L 85.866829 410.76863 
L 86.316225 410.416754 
L 86.765621 411.422088 
L 87.215017 410.492144 
L 88.563205 409.386261 
L 89.012601 407.652036 
L 89.911393 413.784697 
L 90.360789 413.206587 
L 91.708977 412.578224 
L 92.158372 413.080944 
L 92.607768 414.991107 
L 93.057164 421.450549 
L 93.50656 420.972987 
L 94.854748 418.28366 
L 95.75354 413.935498 
L 96.202936 416.225167 
L 96.652332 398.323822 
L 98.00052 400.098773 
L 98.449916 398.678846 
L 98.899312 392.846943 
L 99.348708 394.013366 
L 99.798104 396.903917 
L 101.146292 395.940407 
L 101.595688 393.531558 
L 102.045084 394.824765 
L 102.49448 392.517373 
L 102.943876 391.959563 
L 104.292064 388.435073 
L 104.74146 387.649001 
L 105.190856 388.206854 
L 105.640252 388.029331 
L 106.089648 385.366958 
L 107.437836 384.631667 
L 107.887232 382.679236 
L 108.336628 382.62856 
L 108.786023 381.766444 
L 109.235419 381.791792 
L 110.583607 383.135653 
L 111.033003 386.153029 
L 111.482399 387.902569 
L 112.381191 387.572956 
L 113.729379 386.558687 
L 114.178775 384.580949 
L 114.628171 383.845617 
L 115.077567 384.327382 
L 115.526963 380.042232 
L 116.875151 383.059608 
L 117.324547 383.084956 
L 118.223339 382.476386 
L 118.672735 385.265522 
L 120.020923 383.794899 
L 120.470319 381.563594 
L 120.919715 381.259288 
L 121.369111 375.021749 
L 121.818507 374.64144 
L 123.166695 384.454145 
L 123.616091 385.164129 
L 124.514883 388.992841 
L 124.964279 389.01821 
L 126.312466 398.171733 
L 127.211258 391.249578 
L 127.660654 386.3559 
L 128.11005 388.485748 
L 129.458238 386.609383 
L 130.35703 388.232181 
L 130.806426 389.854936 
L 131.255822 385.164129 
L 132.60401 386.102269 
L 133.053406 385.240174 
L 133.502802 389.068928 
L 133.952198 388.511097 
L 134.401594 386.989734 
L 135.749782 388.561793 
L 136.199178 386.38127 
L 136.648574 388.003962 
L 137.09797 388.037231 
L 137.547366 386.043842 
L 139.34495 388.548359 
L 139.794346 377.303518 
L 140.243742 378.683521 
L 140.693138 380.47254 
L 142.041326 380.676995 
L 142.490721 380.625834 
L 142.940117 378.121359 
L 143.389513 373.137821 
L 143.838909 370.582143 
L 145.187097 369.151 
L 145.636493 370.658822 
L 146.085889 369.432155 
L 146.535285 371.425523 
L 146.984681 369.96882 
L 148.332869 368.537634 
L 148.782265 366.007516 
L 149.231661 366.058677 
L 149.681057 368.052067 
L 150.130453 368.000926 
L 151.928037 364.141945 
L 152.377433 365.95646 
L 153.276225 363.47746 
L 154.624413 365.215318 
L 155.073809 364.550813 
L 155.523205 366.902036 
L 155.972601 367.822073 
L 156.421997 368.103186 
L 157.770185 367.004232 
L 158.219581 366.442049 
L 158.668977 366.850896 
L 159.118372 367.822073 
L 159.567768 368.179843 
L 161.365352 363.988566 
L 161.814748 361.100699 
L 162.264144 360.742907 
L 162.71354 357.880599 
L 164.061728 360.257319 
L 164.511124 359.260645 
L 164.96052 359.720653 
L 165.409916 357.752823 
L 165.859312 359.873947 
L 167.2075 359.107309 
L 167.656896 356.398316 
L 168.106292 356.704988 
L 169.005084 353.765959 
L 170.353272 354.813815 
L 170.802668 354.532702 
L 171.252064 354.686038 
L 171.70146 355.350523 
L 172.150856 354.788234 
L 173.499044 351.414778 
L 173.94844 352.207018 
L 174.397836 352.232577 
L 174.847232 351.977045 
L 175.296628 351.184827 
L 176.644815 349.472507 
L 177.094211 347.709111 
L 177.993003 346.741419 
L 179.790587 346.844333 
L 180.239983 354.179347 
L 180.689379 352.815313 
L 181.138775 353.87052 
L 181.588171 347.230408 
L 182.936359 350.009996 
L 183.385755 345.634691 
L 183.835151 349.623963 
L 184.733943 346.664212 
L 186.082131 347.693648 
L 186.531527 350.215867 
L 186.980923 349.263595 
L 187.430319 351.399801 
L 187.879715 346.844333 
L 189.227903 346.586984 
L 189.677299 347.899582 
L 190.126695 345.068473 
L 190.576091 341.43957 
L 191.025487 343.138222 
L 192.373674 343.44707 
L 192.82307 345.917831 
L 193.272466 345.017016 
L 193.721862 344.914081 
L 194.171258 345.094244 
L 195.968842 350.833563 
L 196.418238 351.528444 
L 196.867634 348.594463 
L 197.31703 354.822771 
L 198.665218 352.532173 
L 199.114614 350.267387 
L 199.56401 344.991267 
L 200.013406 343.318448 
L 200.462802 339.74098 
L 201.81099 339.869665 
L 202.260386 338.171013 
L 202.709782 337.398904 
L 203.159178 334.23324 
L 203.608574 333.486902 
L 204.956762 334.027412 
L 205.406158 337.604816 
L 205.855554 335.49436 
L 206.30495 332.097139 
L 206.754346 333.486902 
L 208.102534 330.578607 
L 208.55193 332.148596 
L 209.001326 337.270219 
L 209.450721 337.141555 
L 209.900117 337.476132 
L 211.248305 335.314218 
L 211.697701 332.766271 
L 212.147097 326.074702 
L 213.045889 328.468235 
L 214.394077 326.151929 
L 214.843473 329.085931 
L 215.742265 325.302571 
L 216.191661 323.732646 
L 217.539849 322.471526 
L 217.989245 321.416319 
L 218.438641 321.287634 
L 218.888037 320.650399 
L 219.337433 321.764224 
L 220.685621 321.013007 
L 221.584413 328.007023 
L 222.033809 327.56666 
L 222.483205 322.489523 
L 223.831393 319.199822 
L 224.280789 307.776339 
L 224.730185 313.915463 
L 225.179581 317.308839 
L 225.628977 318.060057 
L 226.977164 326.763647 
L 227.875956 320.443177 
L 228.325352 315.469673 
L 228.774748 317.179331 
L 230.122936 319.122087 
L 230.572332 315.961831 
L 231.021728 319.743775 
L 231.92052 310.962472 
L 233.268708 308.216681 
L 233.718104 311.687771 
L 234.616896 310.340805 
L 235.066292 315.780527 
L 236.41448 310.599801 
L 236.863876 307.413647 
L 237.313272 305.211873 
L 237.762668 305.781787 
L 238.212064 308.2426 
L 240.009648 305.315484 
L 240.459044 300.523347 
L 240.90844 301.688968 
L 241.357836 301.40401 
L 242.706023 303.217301 
L 243.155419 309.149203 
L 244.054211 301.663112 
L 244.503607 303.346788 
L 245.851795 309.485997 
L 246.301191 305.83354 
L 246.750587 305.185955 
L 247.199983 303.916681 
L 249.446963 299.487215 
L 249.896359 301.015527 
L 250.345755 297.673946 
L 250.795151 297.000442 
L 252.143339 297.4926 
L 252.592735 298.865506 
L 253.042131 306.040763 
L 253.491527 304.331168 
L 253.940923 298.476959 
L 255.289111 301.481787 
L 255.738507 306.429352 
L 256.187903 303.70948 
L 256.637299 303.813091 
L 257.086695 306.014865 
L 258.434883 308.708839 
L 258.884279 316.091382 
L 259.333674 315.236574 
L 259.78307 315.638007 
L 260.232466 313.44821 
L 261.580654 309.251103 
L 262.03005 301.169729 
L 262.479446 299.032044 
L 262.928842 294.365677 
L 263.378238 298.380339 
L 265.175822 297.467906 
L 265.625218 293.974679 
L 266.074614 295.095602 
L 266.52401 296.764027 
L 267.872198 309.277169 
L 268.321594 309.720363 
L 268.77099 306.018541 
L 269.220386 307.843385 
L 269.669782 307.634853 
L 271.01797 308.599377 
L 271.467366 308.755818 
L 271.916762 305.158283 
L 272.366158 305.549301 
L 272.815554 305.445035 
L 274.163742 301.925699 
L 274.613138 303.150951 
L 275.062534 300.882997 
L 275.51193 305.966408 
L 275.961326 306.096761 
L 277.309513 305.523214 
L 277.758909 300.961155 
L 278.208305 302.264585 
L 279.107097 301.482548 
L 280.904681 299.162398 
L 281.354077 295.04349 
L 281.803473 294.80887 
L 282.252869 295.929814 
L 283.601057 294.157145 
L 284.050453 295.721303 
L 284.499849 294.704604 
L 284.949245 294.939203 
L 285.398641 292.593028 
L 286.746829 292.358409 
L 287.196225 293.010134 
L 287.645621 296.399117 
L 288.095017 294.026833 
L 288.544413 292.879717 
L 289.892601 294.078903 
L 290.341997 293.244733 
L 291.240789 293.244733 
L 291.690185 290.976737 
L 293.038372 295.19991 
L 293.487768 294.078903 
L 294.835956 300.126942 
L 296.184144 299.683791 
L 296.63354 301.665035 
L 297.082936 300.309408 
L 297.532332 296.816223 
L 297.981728 296.503362 
L 299.329916 294.131057 
L 299.779312 294.626405 
L 300.228708 291.315664 
L 300.678104 291.02887 
L 301.1275 290.142524 
L 302.925084 290.976737 
L 303.37448 290.403231 
L 303.823876 291.908455 
L 304.273272 291.515092 
L 305.62146 290.072774 
L 306.070856 289.181148 
L 306.520252 291.724891 
L 306.969648 289.390968 
L 307.419044 292.878746 
L 308.767232 291.593756 
L 309.216628 290.151459 
L 309.666023 287.135689 
L 310.115419 286.270319 
L 310.564815 289.050034 
L 311.913003 288.81402 
L 312.362399 294.085029 
L 312.811795 295.946967 
L 313.710587 288.892684 
L 315.508171 292.223133 
L 315.957567 290.728387 
L 316.406963 287.738851 
L 316.856359 287.424152 
L 318.204547 296.340266 
L 318.653943 301.244147 
L 319.103339 304.574575 
L 319.552735 322.039739 
L 320.002131 322.747759 
L 321.350319 306.148049 
L 321.799715 309.793134 
L 322.249111 293.193403 
L 322.698507 300.719712 
L 323.147903 300.641006 
L 324.496091 315.326434 
L 324.945487 303.551835 
L 325.844279 352.616836 
L 326.293674 320.544971 
L 327.641862 335.151651 
L 328.091258 309.609612 
L 328.540654 311.681286 
L 328.99005 329.041508 
L 329.439446 351.069619 
L 330.787634 363.47351 
L 331.23703 348.86681 
L 331.686426 355.029423 
L 332.135822 338.088779 
L 332.585218 330.772247 
L 333.933406 318.106128 
L 334.382802 331.218082 
L 334.832198 332.975077 
L 335.281594 319.679538 
L 335.73099 317.896328 
L 337.079178 310.73721 
L 337.528574 323.954085 
L 337.97797 317.843921 
L 338.427366 318.997733 
L 340.22495 315.614876 
L 340.674346 302.476708 
L 341.573138 301.060647 
L 342.022534 292.695182 
L 343.370721 303.420742 
L 343.820117 305.833329 
L 344.269513 306.567606 
L 344.718909 304.479456 
L 345.168305 306.116174 
L 346.965889 311.105563 
L 347.415285 310.603983 
L 347.864681 308.518495 
L 348.314077 311.290394 
L 349.662265 314.062251 
L 350.111661 313.428649 
L 350.561057 321.110703 
L 351.010453 323.565791 
L 351.459849 313.587055 
L 352.808037 315.276561 
L 353.706829 318.946001 
L 354.156225 319.236387 
L 354.605621 317.124452 
L 355.953809 312.900687 
L 356.403205 322.853018 
L 356.852601 320.635528 
L 357.301997 325.017741 
L 357.751393 322.430652 
L 359.548977 323.935369 
L 360.447768 313.296648 
L 360.897164 313.666268 
L 362.245352 310.155213 
L 362.694748 308.016894 
L 363.144144 306.77618 
L 363.59354 313.323053 
L 364.042936 307.3041 
L 365.391124 305.403422 
L 365.84052 307.277738 
L 366.289916 304.928226 
L 366.739312 312.768685 
L 367.188708 314.458191 
L 368.536896 311.633547 
L 368.986292 307.832148 
L 369.435688 308.360068 
L 369.885084 304.796246 
L 371.682668 308.835285 
L 372.132064 308.888094 
L 372.58146 312.346319 
L 373.030856 308.465686 
L 373.480252 315.487733 
L 374.82844 309.072883 
L 375.277836 304.030685 
L 375.727232 302.948334 
L 376.176628 300.572439 
L 377.974211 298.592547 
L 378.873003 295.266301 
L 379.322399 296.348631 
L 379.771795 292.626425 
L 381.119983 292.204038 
L 381.569379 289.458585 
L 382.018775 291.01609 
L 382.468171 290.329721 
L 382.917567 288.033018 
L 384.715151 289.511331 
L 385.613943 284.532229 
L 386.063339 285.06355 
L 387.411527 284.107159 
L 387.860923 279.962967 
L 388.310319 278.820625 
L 388.759715 270.558813 
L 389.209111 271.355806 
L 390.557299 270.904205 
L 391.006695 264.262867 
L 391.456091 265.192601 
L 391.905487 267.131851 
L 392.354883 264.900377 
L 393.70307 263.439259 
L 394.152466 265.750516 
L 394.601862 259.826494 
L 395.051258 258.976312 
L 395.500654 260.782758 
L 396.848842 259.7202 
L 397.298238 257.037041 
L 397.747634 259.002843 
L 398.19703 256.133881 
L 398.646426 254.566511 
L 399.994614 251.723996 
L 400.44401 250.262921 
L 400.893406 252.042751 
L 401.342802 252.520904 
L 401.792198 251.033255 
L 403.589782 252.600667 
L 404.039178 246.410994 
L 404.488574 252.388121 
L 404.93797 253.185072 
L 406.735554 258.551263 
L 407.18495 252.680387 
L 407.634346 256.532356 
L 408.083742 252.706961 
L 409.43193 251.405199 
L 409.881326 251.405199 
L 410.330721 253.875813 
L 411.229513 254.752441 
L 412.577701 256.50574 
L 413.027097 253.185072 
L 413.476493 257.568383 
L 414.375285 254.088316 
L 415.723473 253.052247 
L 416.172869 255.044707 
L 416.622265 250.44885 
L 417.071661 249.784725 
L 417.521057 252.760065 
L 418.869245 249.386208 
L 419.318641 248.801803 
L 420.666829 240.008649 
L 422.015017 235.837883 
L 422.464413 236.581728 
L 423.363205 237.59114 
L 423.812601 236.103533 
L 425.160789 242.691723 
L 425.610185 241.177459 
L 426.059581 239.131978 
L 426.508977 241.827304 
L 426.958372 239.343045 
L 428.30656 242.228019 
L 428.755956 239.396487 
L 429.205352 251.951455 
L 429.654748 252.191883 
L 430.104144 253.447427 
L 431.452332 249.707624 
L 431.901728 242.441705 
L 432.351124 243.991035 
L 432.80052 239.343045 
L 433.249916 237.072429 
L 434.598104 251.069926 
L 435.496896 240.171131 
L 435.946292 239.957445 
L 436.395688 234.267598 
L 438.193272 240.678646 
L 438.642668 246.502079 
L 439.092064 246.956236 
L 439.54146 247.570552 
L 440.889648 249.013123 
L 441.339044 250.215139 
L 441.78844 249.226809 
L 442.687232 249.41371 
L 444.035419 248.719252 
L 444.484815 247.383566 
L 445.383607 252.806284 
L 445.833003 252.459054 
L 447.181191 251.898054 
L 447.630587 250.909682 
L 448.079983 255.290628 
L 448.529379 257.694787 
L 448.978775 255.023457 
L 450.326963 256.786515 
L 452.124547 248.265137 
L 453.472735 252.325427 
L 453.922131 254.916614 
L 454.371527 255.477614 
L 454.820923 251.791254 
L 456.618507 249.226809 
L 457.067903 249.921352 
L 457.517299 251.657584 
L 457.966695 247.997966 
L 459.764279 251.524083 
L 460.213674 249.173366 
L 460.66307 245.273236 
L 461.112466 248.772694 
L 461.561862 248.932938 
L 462.91005 251.44394 
L 463.359446 253.581012 
L 463.808842 253.020012 
L 464.258238 256.920143 
L 464.707634 259.644789 
L 466.505218 262.796891 
L 466.954614 267.257958 
L 467.40401 267.60466 
L 467.853406 270.318891 
L 469.65099 262.014896 
L 470.100386 274.672482 
L 470.549782 269.351453 
L 470.999178 275.129364 
L 472.347366 273.086946 
L 472.796762 273.570676 
L 473.246158 273.140685 
L 473.695554 272.925689 
L 474.14495 271.474457 
L 475.493138 272.549478 
L 476.39193 275.102474 
L 476.841326 274.806849 
L 477.290721 276.714942 
L 479.088305 275.908718 
L 479.537701 274.457465 
L 479.987097 271.581976 
L 480.436493 278.058634 
L 481.784681 279.509824 
L 482.234077 276.983655 
L 482.683473 276.607423 
L 483.132869 279.509824 
L 483.582265 287.706405 
L 484.930453 285.663967 
L 485.379849 286.712055 
L 485.829245 288.700713 
L 486.278641 291.414987 
L 486.728037 281.12225 
L 488.076225 277.548035 
L 488.525621 280.584781 
L 488.975017 277.467427 
L 489.424413 278.622992 
L 489.873809 275.31749 
L 491.221997 274.188773 
L 491.671393 273.167554 
L 492.120789 274.565026 
L 492.570185 273.812541 
L 493.019581 275.666853 
L 494.367768 269.835183 
L 494.817164 263.331698 
L 495.26656 263.439217 
L 495.715956 260.966744 
L 496.165352 255.672627 
L 497.51354 249.975302 
L 497.962936 255.672627 
L 498.412332 255.726365 
L 498.861728 258.816829 
L 500.659312 252.985158 
L 501.108708 252.850855 
L 501.558104 252.205825 
L 502.0075 250.808374 
L 502.456896 253.200196 
L 503.805084 251.722137 
L 504.25448 256.586264 
L 504.703876 255.269462 
L 505.153272 250.86207 
L 505.602668 250.835243 
L 506.950856 252.555209 
L 507.400252 249.49153 
L 507.849648 251.910222 
L 508.299044 255.56139 
L 508.74844 257.427573 
L 510.096628 264.67596 
L 510.546023 264.892265 
L 510.995419 264.297257 
L 511.894211 258.833981 
L 513.242399 254.560766 
L 513.691795 255.80486 
L 514.141191 258.725828 
L 514.590587 254.182062 
L 515.039983 254.155066 
L 516.388171 247.33946 
L 516.837567 249.178605 
L 517.286963 253.100282 
L 517.736359 247.204226 
L 518.185755 246.419908 
L 519.533943 247.177188 
L 519.983339 250.99067 
L 520.432735 250.23339 
L 520.882131 246.446946 
L 522.679715 246.555099 
L 523.129111 245.284009 
L 523.578507 246.122404 
L 524.027903 254.614842 
L 524.477299 254.966381 
L 526.274883 260.294465 
L 526.724279 258.725828 
L 527.173674 252.261802 
L 527.62307 251.991336 
L 528.971258 250.720204 
L 529.420654 254.993419 
L 529.87005 255.128694 
L 530.319446 252.424116 
L 530.768842 254.939385 
L 532.11703 254.804194 
L 532.566426 255.507356 
L 533.015822 260.564974 
L 533.465218 257.29234 
L 533.914614 262.593387 
L 535.262802 259.780613 
L 535.712198 259.64538 
L 536.161594 260.159232 
L 536.61099 259.915846 
L 537.060386 254.777114 
L 538.408574 253.695248 
L 538.85797 256.183479 
L 539.307366 254.750075 
L 539.756762 253.911596 
L 540.206158 252.126612 
L 542.003742 251.910222 
L 542.453138 249.151525 
L 542.902534 249.205643 
L 544.700117 248.772906 
L 545.149513 249.232639 
L 546.048305 243.30963 
L 546.497701 239.658462 
L 547.845889 239.847729 
L 548.295285 241.876184 
L 549.194077 244.643838 
L 549.643473 239.227879 
L 550.991661 237.894305 
L 551.441057 236.342948 
L 551.890453 242.031147 
L 552.339849 240.071597 
L 552.789245 232.587175 
L 554.137433 233.53968 
L 554.586829 227.906064 
L 555.036225 232.042863 
L 555.485621 231.852286 
L 555.935017 234.818881 
L 557.283205 232.723253 
L 557.732601 232.478262 
L 558.631393 230.627626 
L 559.080789 228.749697 
L 560.428977 226.028093 
L 560.878372 225.37491 
L 561.327768 229.675037 
L 561.777164 225.075504 
L 562.22656 224.803391 
L 563.574748 226.817312 
L 564.024144 230.001649 
L 564.47354 231.38968 
L 564.922936 232.07007 
L 565.372332 232.369434 
L 566.72052 230.682082 
L 567.169916 232.151734 
L 567.619312 228.205385 
L 568.518104 227.633823 
L 570.315688 229.103559 
L 570.765084 226.136922 
L 571.21448 227.797151 
L 571.663876 227.416081 
L 573.012064 223.197661 
L 573.910856 224.721727 
L 574.360252 227.470496 
L 574.809648 226.844562 
L 576.157836 230.790911 
L 576.607232 230.192142 
L 577.506023 227.252796 
L 579.303607 234.138491 
L 579.753003 237.050587 
L 580.202399 233.158653 
L 580.651795 239.200672 
L 581.101191 239.799399 
L 582.449379 241.949525 
L 582.898775 240.479831 
L 583.348171 235.417608 
L 583.797567 232.342142 
L 584.246963 233.947956 
L 585.595151 232.342142 
L 586.044547 232.913788 
L 586.493943 232.015614 
L 586.943339 227.633823 
L 587.392735 226.62682 
L 588.740923 232.287812 
L 589.190319 236.860053 
L 589.639715 235.363151 
L 590.089111 238.129073 
L 590.538507 234.02134 
L 591.886695 233.966587 
L 592.336091 228.489624 
L 592.785487 231.282879 
L 593.234883 228.955187 
L 593.684279 228.106231 
L 595.032466 229.064734 
L 595.481862 225.176053 
L 595.931258 222.464968 
L 596.380654 221.725558 
L 596.83005 219.753884 
L 598.178238 222.738857 
L 598.627634 221.533883 
L 599.07703 217.617868 
L 599.526426 218.768046 
L 599.975822 218.329859 
L 601.32401 216.029586 
L 601.773406 216.604612 
L 602.222802 216.851082 
L 602.672198 216.796329 
L 603.121594 217.617868 
L 604.469782 214.934159 
L 604.919178 210.443075 
L 605.368574 212.579049 
L 606.267366 215.837868 
L 607.615554 211.593212 
L 608.06495 223.752028 
L 608.514346 218.768046 
L 608.963742 216.412979 
L 609.413138 209.238144 
L 610.761326 203.021813 
L 611.210721 204.117198 
L 611.660117 202.255027 
L 612.109513 199.817747 
L 612.558909 193.957433 
L 614.356493 186.317077 
L 614.805889 184.646582 
L 615.255285 178.485003 
L 615.704681 188.480469 
L 617.052869 187.385085 
L 617.502265 187.658931 
L 617.951661 183.386899 
L 618.401057 181.250882 
L 620.198641 176.129936 
L 620.648037 173.747492 
L 621.097433 170.050528 
L 621.546829 173.939125 
L 621.996225 171.72098 
L 623.344413 173.583151 
L 623.793809 172.022245 
L 624.243205 169.995733 
L 624.692601 173.774868 
L 625.141997 174.021296 
L 626.490185 180.100746 
L 626.939581 185.194316 
L 627.388977 184.235855 
L 627.838372 186.207572 
L 628.287768 182.045087 
L 630.085352 190.479605 
L 630.534748 176.047765 
L 630.984144 173.652436 
L 631.43354 171.94544 
L 632.781728 175.579709 
L 633.68052 184.252543 
L 634.129916 181.554302 
L 634.579312 177.782349 
L 635.9275 177.920032 
L 635.9275 177.920032 
" clip-path="url(#p53113b2650)" style="fill: none; stroke: #0000ff; stroke-width: 1.5; stroke-linecap: square"/>
   </g>
   <g id="patch_3">
    <path d="M 33.2875 457.198125 
L 33.2875 22.318125 
" style="fill: none; stroke: #ffffff; stroke-width: 0.8; stroke-linejoin: miter; stroke-linecap: square"/>
   </g>
   <g id="patch_4">
    <path d="M 702.8875 457.198125 
L 702.8875 22.318125 
" style="fill: none; stroke: #ffffff; stroke-width: 0.8; stroke-linejoin: miter; stroke-linecap: square"/>
   </g>
   <g id="patch_5">
    <path d="M 33.2875 457.198125 
L 702.8875 457.198125 
" style="fill: none; stroke: #ffffff; stroke-width: 0.8; stroke-linejoin: miter; stroke-linecap: square"/>
   </g>
   <g id="patch_6">
    <path d="M 33.2875 22.318125 
L 702.8875 22.318125 
" style="fill: none; stroke: #ffffff; stroke-width: 0.8; stroke-linejoin: miter; stroke-linecap: square"/>
   </g>
   <g id="text_14">
    <!-- ARIMA Price Forecast and Confidence Interval -->
    <g style="fill: #ffffff" transform="translate(231.205938 16.318125)scale(0.12 -0.12)">
     <defs>
      <path id="DejaVuSans-41" d="M 2188 4044 
L 1331 1722 
L 3047 1722 
L 2188 4044 
z
M 1831 4666 
L 2547 4666 
L 4325 0 
L 3669 0 
L 3244 1197 
L 1141 1197 
L 716 0 
L 50 0 
L 1831 4666 
z
" transform="scale(0.015625)"/>
      <path id="DejaVuSans-52" d="M 2841 2188 
Q 3044 2119 3236 1894 
Q 3428 1669 3622 1275 
L 4263 0 
L 3584 0 
L 2988 1197 
Q 2756 1666 2539 1819 
Q 2322 1972 1947 1972 
L 1259 1972 
L 1259 0 
L 628 0 
L 628 4666 
L 2053 4666 
Q 2853 4666 3247 4331 
Q 3641 3997 3641 3322 
Q 3641 2881 3436 2590 
Q 3231 2300 2841 2188 
z
M 1259 4147 
L 1259 2491 
L 2053 2491 
Q 2509 2491 2742 2702 
Q 2975 2913 2975 3322 
Q 2975 3731 2742 3939 
Q 2509 4147 2053 4147 
L 1259 4147 
z
" transform="scale(0.015625)"/>
      <path id="DejaVuSans-49" d="M 628 4666 
L 1259 4666 
L 1259 0 
L 628 0 
L 628 4666 
z
" transform="scale(0.015625)"/>
      <path id="DejaVuSans-4d" d="M 628 4666 
L 1569 4666 
L 2759 1491 
L 3956 4666 
L 4897 4666 
L 4897 0 
L 4281 0 
L 4281 4097 
L 3078 897 
L 2444 897 
L 1241 4097 
L 1241 0 
L 628 0 
L 628 4666 
z
" transform="scale(0.015625)"/>
      <path id="DejaVuSans-20" transform="scale(0.015625)"/>
      <path id="DejaVuSans-50" d="M 1259 4147 
L 1259 2394 
L 2053 2394 
Q 2494 2394 2734 2622 
Q 2975 2850 2975 3272 
Q 2975 3691 2734 3919 
Q 2494 4147 2053 4147 
L 1259 4147 
z
M 628 4666 
L 2053 4666 
Q 2838 4666 3239 4311 
Q 3641 3956 3641 3272 
Q 3641 2581 3239 2228 
Q 2838 1875 2053 1875 
L 1259 1875 
L 1259 0 
L 628 0 
L 628 4666 
z
" transform="scale(0.015625)"/>
      <path id="DejaVuSans-72" d="M 2631 2963 
Q 2534 3019 2420 3045 
Q 2306 3072 2169 3072 
Q 1681 3072 1420 2755 
Q 1159 2438 1159 1844 
L 1159 0 
L 581 0 
L 581 3500 
L 1159 3500 
L 1159 2956 
Q 1341 3275 1631 3429 
Q 1922 3584 2338 3584 
Q 2397 3584 2469 3576 
Q 2541 3569 2628 3553 
L 2631 2963 
z
" transform="scale(0.015625)"/>
      <path id="DejaVuSans-69" d="M 603 3500 
L 1178 3500 
L 1178 0 
L 603 0 
L 603 3500 
z
M 603 4863 
L 1178 4863 
L 1178 4134 
L 603 4134 
L 603 4863 
z
" transform="scale(0.015625)"/>
      <path id="DejaVuSans-63" d="M 3122 3366 
L 3122 2828 
Q 2878 2963 2633 3030 
Q 2388 3097 2138 3097 
Q 1578 3097 1268 2742 
Q 959 2388 959 1747 
Q 959 1106 1268 751 
Q 1578 397 2138 397 
Q 2388 397 2633 464 
Q 2878 531 3122 666 
L 3122 134 
Q 2881 22 2623 -34 
Q 2366 -91 2075 -91 
Q 1284 -91 818 406 
Q 353 903 353 1747 
Q 353 2603 823 3093 
Q 1294 3584 2113 3584 
Q 2378 3584 2631 3529 
Q 2884 3475 3122 3366 
z
" transform="scale(0.015625)"/>
      <path id="DejaVuSans-46" d="M 628 4666 
L 3309 4666 
L 3309 4134 
L 1259 4134 
L 1259 2759 
L 3109 2759 
L 3109 2228 
L 1259 2228 
L 1259 0 
L 628 0 
L 628 4666 
z
" transform="scale(0.015625)"/>
      <path id="DejaVuSans-6f" d="M 1959 3097 
Q 1497 3097 1228 2736 
Q 959 2375 959 1747 
Q 959 1119 1226 758 
Q 1494 397 1959 397 
Q 2419 397 2687 759 
Q 2956 1122 2956 1747 
Q 2956 2369 2687 2733 
Q 2419 3097 1959 3097 
z
M 1959 3584 
Q 2709 3584 3137 3096 
Q 3566 2609 3566 1747 
Q 3566 888 3137 398 
Q 2709 -91 1959 -91 
Q 1206 -91 779 398 
Q 353 888 353 1747 
Q 353 2609 779 3096 
Q 1206 3584 1959 3584 
z
" transform="scale(0.015625)"/>
      <path id="DejaVuSans-73" d="M 2834 3397 
L 2834 2853 
Q 2591 2978 2328 3040 
Q 2066 3103 1784 3103 
Q 1356 3103 1142 2972 
Q 928 2841 928 2578 
Q 928 2378 1081 2264 
Q 1234 2150 1697 2047 
L 1894 2003 
Q 2506 1872 2764 1633 
Q 3022 1394 3022 966 
Q 3022 478 2636 193 
Q 2250 -91 1575 -91 
Q 1294 -91 989 -36 
Q 684 19 347 128 
L 347 722 
Q 666 556 975 473 
Q 1284 391 1588 391 
Q 1994 391 2212 530 
Q 2431 669 2431 922 
Q 2431 1156 2273 1281 
Q 2116 1406 1581 1522 
L 1381 1569 
Q 847 1681 609 1914 
Q 372 2147 372 2553 
Q 372 3047 722 3315 
Q 1072 3584 1716 3584 
Q 2034 3584 2315 3537 
Q 2597 3491 2834 3397 
z
" transform="scale(0.015625)"/>
      <path id="DejaVuSans-6e" d="M 3513 2113 
L 3513 0 
L 2938 0 
L 2938 2094 
Q 2938 2591 2744 2837 
Q 2550 3084 2163 3084 
Q 1697 3084 1428 2787 
Q 1159 2491 1159 1978 
L 1159 0 
L 581 0 
L 581 3500 
L 1159 3500 
L 1159 2956 
Q 1366 3272 1645 3428 
Q 1925 3584 2291 3584 
Q 2894 3584 3203 3211 
Q 3513 2838 3513 2113 
z
" transform="scale(0.015625)"/>
      <path id="DejaVuSans-64" d="M 2906 2969 
L 2906 4863 
L 3481 4863 
L 3481 0 
L 2906 0 
L 2906 525 
Q 2725 213 2448 61 
Q 2172 -91 1784 -91 
Q 1150 -91 751 415 
Q 353 922 353 1747 
Q 353 2572 751 3078 
Q 1150 3584 1784 3584 
Q 2172 3584 2448 3432 
Q 2725 3281 2906 2969 
z
M 947 1747 
Q 947 1113 1208 752 
Q 1469 391 1925 391 
Q 2381 391 2643 752 
Q 2906 1113 2906 1747 
Q 2906 2381 2643 2742 
Q 2381 3103 1925 3103 
Q 1469 3103 1208 2742 
Q 947 2381 947 1747 
z
" transform="scale(0.015625)"/>
      <path id="DejaVuSans-43" d="M 4122 4306 
L 4122 3641 
Q 3803 3938 3442 4084 
Q 3081 4231 2675 4231 
Q 1875 4231 1450 3742 
Q 1025 3253 1025 2328 
Q 1025 1406 1450 917 
Q 1875 428 2675 428 
Q 3081 428 3442 575 
Q 3803 722 4122 1019 
L 4122 359 
Q 3791 134 3420 21 
Q 3050 -91 2638 -91 
Q 1578 -91 968 557 
Q 359 1206 359 2328 
Q 359 3453 968 4101 
Q 1578 4750 2638 4750 
Q 3056 4750 3426 4639 
Q 3797 4528 4122 4306 
z
" transform="scale(0.015625)"/>
      <path id="DejaVuSans-66" d="M 2375 4863 
L 2375 4384 
L 1825 4384 
Q 1516 4384 1395 4259 
Q 1275 4134 1275 3809 
L 1275 3500 
L 2222 3500 
L 2222 3053 
L 1275 3053 
L 1275 0 
L 697 0 
L 697 3053 
L 147 3053 
L 147 3500 
L 697 3500 
L 697 3744 
Q 697 4328 969 4595 
Q 1241 4863 1831 4863 
L 2375 4863 
z
" transform="scale(0.015625)"/>
      <path id="DejaVuSans-76" d="M 191 3500 
L 800 3500 
L 1894 563 
L 2988 3500 
L 3597 3500 
L 2284 0 
L 1503 0 
L 191 3500 
z
" transform="scale(0.015625)"/>
      <path id="DejaVuSans-6c" d="M 603 4863 
L 1178 4863 
L 1178 0 
L 603 0 
L 603 4863 
z
" transform="scale(0.015625)"/>
     </defs>
     <use xlink:href="#DejaVuSans-41"/>
     <use xlink:href="#DejaVuSans-52" x="68.408203"/>
     <use xlink:href="#DejaVuSans-49" x="137.890625"/>
     <use xlink:href="#DejaVuSans-4d" x="167.382812"/>
     <use xlink:href="#DejaVuSans-41" x="253.662109"/>
     <use xlink:href="#DejaVuSans-20" x="322.070312"/>
     <use xlink:href="#DejaVuSans-50" x="353.857422"/>
     <use xlink:href="#DejaVuSans-72" x="412.410156"/>
     <use xlink:href="#DejaVuSans-69" x="453.523438"/>
     <use xlink:href="#DejaVuSans-63" x="481.306641"/>
     <use xlink:href="#DejaVuSans-65" x="536.287109"/>
     <use xlink:href="#DejaVuSans-20" x="597.810547"/>
     <use xlink:href="#DejaVuSans-46" x="629.597656"/>
     <use xlink:href="#DejaVuSans-6f" x="683.492188"/>
     <use xlink:href="#DejaVuSans-72" x="744.673828"/>
     <use xlink:href="#DejaVuSans-65" x="783.537109"/>
     <use xlink:href="#DejaVuSans-63" x="845.060547"/>
     <use xlink:href="#DejaVuSans-61" x="900.041016"/>
     <use xlink:href="#DejaVuSans-73" x="961.320312"/>
     <use xlink:href="#DejaVuSans-74" x="1013.419922"/>
     <use xlink:href="#DejaVuSans-20" x="1052.628906"/>
     <use xlink:href="#DejaVuSans-61" x="1084.416016"/>
     <use xlink:href="#DejaVuSans-6e" x="1145.695312"/>
     <use xlink:href="#DejaVuSans-64" x="1209.074219"/>
     <use xlink:href="#DejaVuSans-20" x="1272.550781"/>
     <use xlink:href="#DejaVuSans-43" x="1304.337891"/>
     <use xlink:href="#DejaVuSans-6f" x="1374.162109"/>
     <use xlink:href="#DejaVuSans-6e" x="1435.34375"/>
     <use xlink:href="#DejaVuSans-66" x="1498.722656"/>
     <use xlink:href="#DejaVuSans-69" x="1533.927734"/>
     <use xlink:href="#DejaVuSans-64" x="1561.710938"/>
     <use xlink:href="#DejaVuSans-65" x="1625.1875"/>
     <use xlink:href="#DejaVuSans-6e" x="1686.710938"/>
     <use xlink:href="#DejaVuSans-63" x="1750.089844"/>
     <use xlink:href="#DejaVuSans-65" x="1805.070312"/>
     <use xlink:href="#DejaVuSans-20" x="1866.59375"/>
     <use xlink:href="#DejaVuSans-49" x="1898.380859"/>
     <use xlink:href="#DejaVuSans-6e" x="1927.873047"/>
     <use xlink:href="#DejaVuSans-74" x="1991.251953"/>
     <use xlink:href="#DejaVuSans-65" x="2030.460938"/>
     <use xlink:href="#DejaVuSans-72" x="2091.984375"/>
     <use xlink:href="#DejaVuSans-76" x="2133.097656"/>
     <use xlink:href="#DejaVuSans-61" x="2192.277344"/>
     <use xlink:href="#DejaVuSans-6c" x="2253.556641"/>
    </g>
   </g>
   <g id="legend_1">
    <g id="patch_7">
     <path d="M 612.326563 74.3525 
L 695.8875 74.3525 
Q 697.8875 74.3525 697.8875 72.3525 
L 697.8875 29.318125 
Q 697.8875 27.318125 695.8875 27.318125 
L 612.326563 27.318125 
Q 610.326563 27.318125 610.326563 29.318125 
L 610.326563 72.3525 
Q 610.326563 74.3525 612.326563 74.3525 
z
" style="opacity: 0.8; stroke: #cccccc; stroke-linejoin: miter"/>
    </g>
    <g id="line2d_30">
     <path d="M 614.326563 35.416562 
L 624.326563 35.416562 
L 634.326563 35.416562 
" style="fill: none; stroke: #000000; stroke-width: 1.5; stroke-linecap: square"/>
    </g>
    <g id="text_15">
     <!-- Forecast -->
     <g style="fill: #ffffff" transform="translate(642.326563 38.916562)scale(0.1 -0.1)">
      <use xlink:href="#DejaVuSans-46"/>
      <use xlink:href="#DejaVuSans-6f" x="53.894531"/>
      <use xlink:href="#DejaVuSans-72" x="115.076172"/>
      <use xlink:href="#DejaVuSans-65" x="153.939453"/>
      <use xlink:href="#DejaVuSans-63" x="215.462891"/>
      <use xlink:href="#DejaVuSans-61" x="270.443359"/>
      <use xlink:href="#DejaVuSans-73" x="331.722656"/>
      <use xlink:href="#DejaVuSans-74" x="383.822266"/>
     </g>
    </g>
    <g id="line2d_31">
     <path d="M 614.326563 50.094687 
L 624.326563 50.094687 
L 634.326563 50.094687 
" style="fill: none; stroke: #ff0000; stroke-width: 1.5; stroke-linecap: square"/>
    </g>
    <g id="text_16">
     <!-- Test Price -->
     <g style="fill: #ffffff" transform="translate(642.326563 53.594687)scale(0.1 -0.1)">
      <defs>
       <path id="DejaVuSans-54" d="M -19 4666 
L 3928 4666 
L 3928 4134 
L 2272 4134 
L 2272 0 
L 1638 0 
L 1638 4134 
L -19 4134 
L -19 4666 
z
" transform="scale(0.015625)"/>
      </defs>
      <use xlink:href="#DejaVuSans-54"/>
      <use xlink:href="#DejaVuSans-65" x="44.083984"/>
      <use xlink:href="#DejaVuSans-73" x="105.607422"/>
      <use xlink:href="#DejaVuSans-74" x="157.707031"/>
      <use xlink:href="#DejaVuSans-20" x="196.916016"/>
      <use xlink:href="#DejaVuSans-50" x="228.703125"/>
      <use xlink:href="#DejaVuSans-72" x="287.255859"/>
      <use xlink:href="#DejaVuSans-69" x="328.369141"/>
      <use xlink:href="#DejaVuSans-63" x="356.152344"/>
      <use xlink:href="#DejaVuSans-65" x="411.132812"/>
     </g>
    </g>
    <g id="line2d_32">
     <path d="M 614.326563 64.772812 
L 624.326563 64.772812 
L 634.326563 64.772812 
" style="fill: none; stroke: #0000ff; stroke-width: 1.5; stroke-linecap: square"/>
    </g>
    <g id="text_17">
     <!-- Train Price -->
     <g style="fill: #ffffff" transform="translate(642.326563 68.272812)scale(0.1 -0.1)">
      <use xlink:href="#DejaVuSans-54"/>
      <use xlink:href="#DejaVuSans-72" x="46.333984"/>
      <use xlink:href="#DejaVuSans-61" x="87.447266"/>
      <use xlink:href="#DejaVuSans-69" x="148.726562"/>
      <use xlink:href="#DejaVuSans-6e" x="176.509766"/>
      <use xlink:href="#DejaVuSans-20" x="239.888672"/>
      <use xlink:href="#DejaVuSans-50" x="271.675781"/>
      <use xlink:href="#DejaVuSans-72" x="330.228516"/>
      <use xlink:href="#DejaVuSans-69" x="371.341797"/>
      <use xlink:href="#DejaVuSans-63" x="399.125"/>
      <use xlink:href="#DejaVuSans-65" x="454.105469"/>
     </g>
    </g>
   </g>
  </g>
 </g>
 <defs>
  <clipPath id="p53113b2650">
   <rect x="33.2875" y="22.318125" width="669.6" height="434.88"/>
  </clipPath>
 </defs>
</svg>
