<?xml version="1.0" encoding="utf-8" standalone="no"?>
<!DOCTYPE svg PUBLIC "-//W3C//DTD SVG 1.1//EN"
  "http://www.w3.org/Graphics/SVG/1.1/DTD/svg11.dtd">
<svg xmlns:xlink="http://www.w3.org/1999/xlink" width="723.765625pt" height="317.99625pt" viewBox="0 0 723.765625 317.99625" xmlns="http://www.w3.org/2000/svg" version="1.1">
 <metadata>
  <rdf:RDF xmlns:dc="http://purl.org/dc/elements/1.1/" xmlns:cc="http://creativecommons.org/ns#" xmlns:rdf="http://www.w3.org/1999/02/22-rdf-syntax-ns#">
   <cc:Work>
    <dc:type rdf:resource="http://purl.org/dc/dcmitype/StillImage"/>
    <dc:date>2022-07-20T17:41:37.575322</dc:date>
    <dc:format>image/svg+xml</dc:format>
    <dc:creator>
     <cc:Agent>
      <dc:title>Matplotlib v3.5.1, https://matplotlib.org/</dc:title>
     </cc:Agent>
    </dc:creator>
   </cc:Work>
  </rdf:RDF>
 </metadata>
 <defs>
  <style type="text/css">*{stroke-linejoin: round; stroke-linecap: butt}</style>
 </defs>
 <g id="figure_1">
  <g id="patch_1">
   <path d="M 0 317.99625 
L 723.765625 317.99625 
L 723.765625 0 
L 0 0 
z
"/>
  </g>
  <g id="axes_1">
   <g id="patch_2">
    <path d="M 46.965625 294.118125 
L 716.565625 294.118125 
L 716.565625 22.318125 
L 46.965625 22.318125 
z
"/>
   </g>
   <g id="patch_3">
    <path d="M 77.401989 294.118125 
L 89.576534 294.118125 
L 89.576534 292.307935 
L 77.401989 292.307935 
z
" clip-path="url(#p3d3ebeb68f)" style="fill: #ff0000"/>
   </g>
   <g id="patch_4">
    <path d="M 89.576534 294.118125 
L 101.75108 294.118125 
L 101.75108 294.118125 
L 89.576534 294.118125 
z
" clip-path="url(#p3d3ebeb68f)" style="fill: #ff0000"/>
   </g>
   <g id="patch_5">
    <path d="M 101.75108 294.118125 
L 113.925625 294.118125 
L 113.925625 294.118125 
L 101.75108 294.118125 
z
" clip-path="url(#p3d3ebeb68f)" style="fill: #ff0000"/>
   </g>
   <g id="patch_6">
    <path d="M 113.925625 294.118125 
L 126.10017 294.118125 
L 126.10017 294.118125 
L 113.925625 294.118125 
z
" clip-path="url(#p3d3ebeb68f)" style="fill: #ff0000"/>
   </g>
   <g id="patch_7">
    <path d="M 126.10017 294.118125 
L 138.274716 294.118125 
L 138.274716 294.118125 
L 126.10017 294.118125 
z
" clip-path="url(#p3d3ebeb68f)" style="fill: #ff0000"/>
   </g>
   <g id="patch_8">
    <path d="M 138.274716 294.118125 
L 150.449261 294.118125 
L 150.449261 292.307935 
L 138.274716 292.307935 
z
" clip-path="url(#p3d3ebeb68f)" style="fill: #ff0000"/>
   </g>
   <g id="patch_9">
    <path d="M 150.449261 294.118125 
L 162.623807 294.118125 
L 162.623807 294.118125 
L 150.449261 294.118125 
z
" clip-path="url(#p3d3ebeb68f)" style="fill: #ff0000"/>
   </g>
   <g id="patch_10">
    <path d="M 162.623807 294.118125 
L 174.798352 294.118125 
L 174.798352 292.307935 
L 162.623807 292.307935 
z
" clip-path="url(#p3d3ebeb68f)" style="fill: #ff0000"/>
   </g>
   <g id="patch_11">
    <path d="M 174.798352 294.118125 
L 186.972898 294.118125 
L 186.972898 294.118125 
L 174.798352 294.118125 
z
" clip-path="url(#p3d3ebeb68f)" style="fill: #ff0000"/>
   </g>
   <g id="patch_12">
    <path d="M 186.972898 294.118125 
L 199.147443 294.118125 
L 199.147443 294.118125 
L 186.972898 294.118125 
z
" clip-path="url(#p3d3ebeb68f)" style="fill: #ff0000"/>
   </g>
   <g id="patch_13">
    <path d="M 199.147443 294.118125 
L 211.321989 294.118125 
L 211.321989 292.307935 
L 199.147443 292.307935 
z
" clip-path="url(#p3d3ebeb68f)" style="fill: #ff0000"/>
   </g>
   <g id="patch_14">
    <path d="M 211.321989 294.118125 
L 223.496534 294.118125 
L 223.496534 292.307935 
L 211.321989 292.307935 
z
" clip-path="url(#p3d3ebeb68f)" style="fill: #ff0000"/>
   </g>
   <g id="patch_15">
    <path d="M 223.496534 294.118125 
L 235.67108 294.118125 
L 235.67108 294.118125 
L 223.496534 294.118125 
z
" clip-path="url(#p3d3ebeb68f)" style="fill: #ff0000"/>
   </g>
   <g id="patch_16">
    <path d="M 235.67108 294.118125 
L 247.845625 294.118125 
L 247.845625 294.118125 
L 235.67108 294.118125 
z
" clip-path="url(#p3d3ebeb68f)" style="fill: #ff0000"/>
   </g>
   <g id="patch_17">
    <path d="M 247.845625 294.118125 
L 260.02017 294.118125 
L 260.02017 292.307935 
L 247.845625 292.307935 
z
" clip-path="url(#p3d3ebeb68f)" style="fill: #ff0000"/>
   </g>
   <g id="patch_18">
    <path d="M 260.02017 294.118125 
L 272.194716 294.118125 
L 272.194716 290.497745 
L 260.02017 290.497745 
z
" clip-path="url(#p3d3ebeb68f)" style="fill: #ff0000"/>
   </g>
   <g id="patch_19">
    <path d="M 272.194716 294.118125 
L 284.369261 294.118125 
L 284.369261 290.497745 
L 272.194716 290.497745 
z
" clip-path="url(#p3d3ebeb68f)" style="fill: #ff0000"/>
   </g>
   <g id="patch_20">
    <path d="M 284.369261 294.118125 
L 296.543807 294.118125 
L 296.543807 286.877366 
L 284.369261 286.877366 
z
" clip-path="url(#p3d3ebeb68f)" style="fill: #ff0000"/>
   </g>
   <g id="patch_21">
    <path d="M 296.543807 294.118125 
L 308.718352 294.118125 
L 308.718352 288.687556 
L 296.543807 288.687556 
z
" clip-path="url(#p3d3ebeb68f)" style="fill: #ff0000"/>
   </g>
   <g id="patch_22">
    <path d="M 308.718352 294.118125 
L 320.892898 294.118125 
L 320.892898 285.067176 
L 308.718352 285.067176 
z
" clip-path="url(#p3d3ebeb68f)" style="fill: #ff0000"/>
   </g>
   <g id="patch_23">
    <path d="M 320.892898 294.118125 
L 333.067443 294.118125 
L 333.067443 277.826417 
L 320.892898 277.826417 
z
" clip-path="url(#p3d3ebeb68f)" style="fill: #ff0000"/>
   </g>
   <g id="patch_24">
    <path d="M 333.067443 294.118125 
L 345.241989 294.118125 
L 345.241989 274.206037 
L 333.067443 274.206037 
z
" clip-path="url(#p3d3ebeb68f)" style="fill: #ff0000"/>
   </g>
   <g id="patch_25">
    <path d="M 345.241989 294.118125 
L 357.416534 294.118125 
L 357.416534 263.344898 
L 345.241989 263.344898 
z
" clip-path="url(#p3d3ebeb68f)" style="fill: #ff0000"/>
   </g>
   <g id="patch_26">
    <path d="M 357.416534 294.118125 
L 369.59108 294.118125 
L 369.59108 243.43281 
L 357.416534 243.43281 
z
" clip-path="url(#p3d3ebeb68f)" style="fill: #ff0000"/>
   </g>
   <g id="patch_27">
    <path d="M 369.59108 294.118125 
L 381.765625 294.118125 
L 381.765625 207.229014 
L 369.59108 207.229014 
z
" clip-path="url(#p3d3ebeb68f)" style="fill: #ff0000"/>
   </g>
   <g id="patch_28">
    <path d="M 381.765625 294.118125 
L 393.94017 294.118125 
L 393.94017 167.404838 
L 381.765625 167.404838 
z
" clip-path="url(#p3d3ebeb68f)" style="fill: #ff0000"/>
   </g>
   <g id="patch_29">
    <path d="M 393.94017 294.118125 
L 406.114716 294.118125 
L 406.114716 116.719524 
L 393.94017 116.719524 
z
" clip-path="url(#p3d3ebeb68f)" style="fill: #ff0000"/>
   </g>
   <g id="patch_30">
    <path d="M 406.114716 294.118125 
L 418.289261 294.118125 
L 418.289261 58.79345 
L 406.114716 58.79345 
z
" clip-path="url(#p3d3ebeb68f)" style="fill: #ff0000"/>
   </g>
   <g id="patch_31">
    <path d="M 418.289261 294.118125 
L 430.463807 294.118125 
L 430.463807 35.260982 
L 418.289261 35.260982 
z
" clip-path="url(#p3d3ebeb68f)" style="fill: #ff0000"/>
   </g>
   <g id="patch_32">
    <path d="M 430.463807 294.118125 
L 442.638352 294.118125 
L 442.638352 87.756487 
L 430.463807 87.756487 
z
" clip-path="url(#p3d3ebeb68f)" style="fill: #ff0000"/>
   </g>
   <g id="patch_33">
    <path d="M 442.638352 294.118125 
L 454.812898 294.118125 
L 454.812898 136.631612 
L 442.638352 136.631612 
z
" clip-path="url(#p3d3ebeb68f)" style="fill: #ff0000"/>
   </g>
   <g id="patch_34">
    <path d="M 454.812898 294.118125 
L 466.987443 294.118125 
L 466.987443 201.798445 
L 454.812898 201.798445 
z
" clip-path="url(#p3d3ebeb68f)" style="fill: #ff0000"/>
   </g>
   <g id="patch_35">
    <path d="M 466.987443 294.118125 
L 479.161989 294.118125 
L 479.161989 221.710533 
L 466.987443 221.710533 
z
" clip-path="url(#p3d3ebeb68f)" style="fill: #ff0000"/>
   </g>
   <g id="patch_36">
    <path d="M 479.161989 294.118125 
L 491.336534 294.118125 
L 491.336534 252.483759 
L 479.161989 252.483759 
z
" clip-path="url(#p3d3ebeb68f)" style="fill: #ff0000"/>
   </g>
   <g id="patch_37">
    <path d="M 491.336534 294.118125 
L 503.51108 294.118125 
L 503.51108 279.636607 
L 491.336534 279.636607 
z
" clip-path="url(#p3d3ebeb68f)" style="fill: #ff0000"/>
   </g>
   <g id="patch_38">
    <path d="M 503.51108 294.118125 
L 515.685625 294.118125 
L 515.685625 283.256986 
L 503.51108 283.256986 
z
" clip-path="url(#p3d3ebeb68f)" style="fill: #ff0000"/>
   </g>
   <g id="patch_39">
    <path d="M 515.685625 294.118125 
L 527.86017 294.118125 
L 527.86017 292.307935 
L 515.685625 292.307935 
z
" clip-path="url(#p3d3ebeb68f)" style="fill: #ff0000"/>
   </g>
   <g id="patch_40">
    <path d="M 527.86017 294.118125 
L 540.034716 294.118125 
L 540.034716 285.067176 
L 527.86017 285.067176 
z
" clip-path="url(#p3d3ebeb68f)" style="fill: #ff0000"/>
   </g>
   <g id="patch_41">
    <path d="M 540.034716 294.118125 
L 552.209261 294.118125 
L 552.209261 288.687556 
L 540.034716 288.687556 
z
" clip-path="url(#p3d3ebeb68f)" style="fill: #ff0000"/>
   </g>
   <g id="patch_42">
    <path d="M 552.209261 294.118125 
L 564.383807 294.118125 
L 564.383807 292.307935 
L 552.209261 292.307935 
z
" clip-path="url(#p3d3ebeb68f)" style="fill: #ff0000"/>
   </g>
   <g id="patch_43">
    <path d="M 564.383807 294.118125 
L 576.558352 294.118125 
L 576.558352 290.497745 
L 564.383807 290.497745 
z
" clip-path="url(#p3d3ebeb68f)" style="fill: #ff0000"/>
   </g>
   <g id="patch_44">
    <path d="M 576.558352 294.118125 
L 588.732898 294.118125 
L 588.732898 288.687556 
L 576.558352 288.687556 
z
" clip-path="url(#p3d3ebeb68f)" style="fill: #ff0000"/>
   </g>
   <g id="patch_45">
    <path d="M 588.732898 294.118125 
L 600.907443 294.118125 
L 600.907443 292.307935 
L 588.732898 292.307935 
z
" clip-path="url(#p3d3ebeb68f)" style="fill: #ff0000"/>
   </g>
   <g id="patch_46">
    <path d="M 600.907443 294.118125 
L 613.081989 294.118125 
L 613.081989 292.307935 
L 600.907443 292.307935 
z
" clip-path="url(#p3d3ebeb68f)" style="fill: #ff0000"/>
   </g>
   <g id="patch_47">
    <path d="M 613.081989 294.118125 
L 625.256534 294.118125 
L 625.256534 294.118125 
L 613.081989 294.118125 
z
" clip-path="url(#p3d3ebeb68f)" style="fill: #ff0000"/>
   </g>
   <g id="patch_48">
    <path d="M 625.256534 294.118125 
L 637.43108 294.118125 
L 637.43108 292.307935 
L 625.256534 292.307935 
z
" clip-path="url(#p3d3ebeb68f)" style="fill: #ff0000"/>
   </g>
   <g id="patch_49">
    <path d="M 637.43108 294.118125 
L 649.605625 294.118125 
L 649.605625 294.118125 
L 637.43108 294.118125 
z
" clip-path="url(#p3d3ebeb68f)" style="fill: #ff0000"/>
   </g>
   <g id="patch_50">
    <path d="M 649.605625 294.118125 
L 661.78017 294.118125 
L 661.78017 294.118125 
L 649.605625 294.118125 
z
" clip-path="url(#p3d3ebeb68f)" style="fill: #ff0000"/>
   </g>
   <g id="patch_51">
    <path d="M 661.78017 294.118125 
L 673.954716 294.118125 
L 673.954716 294.118125 
L 661.78017 294.118125 
z
" clip-path="url(#p3d3ebeb68f)" style="fill: #ff0000"/>
   </g>
   <g id="patch_52">
    <path d="M 673.954716 294.118125 
L 686.129261 294.118125 
L 686.129261 292.307935 
L 673.954716 292.307935 
z
" clip-path="url(#p3d3ebeb68f)" style="fill: #ff0000"/>
   </g>
   <g id="matplotlib.axis_1">
    <g id="xtick_1">
     <g id="line2d_1">
      <defs>
       <path id="mefbc14d25c" d="M 0 0 
L 0 3.5 
" style="stroke: #ffffff; stroke-width: 0.8"/>
      </defs>
      <g>
       <use xlink:href="#mefbc14d25c" x="84.166672" y="294.118125" style="fill: #ffffff; stroke: #ffffff; stroke-width: 0.8"/>
      </g>
     </g>
     <g id="text_1">
      <!-- −10.0 -->
      <g style="fill: #ffffff" transform="translate(68.844016 308.716563)scale(0.1 -0.1)">
       <defs>
        <path id="DejaVuSans-2212" d="M 678 2272 
L 4684 2272 
L 4684 1741 
L 678 1741 
L 678 2272 
z
" transform="scale(0.015625)"/>
        <path id="DejaVuSans-31" d="M 794 531 
L 1825 531 
L 1825 4091 
L 703 3866 
L 703 4441 
L 1819 4666 
L 2450 4666 
L 2450 531 
L 3481 531 
L 3481 0 
L 794 0 
L 794 531 
z
" transform="scale(0.015625)"/>
        <path id="DejaVuSans-30" d="M 2034 4250 
Q 1547 4250 1301 3770 
Q 1056 3291 1056 2328 
Q 1056 1369 1301 889 
Q 1547 409 2034 409 
Q 2525 409 2770 889 
Q 3016 1369 3016 2328 
Q 3016 3291 2770 3770 
Q 2525 4250 2034 4250 
z
M 2034 4750 
Q 2819 4750 3233 4129 
Q 3647 3509 3647 2328 
Q 3647 1150 3233 529 
Q 2819 -91 2034 -91 
Q 1250 -91 836 529 
Q 422 1150 422 2328 
Q 422 3509 836 4129 
Q 1250 4750 2034 4750 
z
" transform="scale(0.015625)"/>
        <path id="DejaVuSans-2e" d="M 684 794 
L 1344 794 
L 1344 0 
L 684 0 
L 684 794 
z
" transform="scale(0.015625)"/>
       </defs>
       <use xlink:href="#DejaVuSans-2212"/>
       <use xlink:href="#DejaVuSans-31" x="83.789062"/>
       <use xlink:href="#DejaVuSans-30" x="147.412109"/>
       <use xlink:href="#DejaVuSans-2e" x="211.035156"/>
       <use xlink:href="#DejaVuSans-30" x="242.822266"/>
      </g>
     </g>
    </g>
    <g id="xtick_2">
     <g id="line2d_2">
      <g>
       <use xlink:href="#mefbc14d25c" x="166.943088" y="294.118125" style="fill: #ffffff; stroke: #ffffff; stroke-width: 0.8"/>
      </g>
     </g>
     <g id="text_2">
      <!-- −7.5 -->
      <g style="fill: #ffffff" transform="translate(154.801682 308.716563)scale(0.1 -0.1)">
       <defs>
        <path id="DejaVuSans-37" d="M 525 4666 
L 3525 4666 
L 3525 4397 
L 1831 0 
L 1172 0 
L 2766 4134 
L 525 4134 
L 525 4666 
z
" transform="scale(0.015625)"/>
        <path id="DejaVuSans-35" d="M 691 4666 
L 3169 4666 
L 3169 4134 
L 1269 4134 
L 1269 2991 
Q 1406 3038 1543 3061 
Q 1681 3084 1819 3084 
Q 2600 3084 3056 2656 
Q 3513 2228 3513 1497 
Q 3513 744 3044 326 
Q 2575 -91 1722 -91 
Q 1428 -91 1123 -41 
Q 819 9 494 109 
L 494 744 
Q 775 591 1075 516 
Q 1375 441 1709 441 
Q 2250 441 2565 725 
Q 2881 1009 2881 1497 
Q 2881 1984 2565 2268 
Q 2250 2553 1709 2553 
Q 1456 2553 1204 2497 
Q 953 2441 691 2322 
L 691 4666 
z
" transform="scale(0.015625)"/>
       </defs>
       <use xlink:href="#DejaVuSans-2212"/>
       <use xlink:href="#DejaVuSans-37" x="83.789062"/>
       <use xlink:href="#DejaVuSans-2e" x="147.412109"/>
       <use xlink:href="#DejaVuSans-35" x="179.199219"/>
      </g>
     </g>
    </g>
    <g id="xtick_3">
     <g id="line2d_3">
      <g>
       <use xlink:href="#mefbc14d25c" x="249.719504" y="294.118125" style="fill: #ffffff; stroke: #ffffff; stroke-width: 0.8"/>
      </g>
     </g>
     <g id="text_3">
      <!-- −5.0 -->
      <g style="fill: #ffffff" transform="translate(237.578098 308.716563)scale(0.1 -0.1)">
       <use xlink:href="#DejaVuSans-2212"/>
       <use xlink:href="#DejaVuSans-35" x="83.789062"/>
       <use xlink:href="#DejaVuSans-2e" x="147.412109"/>
       <use xlink:href="#DejaVuSans-30" x="179.199219"/>
      </g>
     </g>
    </g>
    <g id="xtick_4">
     <g id="line2d_4">
      <g>
       <use xlink:href="#mefbc14d25c" x="332.49592" y="294.118125" style="fill: #ffffff; stroke: #ffffff; stroke-width: 0.8"/>
      </g>
     </g>
     <g id="text_4">
      <!-- −2.5 -->
      <g style="fill: #ffffff" transform="translate(320.354514 308.716563)scale(0.1 -0.1)">
       <defs>
        <path id="DejaVuSans-32" d="M 1228 531 
L 3431 531 
L 3431 0 
L 469 0 
L 469 531 
Q 828 903 1448 1529 
Q 2069 2156 2228 2338 
Q 2531 2678 2651 2914 
Q 2772 3150 2772 3378 
Q 2772 3750 2511 3984 
Q 2250 4219 1831 4219 
Q 1534 4219 1204 4116 
Q 875 4013 500 3803 
L 500 4441 
Q 881 4594 1212 4672 
Q 1544 4750 1819 4750 
Q 2544 4750 2975 4387 
Q 3406 4025 3406 3419 
Q 3406 3131 3298 2873 
Q 3191 2616 2906 2266 
Q 2828 2175 2409 1742 
Q 1991 1309 1228 531 
z
" transform="scale(0.015625)"/>
       </defs>
       <use xlink:href="#DejaVuSans-2212"/>
       <use xlink:href="#DejaVuSans-32" x="83.789062"/>
       <use xlink:href="#DejaVuSans-2e" x="147.412109"/>
       <use xlink:href="#DejaVuSans-35" x="179.199219"/>
      </g>
     </g>
    </g>
    <g id="xtick_5">
     <g id="line2d_5">
      <g>
       <use xlink:href="#mefbc14d25c" x="415.272336" y="294.118125" style="fill: #ffffff; stroke: #ffffff; stroke-width: 0.8"/>
      </g>
     </g>
     <g id="text_5">
      <!-- 0.0 -->
      <g style="fill: #ffffff" transform="translate(407.320774 308.716563)scale(0.1 -0.1)">
       <use xlink:href="#DejaVuSans-30"/>
       <use xlink:href="#DejaVuSans-2e" x="63.623047"/>
       <use xlink:href="#DejaVuSans-30" x="95.410156"/>
      </g>
     </g>
    </g>
    <g id="xtick_6">
     <g id="line2d_6">
      <g>
       <use xlink:href="#mefbc14d25c" x="498.048752" y="294.118125" style="fill: #ffffff; stroke: #ffffff; stroke-width: 0.8"/>
      </g>
     </g>
     <g id="text_6">
      <!-- 2.5 -->
      <g style="fill: #ffffff" transform="translate(490.09719 308.716563)scale(0.1 -0.1)">
       <use xlink:href="#DejaVuSans-32"/>
       <use xlink:href="#DejaVuSans-2e" x="63.623047"/>
       <use xlink:href="#DejaVuSans-35" x="95.410156"/>
      </g>
     </g>
    </g>
    <g id="xtick_7">
     <g id="line2d_7">
      <g>
       <use xlink:href="#mefbc14d25c" x="580.825168" y="294.118125" style="fill: #ffffff; stroke: #ffffff; stroke-width: 0.8"/>
      </g>
     </g>
     <g id="text_7">
      <!-- 5.0 -->
      <g style="fill: #ffffff" transform="translate(572.873606 308.716563)scale(0.1 -0.1)">
       <use xlink:href="#DejaVuSans-35"/>
       <use xlink:href="#DejaVuSans-2e" x="63.623047"/>
       <use xlink:href="#DejaVuSans-30" x="95.410156"/>
      </g>
     </g>
    </g>
    <g id="xtick_8">
     <g id="line2d_8">
      <g>
       <use xlink:href="#mefbc14d25c" x="663.601584" y="294.118125" style="fill: #ffffff; stroke: #ffffff; stroke-width: 0.8"/>
      </g>
     </g>
     <g id="text_8">
      <!-- 7.5 -->
      <g style="fill: #ffffff" transform="translate(655.650022 308.716563)scale(0.1 -0.1)">
       <use xlink:href="#DejaVuSans-37"/>
       <use xlink:href="#DejaVuSans-2e" x="63.623047"/>
       <use xlink:href="#DejaVuSans-35" x="95.410156"/>
      </g>
     </g>
    </g>
   </g>
   <g id="matplotlib.axis_2">
    <g id="ytick_1">
     <g id="line2d_9">
      <defs>
       <path id="maf3731fded" d="M 0 0 
L -3.5 0 
" style="stroke: #ffffff; stroke-width: 0.8"/>
      </defs>
      <g>
       <use xlink:href="#maf3731fded" x="46.965625" y="294.118125" style="fill: #ffffff; stroke: #ffffff; stroke-width: 0.8"/>
      </g>
     </g>
     <g id="text_9">
      <!-- 0 -->
      <g style="fill: #ffffff" transform="translate(33.603125 297.917344)scale(0.1 -0.1)">
       <use xlink:href="#DejaVuSans-30"/>
      </g>
     </g>
    </g>
    <g id="ytick_2">
     <g id="line2d_10">
      <g>
       <use xlink:href="#maf3731fded" x="46.965625" y="257.914329" style="fill: #ffffff; stroke: #ffffff; stroke-width: 0.8"/>
      </g>
     </g>
     <g id="text_10">
      <!-- 20 -->
      <g style="fill: #ffffff" transform="translate(27.240625 261.713548)scale(0.1 -0.1)">
       <use xlink:href="#DejaVuSans-32"/>
       <use xlink:href="#DejaVuSans-30" x="63.623047"/>
      </g>
     </g>
    </g>
    <g id="ytick_3">
     <g id="line2d_11">
      <g>
       <use xlink:href="#maf3731fded" x="46.965625" y="221.710533" style="fill: #ffffff; stroke: #ffffff; stroke-width: 0.8"/>
      </g>
     </g>
     <g id="text_11">
      <!-- 40 -->
      <g style="fill: #ffffff" transform="translate(27.240625 225.509751)scale(0.1 -0.1)">
       <defs>
        <path id="DejaVuSans-34" d="M 2419 4116 
L 825 1625 
L 2419 1625 
L 2419 4116 
z
M 2253 4666 
L 3047 4666 
L 3047 1625 
L 3713 1625 
L 3713 1100 
L 3047 1100 
L 3047 0 
L 2419 0 
L 2419 1100 
L 313 1100 
L 313 1709 
L 2253 4666 
z
" transform="scale(0.015625)"/>
       </defs>
       <use xlink:href="#DejaVuSans-34"/>
       <use xlink:href="#DejaVuSans-30" x="63.623047"/>
      </g>
     </g>
    </g>
    <g id="ytick_4">
     <g id="line2d_12">
      <g>
       <use xlink:href="#maf3731fded" x="46.965625" y="185.506736" style="fill: #ffffff; stroke: #ffffff; stroke-width: 0.8"/>
      </g>
     </g>
     <g id="text_12">
      <!-- 60 -->
      <g style="fill: #ffffff" transform="translate(27.240625 189.305955)scale(0.1 -0.1)">
       <defs>
        <path id="DejaVuSans-36" d="M 2113 2584 
Q 1688 2584 1439 2293 
Q 1191 2003 1191 1497 
Q 1191 994 1439 701 
Q 1688 409 2113 409 
Q 2538 409 2786 701 
Q 3034 994 3034 1497 
Q 3034 2003 2786 2293 
Q 2538 2584 2113 2584 
z
M 3366 4563 
L 3366 3988 
Q 3128 4100 2886 4159 
Q 2644 4219 2406 4219 
Q 1781 4219 1451 3797 
Q 1122 3375 1075 2522 
Q 1259 2794 1537 2939 
Q 1816 3084 2150 3084 
Q 2853 3084 3261 2657 
Q 3669 2231 3669 1497 
Q 3669 778 3244 343 
Q 2819 -91 2113 -91 
Q 1303 -91 875 529 
Q 447 1150 447 2328 
Q 447 3434 972 4092 
Q 1497 4750 2381 4750 
Q 2619 4750 2861 4703 
Q 3103 4656 3366 4563 
z
" transform="scale(0.015625)"/>
       </defs>
       <use xlink:href="#DejaVuSans-36"/>
       <use xlink:href="#DejaVuSans-30" x="63.623047"/>
      </g>
     </g>
    </g>
    <g id="ytick_5">
     <g id="line2d_13">
      <g>
       <use xlink:href="#maf3731fded" x="46.965625" y="149.30294" style="fill: #ffffff; stroke: #ffffff; stroke-width: 0.8"/>
      </g>
     </g>
     <g id="text_13">
      <!-- 80 -->
      <g style="fill: #ffffff" transform="translate(27.240625 153.102159)scale(0.1 -0.1)">
       <defs>
        <path id="DejaVuSans-38" d="M 2034 2216 
Q 1584 2216 1326 1975 
Q 1069 1734 1069 1313 
Q 1069 891 1326 650 
Q 1584 409 2034 409 
Q 2484 409 2743 651 
Q 3003 894 3003 1313 
Q 3003 1734 2745 1975 
Q 2488 2216 2034 2216 
z
M 1403 2484 
Q 997 2584 770 2862 
Q 544 3141 544 3541 
Q 544 4100 942 4425 
Q 1341 4750 2034 4750 
Q 2731 4750 3128 4425 
Q 3525 4100 3525 3541 
Q 3525 3141 3298 2862 
Q 3072 2584 2669 2484 
Q 3125 2378 3379 2068 
Q 3634 1759 3634 1313 
Q 3634 634 3220 271 
Q 2806 -91 2034 -91 
Q 1263 -91 848 271 
Q 434 634 434 1313 
Q 434 1759 690 2068 
Q 947 2378 1403 2484 
z
M 1172 3481 
Q 1172 3119 1398 2916 
Q 1625 2713 2034 2713 
Q 2441 2713 2670 2916 
Q 2900 3119 2900 3481 
Q 2900 3844 2670 4047 
Q 2441 4250 2034 4250 
Q 1625 4250 1398 4047 
Q 1172 3844 1172 3481 
z
" transform="scale(0.015625)"/>
       </defs>
       <use xlink:href="#DejaVuSans-38"/>
       <use xlink:href="#DejaVuSans-30" x="63.623047"/>
      </g>
     </g>
    </g>
    <g id="ytick_6">
     <g id="line2d_14">
      <g>
       <use xlink:href="#maf3731fded" x="46.965625" y="113.099144" style="fill: #ffffff; stroke: #ffffff; stroke-width: 0.8"/>
      </g>
     </g>
     <g id="text_14">
      <!-- 100 -->
      <g style="fill: #ffffff" transform="translate(20.878125 116.898363)scale(0.1 -0.1)">
       <use xlink:href="#DejaVuSans-31"/>
       <use xlink:href="#DejaVuSans-30" x="63.623047"/>
       <use xlink:href="#DejaVuSans-30" x="127.246094"/>
      </g>
     </g>
    </g>
    <g id="ytick_7">
     <g id="line2d_15">
      <g>
       <use xlink:href="#maf3731fded" x="46.965625" y="76.895348" style="fill: #ffffff; stroke: #ffffff; stroke-width: 0.8"/>
      </g>
     </g>
     <g id="text_15">
      <!-- 120 -->
      <g style="fill: #ffffff" transform="translate(20.878125 80.694567)scale(0.1 -0.1)">
       <use xlink:href="#DejaVuSans-31"/>
       <use xlink:href="#DejaVuSans-32" x="63.623047"/>
       <use xlink:href="#DejaVuSans-30" x="127.246094"/>
      </g>
     </g>
    </g>
    <g id="ytick_8">
     <g id="line2d_16">
      <g>
       <use xlink:href="#maf3731fded" x="46.965625" y="40.691552" style="fill: #ffffff; stroke: #ffffff; stroke-width: 0.8"/>
      </g>
     </g>
     <g id="text_16">
      <!-- 140 -->
      <g style="fill: #ffffff" transform="translate(20.878125 44.49077)scale(0.1 -0.1)">
       <use xlink:href="#DejaVuSans-31"/>
       <use xlink:href="#DejaVuSans-34" x="63.623047"/>
       <use xlink:href="#DejaVuSans-30" x="127.246094"/>
      </g>
     </g>
    </g>
    <g id="text_17">
     <!-- Frequency -->
     <g style="fill: #ffffff" transform="translate(14.798438 184.047813)rotate(-90)scale(0.1 -0.1)">
      <defs>
       <path id="DejaVuSans-46" d="M 628 4666 
L 3309 4666 
L 3309 4134 
L 1259 4134 
L 1259 2759 
L 3109 2759 
L 3109 2228 
L 1259 2228 
L 1259 0 
L 628 0 
L 628 4666 
z
" transform="scale(0.015625)"/>
       <path id="DejaVuSans-72" d="M 2631 2963 
Q 2534 3019 2420 3045 
Q 2306 3072 2169 3072 
Q 1681 3072 1420 2755 
Q 1159 2438 1159 1844 
L 1159 0 
L 581 0 
L 581 3500 
L 1159 3500 
L 1159 2956 
Q 1341 3275 1631 3429 
Q 1922 3584 2338 3584 
Q 2397 3584 2469 3576 
Q 2541 3569 2628 3553 
L 2631 2963 
z
" transform="scale(0.015625)"/>
       <path id="DejaVuSans-65" d="M 3597 1894 
L 3597 1613 
L 953 1613 
Q 991 1019 1311 708 
Q 1631 397 2203 397 
Q 2534 397 2845 478 
Q 3156 559 3463 722 
L 3463 178 
Q 3153 47 2828 -22 
Q 2503 -91 2169 -91 
Q 1331 -91 842 396 
Q 353 884 353 1716 
Q 353 2575 817 3079 
Q 1281 3584 2069 3584 
Q 2775 3584 3186 3129 
Q 3597 2675 3597 1894 
z
M 3022 2063 
Q 3016 2534 2758 2815 
Q 2500 3097 2075 3097 
Q 1594 3097 1305 2825 
Q 1016 2553 972 2059 
L 3022 2063 
z
" transform="scale(0.015625)"/>
       <path id="DejaVuSans-71" d="M 947 1747 
Q 947 1113 1208 752 
Q 1469 391 1925 391 
Q 2381 391 2643 752 
Q 2906 1113 2906 1747 
Q 2906 2381 2643 2742 
Q 2381 3103 1925 3103 
Q 1469 3103 1208 2742 
Q 947 2381 947 1747 
z
M 2906 525 
Q 2725 213 2448 61 
Q 2172 -91 1784 -91 
Q 1150 -91 751 415 
Q 353 922 353 1747 
Q 353 2572 751 3078 
Q 1150 3584 1784 3584 
Q 2172 3584 2448 3432 
Q 2725 3281 2906 2969 
L 2906 3500 
L 3481 3500 
L 3481 -1331 
L 2906 -1331 
L 2906 525 
z
" transform="scale(0.015625)"/>
       <path id="DejaVuSans-75" d="M 544 1381 
L 544 3500 
L 1119 3500 
L 1119 1403 
Q 1119 906 1312 657 
Q 1506 409 1894 409 
Q 2359 409 2629 706 
Q 2900 1003 2900 1516 
L 2900 3500 
L 3475 3500 
L 3475 0 
L 2900 0 
L 2900 538 
Q 2691 219 2414 64 
Q 2138 -91 1772 -91 
Q 1169 -91 856 284 
Q 544 659 544 1381 
z
M 1991 3584 
L 1991 3584 
z
" transform="scale(0.015625)"/>
       <path id="DejaVuSans-6e" d="M 3513 2113 
L 3513 0 
L 2938 0 
L 2938 2094 
Q 2938 2591 2744 2837 
Q 2550 3084 2163 3084 
Q 1697 3084 1428 2787 
Q 1159 2491 1159 1978 
L 1159 0 
L 581 0 
L 581 3500 
L 1159 3500 
L 1159 2956 
Q 1366 3272 1645 3428 
Q 1925 3584 2291 3584 
Q 2894 3584 3203 3211 
Q 3513 2838 3513 2113 
z
" transform="scale(0.015625)"/>
       <path id="DejaVuSans-63" d="M 3122 3366 
L 3122 2828 
Q 2878 2963 2633 3030 
Q 2388 3097 2138 3097 
Q 1578 3097 1268 2742 
Q 959 2388 959 1747 
Q 959 1106 1268 751 
Q 1578 397 2138 397 
Q 2388 397 2633 464 
Q 2878 531 3122 666 
L 3122 134 
Q 2881 22 2623 -34 
Q 2366 -91 2075 -91 
Q 1284 -91 818 406 
Q 353 903 353 1747 
Q 353 2603 823 3093 
Q 1294 3584 2113 3584 
Q 2378 3584 2631 3529 
Q 2884 3475 3122 3366 
z
" transform="scale(0.015625)"/>
       <path id="DejaVuSans-79" d="M 2059 -325 
Q 1816 -950 1584 -1140 
Q 1353 -1331 966 -1331 
L 506 -1331 
L 506 -850 
L 844 -850 
Q 1081 -850 1212 -737 
Q 1344 -625 1503 -206 
L 1606 56 
L 191 3500 
L 800 3500 
L 1894 763 
L 2988 3500 
L 3597 3500 
L 2059 -325 
z
" transform="scale(0.015625)"/>
      </defs>
      <use xlink:href="#DejaVuSans-46"/>
      <use xlink:href="#DejaVuSans-72" x="50.269531"/>
      <use xlink:href="#DejaVuSans-65" x="89.132812"/>
      <use xlink:href="#DejaVuSans-71" x="150.65625"/>
      <use xlink:href="#DejaVuSans-75" x="214.132812"/>
      <use xlink:href="#DejaVuSans-65" x="277.511719"/>
      <use xlink:href="#DejaVuSans-6e" x="339.035156"/>
      <use xlink:href="#DejaVuSans-63" x="402.414062"/>
      <use xlink:href="#DejaVuSans-79" x="457.394531"/>
     </g>
    </g>
   </g>
   <g id="patch_53">
    <path d="M 46.965625 294.118125 
L 46.965625 22.318125 
" style="fill: none; stroke: #ffffff; stroke-width: 0.8; stroke-linejoin: miter; stroke-linecap: square"/>
   </g>
   <g id="patch_54">
    <path d="M 716.565625 294.118125 
L 716.565625 22.318125 
" style="fill: none; stroke: #ffffff; stroke-width: 0.8; stroke-linejoin: miter; stroke-linecap: square"/>
   </g>
   <g id="patch_55">
    <path d="M 46.965625 294.118125 
L 716.565625 294.118125 
" style="fill: none; stroke: #ffffff; stroke-width: 0.8; stroke-linejoin: miter; stroke-linecap: square"/>
   </g>
   <g id="patch_56">
    <path d="M 46.965625 22.318125 
L 716.565625 22.318125 
" style="fill: none; stroke: #ffffff; stroke-width: 0.8; stroke-linejoin: miter; stroke-linecap: square"/>
   </g>
   <g id="text_18">
    <!-- Residuals -->
    <g style="fill: #ffffff" transform="translate(353.30125 16.318125)scale(0.12 -0.12)">
     <defs>
      <path id="DejaVuSans-52" d="M 2841 2188 
Q 3044 2119 3236 1894 
Q 3428 1669 3622 1275 
L 4263 0 
L 3584 0 
L 2988 1197 
Q 2756 1666 2539 1819 
Q 2322 1972 1947 1972 
L 1259 1972 
L 1259 0 
L 628 0 
L 628 4666 
L 2053 4666 
Q 2853 4666 3247 4331 
Q 3641 3997 3641 3322 
Q 3641 2881 3436 2590 
Q 3231 2300 2841 2188 
z
M 1259 4147 
L 1259 2491 
L 2053 2491 
Q 2509 2491 2742 2702 
Q 2975 2913 2975 3322 
Q 2975 3731 2742 3939 
Q 2509 4147 2053 4147 
L 1259 4147 
z
" transform="scale(0.015625)"/>
      <path id="DejaVuSans-73" d="M 2834 3397 
L 2834 2853 
Q 2591 2978 2328 3040 
Q 2066 3103 1784 3103 
Q 1356 3103 1142 2972 
Q 928 2841 928 2578 
Q 928 2378 1081 2264 
Q 1234 2150 1697 2047 
L 1894 2003 
Q 2506 1872 2764 1633 
Q 3022 1394 3022 966 
Q 3022 478 2636 193 
Q 2250 -91 1575 -91 
Q 1294 -91 989 -36 
Q 684 19 347 128 
L 347 722 
Q 666 556 975 473 
Q 1284 391 1588 391 
Q 1994 391 2212 530 
Q 2431 669 2431 922 
Q 2431 1156 2273 1281 
Q 2116 1406 1581 1522 
L 1381 1569 
Q 847 1681 609 1914 
Q 372 2147 372 2553 
Q 372 3047 722 3315 
Q 1072 3584 1716 3584 
Q 2034 3584 2315 3537 
Q 2597 3491 2834 3397 
z
" transform="scale(0.015625)"/>
      <path id="DejaVuSans-69" d="M 603 3500 
L 1178 3500 
L 1178 0 
L 603 0 
L 603 3500 
z
M 603 4863 
L 1178 4863 
L 1178 4134 
L 603 4134 
L 603 4863 
z
" transform="scale(0.015625)"/>
      <path id="DejaVuSans-64" d="M 2906 2969 
L 2906 4863 
L 3481 4863 
L 3481 0 
L 2906 0 
L 2906 525 
Q 2725 213 2448 61 
Q 2172 -91 1784 -91 
Q 1150 -91 751 415 
Q 353 922 353 1747 
Q 353 2572 751 3078 
Q 1150 3584 1784 3584 
Q 2172 3584 2448 3432 
Q 2725 3281 2906 2969 
z
M 947 1747 
Q 947 1113 1208 752 
Q 1469 391 1925 391 
Q 2381 391 2643 752 
Q 2906 1113 2906 1747 
Q 2906 2381 2643 2742 
Q 2381 3103 1925 3103 
Q 1469 3103 1208 2742 
Q 947 2381 947 1747 
z
" transform="scale(0.015625)"/>
      <path id="DejaVuSans-61" d="M 2194 1759 
Q 1497 1759 1228 1600 
Q 959 1441 959 1056 
Q 959 750 1161 570 
Q 1363 391 1709 391 
Q 2188 391 2477 730 
Q 2766 1069 2766 1631 
L 2766 1759 
L 2194 1759 
z
M 3341 1997 
L 3341 0 
L 2766 0 
L 2766 531 
Q 2569 213 2275 61 
Q 1981 -91 1556 -91 
Q 1019 -91 701 211 
Q 384 513 384 1019 
Q 384 1609 779 1909 
Q 1175 2209 1959 2209 
L 2766 2209 
L 2766 2266 
Q 2766 2663 2505 2880 
Q 2244 3097 1772 3097 
Q 1472 3097 1187 3025 
Q 903 2953 641 2809 
L 641 3341 
Q 956 3463 1253 3523 
Q 1550 3584 1831 3584 
Q 2591 3584 2966 3190 
Q 3341 2797 3341 1997 
z
" transform="scale(0.015625)"/>
      <path id="DejaVuSans-6c" d="M 603 4863 
L 1178 4863 
L 1178 0 
L 603 0 
L 603 4863 
z
" transform="scale(0.015625)"/>
     </defs>
     <use xlink:href="#DejaVuSans-52"/>
     <use xlink:href="#DejaVuSans-65" x="64.982422"/>
     <use xlink:href="#DejaVuSans-73" x="126.505859"/>
     <use xlink:href="#DejaVuSans-69" x="178.605469"/>
     <use xlink:href="#DejaVuSans-64" x="206.388672"/>
     <use xlink:href="#DejaVuSans-75" x="269.865234"/>
     <use xlink:href="#DejaVuSans-61" x="333.244141"/>
     <use xlink:href="#DejaVuSans-6c" x="394.523438"/>
     <use xlink:href="#DejaVuSans-73" x="422.306641"/>
    </g>
   </g>
   <g id="legend_1">
    <g id="patch_57">
     <path d="M 632.7375 44.99625 
L 709.565625 44.99625 
Q 711.565625 44.99625 711.565625 42.99625 
L 711.565625 29.318125 
Q 711.565625 27.318125 709.565625 27.318125 
L 632.7375 27.318125 
Q 630.7375 27.318125 630.7375 29.318125 
L 630.7375 42.99625 
Q 630.7375 44.99625 632.7375 44.99625 
z
" style="opacity: 0.8; stroke: #cccccc; stroke-linejoin: miter"/>
    </g>
    <g id="patch_58">
     <path d="M 634.7375 38.916563 
L 654.7375 38.916563 
L 654.7375 31.916563 
L 634.7375 31.916563 
z
" style="fill: #ff0000"/>
    </g>
    <g id="text_19">
     <!-- residuals -->
     <g style="fill: #ffffff" transform="translate(662.7375 38.916563)scale(0.1 -0.1)">
      <use xlink:href="#DejaVuSans-72"/>
      <use xlink:href="#DejaVuSans-65" x="38.863281"/>
      <use xlink:href="#DejaVuSans-73" x="100.386719"/>
      <use xlink:href="#DejaVuSans-69" x="152.486328"/>
      <use xlink:href="#DejaVuSans-64" x="180.269531"/>
      <use xlink:href="#DejaVuSans-75" x="243.746094"/>
      <use xlink:href="#DejaVuSans-61" x="307.125"/>
      <use xlink:href="#DejaVuSans-6c" x="368.404297"/>
      <use xlink:href="#DejaVuSans-73" x="396.1875"/>
     </g>
    </g>
   </g>
  </g>
 </g>
 <defs>
  <clipPath id="p3d3ebeb68f">
   <rect x="46.965625" y="22.318125" width="669.6" height="271.8"/>
  </clipPath>
 </defs>
</svg>
