<?xml version="1.0" encoding="utf-8" standalone="no"?>
<!DOCTYPE svg PUBLIC "-//W3C//DTD SVG 1.1//EN"
  "http://www.w3.org/Graphics/SVG/1.1/DTD/svg11.dtd">
<svg xmlns:xlink="http://www.w3.org/1999/xlink" width="712.104688pt" height="372.35625pt" viewBox="0 0 712.104688 372.35625" xmlns="http://www.w3.org/2000/svg" version="1.1">
 <metadata>
  <rdf:RDF xmlns:dc="http://purl.org/dc/elements/1.1/" xmlns:cc="http://creativecommons.org/ns#" xmlns:rdf="http://www.w3.org/1999/02/22-rdf-syntax-ns#">
   <cc:Work>
    <dc:type rdf:resource="http://purl.org/dc/dcmitype/StillImage"/>
    <dc:date>2022-07-20T17:41:23.780819</dc:date>
    <dc:format>image/svg+xml</dc:format>
    <dc:creator>
     <cc:Agent>
      <dc:title>Matplotlib v3.5.1, https://matplotlib.org/</dc:title>
     </cc:Agent>
    </dc:creator>
   </cc:Work>
  </rdf:RDF>
 </metadata>
 <defs>
  <style type="text/css">*{stroke-linejoin: round; stroke-linecap: butt}</style>
 </defs>
 <g id="figure_1">
  <g id="patch_1">
   <path d="M 0 372.35625 
L 712.104688 372.35625 
L 712.104688 0 
L 0 0 
z
"/>
  </g>
  <g id="axes_1">
   <g id="patch_2">
    <path d="M 35.304688 348.478125 
L 704.904688 348.478125 
L 704.904688 22.318125 
L 35.304688 22.318125 
z
"/>
   </g>
   <g id="matplotlib.axis_1">
    <g id="xtick_1">
     <g id="line2d_1">
      <defs>
       <path id="mb5e9f7b423" d="M 0 0 
L 0 3.5 
" style="stroke: #ffffff; stroke-width: 0.8"/>
      </defs>
      <g>
       <use xlink:href="#mb5e9f7b423" x="79.813046" y="348.478125" style="fill: #ffffff; stroke: #ffffff; stroke-width: 0.8"/>
      </g>
     </g>
     <g id="text_1">
      <!-- 2018-07 -->
      <g style="fill: #ffffff" transform="translate(58.92164 363.076563)scale(0.1 -0.1)">
       <defs>
        <path id="DejaVuSans-32" d="M 1228 531 
L 3431 531 
L 3431 0 
L 469 0 
L 469 531 
Q 828 903 1448 1529 
Q 2069 2156 2228 2338 
Q 2531 2678 2651 2914 
Q 2772 3150 2772 3378 
Q 2772 3750 2511 3984 
Q 2250 4219 1831 4219 
Q 1534 4219 1204 4116 
Q 875 4013 500 3803 
L 500 4441 
Q 881 4594 1212 4672 
Q 1544 4750 1819 4750 
Q 2544 4750 2975 4387 
Q 3406 4025 3406 3419 
Q 3406 3131 3298 2873 
Q 3191 2616 2906 2266 
Q 2828 2175 2409 1742 
Q 1991 1309 1228 531 
z
" transform="scale(0.015625)"/>
        <path id="DejaVuSans-30" d="M 2034 4250 
Q 1547 4250 1301 3770 
Q 1056 3291 1056 2328 
Q 1056 1369 1301 889 
Q 1547 409 2034 409 
Q 2525 409 2770 889 
Q 3016 1369 3016 2328 
Q 3016 3291 2770 3770 
Q 2525 4250 2034 4250 
z
M 2034 4750 
Q 2819 4750 3233 4129 
Q 3647 3509 3647 2328 
Q 3647 1150 3233 529 
Q 2819 -91 2034 -91 
Q 1250 -91 836 529 
Q 422 1150 422 2328 
Q 422 3509 836 4129 
Q 1250 4750 2034 4750 
z
" transform="scale(0.015625)"/>
        <path id="DejaVuSans-31" d="M 794 531 
L 1825 531 
L 1825 4091 
L 703 3866 
L 703 4441 
L 1819 4666 
L 2450 4666 
L 2450 531 
L 3481 531 
L 3481 0 
L 794 0 
L 794 531 
z
" transform="scale(0.015625)"/>
        <path id="DejaVuSans-38" d="M 2034 2216 
Q 1584 2216 1326 1975 
Q 1069 1734 1069 1313 
Q 1069 891 1326 650 
Q 1584 409 2034 409 
Q 2484 409 2743 651 
Q 3003 894 3003 1313 
Q 3003 1734 2745 1975 
Q 2488 2216 2034 2216 
z
M 1403 2484 
Q 997 2584 770 2862 
Q 544 3141 544 3541 
Q 544 4100 942 4425 
Q 1341 4750 2034 4750 
Q 2731 4750 3128 4425 
Q 3525 4100 3525 3541 
Q 3525 3141 3298 2862 
Q 3072 2584 2669 2484 
Q 3125 2378 3379 2068 
Q 3634 1759 3634 1313 
Q 3634 634 3220 271 
Q 2806 -91 2034 -91 
Q 1263 -91 848 271 
Q 434 634 434 1313 
Q 434 1759 690 2068 
Q 947 2378 1403 2484 
z
M 1172 3481 
Q 1172 3119 1398 2916 
Q 1625 2713 2034 2713 
Q 2441 2713 2670 2916 
Q 2900 3119 2900 3481 
Q 2900 3844 2670 4047 
Q 2441 4250 2034 4250 
Q 1625 4250 1398 4047 
Q 1172 3844 1172 3481 
z
" transform="scale(0.015625)"/>
        <path id="DejaVuSans-2d" d="M 313 2009 
L 1997 2009 
L 1997 1497 
L 313 1497 
L 313 2009 
z
" transform="scale(0.015625)"/>
        <path id="DejaVuSans-37" d="M 525 4666 
L 3525 4666 
L 3525 4397 
L 1831 0 
L 1172 0 
L 2766 4134 
L 525 4134 
L 525 4666 
z
" transform="scale(0.015625)"/>
       </defs>
       <use xlink:href="#DejaVuSans-32"/>
       <use xlink:href="#DejaVuSans-30" x="63.623047"/>
       <use xlink:href="#DejaVuSans-31" x="127.246094"/>
       <use xlink:href="#DejaVuSans-38" x="190.869141"/>
       <use xlink:href="#DejaVuSans-2d" x="254.492188"/>
       <use xlink:href="#DejaVuSans-30" x="290.576172"/>
       <use xlink:href="#DejaVuSans-37" x="354.199219"/>
      </g>
     </g>
    </g>
    <g id="xtick_2">
     <g id="line2d_2">
      <g>
       <use xlink:href="#mb5e9f7b423" x="163.337146" y="348.478125" style="fill: #ffffff; stroke: #ffffff; stroke-width: 0.8"/>
      </g>
     </g>
     <g id="text_2">
      <!-- 2019-01 -->
      <g style="fill: #ffffff" transform="translate(142.44574 363.076563)scale(0.1 -0.1)">
       <defs>
        <path id="DejaVuSans-39" d="M 703 97 
L 703 672 
Q 941 559 1184 500 
Q 1428 441 1663 441 
Q 2288 441 2617 861 
Q 2947 1281 2994 2138 
Q 2813 1869 2534 1725 
Q 2256 1581 1919 1581 
Q 1219 1581 811 2004 
Q 403 2428 403 3163 
Q 403 3881 828 4315 
Q 1253 4750 1959 4750 
Q 2769 4750 3195 4129 
Q 3622 3509 3622 2328 
Q 3622 1225 3098 567 
Q 2575 -91 1691 -91 
Q 1453 -91 1209 -44 
Q 966 3 703 97 
z
M 1959 2075 
Q 2384 2075 2632 2365 
Q 2881 2656 2881 3163 
Q 2881 3666 2632 3958 
Q 2384 4250 1959 4250 
Q 1534 4250 1286 3958 
Q 1038 3666 1038 3163 
Q 1038 2656 1286 2365 
Q 1534 2075 1959 2075 
z
" transform="scale(0.015625)"/>
       </defs>
       <use xlink:href="#DejaVuSans-32"/>
       <use xlink:href="#DejaVuSans-30" x="63.623047"/>
       <use xlink:href="#DejaVuSans-31" x="127.246094"/>
       <use xlink:href="#DejaVuSans-39" x="190.869141"/>
       <use xlink:href="#DejaVuSans-2d" x="254.492188"/>
       <use xlink:href="#DejaVuSans-30" x="290.576172"/>
       <use xlink:href="#DejaVuSans-31" x="354.199219"/>
      </g>
     </g>
    </g>
    <g id="xtick_3">
     <g id="line2d_3">
      <g>
       <use xlink:href="#mb5e9f7b423" x="245.49944" y="348.478125" style="fill: #ffffff; stroke: #ffffff; stroke-width: 0.8"/>
      </g>
     </g>
     <g id="text_3">
      <!-- 2019-07 -->
      <g style="fill: #ffffff" transform="translate(224.608034 363.076563)scale(0.1 -0.1)">
       <use xlink:href="#DejaVuSans-32"/>
       <use xlink:href="#DejaVuSans-30" x="63.623047"/>
       <use xlink:href="#DejaVuSans-31" x="127.246094"/>
       <use xlink:href="#DejaVuSans-39" x="190.869141"/>
       <use xlink:href="#DejaVuSans-2d" x="254.492188"/>
       <use xlink:href="#DejaVuSans-30" x="290.576172"/>
       <use xlink:href="#DejaVuSans-37" x="354.199219"/>
      </g>
     </g>
    </g>
    <g id="xtick_4">
     <g id="line2d_4">
      <g>
       <use xlink:href="#mb5e9f7b423" x="329.02354" y="348.478125" style="fill: #ffffff; stroke: #ffffff; stroke-width: 0.8"/>
      </g>
     </g>
     <g id="text_4">
      <!-- 2020-01 -->
      <g style="fill: #ffffff" transform="translate(308.132134 363.076563)scale(0.1 -0.1)">
       <use xlink:href="#DejaVuSans-32"/>
       <use xlink:href="#DejaVuSans-30" x="63.623047"/>
       <use xlink:href="#DejaVuSans-32" x="127.246094"/>
       <use xlink:href="#DejaVuSans-30" x="190.869141"/>
       <use xlink:href="#DejaVuSans-2d" x="254.492188"/>
       <use xlink:href="#DejaVuSans-30" x="290.576172"/>
       <use xlink:href="#DejaVuSans-31" x="354.199219"/>
      </g>
     </g>
    </g>
    <g id="xtick_5">
     <g id="line2d_5">
      <g>
       <use xlink:href="#mb5e9f7b423" x="411.63977" y="348.478125" style="fill: #ffffff; stroke: #ffffff; stroke-width: 0.8"/>
      </g>
     </g>
     <g id="text_5">
      <!-- 2020-07 -->
      <g style="fill: #ffffff" transform="translate(390.748364 363.076563)scale(0.1 -0.1)">
       <use xlink:href="#DejaVuSans-32"/>
       <use xlink:href="#DejaVuSans-30" x="63.623047"/>
       <use xlink:href="#DejaVuSans-32" x="127.246094"/>
       <use xlink:href="#DejaVuSans-30" x="190.869141"/>
       <use xlink:href="#DejaVuSans-2d" x="254.492188"/>
       <use xlink:href="#DejaVuSans-30" x="290.576172"/>
       <use xlink:href="#DejaVuSans-37" x="354.199219"/>
      </g>
     </g>
    </g>
    <g id="xtick_6">
     <g id="line2d_6">
      <g>
       <use xlink:href="#mb5e9f7b423" x="495.16387" y="348.478125" style="fill: #ffffff; stroke: #ffffff; stroke-width: 0.8"/>
      </g>
     </g>
     <g id="text_6">
      <!-- 2021-01 -->
      <g style="fill: #ffffff" transform="translate(474.272464 363.076563)scale(0.1 -0.1)">
       <use xlink:href="#DejaVuSans-32"/>
       <use xlink:href="#DejaVuSans-30" x="63.623047"/>
       <use xlink:href="#DejaVuSans-32" x="127.246094"/>
       <use xlink:href="#DejaVuSans-31" x="190.869141"/>
       <use xlink:href="#DejaVuSans-2d" x="254.492188"/>
       <use xlink:href="#DejaVuSans-30" x="290.576172"/>
       <use xlink:href="#DejaVuSans-31" x="354.199219"/>
      </g>
     </g>
    </g>
    <g id="xtick_7">
     <g id="line2d_7">
      <g>
       <use xlink:href="#mb5e9f7b423" x="577.326164" y="348.478125" style="fill: #ffffff; stroke: #ffffff; stroke-width: 0.8"/>
      </g>
     </g>
     <g id="text_7">
      <!-- 2021-07 -->
      <g style="fill: #ffffff" transform="translate(556.434758 363.076563)scale(0.1 -0.1)">
       <use xlink:href="#DejaVuSans-32"/>
       <use xlink:href="#DejaVuSans-30" x="63.623047"/>
       <use xlink:href="#DejaVuSans-32" x="127.246094"/>
       <use xlink:href="#DejaVuSans-31" x="190.869141"/>
       <use xlink:href="#DejaVuSans-2d" x="254.492188"/>
       <use xlink:href="#DejaVuSans-30" x="290.576172"/>
       <use xlink:href="#DejaVuSans-37" x="354.199219"/>
      </g>
     </g>
    </g>
    <g id="xtick_8">
     <g id="line2d_8">
      <g>
       <use xlink:href="#mb5e9f7b423" x="660.850264" y="348.478125" style="fill: #ffffff; stroke: #ffffff; stroke-width: 0.8"/>
      </g>
     </g>
     <g id="text_8">
      <!-- 2022-01 -->
      <g style="fill: #ffffff" transform="translate(639.958858 363.076563)scale(0.1 -0.1)">
       <use xlink:href="#DejaVuSans-32"/>
       <use xlink:href="#DejaVuSans-30" x="63.623047"/>
       <use xlink:href="#DejaVuSans-32" x="127.246094"/>
       <use xlink:href="#DejaVuSans-32" x="190.869141"/>
       <use xlink:href="#DejaVuSans-2d" x="254.492188"/>
       <use xlink:href="#DejaVuSans-30" x="290.576172"/>
       <use xlink:href="#DejaVuSans-31" x="354.199219"/>
      </g>
     </g>
    </g>
   </g>
   <g id="matplotlib.axis_2">
    <g id="ytick_1">
     <g id="line2d_9">
      <defs>
       <path id="m26f13ce921" d="M 0 0 
L -3.5 0 
" style="stroke: #ffffff; stroke-width: 0.8"/>
      </defs>
      <g>
       <use xlink:href="#m26f13ce921" x="35.304688" y="344.55174" style="fill: #ffffff; stroke: #ffffff; stroke-width: 0.8"/>
      </g>
     </g>
     <g id="text_9">
      <!-- −10 -->
      <g style="fill: #ffffff" transform="translate(7.2 348.350959)scale(0.1 -0.1)">
       <defs>
        <path id="DejaVuSans-2212" d="M 678 2272 
L 4684 2272 
L 4684 1741 
L 678 1741 
L 678 2272 
z
" transform="scale(0.015625)"/>
       </defs>
       <use xlink:href="#DejaVuSans-2212"/>
       <use xlink:href="#DejaVuSans-31" x="83.789062"/>
       <use xlink:href="#DejaVuSans-30" x="147.412109"/>
      </g>
     </g>
    </g>
    <g id="ytick_2">
     <g id="line2d_10">
      <g>
       <use xlink:href="#m26f13ce921" x="35.304688" y="273.338661" style="fill: #ffffff; stroke: #ffffff; stroke-width: 0.8"/>
      </g>
     </g>
     <g id="text_10">
      <!-- −5 -->
      <g style="fill: #ffffff" transform="translate(13.5625 277.13788)scale(0.1 -0.1)">
       <defs>
        <path id="DejaVuSans-35" d="M 691 4666 
L 3169 4666 
L 3169 4134 
L 1269 4134 
L 1269 2991 
Q 1406 3038 1543 3061 
Q 1681 3084 1819 3084 
Q 2600 3084 3056 2656 
Q 3513 2228 3513 1497 
Q 3513 744 3044 326 
Q 2575 -91 1722 -91 
Q 1428 -91 1123 -41 
Q 819 9 494 109 
L 494 744 
Q 775 591 1075 516 
Q 1375 441 1709 441 
Q 2250 441 2565 725 
Q 2881 1009 2881 1497 
Q 2881 1984 2565 2268 
Q 2250 2553 1709 2553 
Q 1456 2553 1204 2497 
Q 953 2441 691 2322 
L 691 4666 
z
" transform="scale(0.015625)"/>
       </defs>
       <use xlink:href="#DejaVuSans-2212"/>
       <use xlink:href="#DejaVuSans-35" x="83.789062"/>
      </g>
     </g>
    </g>
    <g id="ytick_3">
     <g id="line2d_11">
      <g>
       <use xlink:href="#m26f13ce921" x="35.304688" y="202.125581" style="fill: #ffffff; stroke: #ffffff; stroke-width: 0.8"/>
      </g>
     </g>
     <g id="text_11">
      <!-- 0 -->
      <g style="fill: #ffffff" transform="translate(21.942188 205.9248)scale(0.1 -0.1)">
       <use xlink:href="#DejaVuSans-30"/>
      </g>
     </g>
    </g>
    <g id="ytick_4">
     <g id="line2d_12">
      <g>
       <use xlink:href="#m26f13ce921" x="35.304688" y="130.912502" style="fill: #ffffff; stroke: #ffffff; stroke-width: 0.8"/>
      </g>
     </g>
     <g id="text_12">
      <!-- 5 -->
      <g style="fill: #ffffff" transform="translate(21.942188 134.711721)scale(0.1 -0.1)">
       <use xlink:href="#DejaVuSans-35"/>
      </g>
     </g>
    </g>
    <g id="ytick_5">
     <g id="line2d_13">
      <g>
       <use xlink:href="#m26f13ce921" x="35.304688" y="59.699423" style="fill: #ffffff; stroke: #ffffff; stroke-width: 0.8"/>
      </g>
     </g>
     <g id="text_13">
      <!-- 10 -->
      <g style="fill: #ffffff" transform="translate(15.579688 63.498641)scale(0.1 -0.1)">
       <use xlink:href="#DejaVuSans-31"/>
       <use xlink:href="#DejaVuSans-30" x="63.623047"/>
      </g>
     </g>
    </g>
   </g>
   <g id="line2d_14">
    <path d="M 65.741051 198.537979 
L 66.194986 192.771802 
L 67.556792 204.816609 
L 68.010728 197.256631 
L 68.464663 184.05924 
L 68.918598 183.931452 
L 69.372534 197.64097 
L 70.73434 205.841188 
L 71.188275 211.991596 
L 71.64221 208.275772 
L 72.096146 184.315574 
L 72.550081 221.857611 
L 73.911887 195.847277 
L 74.365822 208.275881 
L 74.819758 194.56582 
L 75.273693 189.44086 
L 75.727628 197.512965 
L 77.089434 199.434771 
L 77.54337 206.097632 
L 77.997305 197.512639 
L 78.45124 201.997577 
L 78.905176 201.228789 
L 80.266982 205.072401 
L 80.720917 185.340914 
L 81.628788 200.844233 
L 82.082723 220.704376 
L 83.444529 177.012148 
L 83.898464 210.581917 
L 84.3524 205.585397 
L 84.806335 196.744069 
L 85.26027 199.306658 
L 86.622076 195.719164 
L 87.076011 206.097523 
L 87.529947 205.655267 
L 87.983882 202.772232 
L 88.437817 204.323607 
L 89.799623 195.919429 
L 90.253559 195.919429 
L 90.707494 194.109763 
L 91.161429 195.789904 
L 91.615365 207.038975 
L 92.977171 193.333696 
L 93.431106 205.099132 
L 93.885041 184.67101 
L 94.338977 197.859382 
L 94.792912 199.668939 
L 96.154718 200.573989 
L 96.608653 205.8752 
L 97.062589 214.40836 
L 97.516524 201.737656 
L 97.970459 200.962023 
L 99.332265 204.840624 
L 99.786201 189.325569 
L 100.240136 184.154102 
L 100.694071 202.125581 
L 101.148007 202.771906 
L 102.509813 198.764106 
L 102.963748 208.719659 
L 103.417683 204.064882 
L 103.871619 200.57388 
L 104.325554 201.091331 
L 105.68736 201.608348 
L 106.141295 201.996273 
L 106.595231 203.160049 
L 107.049166 208.072682 
L 109.318842 194.497037 
L 109.772778 210.400451 
L 110.226713 211.6931 
L 110.680648 196.048955 
L 112.042454 206.909124 
L 112.49639 187.903611 
L 112.950325 197.729856 
L 113.40426 200.056538 
L 113.858196 193.851038 
L 115.220002 205.357966 
L 115.673937 202.125581 
L 116.127872 184.54181 
L 116.581808 196.178264 
L 117.035743 222.165996 
L 118.397549 216.993985 
L 118.851484 200.315481 
L 119.30542 207.297157 
L 119.759355 197.341822 
L 120.21329 196.436772 
L 121.575096 193.204496 
L 122.029032 219.321536 
L 122.482967 216.47686 
L 122.936902 199.151705 
L 123.390838 198.893197 
L 124.752644 204.711641 
L 125.206579 211.951717 
L 125.660514 235.353824 
L 126.11445 199.668939 
L 126.568385 188.291319 
L 127.930191 190.747636 
L 128.384126 191.135996 
L 128.838062 213.903948 
L 129.291997 110.038646 
L 129.745932 211.256168 
L 131.107738 194.821286 
L 131.561673 172.125485 
L 132.015609 208.125818 
L 132.469544 216.994963 
L 132.923479 197.169157 
L 134.285285 189.73414 
L 134.739221 208.77801 
L 135.193156 190.256047 
L 135.647091 199.25613 
L 136.101027 183.995129 
L 137.462833 198.081922 
L 137.916768 204.99525 
L 138.370703 201.212381 
L 138.824639 188.429973 
L 139.278574 198.343147 
L 140.64038 192.082012 
L 141.094315 201.8649 
L 141.548251 197.690737 
L 142.002186 202.255976 
L 142.456121 209.038583 
L 143.817927 217.647373 
L 144.271863 211.125447 
L 144.725798 200.430011 
L 146.995475 191.951834 
L 147.903345 204.603848 
L 148.357281 180.082191 
L 148.811216 217.647373 
L 150.173022 202.255976 
L 150.626957 198.995014 
L 151.534828 216.473274 
L 151.988763 194.560496 
L 153.350569 190.647449 
L 153.804504 200.560189 
L 154.25844 170.038839 
L 154.712375 200.169221 
L 155.16631 252.603458 
L 156.528116 205.777838 
L 156.982052 211.647245 
L 157.435987 212.299329 
L 157.889922 202.256085 
L 158.343858 249.212535 
L 159.705664 166.517086 
L 160.613534 176.95184 
L 161.06747 213.081808 
L 161.521405 192.473306 
L 162.883211 210.473472 
L 163.791082 210.473255 
L 164.245017 177.995435 
L 164.698952 206.951502 
L 166.060758 197.690846 
L 166.514694 221.821209 
L 166.968629 199.256021 
L 167.422564 194.299488 
L 167.8765 210.212465 
L 169.238306 190.908674 
L 169.692241 210.472929 
L 170.146176 202.296725 
L 170.600112 191.871315 
L 171.054047 215.009155 
L 172.869788 144.280602 
L 173.323723 209.224505 
L 173.777659 211.328538 
L 174.231594 203.177326 
L 175.5934 201.862401 
L 176.501271 176.48959 
L 176.955206 188.978827 
L 177.409141 194.763586 
L 178.770947 209.882022 
L 179.224883 195.815439 
L 179.678818 212.379739 
L 180.132753 194.632104 
L 180.586689 194.763369 
L 181.948495 189.110309 
L 182.40243 202.388762 
L 182.856365 212.379848 
L 183.310301 201.862509 
L 183.764236 182.274457 
L 185.579977 211.459693 
L 186.033913 195.55215 
L 186.487848 195.946704 
L 186.941783 211.065357 
L 188.303589 198.707275 
L 188.757525 214.220591 
L 189.21146 206.858378 
L 189.665395 203.571662 
L 190.119331 196.472413 
L 191.481137 199.233637 
L 191.935072 204.228745 
L 192.389007 207.12145 
L 192.842943 203.965999 
L 193.296878 186.743965 
L 194.658684 195.946704 
L 195.112619 187.27 
L 195.566554 200.285055 
L 196.02049 187.401482 
L 196.474425 214.351747 
L 197.836231 196.998557 
L 198.290166 204.491925 
L 198.744102 192.002797 
L 199.198037 213.03693 
L 199.651972 198.181892 
L 201.013778 188.190155 
L 201.467714 203.703144 
L 201.921649 193.580142 
L 202.375584 195.552259 
L 202.82952 207.515895 
L 204.191326 200.6795 
L 205.099196 205.543779 
L 205.553132 199.233093 
L 206.007067 184.772066 
L 207.368873 206.20097 
L 207.822808 202.257063 
L 208.276744 200.811091 
L 208.730679 198.050302 
L 209.184614 193.317179 
L 210.54642 193.054433 
L 211.000356 199.795531 
L 211.454291 199.477693 
L 211.908226 202.654985 
L 213.723968 239.857886 
L 214.177903 195.108807 
L 214.631838 207.55371 
L 215.085774 167.967948 
L 215.539709 216.424158 
L 216.901515 179.618419 
L 217.35545 222.646936 
L 217.809385 193.784645 
L 218.263321 195.241158 
L 218.717256 207.421141 
L 220.079062 215.100214 
L 220.532997 197.226966 
L 220.986933 213.114515 
L 221.440868 178.691636 
L 221.894803 200.801746 
L 223.256609 208.877763 
L 223.710545 187.561976 
L 224.16448 183.45801 
L 224.618415 210.863679 
L 225.072351 203.714336 
L 226.434157 214.835512 
L 226.888092 197.491668 
L 227.342027 201.596069 
L 227.795963 203.052364 
L 228.249898 231.64941 
L 230.065639 205.700144 
L 230.519575 187.03279 
L 230.97351 234.164839 
L 231.427445 190.342433 
L 232.789251 190.475219 
L 233.243187 174.984505 
L 233.697122 193.520378 
L 234.151057 183.722603 
L 234.604993 202.787554 
L 235.966799 193.387484 
L 236.420734 198.153748 
L 236.874669 185.840979 
L 237.328605 198.286317 
L 237.78254 204.906038 
L 239.144346 220.528234 
L 239.598281 191.269107 
L 240.052216 184.64982 
L 240.506152 209.274707 
L 240.960087 187.164923 
L 242.321893 210.201816 
L 242.775828 228.4719 
L 243.229764 201.463718 
L 243.683699 203.846687 
L 244.137634 191.004406 
L 245.49944 189.018598 
L 245.953376 167.703246 
L 246.407311 214.438242 
L 247.315182 190.210191 
L 248.676988 217.218482 
L 249.130923 191.004406 
L 249.584858 193.784645 
L 250.038794 194.049673 
L 250.492729 195.638211 
L 251.854535 196.697453 
L 252.30847 201.463609 
L 252.762406 198.847559 
L 253.216341 207.855248 
L 253.670276 198.261216 
L 255.032082 221.447302 
L 255.486018 218.782027 
L 255.939953 199.860294 
L 256.393888 176.008106 
L 256.847824 185.202913 
L 258.20963 143.361643 
L 258.663565 233.706065 
L 259.571436 205.989947 
L 260.025371 246.898023 
L 261.387177 186.135346 
L 261.841112 185.602465 
L 262.295047 176.541205 
L 262.748983 210.920292 
L 263.202918 212.119383 
L 264.564724 185.868797 
L 265.018659 221.580413 
L 265.472595 180.80534 
L 265.92653 178.273612 
L 266.380465 188.000864 
L 267.742271 219.981335 
L 268.196207 198.128104 
L 268.650142 199.194084 
L 269.104077 230.108249 
L 269.558013 175.475225 
L 270.919819 185.735577 
L 271.373754 190.799359 
L 271.827689 205.057297 
L 272.281625 214.784332 
L 272.73556 187.068105 
L 274.551301 177.474181 
L 275.005237 208.121689 
L 275.459172 200.659724 
L 275.913107 211.453391 
L 277.274913 232.640086 
L 277.728849 183.603726 
L 278.182784 182.137977 
L 279.090655 233.7065 
L 280.452461 183.336851 
L 280.906396 198.794314 
L 281.360331 195.596267 
L 281.814267 197.595223 
L 282.268202 189.066735 
L 283.630008 196.929013 
L 284.083943 209.987425 
L 284.537878 184.936038 
L 284.991814 198.660985 
L 285.445749 204.65731 
L 286.807555 209.187994 
L 287.26149 239.036072 
L 287.715426 193.331196 
L 288.169361 172.010738 
L 288.623296 217.582827 
L 289.985102 227.57652 
L 290.439038 188.134193 
L 290.892973 202.658571 
L 291.346908 213.451803 
L 291.800844 215.983749 
L 293.16265 240.102377 
L 293.616585 197.728335 
L 294.07052 204.190604 
L 294.978391 180.535096 
L 296.340197 160.553903 
L 296.794132 191.129041 
L 297.248068 178.121158 
L 297.702003 222.777548 
L 298.155938 199.041195 
L 299.517744 200.516289 
L 299.97168 184.155949 
L 300.425615 207.891759 
L 300.87955 210.708183 
L 301.333486 266.494877 
L 303.149227 183.082907 
L 303.603162 211.512829 
L 304.057098 201.052865 
L 304.511033 207.087221 
L 305.872839 202.930336 
L 306.326774 183.619374 
L 306.780709 204.137034 
L 307.234645 201.589223 
L 307.68858 184.021642 
L 309.050386 208.428443 
L 309.504321 190.45892 
L 309.958257 228.275329 
L 310.412192 202.796138 
L 310.866127 199.175176 
L 312.227933 178.657734 
L 312.681869 208.830603 
L 313.135804 198.102677 
L 314.043675 193.274801 
L 315.405481 199.041195 
L 315.859416 180.937365 
L 316.313351 200.918667 
L 316.767287 207.891868 
L 317.221222 193.00673 
L 318.583028 210.171825 
L 319.036963 196.895545 
L 319.490899 203.332388 
L 319.944834 190.056542 
L 320.398769 200.918667 
L 321.760575 205.478147 
L 322.214511 219.558964 
L 322.668446 189.922235 
L 323.122381 196.224662 
L 323.576317 208.294354 
L 324.938123 197.834498 
L 325.392058 202.125581 
L 326.299929 190.458702 
L 326.753864 223.850156 
L 328.11567 196.358969 
L 328.569605 222.106774 
L 329.477476 213.25632 
L 329.931411 199.84595 
L 331.293217 212.317367 
L 331.747152 195.152055 
L 332.201088 184.156167 
L 332.655023 200.516181 
L 333.108958 189.922127 
L 334.470764 204.673718 
L 334.9247 185.094685 
L 335.378635 200.65027 
L 335.83257 197.566101 
L 336.286506 206.416882 
L 338.102247 199.175394 
L 338.556182 209.868656 
L 339.010118 200.102068 
L 339.464053 194.706103 
L 340.825859 197.538936 
L 341.279794 215.210941 
L 341.73373 190.119567 
L 342.187665 220.067179 
L 342.6416 195.515422 
L 344.003406 194.706212 
L 344.457342 186.612049 
L 344.911277 197.674003 
L 345.365212 216.42481 
L 345.819148 200.911495 
L 347.180954 229.240361 
L 347.634889 211.703641 
L 348.088824 181.755702 
L 348.542759 186.207281 
L 348.996695 219.25786 
L 351.266371 186.747007 
L 351.720307 200.506727 
L 352.174242 247.991277 
L 353.989983 219.257751 
L 354.443919 291.968744 
L 355.351789 116.734432 
L 356.713595 220.876389 
L 357.167531 116.734323 
L 357.621466 240.841934 
L 358.075401 201.720705 
L 358.529337 277.669406 
L 359.891143 141.555454 
L 360.345078 322.995484 
L 360.799013 333.65267 
L 361.252949 37.14358 
L 361.706884 277.264312 
L 363.06869 70.733886 
L 363.522625 212.782551 
L 363.976561 291.428908 
L 364.430496 315.441155 
L 366.246237 126.986742 
L 366.700173 233.826898 
L 367.154108 114.980618 
L 367.608043 164.488356 
L 368.061979 136.969352 
L 369.423785 269.575242 
L 369.87772 211.163805 
L 370.331655 133.731534 
L 370.78559 192.952507 
L 371.239526 165.298109 
L 372.601332 270.114969 
L 373.055267 170.694074 
L 373.509202 208.060946 
L 373.963138 184.723711 
L 375.778879 134.54107 
L 376.232814 198.618063 
L 376.68675 198.348689 
L 377.140685 159.092501 
L 377.59462 257.29931 
L 378.956426 214.536256 
L 379.410362 205.9028 
L 379.864297 191.383855 
L 380.318232 210.545081 
L 380.772168 220.186925 
L 382.133974 209.730329 
L 383.041844 191.397547 
L 383.49578 216.384605 
L 383.949715 216.384388 
L 385.311521 198.866249 
L 385.765456 241.643103 
L 386.219392 214.754885 
L 386.673327 150.793617 
L 387.127262 210.816628 
L 388.489068 212.446458 
L 388.943004 210.6808 
L 389.396939 203.619365 
L 390.30481 180.397964 
L 391.666616 253.321718 
L 392.120551 190.718514 
L 392.574486 224.668276 
L 393.028421 188.817246 
L 393.482357 209.866048 
L 395.298098 176.866975 
L 395.752033 172.657171 
L 396.205969 204.026958 
L 396.659904 184.064238 
L 398.02171 191.125782 
L 398.475645 195.743179 
L 398.929581 235.803578 
L 399.383516 171.163279 
L 399.837451 192.348235 
L 401.199257 211.767317 
L 401.653193 190.039374 
L 402.107128 242.457963 
L 402.561063 210.816628 
L 403.014999 187.595227 
L 404.376805 182.570671 
L 404.83074 204.841275 
L 405.284675 183.792799 
L 405.738611 207.014418 
L 406.192546 218.014109 
L 407.554352 202.397238 
L 408.008287 219.91516 
L 408.462223 182.163078 
L 408.916158 238.247942 
L 409.370093 169.126725 
L 410.731899 176.187834 
L 411.185835 196.557822 
L 411.63977 189.903654 
L 412.093705 191.940751 
L 413.909446 194.113349 
L 414.363382 193.027159 
L 414.817317 207.693232 
L 415.271252 182.978047 
L 415.725188 199.952765 
L 417.086994 188.002603 
L 417.540929 210.137596 
L 417.994864 198.59481 
L 418.4488 190.31103 
L 418.902735 207.421793 
L 420.264541 204.434008 
L 420.718476 187.595118 
L 421.172412 191.042872 
L 421.626347 204.85877 
L 422.080282 197.205776 
L 423.442088 180.807296 
L 423.896024 196.24922 
L 424.349959 159.625708 
L 424.803894 206.225419 
L 425.25783 199.802485 
L 426.619636 167.961646 
L 427.073571 206.908254 
L 427.527506 212.101345 
L 427.981442 190.64658 
L 428.435377 194.609394 
L 429.797183 214.015001 
L 430.251118 171.651608 
L 430.705054 197.752132 
L 431.158989 211.418184 
L 431.612924 196.659639 
L 432.97473 188.323049 
L 433.428666 212.237934 
L 433.882601 187.367253 
L 434.336536 194.062821 
L 434.790472 187.503299 
L 436.152277 194.609611 
L 436.606213 211.281269 
L 437.060148 204.585267 
L 437.514083 194.472914 
L 437.968019 208.138314 
L 439.329825 204.175826 
L 439.78376 170.285068 
L 440.237695 232.872732 
L 440.691631 206.225202 
L 441.145566 229.729995 
L 442.961307 171.925003 
L 443.415243 221.940629 
L 443.869178 182.447231 
L 444.323113 195.429144 
L 445.684919 202.125581 
L 446.138855 214.834752 
L 446.59279 204.584832 
L 447.046725 204.175826 
L 447.500661 211.144789 
L 448.862467 185.043613 
L 449.316402 224.673927 
L 449.770337 193.789426 
L 450.224273 192.559801 
L 450.678208 196.795901 
L 452.040014 212.375066 
L 452.493949 178.483874 
L 453.40182 217.431134 
L 453.855755 184.770001 
L 455.217561 199.119324 
L 455.671497 187.229904 
L 456.125432 189.143451 
L 457.033303 180.670598 
L 458.395108 205.952024 
L 458.849044 204.448786 
L 459.302979 204.994924 
L 459.756914 194.473131 
L 460.21085 236.016122 
L 461.572656 194.335999 
L 462.026591 191.603353 
L 462.480526 215.990704 
L 462.934462 189.346215 
L 463.388397 216.966276 
L 464.750203 187.559803 
L 465.204138 266.710029 
L 465.658074 203.362378 
L 466.112009 208.584265 
L 466.565944 182.887531 
L 467.92775 164.748712 
L 468.381686 210.095544 
L 468.835621 178.215694 
L 469.289556 190.445228 
L 469.743492 274.130593 
L 471.105298 170.932914 
L 471.559233 177.253379 
L 472.013168 201.026351 
L 472.467104 172.856241 
L 472.921039 227.547182 
L 474.282845 209.683278 
L 474.73678 232.082104 
L 475.190716 204.461826 
L 475.644651 205.285705 
L 476.098586 209.546363 
L 477.460392 208.308914 
L 477.914328 197.041479 
L 478.368263 203.087028 
L 479.276134 198.553192 
L 480.637939 195.254632 
L 481.091875 216.004612 
L 481.54581 216.141745 
L 481.999745 200.339387 
L 482.453681 199.239722 
L 483.815487 197.041261 
L 484.269422 224.661757 
L 484.723357 214.492899 
L 485.177293 188.3839 
L 485.631228 211.194991 
L 486.993034 191.132193 
L 487.446969 193.606004 
L 487.900905 188.659251 
L 488.35484 191.269759 
L 488.808775 223.012259 
L 490.170581 215.454997 
L 490.624517 205.011441 
L 491.078452 183.162448 
L 491.532387 188.933732 
L 493.348129 205.698406 
L 493.802064 211.05699 
L 494.255999 183.300014 
L 494.709935 220.264401 
L 496.979611 182.062783 
L 497.433547 220.127269 
L 497.887482 202.949895 
L 498.341417 215.042514 
L 499.703223 213.11897 
L 500.157159 199.239722 
L 500.611094 222.18838 
L 501.065029 216.141527 
L 501.518964 218.340422 
L 503.334706 225.073914 
L 503.788641 203.90906 
L 504.242576 216.087957 
L 504.696512 171.159041 
L 506.058318 190.375249 
L 506.512253 267.237911 
L 506.966188 174.753489 
L 507.420124 231.847936 
L 507.874059 191.619109 
L 509.235865 204.613953 
L 509.6898 199.913647 
L 510.143736 201.019614 
L 510.597671 194.660248 
L 511.051606 207.655635 
L 512.413412 209.037605 
L 512.867348 208.346512 
L 513.321283 200.604849 
L 513.775218 211.941068 
L 514.229154 197.978258 
L 516.044895 194.660139 
L 516.49883 187.333676 
L 516.952766 235.442384 
L 517.406701 209.590698 
L 518.768507 189.130629 
L 519.222442 200.190193 
L 519.676378 217.055922 
L 520.130313 244.289905 
L 520.584248 191.619001 
L 522.39999 212.355507 
L 522.853925 216.088174 
L 523.30786 149.178348 
L 523.761795 183.739337 
L 525.123601 217.747016 
L 525.577537 186.08949 
L 526.031472 208.069965 
L 526.485407 185.121633 
L 526.939343 196.319307 
L 528.301149 196.872291 
L 528.755084 209.314369 
L 529.209019 198.254696 
L 529.662955 211.664413 
L 530.11689 172.126681 
L 531.478696 168.670777 
L 531.932631 202.678674 
L 532.840502 174.891925 
L 533.294437 172.817774 
L 534.656243 231.433389 
L 535.110179 202.402019 
L 535.564114 218.023345 
L 536.018049 172.126681 
L 537.833791 201.434705 
L 538.287726 198.807462 
L 538.741661 194.936903 
L 539.195597 214.42944 
L 539.649532 194.522246 
L 541.011338 227.147303 
L 541.465273 195.351776 
L 541.919209 179.453361 
L 542.373144 201.98758 
L 542.827079 210.97332 
L 544.188885 186.365602 
L 544.642821 214.567659 
L 545.096756 220.907683 
L 545.550691 211.725482 
L 546.004626 239.412261 
L 547.366432 203.238286 
L 547.820368 199.064775 
L 548.274303 186.682462 
L 548.728238 189.464875 
L 549.182174 180.143585 
L 550.997915 217.151437 
L 551.45185 178.751835 
L 551.905786 201.986711 
L 552.359721 167.06518 
L 553.721527 211.586394 
L 554.175462 222.299216 
L 554.629398 171.795477 
L 555.083333 198.090941 
L 555.537268 206.021133 
L 556.899074 221.742646 
L 557.35301 198.23003 
L 557.806945 182.647605 
L 558.26088 202.125581 
L 558.714816 202.681934 
L 560.076622 195.586922 
L 560.530557 206.438397 
L 560.984492 245.811833 
L 561.438428 203.933943 
L 561.892363 229.533967 
L 563.708104 194.056302 
L 564.16204 168.873759 
L 564.615975 200.734266 
L 565.06991 195.586705 
L 566.431716 224.107578 
L 566.885652 202.821456 
L 567.339587 188.212865 
L 567.793522 215.064464 
L 568.247457 201.430141 
L 569.609263 205.74274 
L 570.063199 228.142652 
L 570.517134 185.290712 
L 570.971069 229.394879 
L 571.425005 187.656295 
L 572.786811 201.429924 
L 573.240746 204.768906 
L 573.694681 200.873572 
L 574.148617 175.691246 
L 574.602552 196.560321 
L 575.964358 214.925376 
L 576.418293 194.751959 
L 576.872229 197.812331 
L 577.326164 192.94338 
L 577.780099 201.012442 
L 579.595841 187.934472 
L 580.049776 202.403975 
L 580.957647 200.595178 
L 582.319453 204.490513 
L 582.773388 188.073994 
L 583.681259 183.343479 
L 584.135194 203.099198 
L 585.497 212.560227 
L 585.950935 208.942852 
L 586.404871 209.545494 
L 586.858806 174.265159 
L 587.312741 195.265498 
L 588.674547 194.145187 
L 589.128482 231.386446 
L 589.582418 192.045393 
L 590.036353 163.624706 
L 590.490288 207.025392 
L 591.852094 173.1455 
L 592.30603 223.405835 
L 592.759965 201.145228 
L 593.2139 217.386148 
L 593.667836 191.345389 
L 595.029642 200.865313 
L 595.483577 197.22577 
L 595.937512 197.505468 
L 596.845383 188.125283 
L 598.207189 198.765518 
L 598.661124 224.246014 
L 599.11506 178.464966 
L 599.568995 200.725791 
L 600.02293 212.485468 
L 601.384736 218.506241 
L 601.838672 209.265797 
L 602.292607 205.625602 
L 602.746542 203.665547 
L 603.200478 193.445618 
L 604.562284 209.685669 
L 605.016219 181.825029 
L 605.470154 200.585833 
L 605.92409 200.725139 
L 606.378025 209.686103 
L 608.193766 186.864798 
L 608.647702 210.666022 
L 609.101637 200.165309 
L 609.555572 180.425456 
L 610.917378 205.625384 
L 611.371313 206.46578 
L 611.825249 216.26562 
L 612.279184 198.905693 
L 612.733119 222.426134 
L 614.094925 199.045433 
L 614.548861 195.265281 
L 615.002796 193.86549 
L 615.910667 228.586213 
L 617.272473 217.105799 
L 617.726408 182.104944 
L 618.180343 233.206544 
L 618.634279 205.205512 
L 619.088214 213.186124 
L 620.45002 194.565277 
L 620.903955 176.084822 
L 621.357891 186.304968 
L 621.811826 210.386107 
L 622.265761 193.865055 
L 623.627567 205.066207 
L 624.081503 197.50525 
L 624.535438 179.58506 
L 624.989373 196.945421 
L 625.443309 231.246489 
L 626.805115 225.645805 
L 627.25905 194.425319 
L 627.712985 216.353854 
L 628.166921 180.994847 
L 628.620856 201.843928 
L 629.982662 173.951342 
L 630.436597 216.494463 
L 630.890533 190.151622 
L 631.798403 207.056253 
L 633.160209 182.121678 
L 633.614144 188.179397 
L 634.06808 198.321958 
L 634.522015 191.98302 
L 634.97595 217.480684 
L 636.337756 195.927036 
L 636.791692 181.981069 
L 637.245627 208.042256 
L 638.153498 190.292666 
L 639.515304 205.083593 
L 640.423174 201.843928 
L 640.87711 206.351685 
L 641.331045 188.320224 
L 642.692851 179.02284 
L 643.146786 213.11332 
L 643.600722 218.889385 
L 644.508592 180.290497 
L 645.870398 264.672172 
L 646.324334 176.487308 
L 646.778269 190.010795 
L 647.232204 165.217265 
L 647.68614 170.147936 
L 649.047946 207.760386 
L 649.501881 192.546327 
L 649.955816 189.587881 
L 650.409752 171.979334 
L 650.863687 170.993113 
L 652.225493 193.955028 
L 652.679428 193.532331 
L 653.133364 170.429589 
L 653.587299 253.543607 
L 654.041234 196.490777 
L 655.40304 203.534283 
L 655.856975 180.14967 
L 656.310911 191.137626 
L 656.764846 175.78274 
L 658.580587 189.869969 
L 659.034523 183.107899 
L 659.488458 222.12905 
L 659.942393 190.715146 
L 660.396329 211.704836 
L 661.758135 194.096072 
L 662.21207 191.700932 
L 662.666005 221.565961 
L 663.119941 203.393239 
L 663.573876 233.399094 
L 664.935682 228.327596 
L 665.389617 197.195128 
L 665.843553 212.26836 
L 666.297488 180.713194 
L 666.751423 245.51388 
L 668.567165 127.88625 
L 669.0211 189.803685 
L 669.475035 193.344562 
L 669.928971 220.820753 
L 671.290777 227.052984 
L 671.744712 221.812408 
L 672.198647 188.245464 
L 672.652583 182.722147 
L 673.106518 202.833844 
L 673.106518 202.833844 
" clip-path="url(#pe61cc362dd)" style="fill: none; stroke: #ff0000; stroke-width: 1.5; stroke-linecap: square"/>
   </g>
   <g id="line2d_15">
    <path d="M 78.45124 198.999214 
L 80.266982 199.595043 
L 80.720917 199.607832 
L 81.628788 199.012047 
L 82.082723 199.851296 
L 83.444529 201.689942 
L 83.898464 200.658501 
L 84.3524 200.895538 
L 84.806335 200.575228 
L 85.26027 199.998643 
L 86.622076 200.748197 
L 87.076011 199.441274 
L 87.529947 199.953787 
L 87.983882 199.822756 
L 88.437817 200.233077 
L 89.799623 200.977214 
L 90.707494 200.72177 
L 91.161429 200.122377 
L 91.615365 200.03624 
L 92.977171 200.28831 
L 93.431106 199.893555 
L 94.338977 199.861396 
L 94.792912 199.712154 
L 96.154718 198.660382 
L 96.608653 199.838474 
L 97.062589 199.603138 
L 97.516524 200.044286 
L 97.970459 200.293966 
L 99.332265 200.376734 
L 99.786201 200.832807 
L 100.240136 199.994209 
L 100.694071 198.919151 
L 102.509813 198.809233 
L 102.963748 198.951467 
L 103.871619 200.089235 
L 104.325554 200.328433 
L 105.68736 200.031051 
L 106.141295 200.444784 
L 106.595231 200.289641 
L 107.049166 201.214093 
L 107.503101 201.724758 
L 109.318842 202.009226 
L 109.772778 201.705378 
L 110.226713 201.931641 
L 110.680648 201.795878 
L 112.042454 201.511442 
L 112.49639 201.808798 
L 112.950325 200.961947 
L 113.40426 201.382161 
L 113.858196 202.177283 
L 115.220002 201.763556 
L 116.127872 202.060933 
L 116.581808 200.85204 
L 117.035743 200.457709 
L 118.397549 201.537315 
L 118.851484 202.332448 
L 119.30542 202.267804 
L 119.759355 202.532849 
L 120.21329 202.241937 
L 121.575096 201.660142 
L 122.029032 201.052452 
L 122.482967 202.293677 
L 122.936902 202.597497 
L 123.390838 201.970428 
L 124.752644 202.11264 
L 125.206579 202.002766 
L 125.660514 203.205171 
L 126.11445 205.086369 
L 126.568385 205.066989 
L 127.930191 204.789003 
L 128.838062 203.509008 
L 129.291997 204.977115 
L 129.745932 200.670134 
L 131.107738 200.124642 
L 131.561673 199.016007 
L 132.015609 197.606508 
L 132.469544 197.647941 
L 132.923479 198.630598 
L 134.285285 198.667217 
L 134.739221 198.493699 
L 135.193156 197.966523 
L 135.647091 196.655482 
L 136.101027 196.660703 
L 137.916768 195.584314 
L 138.370703 195.236491 
L 138.824639 193.529419 
L 139.278574 192.96747 
L 141.094315 193.53678 
L 141.548251 194.073226 
L 142.002186 193.262565 
L 142.456121 197.873432 
L 143.817927 197.762552 
L 144.271863 198.903857 
L 144.725798 200.853855 
L 145.633669 200.469065 
L 147.44941 199.203852 
L 147.903345 199.634292 
L 148.357281 199.425584 
L 148.811216 198.916891 
L 150.173022 199.836453 
L 150.626957 200.749495 
L 151.534828 200.79515 
L 151.988763 201.369051 
L 153.350569 201.036457 
L 154.25844 201.258183 
L 154.712375 200.156024 
L 155.16631 200.07124 
L 156.528116 202.816876 
L 157.435987 203.123402 
L 157.889922 202.856 
L 158.343858 202.412532 
L 159.705664 204.851658 
L 161.06747 202.582111 
L 161.521405 203.319055 
L 162.883211 202.712528 
L 163.791082 204.232092 
L 164.245017 203.873386 
L 164.698952 202.660359 
L 166.060758 203.058183 
L 166.514694 202.119062 
L 166.968629 203.482097 
L 167.422564 203.912526 
L 167.8765 203.599491 
L 169.238306 205.608172 
L 169.692241 205.145145 
L 170.146176 203.038618 
L 170.600112 202.864563 
L 171.054047 201.875766 
L 172.869788 202.011258 
L 173.323723 199.112483 
L 173.777659 197.113082 
L 174.231594 199.353654 
L 175.5934 200.664929 
L 176.047335 200.103958 
L 176.501271 199.942404 
L 176.955206 198.24321 
L 177.409141 197.168489 
L 178.770947 198.006896 
L 179.224883 198.153422 
L 179.678818 198.059652 
L 180.132753 197.587579 
L 180.586689 197.356383 
L 181.948495 197.379577 
L 182.40243 196.324469 
L 182.856365 196.898473 
L 183.310301 196.993819 
L 183.764236 196.972109 
L 186.033913 196.314793 
L 186.487848 198.87837 
L 186.941783 198.21448 
L 188.303589 198.201321 
L 188.757525 197.977818 
L 189.21146 198.595728 
L 189.665395 199.476535 
L 190.119331 200.830639 
L 191.935072 201.428821 
L 192.389007 201.146157 
L 192.842943 201.711458 
L 193.296878 201.290771 
L 194.658684 200.896364 
L 195.112619 200.95553 
L 196.02049 200.75833 
L 196.474425 199.509411 
L 197.836231 200.133873 
L 198.290166 200.870078 
L 198.744102 200.52169 
L 199.198037 200.344222 
L 199.651972 201.198733 
L 201.013778 200.55456 
L 202.82952 198.43795 
L 204.645261 199.062417 
L 205.553132 198.917814 
L 206.007067 198.681169 
L 207.368873 198.582574 
L 207.822808 199.095288 
L 208.276744 199.844641 
L 208.730679 199.870942 
L 209.184614 200.403383 
L 210.54642 199.351655 
L 211.454291 198.919629 
L 211.908226 199.293374 
L 213.723968 198.774277 
L 214.177903 200.858076 
L 214.631838 201.204009 
L 215.085774 201.396537 
L 215.539709 200.115928 
L 216.901515 201.159523 
L 217.35545 199.764649 
L 217.809385 200.863021 
L 218.717256 199.891404 
L 220.079062 200.300806 
L 220.532997 201.817213 
L 220.986933 201.368513 
L 221.440868 201.911386 
L 221.894803 200.805413 
L 223.256609 200.942985 
L 223.710545 201.721014 
L 224.16448 201.446392 
L 224.618415 200.629516 
L 225.072351 201.198815 
L 226.434157 201.251782 
L 226.888092 200.000664 
L 227.342027 200.119807 
L 227.795963 199.821925 
L 228.249898 201.576146 
L 230.065639 202.337408 
L 230.519575 203.641494 
L 230.97351 201.860787 
L 231.427445 203.879797 
L 232.789251 203.634861 
L 233.243187 202.787564 
L 233.697122 200.781779 
L 234.151057 200.59645 
L 234.604993 199.126854 
L 235.966799 200.33165 
L 236.420734 199.960937 
L 236.874669 199.424736 
L 237.328605 199.338686 
L 237.78254 200.080102 
L 239.144346 199.782219 
L 239.598281 200.622914 
L 240.052216 199.444594 
L 240.506152 198.802502 
L 240.960087 199.186434 
L 242.321893 198.392062 
L 242.775828 197.319682 
L 243.229764 198.45827 
L 243.683699 199.179816 
L 244.137634 197.663909 
L 245.953376 197.624176 
L 246.407311 197.260113 
L 247.315182 198.306006 
L 248.676988 198.630386 
L 249.130923 199.351932 
L 250.038794 199.014323 
L 250.492729 199.424758 
L 251.854535 199.292352 
L 252.30847 198.881923 
L 252.762406 197.928692 
L 253.216341 198.307615 
L 253.670276 199.467886 
L 255.032082 198.917211 
L 255.486018 200.63133 
L 255.939953 201.060341 
L 256.847824 198.35698 
L 258.20963 197.424791 
L 258.663565 195.042653 
L 259.571436 199.870942 
L 260.025371 199.448528 
L 261.387177 202.282919 
L 261.841112 200.728763 
L 262.295047 200.458666 
L 262.748983 199.596493 
L 263.202918 200.440024 
L 264.564724 201.264083 
L 265.018659 200.72265 
L 265.472595 201.72849 
L 265.92653 200.82638 
L 266.380465 199.347298 
L 268.196207 198.760982 
L 268.650142 197.728286 
L 269.104077 197.694975 
L 269.558013 200.399982 
L 270.919819 199.913598 
L 271.373754 202.032295 
L 271.827689 199.886959 
L 272.281625 199.160746 
L 272.73556 199.600465 
L 274.551301 196.608969 
L 275.005237 196.175911 
L 275.913107 198.507798 
L 277.274913 198.534453 
L 277.728849 199.560488 
L 278.182784 199.447235 
L 278.636719 197.475113 
L 279.090655 198.974178 
L 280.452461 201.745822 
L 280.906396 201.512621 
L 281.360331 200.45327 
L 282.268202 200.246736 
L 283.630008 198.19466 
L 284.537878 200.479942 
L 285.445749 199.86696 
L 286.807555 199.360609 
L 287.26149 200.466603 
L 287.715426 203.544698 
L 288.169361 202.805173 
L 288.623296 201.372724 
L 289.985102 201.679196 
L 290.439038 201.426017 
L 290.892973 201.652541 
L 291.346908 202.67857 
L 291.800844 202.811829 
L 293.16265 201.925691 
L 293.616585 204.763968 
L 294.07052 204.710669 
L 294.524456 205.140385 
L 294.978391 204.803673 
L 296.340197 204.377091 
L 296.794132 202.558335 
L 297.248068 201.615416 
L 297.702003 201.274672 
L 298.155938 202.4805 
L 299.517744 202.199695 
L 299.97168 201.766109 
L 300.425615 199.022103 
L 300.87955 199.750131 
L 301.333486 201.685004 
L 302.695292 204.130606 
L 303.149227 202.972052 
L 303.603162 202.719487 
L 304.057098 203.1622 
L 304.511033 202.542253 
L 305.872839 202.097427 
L 306.326774 200.238825 
L 306.780709 199.533377 
L 307.234645 199.530698 
L 307.68858 200.067111 
L 309.050386 200.241438 
L 309.504321 202.635165 
L 309.958257 202.601659 
L 310.412192 205.109368 
L 310.866127 204.110297 
L 312.227933 204.116996 
L 312.681869 203.024068 
L 313.135804 204.257801 
L 314.043675 203.768347 
L 315.405481 202.896678 
L 315.859416 199.523994 
L 316.313351 198.350591 
L 316.767287 199.242379 
L 317.221222 199.06133 
L 318.583028 198.659024 
L 319.036963 198.813254 
L 319.490899 198.511514 
L 319.944834 199.497165 
L 320.398769 198.79314 
L 321.760575 198.759613 
L 322.214511 199.832438 
L 322.668446 200.388964 
L 323.122381 200.36213 
L 323.576317 198.759596 
L 324.938123 199.034507 
L 325.392058 198.967473 
L 326.299929 200.140866 
L 326.753864 199.222271 
L 328.11567 200.509645 
L 328.569605 200.663853 
L 329.477476 201.817132 
L 329.931411 203.43308 
L 331.293217 203.379444 
L 332.201088 203.707985 
L 332.655023 202.407202 
L 333.108958 202.588234 
L 334.470764 201.917721 
L 334.9247 202.64858 
L 335.378635 201.857381 
L 335.83257 201.615987 
L 336.286506 200.516344 
L 338.556182 201.488612 
L 339.464053 201.680706 
L 340.825859 201.309732 
L 341.279794 201.663744 
L 342.187665 200.919813 
L 342.6416 200.817833 
L 344.457342 199.673801 
L 344.911277 198.388536 
L 345.365212 198.514633 
L 345.819148 200.128065 
L 347.180954 200.147831 
L 347.634889 202.113743 
L 348.088824 202.465239 
L 348.542759 202.29829 
L 348.996695 201.57614 
L 350.812436 202.660728 
L 352.174242 200.972188 
L 353.536048 203.366649 
L 353.989983 204.998934 
L 354.443919 206.084875 
L 354.897854 209.922765 
L 355.351789 210.705173 
L 356.713595 205.538536 
L 357.167531 206.806584 
L 357.621466 202.90799 
L 358.075401 205.619484 
L 358.529337 205.821819 
L 359.891143 208.884049 
L 360.345078 205.916247 
L 360.799013 210.604003 
L 361.252949 216.701454 
L 361.706884 209.470848 
L 363.06869 214.0237 
L 363.522625 206.597501 
L 363.976561 207.514809 
L 364.884431 218.495625 
L 366.246237 219.392705 
L 366.700173 214.374452 
L 367.154108 215.102909 
L 367.608043 206.253503 
L 368.061979 204.189534 
L 369.423785 205.20128 
L 369.87772 207.636223 
L 370.331655 212.357697 
L 370.78559 207.002177 
L 371.239526 206.563767 
L 372.601332 200.945202 
L 373.055267 207.373178 
L 373.963138 193.478521 
L 375.778879 200.857528 
L 376.232814 193.721366 
L 376.68675 200.115574 
L 377.140685 199.393881 
L 377.59462 192.777061 
L 378.956426 189.869969 
L 379.410362 187.300138 
L 379.864297 191.245941 
L 380.318232 189.123788 
L 380.772168 193.902012 
L 382.133974 196.68694 
L 382.587909 200.324989 
L 383.041844 196.823496 
L 383.49578 195.835183 
L 383.949715 199.967837 
L 385.311521 201.139431 
L 385.765456 202.817838 
L 386.219392 201.394245 
L 386.673327 203.597285 
L 387.127262 200.733919 
L 388.489068 202.038564 
L 388.943004 205.933834 
L 389.396939 206.536971 
L 389.850874 206.800504 
L 390.30481 208.408954 
L 391.666616 204.563887 
L 392.120551 206.50316 
L 392.574486 205.743946 
L 393.028421 207.408167 
L 393.482357 206.321775 
L 395.298098 205.805732 
L 396.205969 202.818153 
L 396.659904 203.449624 
L 398.02171 201.833605 
L 398.475645 200.570675 
L 398.929581 200.414521 
L 399.383516 200.122545 
L 399.837451 197.942965 
L 401.199257 200.020696 
L 401.653193 200.06823 
L 402.107128 198.947876 
L 402.561063 200.536734 
L 403.014999 200.896597 
L 404.376805 200.713284 
L 404.83074 200.821919 
L 405.284675 198.397897 
L 405.738611 198.051611 
L 406.192546 197.168918 
L 407.554352 198.628761 
L 408.008287 198.255321 
L 408.462223 200.40773 
L 408.916158 200.883025 
L 409.370093 202.594074 
L 410.731899 201.847199 
L 411.185835 201.100301 
L 411.63977 201.141034 
L 412.093705 198.846037 
L 413.909446 199.884911 
L 414.363382 199.973167 
L 414.817317 199.036159 
L 415.271252 199.918852 
L 415.725188 196.944856 
L 417.086994 196.401663 
L 417.540929 196.422032 
L 417.994864 197.800378 
L 418.4488 197.488055 
L 418.902735 197.813966 
L 420.264541 197.834335 
L 421.172412 196.415224 
L 421.626347 194.97161 
L 422.080282 196.106394 
L 423.442088 194.054286 
L 423.896024 194.638314 
L 424.349959 195.641384 
L 424.803894 193.794778 
L 425.25783 194.610866 
L 426.619636 195.003953 
L 427.073571 193.696368 
L 427.527506 194.390423 
L 427.981442 194.610828 
L 428.435377 194.994255 
L 429.797183 194.727086 
L 430.251118 196.027706 
L 430.705054 194.103407 
L 431.158989 194.061273 
L 431.612924 195.116631 
L 432.97473 194.578523 
L 433.428666 193.772975 
L 433.882601 195.005116 
L 434.336536 194.821335 
L 434.790472 194.281537 
L 436.152277 193.796413 
L 437.060148 195.238132 
L 437.514083 197.486109 
L 437.968019 196.898484 
L 439.329825 197.315276 
L 439.78376 199.125985 
L 440.237695 197.294825 
L 441.145566 199.112326 
L 442.961307 200.868356 
L 443.415243 198.763856 
L 443.869178 201.278307 
L 444.323113 200.513062 
L 445.684919 199.71361 
L 446.138855 199.986907 
L 446.59279 201.312492 
L 447.046725 200.929837 
L 447.500661 201.770266 
L 448.862467 202.624364 
L 449.316402 202.50138 
L 449.770337 204.004596 
L 450.224273 203.130004 
L 450.678208 202.52873 
L 452.040014 202.64488 
L 452.493949 202.856717 
L 452.947885 201.57212 
L 453.40182 202.993328 
L 453.855755 202.221248 
L 455.217561 201.148488 
L 455.671497 199.617954 
L 456.125432 200.383199 
L 456.579367 198.74334 
L 457.033303 198.85949 
L 458.395108 198.121563 
L 458.849044 198.312885 
L 459.302979 197.793586 
L 459.756914 197.814091 
L 460.21085 197.328956 
L 462.026591 199.037142 
L 462.480526 197.383614 
L 462.934462 198.493677 
L 463.388397 198.332998 
L 464.750203 199.341517 
L 465.204138 198.100754 
L 465.658074 202.512061 
L 466.112009 202.744719 
L 466.565944 202.302375 
L 467.92775 202.208252 
L 468.381686 200.489721 
L 468.835621 201.633003 
L 469.289556 201.086615 
L 469.743492 201.370366 
L 471.105298 206.043366 
L 472.013168 202.93264 
L 472.467104 202.734211 
L 472.921039 201.653367 
L 474.282845 201.22992 
L 474.73678 201.997284 
L 475.190716 204.021221 
L 475.644651 203.444777 
L 476.098586 204.241752 
L 477.460392 203.870756 
L 477.914328 204.908212 
L 478.368263 201.424784 
L 479.276134 201.411017 
L 480.637939 200.909463 
L 481.091875 201.527818 
L 481.54581 204.090613 
L 481.999745 204.392923 
L 482.453681 205.499108 
L 483.815487 205.938832 
L 484.269422 202.084366 
L 484.723357 204.770808 
L 485.177293 206.632784 
L 485.631228 206.000661 
L 486.993034 207.917599 
L 487.446969 206.096849 
L 487.900905 205.292986 
L 488.35484 203.121843 
L 488.808775 202.46224 
L 490.624517 203.643999 
L 491.078452 203.479125 
L 491.532387 202.785174 
L 493.348129 202.077509 
L 493.802064 202.43477 
L 494.255999 203.224888 
L 494.709935 201.589658 
L 496.525676 201.795791 
L 496.979611 201.28048 
L 497.433547 200.421633 
L 497.887482 201.575934 
L 498.341417 200.490341 
L 499.703223 200.517821 
L 500.157159 201.754575 
L 500.611094 201.156811 
L 501.065029 202.709621 
L 501.518964 203.836397 
L 503.334706 205.320456 
L 503.788641 207.010663 
L 504.242576 206.055503 
L 504.696512 206.087151 
L 506.058318 204.394531 
L 506.512253 204.755171 
L 506.966188 208.67038 
L 507.420124 207.123134 
L 507.874059 208.162682 
L 509.235865 208.578636 
L 509.6898 207.796114 
L 510.143736 208.290137 
L 510.597671 209.237979 
L 511.051606 207.964628 
L 512.413412 208.199915 
L 513.321283 207.661047 
L 513.775218 207.729303 
L 514.229154 207.216937 
L 516.044895 206.308774 
L 516.49883 205.12476 
L 516.952766 203.237748 
L 517.406701 204.814414 
L 518.768507 204.489551 
L 519.222442 205.388131 
L 519.676378 205.878878 
L 520.130313 203.369778 
L 520.584248 206.846599 
L 521.946054 204.835152 
L 522.39999 205.630051 
L 522.853925 206.017129 
L 523.30786 206.825855 
L 523.761795 204.233792 
L 525.123601 203.687747 
L 525.577537 204.192316 
L 526.031472 203.04491 
L 526.485407 203.031083 
L 526.939343 202.256922 
L 528.301149 201.475834 
L 528.755084 201.420535 
L 529.662955 202.699298 
L 530.11689 201.510399 
L 531.478696 199.637198 
L 531.932631 198.614206 
L 532.386567 198.73863 
L 532.840502 197.356176 
L 533.294437 193.886277 
L 534.656243 192.946216 
L 535.110179 194.142031 
L 535.564114 193.644356 
L 536.018049 193.741115 
L 537.833791 194.888532 
L 538.287726 195.7733 
L 538.741661 194.826322 
L 539.649532 195.586667 
L 541.011338 196.056697 
L 541.465273 197.598097 
L 541.919209 197.522071 
L 542.373144 196.029021 
L 542.827079 196.215665 
L 544.188885 196.18111 
L 544.642821 196.893057 
L 545.096756 199.187901 
L 546.004626 201.215283 
L 547.366432 204.4413 
L 547.820368 205.962325 
L 548.274303 204.343894 
L 548.728238 203.557917 
L 549.182174 202.129993 
L 550.54398 202.530838 
L 550.997915 202.885372 
L 551.45185 203.80257 
L 552.359721 202.37118 
L 553.721527 200.998327 
L 554.175462 200.220282 
L 554.629398 201.567654 
L 555.083333 201.184759 
L 555.537268 200.989928 
L 556.899074 200.742318 
L 557.35301 202.51117 
L 557.806945 201.694289 
L 558.26088 199.781285 
L 558.714816 199.30129 
L 560.076622 197.464774 
L 560.530557 197.082205 
L 560.984492 197.450887 
L 561.438428 200.407355 
L 561.892363 201.130808 
L 563.708104 203.600328 
L 564.16204 202.876874 
L 564.615975 200.46299 
L 565.06991 201.562112 
L 566.431716 201.242112 
L 566.885652 204.094231 
L 567.339587 203.655985 
L 567.793522 201.951667 
L 568.247457 204.115116 
L 570.063199 204.268157 
L 570.517134 204.588157 
L 570.971069 203.941191 
L 571.425005 206.278555 
L 572.786811 205.555091 
L 573.240746 205.49249 
L 573.694681 205.951589 
L 574.148617 205.673348 
L 574.602552 202.167319 
L 575.964358 201.798638 
L 576.418293 201.068208 
L 576.872229 201.102991 
L 577.326164 202.549919 
L 577.780099 202.160375 
L 579.595841 202.431662 
L 580.049776 200.623007 
L 580.503711 200.602133 
L 580.957647 201.262986 
L 582.319453 200.539521 
L 582.773388 200.69254 
L 583.227323 199.809103 
L 583.681259 197.687391 
L 584.135194 197.590029 
L 585.497 196.275245 
L 585.950935 197.520441 
L 586.858806 198.134917 
L 587.312741 196.804497 
L 588.674547 197.783209 
L 589.128482 197.662452 
L 589.582418 198.485506 
L 590.036353 198.350178 
L 590.490288 196.640796 
L 591.852094 197.344897 
L 592.30603 195.95155 
L 592.759965 197.725118 
L 593.2139 197.662181 
L 593.667836 198.459992 
L 595.483577 197.816243 
L 596.845383 199.319773 
L 598.207189 198.571078 
L 598.661124 197.881342 
L 599.11506 198.6465 
L 599.568995 197.092474 
L 600.02293 198.415506 
L 601.384736 199.276504 
L 601.838672 200.494557 
L 602.292607 199.388524 
L 602.746542 200.067535 
L 603.200478 202.069577 
L 604.562284 201.390588 
L 605.016219 203.217596 
L 605.470154 201.138556 
L 605.92409 201.110586 
L 606.378025 200.277536 
L 608.193766 201.194572 
L 608.647702 200.494546 
L 609.101637 201.166558 
L 609.555572 201.299551 
L 610.917378 200.69756 
L 611.371313 201.572565 
L 611.825249 201.957578 
L 612.279184 201.558559 
L 612.733119 202.580595 
L 614.094925 203.665612 
L 614.548861 202.99361 
L 615.002796 201.831562 
L 615.456731 201.061547 
L 615.910667 201.334562 
L 617.272473 202.580595 
L 617.726408 203.763604 
L 618.180343 202.384568 
L 618.634279 204.953643 
L 620.45002 205.807677 
L 620.903955 205.051635 
L 621.357891 204.512637 
L 621.811826 203.294584 
L 622.265761 203.805624 
L 623.627567 204.477604 
L 624.081503 204.449645 
L 624.535438 204.001618 
L 624.989373 202.16759 
L 625.443309 202.069577 
L 626.805115 202.510594 
L 627.25905 203.840613 
L 627.712985 203.798615 
L 628.166921 204.923033 
L 628.620856 203.418481 
L 629.982662 202.081367 
L 630.436597 199.923644 
L 630.890533 201.64312 
L 631.344468 199.490374 
L 631.798403 199.11802 
L 633.160209 198.811526 
L 633.614144 198.189346 
L 634.522015 199.394924 
L 634.97595 198.47477 
L 636.337756 199.655552 
L 636.791692 199.198593 
L 637.245627 198.422384 
L 637.699562 199.845244 
L 638.153498 199.991547 
L 639.515304 197.943856 
L 639.969239 196.915745 
L 640.423174 197.364152 
L 640.87711 196.638656 
L 641.331045 197.906498 
L 642.692851 197.230312 
L 643.146786 197.483887 
L 643.600722 197.31483 
L 644.508592 198.751718 
L 645.870398 197.878321 
L 646.324334 200.759117 
L 646.778269 200.477399 
L 647.232204 200.568969 
L 647.68614 198.913734 
L 649.955816 197.16693 
L 650.409752 197.54727 
L 650.863687 195.744124 
L 652.225493 194.300205 
L 652.679428 194.483324 
L 653.133364 193.90576 
L 653.587299 192.257567 
L 654.041234 194.842551 
L 655.40304 194.349506 
L 655.856975 195.110209 
L 656.310911 195.16655 
L 656.764846 194.067765 
L 658.580587 191.912433 
L 659.034523 192.391407 
L 659.488458 188.313193 
L 659.942393 190.59528 
L 660.396329 190.630498 
L 661.758135 192.954876 
L 662.21207 194.152283 
L 662.666005 193.34931 
L 663.119941 194.800292 
L 663.573876 195.49056 
L 664.935682 198.561548 
L 665.389617 201.428272 
L 665.843553 201.590277 
L 666.297488 202.527079 
L 666.751423 203.041259 
L 668.567165 202.639773 
L 669.0211 199.209546 
L 669.475035 198.523016 
L 669.928971 199.182761 
L 671.290777 200.666917 
L 671.744712 203.230429 
L 672.198647 204.827551 
L 672.652583 205.08443 
L 673.106518 203.114084 
L 674.468324 203.720019 
L 674.468324 203.720019 
" clip-path="url(#pe61cc362dd)" style="fill: none; stroke: #008000; stroke-width: 1.5; stroke-linecap: square"/>
   </g>
   <g id="line2d_16">
    <path d="M 78.45124 192.312201 
L 78.905176 192.290292 
L 80.720917 192.391357 
L 81.628788 191.888227 
L 82.082723 192.509398 
L 83.444529 192.202865 
L 83.898464 190.78848 
L 84.3524 190.626021 
L 85.26027 190.985071 
L 86.622076 191.608948 
L 87.076011 192.815386 
L 87.529947 192.741804 
L 89.799623 193.231943 
L 94.792912 192.753599 
L 96.154718 194.158375 
L 96.608653 195.998382 
L 97.062589 196.352587 
L 97.516524 195.585274 
L 99.332265 195.625377 
L 99.786201 195.649415 
L 100.240136 195.29104 
L 100.694071 194.57486 
L 102.963748 194.672818 
L 103.417683 194.402199 
L 105.68736 194.681908 
L 106.595231 194.917291 
L 107.049166 195.908309 
L 107.503101 195.780232 
L 109.318842 195.749791 
L 110.226713 195.311961 
L 110.680648 195.550781 
L 112.49639 195.320776 
L 112.950325 194.693002 
L 113.40426 195.162782 
L 113.858196 196.443487 
L 115.673937 196.095365 
L 116.127872 196.140482 
L 116.581808 195.18994 
L 117.035743 195.158096 
L 118.851484 192.959392 
L 119.759355 192.881415 
L 120.21329 192.810912 
L 121.575096 192.8309 
L 122.029032 192.689183 
L 122.482967 191.990078 
L 122.936902 191.648949 
L 123.390838 191.848586 
L 125.206579 191.957975 
L 125.660514 192.296773 
L 126.11445 190.054994 
L 126.568385 190.046185 
L 127.930191 189.71505 
L 128.838062 189.007126 
L 129.291997 189.612478 
L 129.745932 177.480876 
L 131.107738 177.863949 
L 131.561673 178.170713 
L 132.015609 177.433204 
L 132.469544 177.415399 
L 132.923479 177.040284 
L 134.739221 176.991391 
L 135.647091 177.682656 
L 136.101027 177.682084 
L 137.462833 177.527184 
L 137.916768 177.607414 
L 138.370703 177.803268 
L 138.824639 179.638213 
L 141.094315 179.663504 
L 141.548251 179.595844 
L 142.002186 180.060036 
L 142.456121 191.916359 
L 143.817927 192.058299 
L 144.271863 191.15587 
L 144.725798 192.82761 
L 145.633669 192.986509 
L 146.995475 193.833761 
L 147.44941 193.677149 
L 148.357281 194.166072 
L 148.811216 193.274078 
L 150.173022 192.331821 
L 150.626957 193.062438 
L 151.534828 193.074291 
L 151.988763 192.451506 
L 153.350569 192.332226 
L 153.804504 192.470889 
L 154.25844 192.492076 
L 154.712375 190.361599 
L 155.16631 190.368455 
L 156.528116 185.535211 
L 157.435987 185.462659 
L 158.343858 185.781789 
L 160.613534 180.970947 
L 161.06747 180.291265 
L 161.521405 180.193363 
L 162.883211 180.063416 
L 164.245017 180.842562 
L 164.698952 180.068246 
L 166.060758 180.066082 
L 166.514694 180.268373 
L 166.968629 179.917358 
L 167.422564 180.096504 
L 167.8765 180.00208 
L 169.238306 181.432008 
L 169.692241 181.201583 
L 170.146176 184.34652 
L 171.054047 184.321963 
L 172.869788 184.228395 
L 173.323723 180.060383 
L 173.777659 183.259192 
L 174.231594 184.461414 
L 176.047335 185.506339 
L 176.501271 185.412817 
L 176.955206 184.822707 
L 177.409141 184.955298 
L 178.770947 185.54139 
L 179.678818 185.437526 
L 180.132753 186.021759 
L 181.948495 186.018082 
L 182.40243 186.212972 
L 183.764236 186.127775 
L 185.579977 185.825656 
L 186.033913 186.01971 
L 186.487848 191.637069 
L 186.941783 191.909737 
L 188.757525 191.993388 
L 189.21146 191.385428 
L 189.665395 191.470872 
L 190.119331 192.924231 
L 192.842943 193.59876 
L 193.296878 193.952589 
L 194.658684 193.440086 
L 195.112619 193.480125 
L 195.566554 193.338781 
L 196.474425 193.309071 
L 197.836231 192.71158 
L 198.290166 193.653098 
L 198.744102 193.974292 
L 199.198037 193.823165 
L 199.651972 193.429439 
L 201.013778 193.726688 
L 201.467714 193.287201 
L 201.921649 193.883253 
L 202.82952 194.02058 
L 204.645261 193.780183 
L 206.007067 193.977119 
L 207.822808 193.670879 
L 208.276744 194.122007 
L 208.730679 194.11962 
L 209.184614 194.656451 
L 210.54642 195.267988 
L 211.000356 195.141218 
L 211.908226 195.447495 
L 213.723968 196.212323 
L 214.177903 191.207143 
L 214.631838 191.524643 
L 215.085774 191.442221 
L 215.539709 189.163846 
L 216.901515 188.718053 
L 217.809385 187.083867 
L 218.717256 187.019778 
L 220.079062 186.92788 
L 220.986933 187.050071 
L 221.440868 186.822616 
L 221.894803 185.963708 
L 223.710545 185.988587 
L 224.16448 185.787848 
L 224.618415 185.299818 
L 225.072351 185.148895 
L 226.434157 185.142462 
L 226.888092 187.359188 
L 227.795963 187.489462 
L 228.249898 189.550924 
L 230.065639 188.214841 
L 230.519575 189.274597 
L 230.97351 189.582955 
L 231.427445 187.824621 
L 232.789251 187.628275 
L 233.243187 187.368339 
L 233.697122 186.433322 
L 234.604993 186.226346 
L 235.966799 186.960351 
L 236.420734 186.882029 
L 236.874669 187.024243 
L 237.328605 186.948377 
L 237.78254 187.409817 
L 239.144346 187.58028 
L 239.598281 186.872367 
L 240.052216 187.119833 
L 240.506152 186.7614 
L 240.960087 186.592903 
L 242.321893 186.39601 
L 242.775828 188.149308 
L 243.229764 186.590072 
L 243.683699 186.815166 
L 244.137634 189.136445 
L 245.953376 189.108561 
L 246.407311 188.361651 
L 247.315182 187.874645 
L 248.676988 188.152945 
L 249.130923 187.566664 
L 250.038794 187.456126 
L 250.492729 187.731857 
L 252.30847 187.760145 
L 252.762406 188.668283 
L 253.216341 188.759282 
L 253.670276 189.002282 
L 255.032082 189.205959 
L 255.939953 188.140038 
L 256.393888 189.71712 
L 256.847824 188.655052 
L 258.20963 188.412043 
L 258.663565 183.856723 
L 259.1175 181.99444 
L 259.571436 182.67482 
L 260.025371 182.91761 
L 261.387177 180.34267 
L 261.841112 180.355521 
L 262.295047 180.1956 
L 262.748983 179.588836 
L 263.202918 179.491858 
L 264.564724 179.376155 
L 265.018659 179.134176 
L 266.380465 177.753009 
L 267.742271 177.621315 
L 268.196207 177.690422 
L 268.650142 178.148956 
L 269.104077 178.151611 
L 269.558013 177.679903 
L 270.919819 177.268311 
L 271.373754 180.785098 
L 271.827689 182.015607 
L 272.281625 182.508031 
L 272.73556 182.250036 
L 274.551301 185.508011 
L 275.005237 185.11255 
L 275.459172 185.10397 
L 275.913107 185.812599 
L 277.274913 185.790829 
L 277.728849 184.314811 
L 278.182784 184.216238 
L 278.636719 184.614541 
L 279.090655 184.834778 
L 280.906396 183.695736 
L 281.360331 184.211494 
L 282.268202 184.176398 
L 283.630008 185.470643 
L 284.083943 186.342899 
L 284.537878 186.506477 
L 284.991814 186.262098 
L 285.445749 186.301029 
L 287.26149 186.780067 
L 287.715426 185.512855 
L 288.169361 185.398516 
L 288.623296 184.034066 
L 289.985102 183.803859 
L 290.439038 184.224042 
L 290.892973 184.433999 
L 291.346908 185.040671 
L 291.800844 184.963881 
L 293.16265 186.232403 
L 293.616585 184.72917 
L 294.07052 184.708297 
L 294.524456 184.839476 
L 294.978391 184.620569 
L 296.340197 184.12009 
L 296.794132 181.659181 
L 297.248068 181.585181 
L 297.702003 181.240294 
L 298.155938 180.709686 
L 299.97168 180.764128 
L 300.425615 182.336698 
L 300.87955 182.289301 
L 301.333486 183.274625 
L 302.695292 178.528334 
L 303.149227 179.180233 
L 304.057098 178.898067 
L 304.511033 179.022018 
L 305.872839 179.209552 
L 306.326774 181.018121 
L 306.780709 180.696478 
L 307.68858 180.791465 
L 309.050386 180.945781 
L 309.504321 183.068295 
L 309.958257 183.046424 
L 310.412192 183.137578 
L 310.866127 183.595996 
L 312.227933 183.597901 
L 312.681869 182.749059 
L 313.135804 183.234187 
L 315.405481 183.141577 
L 315.859416 190.449943 
L 316.313351 189.804895 
L 316.767287 190.334027 
L 317.221222 190.505797 
L 318.583028 190.43928 
L 319.036963 190.302638 
L 319.490899 190.336282 
L 319.944834 190.833295 
L 320.398769 190.699658 
L 321.760575 190.707313 
L 322.214511 191.166154 
L 322.668446 190.447617 
L 323.122381 190.423008 
L 323.576317 192.422994 
L 325.392058 192.223161 
L 326.299929 193.440895 
L 326.753864 193.436786 
L 328.11567 191.849035 
L 328.569605 191.940581 
L 329.477476 190.883005 
L 329.931411 191.753098 
L 331.293217 191.736651 
L 331.747152 191.589396 
L 332.201088 191.692512 
L 332.655023 190.945756 
L 333.108958 191.010576 
L 334.470764 190.658906 
L 334.9247 190.993756 
L 335.378635 190.322237 
L 335.83257 190.35085 
L 336.286506 191.112411 
L 338.556182 191.385682 
L 339.464053 191.356957 
L 340.825859 191.245863 
L 341.279794 191.50543 
L 341.73373 192.31012 
L 342.187665 192.051349 
L 342.6416 192.26914 
L 344.003406 192.656791 
L 344.457342 192.584893 
L 345.365212 192.675159 
L 345.819148 192.502569 
L 347.180954 192.501324 
L 347.634889 190.829531 
L 348.542759 190.351508 
L 348.996695 189.814435 
L 351.266371 189.149668 
L 351.720307 188.713885 
L 352.174242 188.860967 
L 353.536048 185.207172 
L 353.989983 184.525619 
L 354.443919 184.341065 
L 354.897854 175.960461 
L 355.351789 176.352777 
L 356.713595 169.015333 
L 357.167531 168.933866 
L 357.621466 163.33144 
L 358.075401 162.641337 
L 358.529337 162.673841 
L 359.891143 159.553993 
L 360.345078 156.977938 
L 361.252949 143.255473 
L 361.706884 131.109536 
L 363.06869 129.773196 
L 363.522625 123.030671 
L 363.976561 123.072759 
L 364.430496 121.07979 
L 364.884431 117.978055 
L 366.246237 117.552499 
L 366.700173 115.10732 
L 367.154108 115.00337 
L 367.608043 114.236539 
L 368.061979 113.741228 
L 369.423785 114.684242 
L 369.87772 113.554026 
L 370.331655 116.176719 
L 370.78559 114.720288 
L 371.239526 114.670427 
L 372.601332 115.877728 
L 373.055267 115.746341 
L 373.509202 119.860559 
L 373.963138 126.059245 
L 375.778879 135.443815 
L 376.232814 136.421267 
L 376.68675 143.141007 
L 377.140685 143.215895 
L 377.59462 146.772751 
L 378.956426 152.303583 
L 379.410362 155.191598 
L 379.864297 157.257269 
L 380.318232 158.387753 
L 380.772168 161.829318 
L 382.133974 162.045001 
L 382.587909 164.525304 
L 383.041844 168.235948 
L 383.49578 168.388284 
L 383.949715 171.474971 
L 385.311521 171.309853 
L 385.765456 172.4725 
L 386.219392 175.327344 
L 386.673327 176.186682 
L 387.127262 173.666905 
L 388.489068 173.841942 
L 388.943004 178.675443 
L 389.850874 178.785888 
L 390.30481 181.270506 
L 391.666616 183.826305 
L 392.120551 180.893692 
L 392.574486 180.601622 
L 393.028421 180.483929 
L 393.482357 180.1076 
L 395.298098 180.329841 
L 396.205969 178.362271 
L 396.659904 178.514411 
L 398.02171 178.340902 
L 398.475645 178.484024 
L 398.929581 178.46187 
L 399.383516 178.966705 
L 399.837451 178.372621 
L 401.199257 181.047081 
L 401.653193 181.020398 
L 402.107128 181.117563 
L 402.561063 179.080572 
L 403.014999 178.973953 
L 404.376805 178.879326 
L 404.83074 178.974379 
L 405.284675 182.489425 
L 405.738611 182.286847 
L 406.192546 183.159914 
L 407.554352 182.718064 
L 408.462223 182.985449 
L 408.916158 183.602759 
L 409.370093 181.803823 
L 410.731899 180.835535 
L 411.185835 180.187448 
L 411.63977 180.197164 
L 412.093705 181.662905 
L 413.909446 182.638118 
L 414.363382 182.670076 
L 414.817317 182.817276 
L 415.271252 182.84671 
L 415.725188 185.325919 
L 417.540929 185.636275 
L 418.4488 185.784782 
L 418.902735 186.008839 
L 420.264541 185.996347 
L 420.718476 186.616665 
L 421.172412 186.527052 
L 421.626347 187.511415 
L 422.080282 187.678134 
L 423.896024 192.79482 
L 424.349959 193.865815 
L 424.803894 190.599088 
L 425.25783 190.31479 
L 426.619636 190.277566 
L 427.073571 188.820593 
L 427.981442 188.239496 
L 428.435377 188.473712 
L 429.797183 188.523664 
L 430.705054 187.3835 
L 431.158989 187.395813 
L 431.612924 186.929879 
L 433.428666 187.326092 
L 433.882601 186.849356 
L 434.336536 186.77724 
L 434.790472 186.960077 
L 436.152277 186.903464 
L 436.606213 187.213624 
L 437.060148 186.748529 
L 437.514083 189.126235 
L 437.968019 189.277327 
L 439.329825 189.045059 
L 439.78376 190.955227 
L 440.237695 189.404005 
L 440.691631 187.435962 
L 441.145566 187.451989 
L 442.961307 185.990519 
L 443.415243 185.076473 
L 443.869178 185.584708 
L 444.323113 185.067056 
L 446.138855 185.238944 
L 446.59279 185.162338 
L 447.046725 185.336337 
L 447.500661 185.632901 
L 448.862467 185.610757 
L 449.316402 185.483556 
L 449.770337 184.886807 
L 450.678208 184.676688 
L 452.040014 184.725471 
L 452.493949 184.629545 
L 452.947885 183.807621 
L 453.855755 186.451138 
L 455.217561 186.011558 
L 456.125432 188.652822 
L 456.579367 189.441949 
L 457.033303 189.589252 
L 458.849044 188.869479 
L 459.302979 189.356283 
L 460.21085 189.414712 
L 461.572656 187.003885 
L 462.026591 187.301619 
L 462.480526 188.517184 
L 462.934462 187.932845 
L 463.388397 187.844216 
L 464.750203 187.258301 
L 465.204138 187.368192 
L 465.658074 181.515098 
L 466.112009 181.534031 
L 466.565944 181.772484 
L 467.92775 181.682981 
L 468.381686 180.031635 
L 468.835621 180.162677 
L 469.289556 179.704463 
L 469.743492 179.886653 
L 471.105298 175.15029 
L 471.559233 174.030743 
L 472.013168 173.387944 
L 472.467104 173.389232 
L 472.921039 172.664759 
L 474.282845 173.127428 
L 474.73678 173.116398 
L 475.190716 172.474756 
L 476.098586 172.794034 
L 477.460392 172.916781 
L 477.914328 173.159131 
L 478.368263 177.055379 
L 480.637939 177.107197 
L 481.091875 177.425261 
L 481.54581 178.822625 
L 481.999745 178.701718 
L 482.453681 179.494 
L 483.815487 179.717553 
L 484.269422 186.444236 
L 484.723357 187.494732 
L 485.177293 188.87666 
L 485.631228 188.305797 
L 486.993034 190.692301 
L 487.446969 191.09022 
L 487.900905 190.783903 
L 488.35484 192.102485 
L 490.624517 190.554773 
L 491.078452 190.601343 
L 491.532387 189.80306 
L 493.802064 189.424692 
L 494.255999 189.403364 
L 494.709935 189.035928 
L 496.525676 188.765046 
L 496.979611 188.509605 
L 497.887482 187.21684 
L 498.341417 188.23029 
L 500.157159 188.236646 
L 500.611094 188.408123 
L 501.065029 187.85597 
L 501.518964 187.723531 
L 503.334706 187.841003 
L 503.788641 187.593266 
L 504.242576 188.080733 
L 504.696512 188.057743 
L 506.058318 186.03097 
L 506.512253 186.456585 
L 506.966188 181.590593 
L 507.420124 180.233895 
L 507.874059 179.554174 
L 509.6898 180.122122 
L 510.143736 180.433208 
L 510.597671 181.240381 
L 511.051606 181.163026 
L 513.775218 181.318622 
L 514.229154 181.568747 
L 516.49883 181.630155 
L 516.952766 181.827117 
L 517.406701 180.585538 
L 518.768507 180.715912 
L 519.222442 181.840858 
L 519.676378 182.10619 
L 520.130313 187.892875 
L 520.584248 186.799944 
L 522.39999 187.967798 
L 523.30786 187.79727 
L 523.761795 182.854856 
L 525.577537 182.184761 
L 526.031472 181.821324 
L 526.485407 181.82503 
L 526.939343 181.436135 
L 529.209019 181.507435 
L 529.662955 181.777729 
L 530.11689 183.142679 
L 531.478696 182.159037 
L 531.932631 181.096533 
L 532.386567 181.079363 
L 532.840502 181.440908 
L 533.294437 184.075473 
L 534.656243 183.471685 
L 535.110179 181.797041 
L 535.564114 182.147588 
L 536.018049 182.028832 
L 537.833791 184.165509 
L 538.287726 184.308364 
L 538.741661 185.04984 
L 539.195597 185.173941 
L 539.649532 184.864363 
L 541.011338 185.037203 
L 541.465273 183.676106 
L 541.919209 183.669826 
L 542.373144 183.46727 
L 542.827079 183.425211 
L 544.188885 183.454644 
L 545.096756 185.047381 
L 545.550691 184.377962 
L 546.004626 184.383996 
L 547.366432 183.574855 
L 547.820368 185.121574 
L 548.274303 186.165097 
L 548.728238 185.684612 
L 549.182174 185.767113 
L 550.54398 186.457344 
L 550.997915 186.403323 
L 551.45185 186.121199 
L 551.905786 185.263125 
L 552.359721 185.479112 
L 553.721527 183.754828 
L 554.175462 184.611019 
L 555.083333 183.416851 
L 555.537268 183.405365 
L 556.899074 183.511916 
L 557.35301 183.270666 
L 558.714816 183.782468 
L 560.076622 186.350836 
L 560.530557 186.405539 
L 560.984492 186.270706 
L 561.438428 183.173881 
L 561.892363 183.338123 
L 564.16204 182.921588 
L 564.615975 181.808379 
L 565.06991 182.460593 
L 566.431716 182.415844 
L 566.885652 183.525813 
L 567.339587 183.608559 
L 567.793522 183.847685 
L 568.247457 185.086173 
L 570.063199 185.133395 
L 570.971069 184.248613 
L 573.240746 183.650707 
L 573.694681 183.796303 
L 574.148617 183.761876 
L 574.602552 185.1903 
L 575.964358 185.150569 
L 576.418293 186.120217 
L 576.872229 186.135508 
L 577.326164 188.005422 
L 577.780099 187.846127 
L 579.595841 187.926274 
L 580.049776 188.542146 
L 580.503711 188.545382 
L 580.957647 188.862115 
L 582.319453 189.266081 
L 582.773388 189.23675 
L 583.227323 188.997806 
L 583.681259 190.471719 
L 584.135194 190.35515 
L 585.497 192.901621 
L 586.404871 192.155055 
L 586.858806 191.927158 
L 587.312741 190.647883 
L 588.674547 191.762552 
L 589.128482 191.733521 
L 589.582418 189.818856 
L 590.036353 189.760896 
L 590.490288 187.522134 
L 591.852094 187.371087 
L 592.759965 185.430023 
L 593.2139 185.446225 
L 593.667836 184.884372 
L 595.483577 184.873403 
L 596.391448 185.279362 
L 596.845383 185.601262 
L 598.207189 185.443048 
L 598.661124 185.7699 
L 599.11506 184.890843 
L 599.568995 184.527893 
L 600.02293 185.359386 
L 601.384736 185.089682 
L 601.838672 184.611685 
L 602.292607 186.023678 
L 602.746542 186.063346 
L 603.200478 188.540343 
L 604.562284 188.461939 
L 605.016219 190.0917 
L 605.92409 190.170864 
L 606.378025 190.800794 
L 608.193766 190.819588 
L 608.647702 190.373499 
L 609.101637 190.187452 
L 609.555572 190.215602 
L 610.917378 189.46495 
L 611.371313 189.778733 
L 611.825249 189.750845 
L 612.279184 190.395482 
L 612.733119 191.695004 
L 614.094925 190.807218 
L 614.548861 190.960489 
L 615.002796 191.46181 
L 615.456731 191.470865 
L 615.910667 191.279523 
L 617.272473 189.683569 
L 617.726408 189.474779 
L 618.634279 187.923836 
L 619.088214 187.961096 
L 620.45002 187.89368 
L 620.903955 187.710109 
L 621.357891 186.820241 
L 621.811826 186.372891 
L 622.265761 186.314074 
L 623.627567 187.093645 
L 624.535438 187.025247 
L 624.989373 186.379452 
L 625.443309 186.352002 
L 626.805115 185.645413 
L 627.25905 184.883993 
L 628.166921 184.809736 
L 628.620856 184.081432 
L 629.982662 185.081455 
L 630.436597 184.366978 
L 630.890533 184.518846 
L 631.344468 186.012389 
L 633.160209 186.291153 
L 633.614144 185.876482 
L 634.06808 186.53053 
L 634.522015 186.808011 
L 634.97595 186.950935 
L 636.337756 186.419032 
L 636.791692 186.451821 
L 637.245627 185.986067 
L 637.699562 186.487569 
L 638.153498 186.502446 
L 639.515304 188.22575 
L 639.969239 189.700356 
L 640.423174 189.633319 
L 640.87711 190.396157 
L 641.331045 190.813096 
L 642.692851 190.657725 
L 643.146786 191.154235 
L 643.600722 191.440264 
L 644.508592 190.558384 
L 645.870398 189.842143 
L 646.324334 182.824669 
L 646.778269 182.499929 
L 647.232204 182.556138 
L 647.68614 181.016594 
L 649.047946 180.094748 
L 649.501881 180.446853 
L 649.955816 180.422123 
L 650.409752 180.636661 
L 650.863687 180.058401 
L 652.225493 179.407483 
L 652.679428 179.426734 
L 653.133364 179.564106 
L 653.587299 179.094519 
L 654.041234 175.362877 
L 656.310911 175.494195 
L 656.764846 175.822307 
L 659.034523 176.337766 
L 659.488458 182.707392 
L 659.942393 181.524409 
L 660.396329 181.524859 
L 661.758135 181.924427 
L 662.21207 182.650745 
L 662.666005 182.912031 
L 663.119941 181.906418 
L 663.573876 181.858136 
L 664.935682 180.974151 
L 666.297488 181.030561 
L 666.751423 181.740722 
L 668.567165 182.732799 
L 669.0211 176.516712 
L 669.475035 176.454781 
L 669.928971 176.784392 
L 671.290777 176.413854 
L 671.744712 176.469623 
L 672.198647 176.351147 
L 672.652583 176.554205 
L 673.106518 176.418816 
L 674.468324 176.58416 
L 674.468324 176.58416 
" clip-path="url(#pe61cc362dd)" style="fill: none; stroke: #0000ff; stroke-width: 1.5; stroke-linecap: square"/>
   </g>
   <g id="patch_3">
    <path d="M 35.304688 348.478125 
L 35.304688 22.318125 
" style="fill: none; stroke: #ffffff; stroke-width: 0.8; stroke-linejoin: miter; stroke-linecap: square"/>
   </g>
   <g id="patch_4">
    <path d="M 704.904688 348.478125 
L 704.904688 22.318125 
" style="fill: none; stroke: #ffffff; stroke-width: 0.8; stroke-linejoin: miter; stroke-linecap: square"/>
   </g>
   <g id="patch_5">
    <path d="M 35.304688 348.478125 
L 704.904688 348.478125 
" style="fill: none; stroke: #ffffff; stroke-width: 0.8; stroke-linejoin: miter; stroke-linecap: square"/>
   </g>
   <g id="patch_6">
    <path d="M 35.304688 22.318125 
L 704.904688 22.318125 
" style="fill: none; stroke: #ffffff; stroke-width: 0.8; stroke-linejoin: miter; stroke-linecap: square"/>
   </g>
   <g id="text_14">
    <!-- 1st order difference -->
    <g style="fill: #ffffff" transform="translate(310.78625 16.318125)scale(0.12 -0.12)">
     <defs>
      <path id="DejaVuSans-73" d="M 2834 3397 
L 2834 2853 
Q 2591 2978 2328 3040 
Q 2066 3103 1784 3103 
Q 1356 3103 1142 2972 
Q 928 2841 928 2578 
Q 928 2378 1081 2264 
Q 1234 2150 1697 2047 
L 1894 2003 
Q 2506 1872 2764 1633 
Q 3022 1394 3022 966 
Q 3022 478 2636 193 
Q 2250 -91 1575 -91 
Q 1294 -91 989 -36 
Q 684 19 347 128 
L 347 722 
Q 666 556 975 473 
Q 1284 391 1588 391 
Q 1994 391 2212 530 
Q 2431 669 2431 922 
Q 2431 1156 2273 1281 
Q 2116 1406 1581 1522 
L 1381 1569 
Q 847 1681 609 1914 
Q 372 2147 372 2553 
Q 372 3047 722 3315 
Q 1072 3584 1716 3584 
Q 2034 3584 2315 3537 
Q 2597 3491 2834 3397 
z
" transform="scale(0.015625)"/>
      <path id="DejaVuSans-74" d="M 1172 4494 
L 1172 3500 
L 2356 3500 
L 2356 3053 
L 1172 3053 
L 1172 1153 
Q 1172 725 1289 603 
Q 1406 481 1766 481 
L 2356 481 
L 2356 0 
L 1766 0 
Q 1100 0 847 248 
Q 594 497 594 1153 
L 594 3053 
L 172 3053 
L 172 3500 
L 594 3500 
L 594 4494 
L 1172 4494 
z
" transform="scale(0.015625)"/>
      <path id="DejaVuSans-20" transform="scale(0.015625)"/>
      <path id="DejaVuSans-6f" d="M 1959 3097 
Q 1497 3097 1228 2736 
Q 959 2375 959 1747 
Q 959 1119 1226 758 
Q 1494 397 1959 397 
Q 2419 397 2687 759 
Q 2956 1122 2956 1747 
Q 2956 2369 2687 2733 
Q 2419 3097 1959 3097 
z
M 1959 3584 
Q 2709 3584 3137 3096 
Q 3566 2609 3566 1747 
Q 3566 888 3137 398 
Q 2709 -91 1959 -91 
Q 1206 -91 779 398 
Q 353 888 353 1747 
Q 353 2609 779 3096 
Q 1206 3584 1959 3584 
z
" transform="scale(0.015625)"/>
      <path id="DejaVuSans-72" d="M 2631 2963 
Q 2534 3019 2420 3045 
Q 2306 3072 2169 3072 
Q 1681 3072 1420 2755 
Q 1159 2438 1159 1844 
L 1159 0 
L 581 0 
L 581 3500 
L 1159 3500 
L 1159 2956 
Q 1341 3275 1631 3429 
Q 1922 3584 2338 3584 
Q 2397 3584 2469 3576 
Q 2541 3569 2628 3553 
L 2631 2963 
z
" transform="scale(0.015625)"/>
      <path id="DejaVuSans-64" d="M 2906 2969 
L 2906 4863 
L 3481 4863 
L 3481 0 
L 2906 0 
L 2906 525 
Q 2725 213 2448 61 
Q 2172 -91 1784 -91 
Q 1150 -91 751 415 
Q 353 922 353 1747 
Q 353 2572 751 3078 
Q 1150 3584 1784 3584 
Q 2172 3584 2448 3432 
Q 2725 3281 2906 2969 
z
M 947 1747 
Q 947 1113 1208 752 
Q 1469 391 1925 391 
Q 2381 391 2643 752 
Q 2906 1113 2906 1747 
Q 2906 2381 2643 2742 
Q 2381 3103 1925 3103 
Q 1469 3103 1208 2742 
Q 947 2381 947 1747 
z
" transform="scale(0.015625)"/>
      <path id="DejaVuSans-65" d="M 3597 1894 
L 3597 1613 
L 953 1613 
Q 991 1019 1311 708 
Q 1631 397 2203 397 
Q 2534 397 2845 478 
Q 3156 559 3463 722 
L 3463 178 
Q 3153 47 2828 -22 
Q 2503 -91 2169 -91 
Q 1331 -91 842 396 
Q 353 884 353 1716 
Q 353 2575 817 3079 
Q 1281 3584 2069 3584 
Q 2775 3584 3186 3129 
Q 3597 2675 3597 1894 
z
M 3022 2063 
Q 3016 2534 2758 2815 
Q 2500 3097 2075 3097 
Q 1594 3097 1305 2825 
Q 1016 2553 972 2059 
L 3022 2063 
z
" transform="scale(0.015625)"/>
      <path id="DejaVuSans-69" d="M 603 3500 
L 1178 3500 
L 1178 0 
L 603 0 
L 603 3500 
z
M 603 4863 
L 1178 4863 
L 1178 4134 
L 603 4134 
L 603 4863 
z
" transform="scale(0.015625)"/>
      <path id="DejaVuSans-66" d="M 2375 4863 
L 2375 4384 
L 1825 4384 
Q 1516 4384 1395 4259 
Q 1275 4134 1275 3809 
L 1275 3500 
L 2222 3500 
L 2222 3053 
L 1275 3053 
L 1275 0 
L 697 0 
L 697 3053 
L 147 3053 
L 147 3500 
L 697 3500 
L 697 3744 
Q 697 4328 969 4595 
Q 1241 4863 1831 4863 
L 2375 4863 
z
" transform="scale(0.015625)"/>
      <path id="DejaVuSans-6e" d="M 3513 2113 
L 3513 0 
L 2938 0 
L 2938 2094 
Q 2938 2591 2744 2837 
Q 2550 3084 2163 3084 
Q 1697 3084 1428 2787 
Q 1159 2491 1159 1978 
L 1159 0 
L 581 0 
L 581 3500 
L 1159 3500 
L 1159 2956 
Q 1366 3272 1645 3428 
Q 1925 3584 2291 3584 
Q 2894 3584 3203 3211 
Q 3513 2838 3513 2113 
z
" transform="scale(0.015625)"/>
      <path id="DejaVuSans-63" d="M 3122 3366 
L 3122 2828 
Q 2878 2963 2633 3030 
Q 2388 3097 2138 3097 
Q 1578 3097 1268 2742 
Q 959 2388 959 1747 
Q 959 1106 1268 751 
Q 1578 397 2138 397 
Q 2388 397 2633 464 
Q 2878 531 3122 666 
L 3122 134 
Q 2881 22 2623 -34 
Q 2366 -91 2075 -91 
Q 1284 -91 818 406 
Q 353 903 353 1747 
Q 353 2603 823 3093 
Q 1294 3584 2113 3584 
Q 2378 3584 2631 3529 
Q 2884 3475 3122 3366 
z
" transform="scale(0.015625)"/>
     </defs>
     <use xlink:href="#DejaVuSans-31"/>
     <use xlink:href="#DejaVuSans-73" x="63.623047"/>
     <use xlink:href="#DejaVuSans-74" x="115.722656"/>
     <use xlink:href="#DejaVuSans-20" x="154.931641"/>
     <use xlink:href="#DejaVuSans-6f" x="186.71875"/>
     <use xlink:href="#DejaVuSans-72" x="247.900391"/>
     <use xlink:href="#DejaVuSans-64" x="287.263672"/>
     <use xlink:href="#DejaVuSans-65" x="350.740234"/>
     <use xlink:href="#DejaVuSans-72" x="412.263672"/>
     <use xlink:href="#DejaVuSans-20" x="453.376953"/>
     <use xlink:href="#DejaVuSans-64" x="485.164062"/>
     <use xlink:href="#DejaVuSans-69" x="548.640625"/>
     <use xlink:href="#DejaVuSans-66" x="576.423828"/>
     <use xlink:href="#DejaVuSans-66" x="611.628906"/>
     <use xlink:href="#DejaVuSans-65" x="646.833984"/>
     <use xlink:href="#DejaVuSans-72" x="708.357422"/>
     <use xlink:href="#DejaVuSans-65" x="747.220703"/>
     <use xlink:href="#DejaVuSans-6e" x="808.744141"/>
     <use xlink:href="#DejaVuSans-63" x="872.123047"/>
     <use xlink:href="#DejaVuSans-65" x="927.103516"/>
    </g>
   </g>
   <g id="legend_1">
    <g id="patch_7">
     <path d="M 561.460938 74.3525 
L 697.904688 74.3525 
Q 699.904688 74.3525 699.904688 72.3525 
L 699.904688 29.318125 
Q 699.904688 27.318125 697.904688 27.318125 
L 561.460938 27.318125 
Q 559.460938 27.318125 559.460938 29.318125 
L 559.460938 72.3525 
Q 559.460938 74.3525 561.460938 74.3525 
z
" style="opacity: 0.8; stroke: #cccccc; stroke-linejoin: miter"/>
    </g>
    <g id="line2d_17">
     <path d="M 563.460938 35.416562 
L 573.460938 35.416562 
L 583.460938 35.416562 
" style="fill: none; stroke: #ff0000; stroke-width: 1.5; stroke-linecap: square"/>
    </g>
    <g id="text_15">
     <!-- Original -->
     <g style="fill: #ffffff" transform="translate(591.460938 38.916562)scale(0.1 -0.1)">
      <defs>
       <path id="DejaVuSans-4f" d="M 2522 4238 
Q 1834 4238 1429 3725 
Q 1025 3213 1025 2328 
Q 1025 1447 1429 934 
Q 1834 422 2522 422 
Q 3209 422 3611 934 
Q 4013 1447 4013 2328 
Q 4013 3213 3611 3725 
Q 3209 4238 2522 4238 
z
M 2522 4750 
Q 3503 4750 4090 4092 
Q 4678 3434 4678 2328 
Q 4678 1225 4090 567 
Q 3503 -91 2522 -91 
Q 1538 -91 948 565 
Q 359 1222 359 2328 
Q 359 3434 948 4092 
Q 1538 4750 2522 4750 
z
" transform="scale(0.015625)"/>
       <path id="DejaVuSans-67" d="M 2906 1791 
Q 2906 2416 2648 2759 
Q 2391 3103 1925 3103 
Q 1463 3103 1205 2759 
Q 947 2416 947 1791 
Q 947 1169 1205 825 
Q 1463 481 1925 481 
Q 2391 481 2648 825 
Q 2906 1169 2906 1791 
z
M 3481 434 
Q 3481 -459 3084 -895 
Q 2688 -1331 1869 -1331 
Q 1566 -1331 1297 -1286 
Q 1028 -1241 775 -1147 
L 775 -588 
Q 1028 -725 1275 -790 
Q 1522 -856 1778 -856 
Q 2344 -856 2625 -561 
Q 2906 -266 2906 331 
L 2906 616 
Q 2728 306 2450 153 
Q 2172 0 1784 0 
Q 1141 0 747 490 
Q 353 981 353 1791 
Q 353 2603 747 3093 
Q 1141 3584 1784 3584 
Q 2172 3584 2450 3431 
Q 2728 3278 2906 2969 
L 2906 3500 
L 3481 3500 
L 3481 434 
z
" transform="scale(0.015625)"/>
       <path id="DejaVuSans-61" d="M 2194 1759 
Q 1497 1759 1228 1600 
Q 959 1441 959 1056 
Q 959 750 1161 570 
Q 1363 391 1709 391 
Q 2188 391 2477 730 
Q 2766 1069 2766 1631 
L 2766 1759 
L 2194 1759 
z
M 3341 1997 
L 3341 0 
L 2766 0 
L 2766 531 
Q 2569 213 2275 61 
Q 1981 -91 1556 -91 
Q 1019 -91 701 211 
Q 384 513 384 1019 
Q 384 1609 779 1909 
Q 1175 2209 1959 2209 
L 2766 2209 
L 2766 2266 
Q 2766 2663 2505 2880 
Q 2244 3097 1772 3097 
Q 1472 3097 1187 3025 
Q 903 2953 641 2809 
L 641 3341 
Q 956 3463 1253 3523 
Q 1550 3584 1831 3584 
Q 2591 3584 2966 3190 
Q 3341 2797 3341 1997 
z
" transform="scale(0.015625)"/>
       <path id="DejaVuSans-6c" d="M 603 4863 
L 1178 4863 
L 1178 0 
L 603 0 
L 603 4863 
z
" transform="scale(0.015625)"/>
      </defs>
      <use xlink:href="#DejaVuSans-4f"/>
      <use xlink:href="#DejaVuSans-72" x="78.710938"/>
      <use xlink:href="#DejaVuSans-69" x="119.824219"/>
      <use xlink:href="#DejaVuSans-67" x="147.607422"/>
      <use xlink:href="#DejaVuSans-69" x="211.083984"/>
      <use xlink:href="#DejaVuSans-6e" x="238.867188"/>
      <use xlink:href="#DejaVuSans-61" x="302.246094"/>
      <use xlink:href="#DejaVuSans-6c" x="363.525391"/>
     </g>
    </g>
    <g id="line2d_18">
     <path d="M 563.460938 50.094688 
L 573.460938 50.094688 
L 583.460938 50.094688 
" style="fill: none; stroke: #008000; stroke-width: 1.5; stroke-linecap: square"/>
    </g>
    <g id="text_16">
     <!-- Rolling Mean -->
     <g style="fill: #ffffff" transform="translate(591.460938 53.594688)scale(0.1 -0.1)">
      <defs>
       <path id="DejaVuSans-52" d="M 2841 2188 
Q 3044 2119 3236 1894 
Q 3428 1669 3622 1275 
L 4263 0 
L 3584 0 
L 2988 1197 
Q 2756 1666 2539 1819 
Q 2322 1972 1947 1972 
L 1259 1972 
L 1259 0 
L 628 0 
L 628 4666 
L 2053 4666 
Q 2853 4666 3247 4331 
Q 3641 3997 3641 3322 
Q 3641 2881 3436 2590 
Q 3231 2300 2841 2188 
z
M 1259 4147 
L 1259 2491 
L 2053 2491 
Q 2509 2491 2742 2702 
Q 2975 2913 2975 3322 
Q 2975 3731 2742 3939 
Q 2509 4147 2053 4147 
L 1259 4147 
z
" transform="scale(0.015625)"/>
       <path id="DejaVuSans-4d" d="M 628 4666 
L 1569 4666 
L 2759 1491 
L 3956 4666 
L 4897 4666 
L 4897 0 
L 4281 0 
L 4281 4097 
L 3078 897 
L 2444 897 
L 1241 4097 
L 1241 0 
L 628 0 
L 628 4666 
z
" transform="scale(0.015625)"/>
      </defs>
      <use xlink:href="#DejaVuSans-52"/>
      <use xlink:href="#DejaVuSans-6f" x="64.982422"/>
      <use xlink:href="#DejaVuSans-6c" x="126.164062"/>
      <use xlink:href="#DejaVuSans-6c" x="153.947266"/>
      <use xlink:href="#DejaVuSans-69" x="181.730469"/>
      <use xlink:href="#DejaVuSans-6e" x="209.513672"/>
      <use xlink:href="#DejaVuSans-67" x="272.892578"/>
      <use xlink:href="#DejaVuSans-20" x="336.369141"/>
      <use xlink:href="#DejaVuSans-4d" x="368.15625"/>
      <use xlink:href="#DejaVuSans-65" x="454.435547"/>
      <use xlink:href="#DejaVuSans-61" x="515.958984"/>
      <use xlink:href="#DejaVuSans-6e" x="577.238281"/>
     </g>
    </g>
    <g id="line2d_19">
     <path d="M 563.460938 64.772812 
L 573.460938 64.772812 
L 583.460938 64.772812 
" style="fill: none; stroke: #0000ff; stroke-width: 1.5; stroke-linecap: square"/>
    </g>
    <g id="text_17">
     <!-- Rolling Std Deviation -->
     <g style="fill: #ffffff" transform="translate(591.460938 68.272812)scale(0.1 -0.1)">
      <defs>
       <path id="DejaVuSans-53" d="M 3425 4513 
L 3425 3897 
Q 3066 4069 2747 4153 
Q 2428 4238 2131 4238 
Q 1616 4238 1336 4038 
Q 1056 3838 1056 3469 
Q 1056 3159 1242 3001 
Q 1428 2844 1947 2747 
L 2328 2669 
Q 3034 2534 3370 2195 
Q 3706 1856 3706 1288 
Q 3706 609 3251 259 
Q 2797 -91 1919 -91 
Q 1588 -91 1214 -16 
Q 841 59 441 206 
L 441 856 
Q 825 641 1194 531 
Q 1563 422 1919 422 
Q 2459 422 2753 634 
Q 3047 847 3047 1241 
Q 3047 1584 2836 1778 
Q 2625 1972 2144 2069 
L 1759 2144 
Q 1053 2284 737 2584 
Q 422 2884 422 3419 
Q 422 4038 858 4394 
Q 1294 4750 2059 4750 
Q 2388 4750 2728 4690 
Q 3069 4631 3425 4513 
z
" transform="scale(0.015625)"/>
       <path id="DejaVuSans-44" d="M 1259 4147 
L 1259 519 
L 2022 519 
Q 2988 519 3436 956 
Q 3884 1394 3884 2338 
Q 3884 3275 3436 3711 
Q 2988 4147 2022 4147 
L 1259 4147 
z
M 628 4666 
L 1925 4666 
Q 3281 4666 3915 4102 
Q 4550 3538 4550 2338 
Q 4550 1131 3912 565 
Q 3275 0 1925 0 
L 628 0 
L 628 4666 
z
" transform="scale(0.015625)"/>
       <path id="DejaVuSans-76" d="M 191 3500 
L 800 3500 
L 1894 563 
L 2988 3500 
L 3597 3500 
L 2284 0 
L 1503 0 
L 191 3500 
z
" transform="scale(0.015625)"/>
      </defs>
      <use xlink:href="#DejaVuSans-52"/>
      <use xlink:href="#DejaVuSans-6f" x="64.982422"/>
      <use xlink:href="#DejaVuSans-6c" x="126.164062"/>
      <use xlink:href="#DejaVuSans-6c" x="153.947266"/>
      <use xlink:href="#DejaVuSans-69" x="181.730469"/>
      <use xlink:href="#DejaVuSans-6e" x="209.513672"/>
      <use xlink:href="#DejaVuSans-67" x="272.892578"/>
      <use xlink:href="#DejaVuSans-20" x="336.369141"/>
      <use xlink:href="#DejaVuSans-53" x="368.15625"/>
      <use xlink:href="#DejaVuSans-74" x="431.632812"/>
      <use xlink:href="#DejaVuSans-64" x="470.841797"/>
      <use xlink:href="#DejaVuSans-20" x="534.318359"/>
      <use xlink:href="#DejaVuSans-44" x="566.105469"/>
      <use xlink:href="#DejaVuSans-65" x="643.107422"/>
      <use xlink:href="#DejaVuSans-76" x="704.630859"/>
      <use xlink:href="#DejaVuSans-69" x="763.810547"/>
      <use xlink:href="#DejaVuSans-61" x="791.59375"/>
      <use xlink:href="#DejaVuSans-74" x="852.873047"/>
      <use xlink:href="#DejaVuSans-69" x="892.082031"/>
      <use xlink:href="#DejaVuSans-6f" x="919.865234"/>
      <use xlink:href="#DejaVuSans-6e" x="981.046875"/>
     </g>
    </g>
   </g>
  </g>
 </g>
 <defs>
  <clipPath id="pe61cc362dd">
   <rect x="35.304688" y="22.318125" width="669.6" height="326.16"/>
  </clipPath>
 </defs>
</svg>
