<?xml version="1.0" encoding="utf-8" standalone="no"?>
<!DOCTYPE svg PUBLIC "-//W3C//DTD SVG 1.1//EN"
  "http://www.w3.org/Graphics/SVG/1.1/DTD/svg11.dtd">
<svg xmlns:xlink="http://www.w3.org/1999/xlink" width="710.0875pt" height="372.35625pt" viewBox="0 0 710.0875 372.35625" xmlns="http://www.w3.org/2000/svg" version="1.1">
 <metadata>
  <rdf:RDF xmlns:dc="http://purl.org/dc/elements/1.1/" xmlns:cc="http://creativecommons.org/ns#" xmlns:rdf="http://www.w3.org/1999/02/22-rdf-syntax-ns#">
   <cc:Work>
    <dc:type rdf:resource="http://purl.org/dc/dcmitype/StillImage"/>
    <dc:date>2022-07-20T17:41:14.318328</dc:date>
    <dc:format>image/svg+xml</dc:format>
    <dc:creator>
     <cc:Agent>
      <dc:title>Matplotlib v3.5.1, https://matplotlib.org/</dc:title>
     </cc:Agent>
    </dc:creator>
   </cc:Work>
  </rdf:RDF>
 </metadata>
 <defs>
  <style type="text/css">*{stroke-linejoin: round; stroke-linecap: butt}</style>
 </defs>
 <g id="figure_1">
  <g id="patch_1">
   <path d="M 0 372.35625 
L 710.0875 372.35625 
L 710.0875 0 
L 0 0 
z
"/>
  </g>
  <g id="axes_1">
   <g id="patch_2">
    <path d="M 33.2875 348.478125 
L 702.8875 348.478125 
L 702.8875 22.318125 
L 33.2875 22.318125 
z
"/>
   </g>
   <g id="matplotlib.axis_1">
    <g id="xtick_1">
     <g id="line2d_1">
      <defs>
       <path id="mb47cc00420" d="M 0 0 
L 0 3.5 
" style="stroke: #ffffff; stroke-width: 0.8"/>
      </defs>
      <g>
       <use xlink:href="#mb47cc00420" x="65.576915" y="348.478125" style="fill: #ffffff; stroke: #ffffff; stroke-width: 0.8"/>
      </g>
     </g>
     <g id="text_1">
      <!-- 2018-07 -->
      <g style="fill: #ffffff" transform="translate(44.685508 363.076563)scale(0.1 -0.1)">
       <defs>
        <path id="DejaVuSans-32" d="M 1228 531 
L 3431 531 
L 3431 0 
L 469 0 
L 469 531 
Q 828 903 1448 1529 
Q 2069 2156 2228 2338 
Q 2531 2678 2651 2914 
Q 2772 3150 2772 3378 
Q 2772 3750 2511 3984 
Q 2250 4219 1831 4219 
Q 1534 4219 1204 4116 
Q 875 4013 500 3803 
L 500 4441 
Q 881 4594 1212 4672 
Q 1544 4750 1819 4750 
Q 2544 4750 2975 4387 
Q 3406 4025 3406 3419 
Q 3406 3131 3298 2873 
Q 3191 2616 2906 2266 
Q 2828 2175 2409 1742 
Q 1991 1309 1228 531 
z
" transform="scale(0.015625)"/>
        <path id="DejaVuSans-30" d="M 2034 4250 
Q 1547 4250 1301 3770 
Q 1056 3291 1056 2328 
Q 1056 1369 1301 889 
Q 1547 409 2034 409 
Q 2525 409 2770 889 
Q 3016 1369 3016 2328 
Q 3016 3291 2770 3770 
Q 2525 4250 2034 4250 
z
M 2034 4750 
Q 2819 4750 3233 4129 
Q 3647 3509 3647 2328 
Q 3647 1150 3233 529 
Q 2819 -91 2034 -91 
Q 1250 -91 836 529 
Q 422 1150 422 2328 
Q 422 3509 836 4129 
Q 1250 4750 2034 4750 
z
" transform="scale(0.015625)"/>
        <path id="DejaVuSans-31" d="M 794 531 
L 1825 531 
L 1825 4091 
L 703 3866 
L 703 4441 
L 1819 4666 
L 2450 4666 
L 2450 531 
L 3481 531 
L 3481 0 
L 794 0 
L 794 531 
z
" transform="scale(0.015625)"/>
        <path id="DejaVuSans-38" d="M 2034 2216 
Q 1584 2216 1326 1975 
Q 1069 1734 1069 1313 
Q 1069 891 1326 650 
Q 1584 409 2034 409 
Q 2484 409 2743 651 
Q 3003 894 3003 1313 
Q 3003 1734 2745 1975 
Q 2488 2216 2034 2216 
z
M 1403 2484 
Q 997 2584 770 2862 
Q 544 3141 544 3541 
Q 544 4100 942 4425 
Q 1341 4750 2034 4750 
Q 2731 4750 3128 4425 
Q 3525 4100 3525 3541 
Q 3525 3141 3298 2862 
Q 3072 2584 2669 2484 
Q 3125 2378 3379 2068 
Q 3634 1759 3634 1313 
Q 3634 634 3220 271 
Q 2806 -91 2034 -91 
Q 1263 -91 848 271 
Q 434 634 434 1313 
Q 434 1759 690 2068 
Q 947 2378 1403 2484 
z
M 1172 3481 
Q 1172 3119 1398 2916 
Q 1625 2713 2034 2713 
Q 2441 2713 2670 2916 
Q 2900 3119 2900 3481 
Q 2900 3844 2670 4047 
Q 2441 4250 2034 4250 
Q 1625 4250 1398 4047 
Q 1172 3844 1172 3481 
z
" transform="scale(0.015625)"/>
        <path id="DejaVuSans-2d" d="M 313 2009 
L 1997 2009 
L 1997 1497 
L 313 1497 
L 313 2009 
z
" transform="scale(0.015625)"/>
        <path id="DejaVuSans-37" d="M 525 4666 
L 3525 4666 
L 3525 4397 
L 1831 0 
L 1172 0 
L 2766 4134 
L 525 4134 
L 525 4666 
z
" transform="scale(0.015625)"/>
       </defs>
       <use xlink:href="#DejaVuSans-32"/>
       <use xlink:href="#DejaVuSans-30" x="63.623047"/>
       <use xlink:href="#DejaVuSans-31" x="127.246094"/>
       <use xlink:href="#DejaVuSans-38" x="190.869141"/>
       <use xlink:href="#DejaVuSans-2d" x="254.492188"/>
       <use xlink:href="#DejaVuSans-30" x="290.576172"/>
       <use xlink:href="#DejaVuSans-37" x="354.199219"/>
      </g>
     </g>
    </g>
    <g id="xtick_2">
     <g id="line2d_2">
      <g>
       <use xlink:href="#mb47cc00420" x="150.817263" y="348.478125" style="fill: #ffffff; stroke: #ffffff; stroke-width: 0.8"/>
      </g>
     </g>
     <g id="text_2">
      <!-- 2019-01 -->
      <g style="fill: #ffffff" transform="translate(129.925857 363.076563)scale(0.1 -0.1)">
       <defs>
        <path id="DejaVuSans-39" d="M 703 97 
L 703 672 
Q 941 559 1184 500 
Q 1428 441 1663 441 
Q 2288 441 2617 861 
Q 2947 1281 2994 2138 
Q 2813 1869 2534 1725 
Q 2256 1581 1919 1581 
Q 1219 1581 811 2004 
Q 403 2428 403 3163 
Q 403 3881 828 4315 
Q 1253 4750 1959 4750 
Q 2769 4750 3195 4129 
Q 3622 3509 3622 2328 
Q 3622 1225 3098 567 
Q 2575 -91 1691 -91 
Q 1453 -91 1209 -44 
Q 966 3 703 97 
z
M 1959 2075 
Q 2384 2075 2632 2365 
Q 2881 2656 2881 3163 
Q 2881 3666 2632 3958 
Q 2384 4250 1959 4250 
Q 1534 4250 1286 3958 
Q 1038 3666 1038 3163 
Q 1038 2656 1286 2365 
Q 1534 2075 1959 2075 
z
" transform="scale(0.015625)"/>
       </defs>
       <use xlink:href="#DejaVuSans-32"/>
       <use xlink:href="#DejaVuSans-30" x="63.623047"/>
       <use xlink:href="#DejaVuSans-31" x="127.246094"/>
       <use xlink:href="#DejaVuSans-39" x="190.869141"/>
       <use xlink:href="#DejaVuSans-2d" x="254.492188"/>
       <use xlink:href="#DejaVuSans-30" x="290.576172"/>
       <use xlink:href="#DejaVuSans-31" x="354.199219"/>
      </g>
     </g>
    </g>
    <g id="xtick_3">
     <g id="line2d_3">
      <g>
       <use xlink:href="#mb47cc00420" x="234.667824" y="348.478125" style="fill: #ffffff; stroke: #ffffff; stroke-width: 0.8"/>
      </g>
     </g>
     <g id="text_3">
      <!-- 2019-07 -->
      <g style="fill: #ffffff" transform="translate(213.776418 363.076563)scale(0.1 -0.1)">
       <use xlink:href="#DejaVuSans-32"/>
       <use xlink:href="#DejaVuSans-30" x="63.623047"/>
       <use xlink:href="#DejaVuSans-31" x="127.246094"/>
       <use xlink:href="#DejaVuSans-39" x="190.869141"/>
       <use xlink:href="#DejaVuSans-2d" x="254.492188"/>
       <use xlink:href="#DejaVuSans-30" x="290.576172"/>
       <use xlink:href="#DejaVuSans-37" x="354.199219"/>
      </g>
     </g>
    </g>
    <g id="xtick_4">
     <g id="line2d_4">
      <g>
       <use xlink:href="#mb47cc00420" x="319.908172" y="348.478125" style="fill: #ffffff; stroke: #ffffff; stroke-width: 0.8"/>
      </g>
     </g>
     <g id="text_4">
      <!-- 2020-01 -->
      <g style="fill: #ffffff" transform="translate(299.016766 363.076563)scale(0.1 -0.1)">
       <use xlink:href="#DejaVuSans-32"/>
       <use xlink:href="#DejaVuSans-30" x="63.623047"/>
       <use xlink:href="#DejaVuSans-32" x="127.246094"/>
       <use xlink:href="#DejaVuSans-30" x="190.869141"/>
       <use xlink:href="#DejaVuSans-2d" x="254.492188"/>
       <use xlink:href="#DejaVuSans-30" x="290.576172"/>
       <use xlink:href="#DejaVuSans-31" x="354.199219"/>
      </g>
     </g>
    </g>
    <g id="xtick_5">
     <g id="line2d_5">
      <g>
       <use xlink:href="#mb47cc00420" x="404.221996" y="348.478125" style="fill: #ffffff; stroke: #ffffff; stroke-width: 0.8"/>
      </g>
     </g>
     <g id="text_5">
      <!-- 2020-07 -->
      <g style="fill: #ffffff" transform="translate(383.330589 363.076563)scale(0.1 -0.1)">
       <use xlink:href="#DejaVuSans-32"/>
       <use xlink:href="#DejaVuSans-30" x="63.623047"/>
       <use xlink:href="#DejaVuSans-32" x="127.246094"/>
       <use xlink:href="#DejaVuSans-30" x="190.869141"/>
       <use xlink:href="#DejaVuSans-2d" x="254.492188"/>
       <use xlink:href="#DejaVuSans-30" x="290.576172"/>
       <use xlink:href="#DejaVuSans-37" x="354.199219"/>
      </g>
     </g>
    </g>
    <g id="xtick_6">
     <g id="line2d_6">
      <g>
       <use xlink:href="#mb47cc00420" x="489.462344" y="348.478125" style="fill: #ffffff; stroke: #ffffff; stroke-width: 0.8"/>
      </g>
     </g>
     <g id="text_6">
      <!-- 2021-01 -->
      <g style="fill: #ffffff" transform="translate(468.570938 363.076563)scale(0.1 -0.1)">
       <use xlink:href="#DejaVuSans-32"/>
       <use xlink:href="#DejaVuSans-30" x="63.623047"/>
       <use xlink:href="#DejaVuSans-32" x="127.246094"/>
       <use xlink:href="#DejaVuSans-31" x="190.869141"/>
       <use xlink:href="#DejaVuSans-2d" x="254.492188"/>
       <use xlink:href="#DejaVuSans-30" x="290.576172"/>
       <use xlink:href="#DejaVuSans-31" x="354.199219"/>
      </g>
     </g>
    </g>
    <g id="xtick_7">
     <g id="line2d_7">
      <g>
       <use xlink:href="#mb47cc00420" x="573.312905" y="348.478125" style="fill: #ffffff; stroke: #ffffff; stroke-width: 0.8"/>
      </g>
     </g>
     <g id="text_7">
      <!-- 2021-07 -->
      <g style="fill: #ffffff" transform="translate(552.421498 363.076563)scale(0.1 -0.1)">
       <use xlink:href="#DejaVuSans-32"/>
       <use xlink:href="#DejaVuSans-30" x="63.623047"/>
       <use xlink:href="#DejaVuSans-32" x="127.246094"/>
       <use xlink:href="#DejaVuSans-31" x="190.869141"/>
       <use xlink:href="#DejaVuSans-2d" x="254.492188"/>
       <use xlink:href="#DejaVuSans-30" x="290.576172"/>
       <use xlink:href="#DejaVuSans-37" x="354.199219"/>
      </g>
     </g>
    </g>
    <g id="xtick_8">
     <g id="line2d_8">
      <g>
       <use xlink:href="#mb47cc00420" x="658.553253" y="348.478125" style="fill: #ffffff; stroke: #ffffff; stroke-width: 0.8"/>
      </g>
     </g>
     <g id="text_8">
      <!-- 2022-01 -->
      <g style="fill: #ffffff" transform="translate(637.661847 363.076563)scale(0.1 -0.1)">
       <use xlink:href="#DejaVuSans-32"/>
       <use xlink:href="#DejaVuSans-30" x="63.623047"/>
       <use xlink:href="#DejaVuSans-32" x="127.246094"/>
       <use xlink:href="#DejaVuSans-32" x="190.869141"/>
       <use xlink:href="#DejaVuSans-2d" x="254.492188"/>
       <use xlink:href="#DejaVuSans-30" x="290.576172"/>
       <use xlink:href="#DejaVuSans-31" x="354.199219"/>
      </g>
     </g>
    </g>
   </g>
   <g id="matplotlib.axis_2">
    <g id="ytick_1">
     <g id="line2d_9">
      <defs>
       <path id="madd46cd2cf" d="M 0 0 
L -3.5 0 
" style="stroke: #ffffff; stroke-width: 0.8"/>
      </defs>
      <g>
       <use xlink:href="#madd46cd2cf" x="33.2875" y="296.275371" style="fill: #ffffff; stroke: #ffffff; stroke-width: 0.8"/>
      </g>
     </g>
     <g id="text_9">
      <!-- 80 -->
      <g style="fill: #ffffff" transform="translate(13.5625 300.07459)scale(0.1 -0.1)">
       <use xlink:href="#DejaVuSans-38"/>
       <use xlink:href="#DejaVuSans-30" x="63.623047"/>
      </g>
     </g>
    </g>
    <g id="ytick_2">
     <g id="line2d_10">
      <g>
       <use xlink:href="#madd46cd2cf" x="33.2875" y="231.48184" style="fill: #ffffff; stroke: #ffffff; stroke-width: 0.8"/>
      </g>
     </g>
     <g id="text_10">
      <!-- 100 -->
      <g style="fill: #ffffff" transform="translate(7.2 235.281059)scale(0.1 -0.1)">
       <use xlink:href="#DejaVuSans-31"/>
       <use xlink:href="#DejaVuSans-30" x="63.623047"/>
       <use xlink:href="#DejaVuSans-30" x="127.246094"/>
      </g>
     </g>
    </g>
    <g id="ytick_3">
     <g id="line2d_11">
      <g>
       <use xlink:href="#madd46cd2cf" x="33.2875" y="166.688308" style="fill: #ffffff; stroke: #ffffff; stroke-width: 0.8"/>
      </g>
     </g>
     <g id="text_11">
      <!-- 120 -->
      <g style="fill: #ffffff" transform="translate(7.2 170.487527)scale(0.1 -0.1)">
       <use xlink:href="#DejaVuSans-31"/>
       <use xlink:href="#DejaVuSans-32" x="63.623047"/>
       <use xlink:href="#DejaVuSans-30" x="127.246094"/>
      </g>
     </g>
    </g>
    <g id="ytick_4">
     <g id="line2d_12">
      <g>
       <use xlink:href="#madd46cd2cf" x="33.2875" y="101.894776" style="fill: #ffffff; stroke: #ffffff; stroke-width: 0.8"/>
      </g>
     </g>
     <g id="text_12">
      <!-- 140 -->
      <g style="fill: #ffffff" transform="translate(7.2 105.693995)scale(0.1 -0.1)">
       <defs>
        <path id="DejaVuSans-34" d="M 2419 4116 
L 825 1625 
L 2419 1625 
L 2419 4116 
z
M 2253 4666 
L 3047 4666 
L 3047 1625 
L 3713 1625 
L 3713 1100 
L 3047 1100 
L 3047 0 
L 2419 0 
L 2419 1100 
L 313 1100 
L 313 1709 
L 2253 4666 
z
" transform="scale(0.015625)"/>
       </defs>
       <use xlink:href="#DejaVuSans-31"/>
       <use xlink:href="#DejaVuSans-34" x="63.623047"/>
       <use xlink:href="#DejaVuSans-30" x="127.246094"/>
      </g>
     </g>
    </g>
    <g id="ytick_5">
     <g id="line2d_13">
      <g>
       <use xlink:href="#madd46cd2cf" x="33.2875" y="37.101245" style="fill: #ffffff; stroke: #ffffff; stroke-width: 0.8"/>
      </g>
     </g>
     <g id="text_13">
      <!-- 160 -->
      <g style="fill: #ffffff" transform="translate(7.2 40.900463)scale(0.1 -0.1)">
       <defs>
        <path id="DejaVuSans-36" d="M 2113 2584 
Q 1688 2584 1439 2293 
Q 1191 2003 1191 1497 
Q 1191 994 1439 701 
Q 1688 409 2113 409 
Q 2538 409 2786 701 
Q 3034 994 3034 1497 
Q 3034 2003 2786 2293 
Q 2538 2584 2113 2584 
z
M 3366 4563 
L 3366 3988 
Q 3128 4100 2886 4159 
Q 2644 4219 2406 4219 
Q 1781 4219 1451 3797 
Q 1122 3375 1075 2522 
Q 1259 2794 1537 2939 
Q 1816 3084 2150 3084 
Q 2853 3084 3261 2657 
Q 3669 2231 3669 1497 
Q 3669 778 3244 343 
Q 2819 -91 2113 -91 
Q 1303 -91 875 529 
Q 447 1150 447 2328 
Q 447 3434 972 4092 
Q 1497 4750 2381 4750 
Q 2619 4750 2861 4703 
Q 3103 4656 3366 4563 
z
" transform="scale(0.015625)"/>
       </defs>
       <use xlink:href="#DejaVuSans-31"/>
       <use xlink:href="#DejaVuSans-36" x="63.623047"/>
       <use xlink:href="#DejaVuSans-30" x="127.246094"/>
      </g>
     </g>
    </g>
   </g>
   <g id="line2d_14">
    <path d="M 63.723864 333.65267 
L 64.650389 332.269747 
L 66.040177 331.694142 
L 66.50344 331.121446 
L 67.429966 330.41323 
L 67.893229 329.895913 
L 69.283017 329.796821 
L 71.136068 328.346873 
L 72.525856 328.033568 
L 73.452382 326.928982 
L 74.378907 325.974697 
L 75.768696 325.713485 
L 76.695221 325.114834 
L 77.621747 324.183929 
L 79.011535 323.766017 
L 80.864586 321.686925 
L 82.254374 320.898718 
L 84.107425 318.914675 
L 85.497214 318.516876 
L 85.960476 318.222817 
L 86.423739 317.738008 
L 87.350265 316.271961 
L 88.740053 315.517612 
L 89.666578 314.219201 
L 90.593104 313.34722 
L 91.982892 312.870791 
L 93.372681 311.863531 
L 93.835943 311.772358 
L 96.152257 311.65031 
L 98.931834 311.319449 
L 99.858359 310.885664 
L 100.321622 310.897424 
L 102.637936 310.747435 
L 103.564461 310.078371 
L 105.417512 309.991616 
L 106.807301 310.143072 
L 108.197089 310.037201 
L 108.660352 309.793103 
L 110.05014 309.903391 
L 111.903191 309.872511 
L 112.366454 310.118078 
L 113.292979 311.460613 
L 114.682768 312.066444 
L 116.072556 313.469409 
L 116.535819 313.138348 
L 117.925607 312.683207 
L 118.38887 311.975892 
L 119.778658 309.134485 
L 121.168446 308.347833 
L 122.094972 306.575678 
L 123.021498 304.088369 
L 124.411286 302.675869 
L 125.337811 299.620952 
L 126.264337 295.582501 
L 127.654125 293.613685 
L 129.043913 287.812415 
L 129.507176 286.845205 
L 130.896965 285.852775 
L 131.360227 285.11995 
L 131.82349 284.830679 
L 134.139804 283.848632 
L 135.992855 281.273356 
L 137.382643 280.752662 
L 137.845906 280.439653 
L 139.235694 279.964945 
L 140.625483 279.717209 
L 141.552008 279.297391 
L 142.478534 278.3821 
L 143.868322 278.539345 
L 145.25811 279.129755 
L 145.721373 279.195026 
L 147.111161 279.815109 
L 148.964212 280.464866 
L 150.354001 280.598375 
L 151.280526 281.07753 
L 151.743789 281.475091 
L 152.207052 281.596734 
L 154.060103 281.807384 
L 156.839679 283.64983 
L 157.302942 284.336671 
L 158.229468 284.712445 
L 158.69273 284.655621 
L 160.545781 284.629616 
L 161.009044 283.944246 
L 161.472307 282.804085 
L 161.93557 282.173573 
L 163.325358 281.841327 
L 164.251884 280.884888 
L 164.715146 280.00179 
L 165.178409 278.874232 
L 166.568197 277.937381 
L 167.957986 275.076778 
L 168.421248 273.991959 
L 169.811037 272.912416 
L 171.200825 269.236608 
L 171.664088 268.064381 
L 173.517139 266.783007 
L 173.980402 265.461264 
L 174.906927 263.833008 
L 176.296715 262.940382 
L 177.223241 261.194003 
L 177.686504 260.591442 
L 178.149767 260.29689 
L 180.002818 259.929076 
L 180.46608 259.706292 
L 182.782394 259.142603 
L 184.172182 258.278385 
L 184.635445 257.683301 
L 186.025233 257.23026 
L 186.951759 256.579852 
L 187.415022 256.174658 
L 187.878285 255.963833 
L 189.268073 255.606483 
L 190.194598 254.53294 
L 191.121124 252.946542 
L 192.510912 252.23334 
L 194.363963 249.311746 
L 195.753752 248.505841 
L 196.680277 247.297728 
L 197.606803 246.393143 
L 198.996591 245.762175 
L 200.386379 243.712889 
L 203.629219 242.286823 
L 204.092481 241.8297 
L 205.48227 241.609957 
L 205.945532 241.072931 
L 206.872058 240.394723 
L 207.335321 239.886529 
L 209.651634 239.229111 
L 210.114897 239.18039 
L 210.57816 238.880099 
L 212.894474 238.364587 
L 213.820999 237.813481 
L 215.210788 237.614723 
L 216.600576 236.151143 
L 217.063839 236.026166 
L 218.91689 236.074349 
L 219.380153 236.419164 
L 219.843415 236.358933 
L 220.306678 236.757953 
L 222.159729 237.251836 
L 223.086255 236.598349 
L 223.549517 235.916247 
L 224.939306 235.508193 
L 225.865831 234.401471 
L 226.792357 233.302282 
L 228.182145 232.769252 
L 228.645408 232.42745 
L 229.571933 231.061744 
L 230.035196 230.393195 
L 231.424984 229.543955 
L 232.35151 227.616608 
L 232.814773 226.946553 
L 233.278035 225.931685 
L 234.667824 224.924346 
L 235.594349 222.793723 
L 236.520875 221.924909 
L 237.910663 221.129879 
L 239.763714 218.51893 
L 241.153502 217.874474 
L 241.616765 217.13666 
L 242.543291 215.313572 
L 243.006554 214.709043 
L 245.322867 213.397064 
L 245.78613 212.829356 
L 246.249393 211.972136 
L 247.639181 210.902878 
L 248.102444 209.291769 
L 248.565707 208.1889 
L 249.492232 207.067119 
L 250.882021 207.102908 
L 251.808546 206.40602 
L 252.271809 205.830744 
L 252.735072 205.447341 
L 254.12486 205.251382 
L 254.588123 204.932266 
L 255.051385 204.841942 
L 255.514648 204.546421 
L 255.977911 203.914463 
L 257.367699 203.165812 
L 257.830962 202.400488 
L 258.757488 200.392461 
L 259.22075 199.99995 
L 260.610539 199.496805 
L 261.073801 199.475585 
L 261.537064 198.96638 
L 262.46359 197.717616 
L 264.316641 196.462788 
L 265.243166 194.012236 
L 265.706429 193.189322 
L 267.096217 192.372471 
L 268.022743 191.179779 
L 268.486006 190.121967 
L 268.949268 189.405137 
L 270.802319 189.17933 
L 272.192108 187.962386 
L 273.581896 187.068245 
L 274.045159 186.418101 
L 274.971684 185.60277 
L 275.434947 185.089016 
L 276.824735 184.460085 
L 277.287998 184.082728 
L 277.751261 184.405525 
L 278.214524 184.560108 
L 278.677786 184.38886 
L 280.067575 184.287324 
L 280.9941 184.020599 
L 281.920626 184.30248 
L 283.310414 184.257012 
L 285.163465 186.740089 
L 287.016516 187.350661 
L 287.943042 187.041066 
L 288.406304 187.121797 
L 290.259356 187.056888 
L 291.185881 185.810632 
L 291.649144 185.710416 
L 294.891983 186.824691 
L 296.281771 186.818286 
L 296.745034 186.389118 
L 298.134823 184.741017 
L 299.524611 184.312443 
L 300.451136 184.536645 
L 300.914399 185.215348 
L 301.377662 185.666799 
L 303.230713 186.324146 
L 303.693976 186.809149 
L 304.620501 187.182818 
L 306.01029 187.358214 
L 306.473552 186.766448 
L 307.400078 185.251951 
L 307.863341 184.554946 
L 309.253129 183.76643 
L 311.10618 180.835049 
L 312.495968 180.069414 
L 313.422494 179.15279 
L 313.885757 178.751669 
L 314.349019 177.98603 
L 315.738808 177.282923 
L 316.20207 176.564569 
L 317.128596 176.113118 
L 317.591859 175.452721 
L 318.981647 175.085154 
L 319.44491 174.752664 
L 320.371435 174.682503 
L 320.834698 174.979911 
L 322.224486 175.265119 
L 323.151012 175.960598 
L 324.077537 176.129893 
L 325.467326 176.082613 
L 325.930588 176.201576 
L 326.857114 176.024655 
L 327.320377 175.658612 
L 329.636691 175.335279 
L 330.563216 175.107103 
L 332.416267 174.816476 
L 333.342793 174.338901 
L 333.806055 174.041436 
L 335.195844 173.542201 
L 335.659106 172.98451 
L 336.585632 171.313109 
L 337.048895 170.858747 
L 338.438683 170.40888 
L 339.365209 170.483447 
L 339.828471 170.522732 
L 340.291734 170.397754 
L 342.608048 170.504951 
L 343.534573 170.086716 
L 344.924362 170.369013 
L 345.387625 171.022597 
L 345.850887 171.923192 
L 346.777413 175.648312 
L 348.167201 176.424635 
L 348.630464 177.489392 
L 349.093727 177.667362 
L 350.020252 179.302857 
L 351.41004 180.840162 
L 351.873303 181.702401 
L 352.336566 183.630933 
L 352.799829 186.946413 
L 353.263092 188.617194 
L 355.116143 192.340782 
L 355.579405 193.566635 
L 356.042668 195.983054 
L 356.505931 199.706643 
L 357.895719 203.634285 
L 358.822245 209.372326 
L 359.285507 210.311278 
L 359.74877 210.780752 
L 361.138559 211.480361 
L 361.601821 212.733832 
L 362.065084 215.061265 
L 362.99161 217.180039 
L 364.381398 216.911546 
L 364.844661 218.105183 
L 365.307923 217.566669 
L 365.771186 215.599777 
L 367.624237 215.311341 
L 368.0875 213.399688 
L 368.550763 212.942485 
L 369.014026 212.321122 
L 369.477288 210.194674 
L 370.867077 207.406968 
L 371.330339 204.03472 
L 372.720128 196.732 
L 374.573179 195.085338 
L 375.499704 192.44847 
L 375.962967 191.957662 
L 377.352755 191.733349 
L 377.816018 191.890812 
L 378.279281 191.724459 
L 378.742544 192.059218 
L 379.205806 191.742665 
L 380.595595 191.722872 
L 381.52212 193.592542 
L 381.985383 194.655916 
L 382.448646 196.085155 
L 383.838434 196.639781 
L 385.691485 200.614644 
L 387.544536 201.451744 
L 388.007799 201.915084 
L 388.471062 202.072618 
L 388.934324 202.37379 
L 390.324113 202.307376 
L 391.713901 201.10887 
L 392.177164 200.157477 
L 393.566952 199.678692 
L 394.030215 199.210719 
L 394.493478 198.487907 
L 395.420003 197.846953 
L 396.809791 197.525706 
L 397.273054 197.229171 
L 398.19958 195.454578 
L 398.662842 194.327118 
L 400.052631 193.531719 
L 400.515894 192.651375 
L 401.442419 191.97799 
L 401.905682 192.084555 
L 403.29547 192.021233 
L 404.221996 191.564071 
L 404.685258 190.818094 
L 406.538309 190.308423 
L 407.001572 189.818827 
L 407.928098 188.614145 
L 408.391361 187.435719 
L 409.781149 186.133736 
L 410.707674 183.852559 
L 411.6342 181.816955 
L 413.023988 180.840853 
L 413.950514 178.411403 
L 414.877039 175.414989 
L 416.266828 173.579063 
L 418.119879 166.796785 
L 419.509667 165.176874 
L 420.899455 159.790735 
L 421.362718 158.168618 
L 422.752506 156.485729 
L 423.215769 155.098685 
L 424.605557 149.845314 
L 425.995346 148.128633 
L 426.921871 144.609073 
L 427.848397 141.163388 
L 429.238185 139.268805 
L 430.16471 135.964555 
L 431.091236 133.72027 
L 432.481024 132.6261 
L 432.944287 131.943801 
L 433.870813 129.982396 
L 434.334075 129.29699 
L 436.187126 129.011017 
L 436.650389 128.246347 
L 437.113652 128.053622 
L 437.576915 127.686833 
L 438.966703 127.138197 
L 439.429966 126.651727 
L 440.819754 126.113969 
L 442.672805 126.312904 
L 443.136068 126.740312 
L 443.599331 126.968781 
L 444.062593 127.060483 
L 445.452382 127.178604 
L 445.915644 127.344911 
L 446.378907 127.219019 
L 446.84217 127.416399 
L 447.305433 127.43816 
L 448.695221 127.215907 
L 450.085009 125.479848 
L 450.548272 124.736931 
L 451.93806 123.826162 
L 453.327849 120.992834 
L 453.791111 119.901777 
L 455.1809 119.093585 
L 455.644163 118.391078 
L 456.570688 116.486327 
L 457.033951 115.623652 
L 458.423739 114.990379 
L 458.887002 114.074877 
L 460.27679 114.343833 
L 461.666578 114.362637 
L 462.129841 113.990539 
L 462.593104 113.878495 
L 463.51963 113.470384 
L 464.909418 114.361537 
L 465.372681 114.854412 
L 466.299206 115.17643 
L 466.762469 115.069018 
L 468.61552 114.836104 
L 470.005308 116.048714 
L 471.395097 116.445678 
L 471.858359 117.078625 
L 472.321622 116.919219 
L 475.101199 116.344089 
L 476.027724 117.3068 
L 476.490987 118.074155 
L 477.880775 118.94153 
L 478.344038 118.932155 
L 478.807301 119.533848 
L 479.733826 121.440512 
L 481.123615 122.757985 
L 482.05014 124.381773 
L 482.513403 124.608386 
L 484.366454 124.963149 
L 485.292979 125.616415 
L 485.756242 125.766449 
L 488.072556 125.825843 
L 488.535819 126.075895 
L 488.999082 125.953992 
L 490.852133 125.878977 
L 491.315395 125.686747 
L 491.778658 125.299161 
L 492.241921 125.174136 
L 492.705184 124.802178 
L 495.021498 124.131721 
L 495.48476 124.264569 
L 495.948023 124.653717 
L 497.801074 125.380434 
L 498.7276 127.385527 
L 499.190862 128.28664 
L 500.580651 128.802743 
L 501.043913 129.400879 
L 501.970439 132.026344 
L 502.433702 133.399565 
L 503.82349 134.8674 
L 504.750016 137.559452 
L 505.676541 140.505434 
L 507.066329 141.887123 
L 508.91938 146.892376 
L 510.772432 147.8439 
L 511.235694 148.526104 
L 511.698957 148.779081 
L 512.16222 149.390692 
L 513.552008 149.92841 
L 514.478534 151.524259 
L 514.941796 151.807268 
L 515.405059 152.881128 
L 516.794847 153.497457 
L 517.721373 155.179782 
L 518.184636 156.248923 
L 518.647899 156.728464 
L 520.037687 157.0838 
L 520.50095 157.553907 
L 521.427475 157.968989 
L 521.890738 157.998864 
L 524.207052 157.696991 
L 524.670314 157.82749 
L 525.133577 157.687559 
L 526.523366 157.121542 
L 527.449891 155.552424 
L 527.913154 154.467558 
L 528.376417 152.593416 
L 529.766205 150.505445 
L 531.155993 144.853147 
L 533.009044 143.206982 
L 534.398833 138.542061 
L 534.862095 137.054696 
L 536.251884 135.674245 
L 537.178409 133.597277 
L 538.104935 130.86624 
L 539.494723 129.514089 
L 539.957986 128.323881 
L 540.421248 127.655665 
L 540.884511 127.194772 
L 541.347774 126.987712 
L 542.737562 127.514453 
L 543.200825 128.387173 
L 543.664088 128.891758 
L 544.127351 129.217562 
L 545.980402 129.310747 
L 546.443664 129.483572 
L 546.906927 129.865026 
L 547.37019 130.062404 
L 547.833453 130.118269 
L 549.223241 129.861859 
L 549.686504 129.428473 
L 550.613029 129.087562 
L 551.076292 128.829242 
L 552.46608 128.5146 
L 552.929343 128.602308 
L 553.392606 128.504204 
L 554.319131 127.328539 
L 555.70892 126.268375 
L 556.635445 124.057867 
L 557.098708 123.667033 
L 557.561971 123.440759 
L 559.878285 123.947102 
L 560.341547 123.568923 
L 560.80481 123.440754 
L 562.194598 123.239797 
L 563.121124 124.035704 
L 563.584387 123.996145 
L 564.047649 124.448691 
L 565.437438 124.939215 
L 566.827226 126.399705 
L 567.290489 127.344355 
L 568.680277 128.124443 
L 570.070065 130.567558 
L 571.923116 130.502684 
L 572.849642 130.029568 
L 573.776167 130.134003 
L 575.629219 130.203626 
L 576.555744 129.515315 
L 577.019007 129.319106 
L 578.408795 128.958335 
L 578.872058 128.632371 
L 579.335321 128.105456 
L 580.261846 126.064256 
L 581.651634 124.733518 
L 583.504686 120.605876 
L 584.894474 119.618145 
L 585.820999 117.774961 
L 586.284262 116.916194 
L 586.747525 115.668605 
L 588.137313 114.581173 
L 588.600576 113.176806 
L 589.990364 110.326811 
L 591.380153 109.387824 
L 592.306678 107.531473 
L 593.233204 106.151291 
L 594.622992 105.342771 
L 596.476043 101.597241 
L 597.865831 100.949179 
L 598.329094 100.578181 
L 599.25562 99.487469 
L 599.718882 99.47473 
L 601.108671 99.307546 
L 601.571933 99.55594 
L 602.498459 99.100553 
L 602.961722 98.68019 
L 604.814773 98.468419 
L 605.278035 98.097418 
L 606.204561 97.691383 
L 608.984138 97.073577 
L 610.837189 97.527377 
L 611.300451 97.724822 
L 611.763714 97.657944 
L 612.69024 97.235986 
L 614.080028 97.339485 
L 614.543291 97.712076 
L 615.006554 97.770986 
L 615.933079 99.110089 
L 617.322867 99.947631 
L 618.249393 101.15617 
L 619.175918 101.804224 
L 620.565707 102.339223 
L 621.492232 103.294593 
L 623.808546 103.378986 
L 624.735072 104.149648 
L 625.198334 104.785966 
L 625.661597 105.080054 
L 627.051385 105.069997 
L 627.514648 104.569136 
L 627.977911 104.459393 
L 628.904436 103.175869 
L 630.294225 102.422042 
L 631.22075 100.768895 
L 631.684013 100.14777 
L 632.147276 99.317344 
L 633.537064 98.755502 
L 635.390115 96.243267 
L 636.779903 95.292077 
L 638.632955 90.816213 
L 640.022743 89.702718 
L 640.949268 87.55263 
L 641.875794 86.785199 
L 644.65537 84.779307 
L 645.118633 84.048729 
L 646.508422 83.069816 
L 647.89821 79.811041 
L 648.361473 78.359492 
L 649.751261 76.579504 
L 650.677786 72.971458 
L 651.141049 70.726844 
L 651.604312 69.07022 
L 652.9941 67.301446 
L 654.383889 62.289918 
L 656.23694 59.966799 
L 656.700202 57.752628 
L 657.626728 51.988089 
L 658.089991 49.373376 
L 659.479779 47.287374 
L 661.33283 40.301995 
L 663.185881 39.332695 
L 663.649144 39.210932 
L 664.112407 39.302258 
L 664.575669 39.510542 
L 666.42872 39.627501 
L 667.818509 37.475373 
L 669.208297 37.14358 
L 669.67156 37.394892 
L 670.598085 38.682522 
L 671.061348 38.907371 
L 672.451136 39.270047 
L 672.451136 39.270047 
" clip-path="url(#p699305c81e)" style="fill: none; stroke: #ff0000; stroke-width: 1.5; stroke-linecap: square"/>
   </g>
   <g id="patch_3">
    <path d="M 33.2875 348.478125 
L 33.2875 22.318125 
" style="fill: none; stroke: #ffffff; stroke-width: 0.8; stroke-linejoin: miter; stroke-linecap: square"/>
   </g>
   <g id="patch_4">
    <path d="M 702.8875 348.478125 
L 702.8875 22.318125 
" style="fill: none; stroke: #ffffff; stroke-width: 0.8; stroke-linejoin: miter; stroke-linecap: square"/>
   </g>
   <g id="patch_5">
    <path d="M 33.2875 348.478125 
L 702.8875 348.478125 
" style="fill: none; stroke: #ffffff; stroke-width: 0.8; stroke-linejoin: miter; stroke-linecap: square"/>
   </g>
   <g id="patch_6">
    <path d="M 33.2875 22.318125 
L 702.8875 22.318125 
" style="fill: none; stroke: #ffffff; stroke-width: 0.8; stroke-linejoin: miter; stroke-linecap: square"/>
   </g>
   <g id="text_14">
    <!-- Rolling Mean -->
    <g style="fill: #ffffff" transform="translate(329.65 16.318125)scale(0.12 -0.12)">
     <defs>
      <path id="DejaVuSans-52" d="M 2841 2188 
Q 3044 2119 3236 1894 
Q 3428 1669 3622 1275 
L 4263 0 
L 3584 0 
L 2988 1197 
Q 2756 1666 2539 1819 
Q 2322 1972 1947 1972 
L 1259 1972 
L 1259 0 
L 628 0 
L 628 4666 
L 2053 4666 
Q 2853 4666 3247 4331 
Q 3641 3997 3641 3322 
Q 3641 2881 3436 2590 
Q 3231 2300 2841 2188 
z
M 1259 4147 
L 1259 2491 
L 2053 2491 
Q 2509 2491 2742 2702 
Q 2975 2913 2975 3322 
Q 2975 3731 2742 3939 
Q 2509 4147 2053 4147 
L 1259 4147 
z
" transform="scale(0.015625)"/>
      <path id="DejaVuSans-6f" d="M 1959 3097 
Q 1497 3097 1228 2736 
Q 959 2375 959 1747 
Q 959 1119 1226 758 
Q 1494 397 1959 397 
Q 2419 397 2687 759 
Q 2956 1122 2956 1747 
Q 2956 2369 2687 2733 
Q 2419 3097 1959 3097 
z
M 1959 3584 
Q 2709 3584 3137 3096 
Q 3566 2609 3566 1747 
Q 3566 888 3137 398 
Q 2709 -91 1959 -91 
Q 1206 -91 779 398 
Q 353 888 353 1747 
Q 353 2609 779 3096 
Q 1206 3584 1959 3584 
z
" transform="scale(0.015625)"/>
      <path id="DejaVuSans-6c" d="M 603 4863 
L 1178 4863 
L 1178 0 
L 603 0 
L 603 4863 
z
" transform="scale(0.015625)"/>
      <path id="DejaVuSans-69" d="M 603 3500 
L 1178 3500 
L 1178 0 
L 603 0 
L 603 3500 
z
M 603 4863 
L 1178 4863 
L 1178 4134 
L 603 4134 
L 603 4863 
z
" transform="scale(0.015625)"/>
      <path id="DejaVuSans-6e" d="M 3513 2113 
L 3513 0 
L 2938 0 
L 2938 2094 
Q 2938 2591 2744 2837 
Q 2550 3084 2163 3084 
Q 1697 3084 1428 2787 
Q 1159 2491 1159 1978 
L 1159 0 
L 581 0 
L 581 3500 
L 1159 3500 
L 1159 2956 
Q 1366 3272 1645 3428 
Q 1925 3584 2291 3584 
Q 2894 3584 3203 3211 
Q 3513 2838 3513 2113 
z
" transform="scale(0.015625)"/>
      <path id="DejaVuSans-67" d="M 2906 1791 
Q 2906 2416 2648 2759 
Q 2391 3103 1925 3103 
Q 1463 3103 1205 2759 
Q 947 2416 947 1791 
Q 947 1169 1205 825 
Q 1463 481 1925 481 
Q 2391 481 2648 825 
Q 2906 1169 2906 1791 
z
M 3481 434 
Q 3481 -459 3084 -895 
Q 2688 -1331 1869 -1331 
Q 1566 -1331 1297 -1286 
Q 1028 -1241 775 -1147 
L 775 -588 
Q 1028 -725 1275 -790 
Q 1522 -856 1778 -856 
Q 2344 -856 2625 -561 
Q 2906 -266 2906 331 
L 2906 616 
Q 2728 306 2450 153 
Q 2172 0 1784 0 
Q 1141 0 747 490 
Q 353 981 353 1791 
Q 353 2603 747 3093 
Q 1141 3584 1784 3584 
Q 2172 3584 2450 3431 
Q 2728 3278 2906 2969 
L 2906 3500 
L 3481 3500 
L 3481 434 
z
" transform="scale(0.015625)"/>
      <path id="DejaVuSans-20" transform="scale(0.015625)"/>
      <path id="DejaVuSans-4d" d="M 628 4666 
L 1569 4666 
L 2759 1491 
L 3956 4666 
L 4897 4666 
L 4897 0 
L 4281 0 
L 4281 4097 
L 3078 897 
L 2444 897 
L 1241 4097 
L 1241 0 
L 628 0 
L 628 4666 
z
" transform="scale(0.015625)"/>
      <path id="DejaVuSans-65" d="M 3597 1894 
L 3597 1613 
L 953 1613 
Q 991 1019 1311 708 
Q 1631 397 2203 397 
Q 2534 397 2845 478 
Q 3156 559 3463 722 
L 3463 178 
Q 3153 47 2828 -22 
Q 2503 -91 2169 -91 
Q 1331 -91 842 396 
Q 353 884 353 1716 
Q 353 2575 817 3079 
Q 1281 3584 2069 3584 
Q 2775 3584 3186 3129 
Q 3597 2675 3597 1894 
z
M 3022 2063 
Q 3016 2534 2758 2815 
Q 2500 3097 2075 3097 
Q 1594 3097 1305 2825 
Q 1016 2553 972 2059 
L 3022 2063 
z
" transform="scale(0.015625)"/>
      <path id="DejaVuSans-61" d="M 2194 1759 
Q 1497 1759 1228 1600 
Q 959 1441 959 1056 
Q 959 750 1161 570 
Q 1363 391 1709 391 
Q 2188 391 2477 730 
Q 2766 1069 2766 1631 
L 2766 1759 
L 2194 1759 
z
M 3341 1997 
L 3341 0 
L 2766 0 
L 2766 531 
Q 2569 213 2275 61 
Q 1981 -91 1556 -91 
Q 1019 -91 701 211 
Q 384 513 384 1019 
Q 384 1609 779 1909 
Q 1175 2209 1959 2209 
L 2766 2209 
L 2766 2266 
Q 2766 2663 2505 2880 
Q 2244 3097 1772 3097 
Q 1472 3097 1187 3025 
Q 903 2953 641 2809 
L 641 3341 
Q 956 3463 1253 3523 
Q 1550 3584 1831 3584 
Q 2591 3584 2966 3190 
Q 3341 2797 3341 1997 
z
" transform="scale(0.015625)"/>
     </defs>
     <use xlink:href="#DejaVuSans-52"/>
     <use xlink:href="#DejaVuSans-6f" x="64.982422"/>
     <use xlink:href="#DejaVuSans-6c" x="126.164062"/>
     <use xlink:href="#DejaVuSans-6c" x="153.947266"/>
     <use xlink:href="#DejaVuSans-69" x="181.730469"/>
     <use xlink:href="#DejaVuSans-6e" x="209.513672"/>
     <use xlink:href="#DejaVuSans-67" x="272.892578"/>
     <use xlink:href="#DejaVuSans-20" x="336.369141"/>
     <use xlink:href="#DejaVuSans-4d" x="368.15625"/>
     <use xlink:href="#DejaVuSans-65" x="454.435547"/>
     <use xlink:href="#DejaVuSans-61" x="515.958984"/>
     <use xlink:href="#DejaVuSans-6e" x="577.238281"/>
    </g>
   </g>
  </g>
 </g>
 <defs>
  <clipPath id="p699305c81e">
   <rect x="33.2875" y="22.318125" width="669.6" height="326.16"/>
  </clipPath>
 </defs>
</svg>
