<?xml version="1.0" encoding="utf-8" standalone="no"?>
<!DOCTYPE svg PUBLIC "-//W3C//DTD SVG 1.1//EN"
  "http://www.w3.org/Graphics/SVG/1.1/DTD/svg11.dtd">
<svg xmlns:xlink="http://www.w3.org/1999/xlink" width="721.645312pt" height="317.99625pt" viewBox="0 0 721.645312 317.99625" xmlns="http://www.w3.org/2000/svg" version="1.1">
 <metadata>
  <rdf:RDF xmlns:dc="http://purl.org/dc/elements/1.1/" xmlns:cc="http://creativecommons.org/ns#" xmlns:rdf="http://www.w3.org/1999/02/22-rdf-syntax-ns#">
   <cc:Work>
    <dc:type rdf:resource="http://purl.org/dc/dcmitype/StillImage"/>
    <dc:date>2022-07-20T17:41:27.593500</dc:date>
    <dc:format>image/svg+xml</dc:format>
    <dc:creator>
     <cc:Agent>
      <dc:title>Matplotlib v3.5.1, https://matplotlib.org/</dc:title>
     </cc:Agent>
    </dc:creator>
   </cc:Work>
  </rdf:RDF>
 </metadata>
 <defs>
  <style type="text/css">*{stroke-linejoin: round; stroke-linecap: butt}</style>
 </defs>
 <g id="figure_1">
  <g id="patch_1">
   <path d="M 0 317.99625 
L 721.645312 317.99625 
L 721.645312 0 
L 0 0 
z
"/>
  </g>
  <g id="axes_1">
   <g id="patch_2">
    <path d="M 44.845313 294.118125 
L 714.445312 294.118125 
L 714.445312 22.318125 
L 44.845313 22.318125 
z
"/>
   </g>
   <g id="PolyCollection_1">
    <path d="M 90.128683 149.455554 
L 90.128683 166.980696 
L 134.669703 166.980696 
L 164.363716 166.980696 
L 194.057729 166.980696 
L 223.751743 166.980696 
L 253.445756 166.980696 
L 283.139769 166.980696 
L 312.833783 166.980696 
L 342.527796 166.980696 
L 372.221809 166.980696 
L 401.915822 166.980696 
L 431.609836 166.980696 
L 461.303849 166.980696 
L 490.997862 166.980696 
L 520.691876 166.980696 
L 550.385889 166.980696 
L 580.079902 166.980696 
L 609.773916 166.980696 
L 639.467929 166.980696 
L 684.008949 166.980696 
L 684.008949 149.455554 
L 684.008949 149.455554 
L 639.467929 149.455554 
L 609.773916 149.455554 
L 580.079902 149.455554 
L 550.385889 149.455554 
L 520.691876 149.455554 
L 490.997862 149.455554 
L 461.303849 149.455554 
L 431.609836 149.455554 
L 401.915822 149.455554 
L 372.221809 149.455554 
L 342.527796 149.455554 
L 312.833783 149.455554 
L 283.139769 149.455554 
L 253.445756 149.455554 
L 223.751743 149.455554 
L 194.057729 149.455554 
L 164.363716 149.455554 
L 134.669703 149.455554 
L 90.128683 149.455554 
z
" clip-path="url(#p45f8524077)" style="fill: #8dd3c7; fill-opacity: 0.25"/>
   </g>
   <g id="matplotlib.axis_1">
    <g id="xtick_1">
     <g id="line2d_1">
      <defs>
       <path id="m5320895098" d="M 0 0 
L 0 3.5 
" style="stroke: #ffffff; stroke-width: 0.8"/>
      </defs>
      <g>
       <use xlink:href="#m5320895098" x="75.281676" y="294.118125" style="fill: #ffffff; stroke: #ffffff; stroke-width: 0.8"/>
      </g>
     </g>
     <g id="text_1">
      <!-- 0 -->
      <g style="fill: #ffffff" transform="translate(72.100426 308.716563)scale(0.1 -0.1)">
       <defs>
        <path id="DejaVuSans-30" d="M 2034 4250 
Q 1547 4250 1301 3770 
Q 1056 3291 1056 2328 
Q 1056 1369 1301 889 
Q 1547 409 2034 409 
Q 2525 409 2770 889 
Q 3016 1369 3016 2328 
Q 3016 3291 2770 3770 
Q 2525 4250 2034 4250 
z
M 2034 4750 
Q 2819 4750 3233 4129 
Q 3647 3509 3647 2328 
Q 3647 1150 3233 529 
Q 2819 -91 2034 -91 
Q 1250 -91 836 529 
Q 422 1150 422 2328 
Q 422 3509 836 4129 
Q 1250 4750 2034 4750 
z
" transform="scale(0.015625)"/>
       </defs>
       <use xlink:href="#DejaVuSans-30"/>
      </g>
     </g>
    </g>
    <g id="xtick_2">
     <g id="line2d_2">
      <g>
       <use xlink:href="#m5320895098" x="223.751743" y="294.118125" style="fill: #ffffff; stroke: #ffffff; stroke-width: 0.8"/>
      </g>
     </g>
     <g id="text_2">
      <!-- 5 -->
      <g style="fill: #ffffff" transform="translate(220.570493 308.716563)scale(0.1 -0.1)">
       <defs>
        <path id="DejaVuSans-35" d="M 691 4666 
L 3169 4666 
L 3169 4134 
L 1269 4134 
L 1269 2991 
Q 1406 3038 1543 3061 
Q 1681 3084 1819 3084 
Q 2600 3084 3056 2656 
Q 3513 2228 3513 1497 
Q 3513 744 3044 326 
Q 2575 -91 1722 -91 
Q 1428 -91 1123 -41 
Q 819 9 494 109 
L 494 744 
Q 775 591 1075 516 
Q 1375 441 1709 441 
Q 2250 441 2565 725 
Q 2881 1009 2881 1497 
Q 2881 1984 2565 2268 
Q 2250 2553 1709 2553 
Q 1456 2553 1204 2497 
Q 953 2441 691 2322 
L 691 4666 
z
" transform="scale(0.015625)"/>
       </defs>
       <use xlink:href="#DejaVuSans-35"/>
      </g>
     </g>
    </g>
    <g id="xtick_3">
     <g id="line2d_3">
      <g>
       <use xlink:href="#m5320895098" x="372.221809" y="294.118125" style="fill: #ffffff; stroke: #ffffff; stroke-width: 0.8"/>
      </g>
     </g>
     <g id="text_3">
      <!-- 10 -->
      <g style="fill: #ffffff" transform="translate(365.859309 308.716563)scale(0.1 -0.1)">
       <defs>
        <path id="DejaVuSans-31" d="M 794 531 
L 1825 531 
L 1825 4091 
L 703 3866 
L 703 4441 
L 1819 4666 
L 2450 4666 
L 2450 531 
L 3481 531 
L 3481 0 
L 794 0 
L 794 531 
z
" transform="scale(0.015625)"/>
       </defs>
       <use xlink:href="#DejaVuSans-31"/>
       <use xlink:href="#DejaVuSans-30" x="63.623047"/>
      </g>
     </g>
    </g>
    <g id="xtick_4">
     <g id="line2d_4">
      <g>
       <use xlink:href="#m5320895098" x="520.691876" y="294.118125" style="fill: #ffffff; stroke: #ffffff; stroke-width: 0.8"/>
      </g>
     </g>
     <g id="text_4">
      <!-- 15 -->
      <g style="fill: #ffffff" transform="translate(514.329376 308.716563)scale(0.1 -0.1)">
       <use xlink:href="#DejaVuSans-31"/>
       <use xlink:href="#DejaVuSans-35" x="63.623047"/>
      </g>
     </g>
    </g>
    <g id="xtick_5">
     <g id="line2d_5">
      <g>
       <use xlink:href="#m5320895098" x="669.161942" y="294.118125" style="fill: #ffffff; stroke: #ffffff; stroke-width: 0.8"/>
      </g>
     </g>
     <g id="text_5">
      <!-- 20 -->
      <g style="fill: #ffffff" transform="translate(662.799442 308.716563)scale(0.1 -0.1)">
       <defs>
        <path id="DejaVuSans-32" d="M 1228 531 
L 3431 531 
L 3431 0 
L 469 0 
L 469 531 
Q 828 903 1448 1529 
Q 2069 2156 2228 2338 
Q 2531 2678 2651 2914 
Q 2772 3150 2772 3378 
Q 2772 3750 2511 3984 
Q 2250 4219 1831 4219 
Q 1534 4219 1204 4116 
Q 875 4013 500 3803 
L 500 4441 
Q 881 4594 1212 4672 
Q 1544 4750 1819 4750 
Q 2544 4750 2975 4387 
Q 3406 4025 3406 3419 
Q 3406 3131 3298 2873 
Q 3191 2616 2906 2266 
Q 2828 2175 2409 1742 
Q 1991 1309 1228 531 
z
" transform="scale(0.015625)"/>
       </defs>
       <use xlink:href="#DejaVuSans-32"/>
       <use xlink:href="#DejaVuSans-30" x="63.623047"/>
      </g>
     </g>
    </g>
   </g>
   <g id="matplotlib.axis_2">
    <g id="ytick_1">
     <g id="line2d_6">
      <defs>
       <path id="m67af6ed649" d="M 0 0 
L -3.5 0 
" style="stroke: #ffffff; stroke-width: 0.8"/>
      </defs>
      <g>
       <use xlink:href="#m67af6ed649" x="44.845313" y="294.118125" style="fill: #ffffff; stroke: #ffffff; stroke-width: 0.8"/>
      </g>
     </g>
     <g id="text_6">
      <!-- −1.00 -->
      <g style="fill: #ffffff" transform="translate(7.2 297.917344)scale(0.1 -0.1)">
       <defs>
        <path id="DejaVuSans-2212" d="M 678 2272 
L 4684 2272 
L 4684 1741 
L 678 1741 
L 678 2272 
z
" transform="scale(0.015625)"/>
        <path id="DejaVuSans-2e" d="M 684 794 
L 1344 794 
L 1344 0 
L 684 0 
L 684 794 
z
" transform="scale(0.015625)"/>
       </defs>
       <use xlink:href="#DejaVuSans-2212"/>
       <use xlink:href="#DejaVuSans-31" x="83.789062"/>
       <use xlink:href="#DejaVuSans-2e" x="147.412109"/>
       <use xlink:href="#DejaVuSans-30" x="179.199219"/>
       <use xlink:href="#DejaVuSans-30" x="242.822266"/>
      </g>
     </g>
    </g>
    <g id="ytick_2">
     <g id="line2d_7">
      <g>
       <use xlink:href="#m67af6ed649" x="44.845313" y="260.143125" style="fill: #ffffff; stroke: #ffffff; stroke-width: 0.8"/>
      </g>
     </g>
     <g id="text_7">
      <!-- −0.75 -->
      <g style="fill: #ffffff" transform="translate(7.2 263.942344)scale(0.1 -0.1)">
       <defs>
        <path id="DejaVuSans-37" d="M 525 4666 
L 3525 4666 
L 3525 4397 
L 1831 0 
L 1172 0 
L 2766 4134 
L 525 4134 
L 525 4666 
z
" transform="scale(0.015625)"/>
       </defs>
       <use xlink:href="#DejaVuSans-2212"/>
       <use xlink:href="#DejaVuSans-30" x="83.789062"/>
       <use xlink:href="#DejaVuSans-2e" x="147.412109"/>
       <use xlink:href="#DejaVuSans-37" x="179.199219"/>
       <use xlink:href="#DejaVuSans-35" x="242.822266"/>
      </g>
     </g>
    </g>
    <g id="ytick_3">
     <g id="line2d_8">
      <g>
       <use xlink:href="#m67af6ed649" x="44.845313" y="226.168125" style="fill: #ffffff; stroke: #ffffff; stroke-width: 0.8"/>
      </g>
     </g>
     <g id="text_8">
      <!-- −0.50 -->
      <g style="fill: #ffffff" transform="translate(7.2 229.967344)scale(0.1 -0.1)">
       <use xlink:href="#DejaVuSans-2212"/>
       <use xlink:href="#DejaVuSans-30" x="83.789062"/>
       <use xlink:href="#DejaVuSans-2e" x="147.412109"/>
       <use xlink:href="#DejaVuSans-35" x="179.199219"/>
       <use xlink:href="#DejaVuSans-30" x="242.822266"/>
      </g>
     </g>
    </g>
    <g id="ytick_4">
     <g id="line2d_9">
      <g>
       <use xlink:href="#m67af6ed649" x="44.845313" y="192.193125" style="fill: #ffffff; stroke: #ffffff; stroke-width: 0.8"/>
      </g>
     </g>
     <g id="text_9">
      <!-- −0.25 -->
      <g style="fill: #ffffff" transform="translate(7.2 195.992344)scale(0.1 -0.1)">
       <use xlink:href="#DejaVuSans-2212"/>
       <use xlink:href="#DejaVuSans-30" x="83.789062"/>
       <use xlink:href="#DejaVuSans-2e" x="147.412109"/>
       <use xlink:href="#DejaVuSans-32" x="179.199219"/>
       <use xlink:href="#DejaVuSans-35" x="242.822266"/>
      </g>
     </g>
    </g>
    <g id="ytick_5">
     <g id="line2d_10">
      <g>
       <use xlink:href="#m67af6ed649" x="44.845313" y="158.218125" style="fill: #ffffff; stroke: #ffffff; stroke-width: 0.8"/>
      </g>
     </g>
     <g id="text_10">
      <!-- 0.00 -->
      <g style="fill: #ffffff" transform="translate(15.579688 162.017344)scale(0.1 -0.1)">
       <use xlink:href="#DejaVuSans-30"/>
       <use xlink:href="#DejaVuSans-2e" x="63.623047"/>
       <use xlink:href="#DejaVuSans-30" x="95.410156"/>
       <use xlink:href="#DejaVuSans-30" x="159.033203"/>
      </g>
     </g>
    </g>
    <g id="ytick_6">
     <g id="line2d_11">
      <g>
       <use xlink:href="#m67af6ed649" x="44.845313" y="124.243125" style="fill: #ffffff; stroke: #ffffff; stroke-width: 0.8"/>
      </g>
     </g>
     <g id="text_11">
      <!-- 0.25 -->
      <g style="fill: #ffffff" transform="translate(15.579688 128.042344)scale(0.1 -0.1)">
       <use xlink:href="#DejaVuSans-30"/>
       <use xlink:href="#DejaVuSans-2e" x="63.623047"/>
       <use xlink:href="#DejaVuSans-32" x="95.410156"/>
       <use xlink:href="#DejaVuSans-35" x="159.033203"/>
      </g>
     </g>
    </g>
    <g id="ytick_7">
     <g id="line2d_12">
      <g>
       <use xlink:href="#m67af6ed649" x="44.845313" y="90.268125" style="fill: #ffffff; stroke: #ffffff; stroke-width: 0.8"/>
      </g>
     </g>
     <g id="text_12">
      <!-- 0.50 -->
      <g style="fill: #ffffff" transform="translate(15.579688 94.067344)scale(0.1 -0.1)">
       <use xlink:href="#DejaVuSans-30"/>
       <use xlink:href="#DejaVuSans-2e" x="63.623047"/>
       <use xlink:href="#DejaVuSans-35" x="95.410156"/>
       <use xlink:href="#DejaVuSans-30" x="159.033203"/>
      </g>
     </g>
    </g>
    <g id="ytick_8">
     <g id="line2d_13">
      <g>
       <use xlink:href="#m67af6ed649" x="44.845313" y="56.293125" style="fill: #ffffff; stroke: #ffffff; stroke-width: 0.8"/>
      </g>
     </g>
     <g id="text_13">
      <!-- 0.75 -->
      <g style="fill: #ffffff" transform="translate(15.579688 60.092344)scale(0.1 -0.1)">
       <use xlink:href="#DejaVuSans-30"/>
       <use xlink:href="#DejaVuSans-2e" x="63.623047"/>
       <use xlink:href="#DejaVuSans-37" x="95.410156"/>
       <use xlink:href="#DejaVuSans-35" x="159.033203"/>
      </g>
     </g>
    </g>
    <g id="ytick_9">
     <g id="line2d_14">
      <g>
       <use xlink:href="#m67af6ed649" x="44.845313" y="22.318125" style="fill: #ffffff; stroke: #ffffff; stroke-width: 0.8"/>
      </g>
     </g>
     <g id="text_14">
      <!-- 1.00 -->
      <g style="fill: #ffffff" transform="translate(15.579688 26.117344)scale(0.1 -0.1)">
       <use xlink:href="#DejaVuSans-31"/>
       <use xlink:href="#DejaVuSans-2e" x="63.623047"/>
       <use xlink:href="#DejaVuSans-30" x="95.410156"/>
       <use xlink:href="#DejaVuSans-30" x="159.033203"/>
      </g>
     </g>
    </g>
   </g>
   <g id="LineCollection_1">
    <path d="M 75.281676 158.218125 
L 75.281676 22.318125 
" clip-path="url(#p45f8524077)" style="fill: none; stroke: #ffffff; stroke-width: 1.5"/>
    <path d="M 104.975689 158.218125 
L 104.975689 179.312605 
" clip-path="url(#p45f8524077)" style="fill: none; stroke: #ffffff; stroke-width: 1.5"/>
    <path d="M 134.669703 158.218125 
L 134.669703 155.78727 
" clip-path="url(#p45f8524077)" style="fill: none; stroke: #ffffff; stroke-width: 1.5"/>
    <path d="M 164.363716 158.218125 
L 164.363716 165.176105 
" clip-path="url(#p45f8524077)" style="fill: none; stroke: #ffffff; stroke-width: 1.5"/>
    <path d="M 194.057729 158.218125 
L 194.057729 183.879266 
" clip-path="url(#p45f8524077)" style="fill: none; stroke: #ffffff; stroke-width: 1.5"/>
    <path d="M 223.751743 158.218125 
L 223.751743 164.926634 
" clip-path="url(#p45f8524077)" style="fill: none; stroke: #ffffff; stroke-width: 1.5"/>
    <path d="M 253.445756 158.218125 
L 253.445756 167.915862 
" clip-path="url(#p45f8524077)" style="fill: none; stroke: #ffffff; stroke-width: 1.5"/>
    <path d="M 283.139769 158.218125 
L 283.139769 139.090838 
" clip-path="url(#p45f8524077)" style="fill: none; stroke: #ffffff; stroke-width: 1.5"/>
    <path d="M 312.833783 158.218125 
L 312.833783 166.303493 
" clip-path="url(#p45f8524077)" style="fill: none; stroke: #ffffff; stroke-width: 1.5"/>
    <path d="M 342.527796 158.218125 
L 342.527796 146.077926 
" clip-path="url(#p45f8524077)" style="fill: none; stroke: #ffffff; stroke-width: 1.5"/>
    <path d="M 372.221809 158.218125 
L 372.221809 159.406875 
" clip-path="url(#p45f8524077)" style="fill: none; stroke: #ffffff; stroke-width: 1.5"/>
    <path d="M 401.915822 158.218125 
L 401.915822 155.594943 
" clip-path="url(#p45f8524077)" style="fill: none; stroke: #ffffff; stroke-width: 1.5"/>
    <path d="M 431.609836 158.218125 
L 431.609836 156.006508 
" clip-path="url(#p45f8524077)" style="fill: none; stroke: #ffffff; stroke-width: 1.5"/>
    <path d="M 461.303849 158.218125 
L 461.303849 156.810727 
" clip-path="url(#p45f8524077)" style="fill: none; stroke: #ffffff; stroke-width: 1.5"/>
    <path d="M 490.997862 158.218125 
L 490.997862 158.837328 
" clip-path="url(#p45f8524077)" style="fill: none; stroke: #ffffff; stroke-width: 1.5"/>
    <path d="M 520.691876 158.218125 
L 520.691876 166.376516 
" clip-path="url(#p45f8524077)" style="fill: none; stroke: #ffffff; stroke-width: 1.5"/>
    <path d="M 550.385889 158.218125 
L 550.385889 158.463076 
" clip-path="url(#p45f8524077)" style="fill: none; stroke: #ffffff; stroke-width: 1.5"/>
    <path d="M 580.079902 158.218125 
L 580.079902 160.10102 
" clip-path="url(#p45f8524077)" style="fill: none; stroke: #ffffff; stroke-width: 1.5"/>
    <path d="M 609.773916 158.218125 
L 609.773916 155.864531 
" clip-path="url(#p45f8524077)" style="fill: none; stroke: #ffffff; stroke-width: 1.5"/>
    <path d="M 639.467929 158.218125 
L 639.467929 155.595738 
" clip-path="url(#p45f8524077)" style="fill: none; stroke: #ffffff; stroke-width: 1.5"/>
    <path d="M 669.161942 158.218125 
L 669.161942 160.935673 
" clip-path="url(#p45f8524077)" style="fill: none; stroke: #ffffff; stroke-width: 1.5"/>
   </g>
   <g id="line2d_15">
    <path d="M 44.845313 158.218125 
L 714.445312 158.218125 
" clip-path="url(#p45f8524077)" style="fill: none; stroke: #ff0000; stroke-width: 1.5; stroke-linecap: square"/>
   </g>
   <g id="line2d_16">
    <defs>
     <path id="m8e090cbf43" d="M 0 2.5 
C 0.663008 2.5 1.29895 2.236584 1.767767 1.767767 
C 2.236584 1.29895 2.5 0.663008 2.5 0 
C 2.5 -0.663008 2.236584 -1.29895 1.767767 -1.767767 
C 1.29895 -2.236584 0.663008 -2.5 0 -2.5 
C -0.663008 -2.5 -1.29895 -2.236584 -1.767767 -1.767767 
C -2.236584 -1.29895 -2.5 -0.663008 -2.5 0 
C -2.5 0.663008 -2.236584 1.29895 -1.767767 1.767767 
C -1.29895 2.236584 -0.663008 2.5 0 2.5 
z
" style="stroke: #ff0000"/>
    </defs>
    <g clip-path="url(#p45f8524077)">
     <use xlink:href="#m8e090cbf43" x="75.281676" y="22.318125" style="fill: #ff0000; stroke: #ff0000"/>
     <use xlink:href="#m8e090cbf43" x="104.975689" y="179.312605" style="fill: #ff0000; stroke: #ff0000"/>
     <use xlink:href="#m8e090cbf43" x="134.669703" y="155.78727" style="fill: #ff0000; stroke: #ff0000"/>
     <use xlink:href="#m8e090cbf43" x="164.363716" y="165.176105" style="fill: #ff0000; stroke: #ff0000"/>
     <use xlink:href="#m8e090cbf43" x="194.057729" y="183.879266" style="fill: #ff0000; stroke: #ff0000"/>
     <use xlink:href="#m8e090cbf43" x="223.751743" y="164.926634" style="fill: #ff0000; stroke: #ff0000"/>
     <use xlink:href="#m8e090cbf43" x="253.445756" y="167.915862" style="fill: #ff0000; stroke: #ff0000"/>
     <use xlink:href="#m8e090cbf43" x="283.139769" y="139.090838" style="fill: #ff0000; stroke: #ff0000"/>
     <use xlink:href="#m8e090cbf43" x="312.833783" y="166.303493" style="fill: #ff0000; stroke: #ff0000"/>
     <use xlink:href="#m8e090cbf43" x="342.527796" y="146.077926" style="fill: #ff0000; stroke: #ff0000"/>
     <use xlink:href="#m8e090cbf43" x="372.221809" y="159.406875" style="fill: #ff0000; stroke: #ff0000"/>
     <use xlink:href="#m8e090cbf43" x="401.915822" y="155.594943" style="fill: #ff0000; stroke: #ff0000"/>
     <use xlink:href="#m8e090cbf43" x="431.609836" y="156.006508" style="fill: #ff0000; stroke: #ff0000"/>
     <use xlink:href="#m8e090cbf43" x="461.303849" y="156.810727" style="fill: #ff0000; stroke: #ff0000"/>
     <use xlink:href="#m8e090cbf43" x="490.997862" y="158.837328" style="fill: #ff0000; stroke: #ff0000"/>
     <use xlink:href="#m8e090cbf43" x="520.691876" y="166.376516" style="fill: #ff0000; stroke: #ff0000"/>
     <use xlink:href="#m8e090cbf43" x="550.385889" y="158.463076" style="fill: #ff0000; stroke: #ff0000"/>
     <use xlink:href="#m8e090cbf43" x="580.079902" y="160.10102" style="fill: #ff0000; stroke: #ff0000"/>
     <use xlink:href="#m8e090cbf43" x="609.773916" y="155.864531" style="fill: #ff0000; stroke: #ff0000"/>
     <use xlink:href="#m8e090cbf43" x="639.467929" y="155.595738" style="fill: #ff0000; stroke: #ff0000"/>
     <use xlink:href="#m8e090cbf43" x="669.161942" y="160.935673" style="fill: #ff0000; stroke: #ff0000"/>
    </g>
   </g>
   <g id="patch_3">
    <path d="M 44.845313 294.118125 
L 44.845313 22.318125 
" style="fill: none; stroke: #ffffff; stroke-width: 0.8; stroke-linejoin: miter; stroke-linecap: square"/>
   </g>
   <g id="patch_4">
    <path d="M 714.445312 294.118125 
L 714.445312 22.318125 
" style="fill: none; stroke: #ffffff; stroke-width: 0.8; stroke-linejoin: miter; stroke-linecap: square"/>
   </g>
   <g id="patch_5">
    <path d="M 44.845312 294.118125 
L 714.445313 294.118125 
" style="fill: none; stroke: #ffffff; stroke-width: 0.8; stroke-linejoin: miter; stroke-linecap: square"/>
   </g>
   <g id="patch_6">
    <path d="M 44.845312 22.318125 
L 714.445313 22.318125 
" style="fill: none; stroke: #ffffff; stroke-width: 0.8; stroke-linejoin: miter; stroke-linecap: square"/>
   </g>
   <g id="text_15">
    <!-- Partial Autocorrelation -->
    <g style="fill: #ffffff" transform="translate(312.762188 16.318125)scale(0.12 -0.12)">
     <defs>
      <path id="DejaVuSans-50" d="M 1259 4147 
L 1259 2394 
L 2053 2394 
Q 2494 2394 2734 2622 
Q 2975 2850 2975 3272 
Q 2975 3691 2734 3919 
Q 2494 4147 2053 4147 
L 1259 4147 
z
M 628 4666 
L 2053 4666 
Q 2838 4666 3239 4311 
Q 3641 3956 3641 3272 
Q 3641 2581 3239 2228 
Q 2838 1875 2053 1875 
L 1259 1875 
L 1259 0 
L 628 0 
L 628 4666 
z
" transform="scale(0.015625)"/>
      <path id="DejaVuSans-61" d="M 2194 1759 
Q 1497 1759 1228 1600 
Q 959 1441 959 1056 
Q 959 750 1161 570 
Q 1363 391 1709 391 
Q 2188 391 2477 730 
Q 2766 1069 2766 1631 
L 2766 1759 
L 2194 1759 
z
M 3341 1997 
L 3341 0 
L 2766 0 
L 2766 531 
Q 2569 213 2275 61 
Q 1981 -91 1556 -91 
Q 1019 -91 701 211 
Q 384 513 384 1019 
Q 384 1609 779 1909 
Q 1175 2209 1959 2209 
L 2766 2209 
L 2766 2266 
Q 2766 2663 2505 2880 
Q 2244 3097 1772 3097 
Q 1472 3097 1187 3025 
Q 903 2953 641 2809 
L 641 3341 
Q 956 3463 1253 3523 
Q 1550 3584 1831 3584 
Q 2591 3584 2966 3190 
Q 3341 2797 3341 1997 
z
" transform="scale(0.015625)"/>
      <path id="DejaVuSans-72" d="M 2631 2963 
Q 2534 3019 2420 3045 
Q 2306 3072 2169 3072 
Q 1681 3072 1420 2755 
Q 1159 2438 1159 1844 
L 1159 0 
L 581 0 
L 581 3500 
L 1159 3500 
L 1159 2956 
Q 1341 3275 1631 3429 
Q 1922 3584 2338 3584 
Q 2397 3584 2469 3576 
Q 2541 3569 2628 3553 
L 2631 2963 
z
" transform="scale(0.015625)"/>
      <path id="DejaVuSans-74" d="M 1172 4494 
L 1172 3500 
L 2356 3500 
L 2356 3053 
L 1172 3053 
L 1172 1153 
Q 1172 725 1289 603 
Q 1406 481 1766 481 
L 2356 481 
L 2356 0 
L 1766 0 
Q 1100 0 847 248 
Q 594 497 594 1153 
L 594 3053 
L 172 3053 
L 172 3500 
L 594 3500 
L 594 4494 
L 1172 4494 
z
" transform="scale(0.015625)"/>
      <path id="DejaVuSans-69" d="M 603 3500 
L 1178 3500 
L 1178 0 
L 603 0 
L 603 3500 
z
M 603 4863 
L 1178 4863 
L 1178 4134 
L 603 4134 
L 603 4863 
z
" transform="scale(0.015625)"/>
      <path id="DejaVuSans-6c" d="M 603 4863 
L 1178 4863 
L 1178 0 
L 603 0 
L 603 4863 
z
" transform="scale(0.015625)"/>
      <path id="DejaVuSans-20" transform="scale(0.015625)"/>
      <path id="DejaVuSans-41" d="M 2188 4044 
L 1331 1722 
L 3047 1722 
L 2188 4044 
z
M 1831 4666 
L 2547 4666 
L 4325 0 
L 3669 0 
L 3244 1197 
L 1141 1197 
L 716 0 
L 50 0 
L 1831 4666 
z
" transform="scale(0.015625)"/>
      <path id="DejaVuSans-75" d="M 544 1381 
L 544 3500 
L 1119 3500 
L 1119 1403 
Q 1119 906 1312 657 
Q 1506 409 1894 409 
Q 2359 409 2629 706 
Q 2900 1003 2900 1516 
L 2900 3500 
L 3475 3500 
L 3475 0 
L 2900 0 
L 2900 538 
Q 2691 219 2414 64 
Q 2138 -91 1772 -91 
Q 1169 -91 856 284 
Q 544 659 544 1381 
z
M 1991 3584 
L 1991 3584 
z
" transform="scale(0.015625)"/>
      <path id="DejaVuSans-6f" d="M 1959 3097 
Q 1497 3097 1228 2736 
Q 959 2375 959 1747 
Q 959 1119 1226 758 
Q 1494 397 1959 397 
Q 2419 397 2687 759 
Q 2956 1122 2956 1747 
Q 2956 2369 2687 2733 
Q 2419 3097 1959 3097 
z
M 1959 3584 
Q 2709 3584 3137 3096 
Q 3566 2609 3566 1747 
Q 3566 888 3137 398 
Q 2709 -91 1959 -91 
Q 1206 -91 779 398 
Q 353 888 353 1747 
Q 353 2609 779 3096 
Q 1206 3584 1959 3584 
z
" transform="scale(0.015625)"/>
      <path id="DejaVuSans-63" d="M 3122 3366 
L 3122 2828 
Q 2878 2963 2633 3030 
Q 2388 3097 2138 3097 
Q 1578 3097 1268 2742 
Q 959 2388 959 1747 
Q 959 1106 1268 751 
Q 1578 397 2138 397 
Q 2388 397 2633 464 
Q 2878 531 3122 666 
L 3122 134 
Q 2881 22 2623 -34 
Q 2366 -91 2075 -91 
Q 1284 -91 818 406 
Q 353 903 353 1747 
Q 353 2603 823 3093 
Q 1294 3584 2113 3584 
Q 2378 3584 2631 3529 
Q 2884 3475 3122 3366 
z
" transform="scale(0.015625)"/>
      <path id="DejaVuSans-65" d="M 3597 1894 
L 3597 1613 
L 953 1613 
Q 991 1019 1311 708 
Q 1631 397 2203 397 
Q 2534 397 2845 478 
Q 3156 559 3463 722 
L 3463 178 
Q 3153 47 2828 -22 
Q 2503 -91 2169 -91 
Q 1331 -91 842 396 
Q 353 884 353 1716 
Q 353 2575 817 3079 
Q 1281 3584 2069 3584 
Q 2775 3584 3186 3129 
Q 3597 2675 3597 1894 
z
M 3022 2063 
Q 3016 2534 2758 2815 
Q 2500 3097 2075 3097 
Q 1594 3097 1305 2825 
Q 1016 2553 972 2059 
L 3022 2063 
z
" transform="scale(0.015625)"/>
      <path id="DejaVuSans-6e" d="M 3513 2113 
L 3513 0 
L 2938 0 
L 2938 2094 
Q 2938 2591 2744 2837 
Q 2550 3084 2163 3084 
Q 1697 3084 1428 2787 
Q 1159 2491 1159 1978 
L 1159 0 
L 581 0 
L 581 3500 
L 1159 3500 
L 1159 2956 
Q 1366 3272 1645 3428 
Q 1925 3584 2291 3584 
Q 2894 3584 3203 3211 
Q 3513 2838 3513 2113 
z
" transform="scale(0.015625)"/>
     </defs>
     <use xlink:href="#DejaVuSans-50"/>
     <use xlink:href="#DejaVuSans-61" x="55.802734"/>
     <use xlink:href="#DejaVuSans-72" x="117.082031"/>
     <use xlink:href="#DejaVuSans-74" x="158.195312"/>
     <use xlink:href="#DejaVuSans-69" x="197.404297"/>
     <use xlink:href="#DejaVuSans-61" x="225.1875"/>
     <use xlink:href="#DejaVuSans-6c" x="286.466797"/>
     <use xlink:href="#DejaVuSans-20" x="314.25"/>
     <use xlink:href="#DejaVuSans-41" x="346.037109"/>
     <use xlink:href="#DejaVuSans-75" x="414.445312"/>
     <use xlink:href="#DejaVuSans-74" x="477.824219"/>
     <use xlink:href="#DejaVuSans-6f" x="517.033203"/>
     <use xlink:href="#DejaVuSans-63" x="578.214844"/>
     <use xlink:href="#DejaVuSans-6f" x="633.195312"/>
     <use xlink:href="#DejaVuSans-72" x="694.376953"/>
     <use xlink:href="#DejaVuSans-72" x="733.740234"/>
     <use xlink:href="#DejaVuSans-65" x="772.603516"/>
     <use xlink:href="#DejaVuSans-6c" x="834.126953"/>
     <use xlink:href="#DejaVuSans-61" x="861.910156"/>
     <use xlink:href="#DejaVuSans-74" x="923.189453"/>
     <use xlink:href="#DejaVuSans-69" x="962.398438"/>
     <use xlink:href="#DejaVuSans-6f" x="990.181641"/>
     <use xlink:href="#DejaVuSans-6e" x="1051.363281"/>
    </g>
   </g>
  </g>
 </g>
 <defs>
  <clipPath id="p45f8524077">
   <rect x="44.845313" y="22.318125" width="669.6" height="271.8"/>
  </clipPath>
 </defs>
</svg>
