<?xml version="1.0" encoding="utf-8" standalone="no"?>
<!DOCTYPE svg PUBLIC "-//W3C//DTD SVG 1.1//EN"
  "http://www.w3.org/Graphics/SVG/1.1/DTD/svg11.dtd">
<svg xmlns:xlink="http://www.w3.org/1999/xlink" width="721.645312pt" height="209.27625pt" viewBox="0 0 721.645312 209.27625" xmlns="http://www.w3.org/2000/svg" version="1.1">
 <metadata>
  <rdf:RDF xmlns:dc="http://purl.org/dc/elements/1.1/" xmlns:cc="http://creativecommons.org/ns#" xmlns:rdf="http://www.w3.org/1999/02/22-rdf-syntax-ns#">
   <cc:Work>
    <dc:type rdf:resource="http://purl.org/dc/dcmitype/StillImage"/>
    <dc:date>2022-07-20T17:41:30.718366</dc:date>
    <dc:format>image/svg+xml</dc:format>
    <dc:creator>
     <cc:Agent>
      <dc:title>Matplotlib v3.5.1, https://matplotlib.org/</dc:title>
     </cc:Agent>
    </dc:creator>
   </cc:Work>
  </rdf:RDF>
 </metadata>
 <defs>
  <style type="text/css">*{stroke-linejoin: round; stroke-linecap: butt}</style>
 </defs>
 <g id="figure_1">
  <g id="patch_1">
   <path d="M 0 209.27625 
L 721.645312 209.27625 
L 721.645312 0 
L 0 0 
z
"/>
  </g>
  <g id="axes_1">
   <g id="patch_2">
    <path d="M 44.845313 185.398125 
L 714.445312 185.398125 
L 714.445312 22.318125 
L 44.845313 22.318125 
z
"/>
   </g>
   <g id="PolyCollection_1">
    <path d="M 81.308679 98.603425 
L 81.308679 109.112825 
L 99.389687 112.919634 
L 111.443692 115.518429 
L 123.497698 117.612036 
L 135.551703 119.407073 
L 147.605709 120.99958 
L 159.659714 122.441546 
L 171.713719 123.766484 
L 183.767725 124.994765 
L 195.82173 126.14327 
L 207.875736 127.223526 
L 219.929741 128.244311 
L 231.983746 129.213527 
L 244.037752 130.136346 
L 256.091757 131.018012 
L 268.145763 131.861792 
L 280.199768 132.671417 
L 292.253773 133.449471 
L 304.307779 134.198488 
L 316.361784 134.920472 
L 328.41579 135.617114 
L 340.469795 136.290257 
L 352.5238 136.941358 
L 364.577806 137.572008 
L 376.631811 138.183399 
L 388.685817 138.776873 
L 400.739822 139.353547 
L 412.793827 139.914378 
L 424.847833 140.460311 
L 436.901838 140.991891 
L 448.955844 141.50976 
L 461.009849 142.014052 
L 473.063854 142.505461 
L 485.11786 142.984864 
L 497.171865 143.452716 
L 509.225871 143.909729 
L 521.279876 144.356634 
L 533.333881 144.793656 
L 545.387887 145.221167 
L 557.441892 145.639398 
L 569.495898 146.048921 
L 581.549903 146.450139 
L 593.603908 146.843486 
L 605.657914 147.229308 
L 617.711919 147.607442 
L 629.765925 147.97847 
L 641.81993 148.342256 
L 653.873935 148.699246 
L 665.927941 149.049677 
L 684.008949 149.393772 
L 684.008949 58.322478 
L 684.008949 58.322478 
L 665.927941 58.666573 
L 653.873935 59.017004 
L 641.81993 59.373994 
L 629.765925 59.73778 
L 617.711919 60.108808 
L 605.657914 60.486942 
L 593.603908 60.872764 
L 581.549903 61.266111 
L 569.495898 61.667329 
L 557.441892 62.076852 
L 545.387887 62.495083 
L 533.333881 62.922594 
L 521.279876 63.359616 
L 509.225871 63.806521 
L 497.171865 64.263534 
L 485.11786 64.731386 
L 473.063854 65.210789 
L 461.009849 65.702198 
L 448.955844 66.20649 
L 436.901838 66.724359 
L 424.847833 67.255939 
L 412.793827 67.801872 
L 400.739822 68.362703 
L 388.685817 68.939377 
L 376.631811 69.532851 
L 364.577806 70.144242 
L 352.5238 70.774892 
L 340.469795 71.425993 
L 328.41579 72.099136 
L 316.361784 72.795778 
L 304.307779 73.517762 
L 292.253773 74.266779 
L 280.199768 75.044833 
L 268.145763 75.854458 
L 256.091757 76.698238 
L 244.037752 77.579904 
L 231.983746 78.502723 
L 219.929741 79.471939 
L 207.875736 80.492724 
L 195.82173 81.57298 
L 183.767725 82.721485 
L 171.713719 83.949766 
L 159.659714 85.274704 
L 147.605709 86.71667 
L 135.551703 88.309177 
L 123.497698 90.104214 
L 111.443692 92.197821 
L 99.389687 94.796616 
L 81.308679 98.603425 
z
" clip-path="url(#p1f3ce99ac2)" style="fill: #8dd3c7; fill-opacity: 0.25"/>
   </g>
   <g id="matplotlib.axis_1">
    <g id="xtick_1">
     <g id="line2d_1">
      <defs>
       <path id="m3bc657238f" d="M 0 0 
L 0 3.5 
" style="stroke: #ffffff; stroke-width: 0.8"/>
      </defs>
      <g>
       <use xlink:href="#m3bc657238f" x="75.281676" y="185.398125" style="fill: #ffffff; stroke: #ffffff; stroke-width: 0.8"/>
      </g>
     </g>
     <g id="text_1">
      <!-- 0 -->
      <g style="fill: #ffffff" transform="translate(72.100426 199.996563)scale(0.1 -0.1)">
       <defs>
        <path id="DejaVuSans-30" d="M 2034 4250 
Q 1547 4250 1301 3770 
Q 1056 3291 1056 2328 
Q 1056 1369 1301 889 
Q 1547 409 2034 409 
Q 2525 409 2770 889 
Q 3016 1369 3016 2328 
Q 3016 3291 2770 3770 
Q 2525 4250 2034 4250 
z
M 2034 4750 
Q 2819 4750 3233 4129 
Q 3647 3509 3647 2328 
Q 3647 1150 3233 529 
Q 2819 -91 2034 -91 
Q 1250 -91 836 529 
Q 422 1150 422 2328 
Q 422 3509 836 4129 
Q 1250 4750 2034 4750 
z
" transform="scale(0.015625)"/>
       </defs>
       <use xlink:href="#DejaVuSans-30"/>
      </g>
     </g>
    </g>
    <g id="xtick_2">
     <g id="line2d_2">
      <g>
       <use xlink:href="#m3bc657238f" x="195.82173" y="185.398125" style="fill: #ffffff; stroke: #ffffff; stroke-width: 0.8"/>
      </g>
     </g>
     <g id="text_2">
      <!-- 10 -->
      <g style="fill: #ffffff" transform="translate(189.45923 199.996563)scale(0.1 -0.1)">
       <defs>
        <path id="DejaVuSans-31" d="M 794 531 
L 1825 531 
L 1825 4091 
L 703 3866 
L 703 4441 
L 1819 4666 
L 2450 4666 
L 2450 531 
L 3481 531 
L 3481 0 
L 794 0 
L 794 531 
z
" transform="scale(0.015625)"/>
       </defs>
       <use xlink:href="#DejaVuSans-31"/>
       <use xlink:href="#DejaVuSans-30" x="63.623047"/>
      </g>
     </g>
    </g>
    <g id="xtick_3">
     <g id="line2d_3">
      <g>
       <use xlink:href="#m3bc657238f" x="316.361784" y="185.398125" style="fill: #ffffff; stroke: #ffffff; stroke-width: 0.8"/>
      </g>
     </g>
     <g id="text_3">
      <!-- 20 -->
      <g style="fill: #ffffff" transform="translate(309.999284 199.996563)scale(0.1 -0.1)">
       <defs>
        <path id="DejaVuSans-32" d="M 1228 531 
L 3431 531 
L 3431 0 
L 469 0 
L 469 531 
Q 828 903 1448 1529 
Q 2069 2156 2228 2338 
Q 2531 2678 2651 2914 
Q 2772 3150 2772 3378 
Q 2772 3750 2511 3984 
Q 2250 4219 1831 4219 
Q 1534 4219 1204 4116 
Q 875 4013 500 3803 
L 500 4441 
Q 881 4594 1212 4672 
Q 1544 4750 1819 4750 
Q 2544 4750 2975 4387 
Q 3406 4025 3406 3419 
Q 3406 3131 3298 2873 
Q 3191 2616 2906 2266 
Q 2828 2175 2409 1742 
Q 1991 1309 1228 531 
z
" transform="scale(0.015625)"/>
       </defs>
       <use xlink:href="#DejaVuSans-32"/>
       <use xlink:href="#DejaVuSans-30" x="63.623047"/>
      </g>
     </g>
    </g>
    <g id="xtick_4">
     <g id="line2d_4">
      <g>
       <use xlink:href="#m3bc657238f" x="436.901838" y="185.398125" style="fill: #ffffff; stroke: #ffffff; stroke-width: 0.8"/>
      </g>
     </g>
     <g id="text_4">
      <!-- 30 -->
      <g style="fill: #ffffff" transform="translate(430.539338 199.996563)scale(0.1 -0.1)">
       <defs>
        <path id="DejaVuSans-33" d="M 2597 2516 
Q 3050 2419 3304 2112 
Q 3559 1806 3559 1356 
Q 3559 666 3084 287 
Q 2609 -91 1734 -91 
Q 1441 -91 1130 -33 
Q 819 25 488 141 
L 488 750 
Q 750 597 1062 519 
Q 1375 441 1716 441 
Q 2309 441 2620 675 
Q 2931 909 2931 1356 
Q 2931 1769 2642 2001 
Q 2353 2234 1838 2234 
L 1294 2234 
L 1294 2753 
L 1863 2753 
Q 2328 2753 2575 2939 
Q 2822 3125 2822 3475 
Q 2822 3834 2567 4026 
Q 2313 4219 1838 4219 
Q 1578 4219 1281 4162 
Q 984 4106 628 3988 
L 628 4550 
Q 988 4650 1302 4700 
Q 1616 4750 1894 4750 
Q 2613 4750 3031 4423 
Q 3450 4097 3450 3541 
Q 3450 3153 3228 2886 
Q 3006 2619 2597 2516 
z
" transform="scale(0.015625)"/>
       </defs>
       <use xlink:href="#DejaVuSans-33"/>
       <use xlink:href="#DejaVuSans-30" x="63.623047"/>
      </g>
     </g>
    </g>
    <g id="xtick_5">
     <g id="line2d_5">
      <g>
       <use xlink:href="#m3bc657238f" x="557.441892" y="185.398125" style="fill: #ffffff; stroke: #ffffff; stroke-width: 0.8"/>
      </g>
     </g>
     <g id="text_5">
      <!-- 40 -->
      <g style="fill: #ffffff" transform="translate(551.079392 199.996563)scale(0.1 -0.1)">
       <defs>
        <path id="DejaVuSans-34" d="M 2419 4116 
L 825 1625 
L 2419 1625 
L 2419 4116 
z
M 2253 4666 
L 3047 4666 
L 3047 1625 
L 3713 1625 
L 3713 1100 
L 3047 1100 
L 3047 0 
L 2419 0 
L 2419 1100 
L 313 1100 
L 313 1709 
L 2253 4666 
z
" transform="scale(0.015625)"/>
       </defs>
       <use xlink:href="#DejaVuSans-34"/>
       <use xlink:href="#DejaVuSans-30" x="63.623047"/>
      </g>
     </g>
    </g>
    <g id="xtick_6">
     <g id="line2d_6">
      <g>
       <use xlink:href="#m3bc657238f" x="677.981946" y="185.398125" style="fill: #ffffff; stroke: #ffffff; stroke-width: 0.8"/>
      </g>
     </g>
     <g id="text_6">
      <!-- 50 -->
      <g style="fill: #ffffff" transform="translate(671.619446 199.996563)scale(0.1 -0.1)">
       <defs>
        <path id="DejaVuSans-35" d="M 691 4666 
L 3169 4666 
L 3169 4134 
L 1269 4134 
L 1269 2991 
Q 1406 3038 1543 3061 
Q 1681 3084 1819 3084 
Q 2600 3084 3056 2656 
Q 3513 2228 3513 1497 
Q 3513 744 3044 326 
Q 2575 -91 1722 -91 
Q 1428 -91 1123 -41 
Q 819 9 494 109 
L 494 744 
Q 775 591 1075 516 
Q 1375 441 1709 441 
Q 2250 441 2565 725 
Q 2881 1009 2881 1497 
Q 2881 1984 2565 2268 
Q 2250 2553 1709 2553 
Q 1456 2553 1204 2497 
Q 953 2441 691 2322 
L 691 4666 
z
" transform="scale(0.015625)"/>
       </defs>
       <use xlink:href="#DejaVuSans-35"/>
       <use xlink:href="#DejaVuSans-30" x="63.623047"/>
      </g>
     </g>
    </g>
   </g>
   <g id="matplotlib.axis_2">
    <g id="ytick_1">
     <g id="line2d_7">
      <defs>
       <path id="mc744f8f9c6" d="M 0 0 
L -3.5 0 
" style="stroke: #ffffff; stroke-width: 0.8"/>
      </defs>
      <g>
       <use xlink:href="#mc744f8f9c6" x="44.845313" y="185.398125" style="fill: #ffffff; stroke: #ffffff; stroke-width: 0.8"/>
      </g>
     </g>
     <g id="text_7">
      <!-- −1.00 -->
      <g style="fill: #ffffff" transform="translate(7.2 189.197344)scale(0.1 -0.1)">
       <defs>
        <path id="DejaVuSans-2212" d="M 678 2272 
L 4684 2272 
L 4684 1741 
L 678 1741 
L 678 2272 
z
" transform="scale(0.015625)"/>
        <path id="DejaVuSans-2e" d="M 684 794 
L 1344 794 
L 1344 0 
L 684 0 
L 684 794 
z
" transform="scale(0.015625)"/>
       </defs>
       <use xlink:href="#DejaVuSans-2212"/>
       <use xlink:href="#DejaVuSans-31" x="83.789062"/>
       <use xlink:href="#DejaVuSans-2e" x="147.412109"/>
       <use xlink:href="#DejaVuSans-30" x="179.199219"/>
       <use xlink:href="#DejaVuSans-30" x="242.822266"/>
      </g>
     </g>
    </g>
    <g id="ytick_2">
     <g id="line2d_8">
      <g>
       <use xlink:href="#mc744f8f9c6" x="44.845313" y="165.013125" style="fill: #ffffff; stroke: #ffffff; stroke-width: 0.8"/>
      </g>
     </g>
     <g id="text_8">
      <!-- −0.75 -->
      <g style="fill: #ffffff" transform="translate(7.2 168.812344)scale(0.1 -0.1)">
       <defs>
        <path id="DejaVuSans-37" d="M 525 4666 
L 3525 4666 
L 3525 4397 
L 1831 0 
L 1172 0 
L 2766 4134 
L 525 4134 
L 525 4666 
z
" transform="scale(0.015625)"/>
       </defs>
       <use xlink:href="#DejaVuSans-2212"/>
       <use xlink:href="#DejaVuSans-30" x="83.789062"/>
       <use xlink:href="#DejaVuSans-2e" x="147.412109"/>
       <use xlink:href="#DejaVuSans-37" x="179.199219"/>
       <use xlink:href="#DejaVuSans-35" x="242.822266"/>
      </g>
     </g>
    </g>
    <g id="ytick_3">
     <g id="line2d_9">
      <g>
       <use xlink:href="#mc744f8f9c6" x="44.845313" y="144.628125" style="fill: #ffffff; stroke: #ffffff; stroke-width: 0.8"/>
      </g>
     </g>
     <g id="text_9">
      <!-- −0.50 -->
      <g style="fill: #ffffff" transform="translate(7.2 148.427344)scale(0.1 -0.1)">
       <use xlink:href="#DejaVuSans-2212"/>
       <use xlink:href="#DejaVuSans-30" x="83.789062"/>
       <use xlink:href="#DejaVuSans-2e" x="147.412109"/>
       <use xlink:href="#DejaVuSans-35" x="179.199219"/>
       <use xlink:href="#DejaVuSans-30" x="242.822266"/>
      </g>
     </g>
    </g>
    <g id="ytick_4">
     <g id="line2d_10">
      <g>
       <use xlink:href="#mc744f8f9c6" x="44.845313" y="124.243125" style="fill: #ffffff; stroke: #ffffff; stroke-width: 0.8"/>
      </g>
     </g>
     <g id="text_10">
      <!-- −0.25 -->
      <g style="fill: #ffffff" transform="translate(7.2 128.042344)scale(0.1 -0.1)">
       <use xlink:href="#DejaVuSans-2212"/>
       <use xlink:href="#DejaVuSans-30" x="83.789062"/>
       <use xlink:href="#DejaVuSans-2e" x="147.412109"/>
       <use xlink:href="#DejaVuSans-32" x="179.199219"/>
       <use xlink:href="#DejaVuSans-35" x="242.822266"/>
      </g>
     </g>
    </g>
    <g id="ytick_5">
     <g id="line2d_11">
      <g>
       <use xlink:href="#mc744f8f9c6" x="44.845313" y="103.858125" style="fill: #ffffff; stroke: #ffffff; stroke-width: 0.8"/>
      </g>
     </g>
     <g id="text_11">
      <!-- 0.00 -->
      <g style="fill: #ffffff" transform="translate(15.579688 107.657344)scale(0.1 -0.1)">
       <use xlink:href="#DejaVuSans-30"/>
       <use xlink:href="#DejaVuSans-2e" x="63.623047"/>
       <use xlink:href="#DejaVuSans-30" x="95.410156"/>
       <use xlink:href="#DejaVuSans-30" x="159.033203"/>
      </g>
     </g>
    </g>
    <g id="ytick_6">
     <g id="line2d_12">
      <g>
       <use xlink:href="#mc744f8f9c6" x="44.845313" y="83.473125" style="fill: #ffffff; stroke: #ffffff; stroke-width: 0.8"/>
      </g>
     </g>
     <g id="text_12">
      <!-- 0.25 -->
      <g style="fill: #ffffff" transform="translate(15.579688 87.272344)scale(0.1 -0.1)">
       <use xlink:href="#DejaVuSans-30"/>
       <use xlink:href="#DejaVuSans-2e" x="63.623047"/>
       <use xlink:href="#DejaVuSans-32" x="95.410156"/>
       <use xlink:href="#DejaVuSans-35" x="159.033203"/>
      </g>
     </g>
    </g>
    <g id="ytick_7">
     <g id="line2d_13">
      <g>
       <use xlink:href="#mc744f8f9c6" x="44.845313" y="63.088125" style="fill: #ffffff; stroke: #ffffff; stroke-width: 0.8"/>
      </g>
     </g>
     <g id="text_13">
      <!-- 0.50 -->
      <g style="fill: #ffffff" transform="translate(15.579688 66.887344)scale(0.1 -0.1)">
       <use xlink:href="#DejaVuSans-30"/>
       <use xlink:href="#DejaVuSans-2e" x="63.623047"/>
       <use xlink:href="#DejaVuSans-35" x="95.410156"/>
       <use xlink:href="#DejaVuSans-30" x="159.033203"/>
      </g>
     </g>
    </g>
    <g id="ytick_8">
     <g id="line2d_14">
      <g>
       <use xlink:href="#mc744f8f9c6" x="44.845313" y="42.703125" style="fill: #ffffff; stroke: #ffffff; stroke-width: 0.8"/>
      </g>
     </g>
     <g id="text_14">
      <!-- 0.75 -->
      <g style="fill: #ffffff" transform="translate(15.579688 46.502344)scale(0.1 -0.1)">
       <use xlink:href="#DejaVuSans-30"/>
       <use xlink:href="#DejaVuSans-2e" x="63.623047"/>
       <use xlink:href="#DejaVuSans-37" x="95.410156"/>
       <use xlink:href="#DejaVuSans-35" x="159.033203"/>
      </g>
     </g>
    </g>
    <g id="ytick_9">
     <g id="line2d_15">
      <g>
       <use xlink:href="#mc744f8f9c6" x="44.845313" y="22.318125" style="fill: #ffffff; stroke: #ffffff; stroke-width: 0.8"/>
      </g>
     </g>
     <g id="text_15">
      <!-- 1.00 -->
      <g style="fill: #ffffff" transform="translate(15.579688 26.117344)scale(0.1 -0.1)">
       <use xlink:href="#DejaVuSans-31"/>
       <use xlink:href="#DejaVuSans-2e" x="63.623047"/>
       <use xlink:href="#DejaVuSans-30" x="95.410156"/>
       <use xlink:href="#DejaVuSans-30" x="159.033203"/>
      </g>
     </g>
    </g>
   </g>
   <g id="LineCollection_1">
    <path d="M 75.281676 103.858125 
L 75.281676 22.318125 
" clip-path="url(#p1f3ce99ac2)" style="fill: none; stroke: #ffffff; stroke-width: 1.5"/>
    <path d="M 87.335682 103.858125 
L 87.335682 22.854902 
" clip-path="url(#p1f3ce99ac2)" style="fill: none; stroke: #ffffff; stroke-width: 1.5"/>
    <path d="M 99.389687 103.858125 
L 99.389687 23.337404 
" clip-path="url(#p1f3ce99ac2)" style="fill: none; stroke: #ffffff; stroke-width: 1.5"/>
    <path d="M 111.443692 103.858125 
L 111.443692 23.820575 
" clip-path="url(#p1f3ce99ac2)" style="fill: none; stroke: #ffffff; stroke-width: 1.5"/>
    <path d="M 123.497698 103.858125 
L 123.497698 24.278953 
" clip-path="url(#p1f3ce99ac2)" style="fill: none; stroke: #ffffff; stroke-width: 1.5"/>
    <path d="M 135.551703 103.858125 
L 135.551703 24.688492 
" clip-path="url(#p1f3ce99ac2)" style="fill: none; stroke: #ffffff; stroke-width: 1.5"/>
    <path d="M 147.605709 103.858125 
L 147.605709 25.104478 
" clip-path="url(#p1f3ce99ac2)" style="fill: none; stroke: #ffffff; stroke-width: 1.5"/>
    <path d="M 159.659714 103.858125 
L 159.659714 25.499021 
" clip-path="url(#p1f3ce99ac2)" style="fill: none; stroke: #ffffff; stroke-width: 1.5"/>
    <path d="M 171.713719 103.858125 
L 171.713719 25.949262 
" clip-path="url(#p1f3ce99ac2)" style="fill: none; stroke: #ffffff; stroke-width: 1.5"/>
    <path d="M 183.767725 103.858125 
L 183.767725 26.371278 
" clip-path="url(#p1f3ce99ac2)" style="fill: none; stroke: #ffffff; stroke-width: 1.5"/>
    <path d="M 195.82173 103.858125 
L 195.82173 26.804327 
" clip-path="url(#p1f3ce99ac2)" style="fill: none; stroke: #ffffff; stroke-width: 1.5"/>
    <path d="M 207.875736 103.858125 
L 207.875736 27.251054 
" clip-path="url(#p1f3ce99ac2)" style="fill: none; stroke: #ffffff; stroke-width: 1.5"/>
    <path d="M 219.929741 103.858125 
L 219.929741 27.671648 
" clip-path="url(#p1f3ce99ac2)" style="fill: none; stroke: #ffffff; stroke-width: 1.5"/>
    <path d="M 231.983746 103.858125 
L 231.983746 28.116873 
" clip-path="url(#p1f3ce99ac2)" style="fill: none; stroke: #ffffff; stroke-width: 1.5"/>
    <path d="M 244.037752 103.858125 
L 244.037752 28.542462 
" clip-path="url(#p1f3ce99ac2)" style="fill: none; stroke: #ffffff; stroke-width: 1.5"/>
    <path d="M 256.091757 103.858125 
L 256.091757 28.998365 
" clip-path="url(#p1f3ce99ac2)" style="fill: none; stroke: #ffffff; stroke-width: 1.5"/>
    <path d="M 268.145763 103.858125 
L 268.145763 29.438266 
" clip-path="url(#p1f3ce99ac2)" style="fill: none; stroke: #ffffff; stroke-width: 1.5"/>
    <path d="M 280.199768 103.858125 
L 280.199768 29.89144 
" clip-path="url(#p1f3ce99ac2)" style="fill: none; stroke: #ffffff; stroke-width: 1.5"/>
    <path d="M 292.253773 103.858125 
L 292.253773 30.342092 
" clip-path="url(#p1f3ce99ac2)" style="fill: none; stroke: #ffffff; stroke-width: 1.5"/>
    <path d="M 304.307779 103.858125 
L 304.307779 30.800543 
" clip-path="url(#p1f3ce99ac2)" style="fill: none; stroke: #ffffff; stroke-width: 1.5"/>
    <path d="M 316.361784 103.858125 
L 316.361784 31.269883 
" clip-path="url(#p1f3ce99ac2)" style="fill: none; stroke: #ffffff; stroke-width: 1.5"/>
    <path d="M 328.41579 103.858125 
L 328.41579 31.730941 
" clip-path="url(#p1f3ce99ac2)" style="fill: none; stroke: #ffffff; stroke-width: 1.5"/>
    <path d="M 340.469795 103.858125 
L 340.469795 32.193723 
" clip-path="url(#p1f3ce99ac2)" style="fill: none; stroke: #ffffff; stroke-width: 1.5"/>
    <path d="M 352.5238 103.858125 
L 352.5238 32.641626 
" clip-path="url(#p1f3ce99ac2)" style="fill: none; stroke: #ffffff; stroke-width: 1.5"/>
    <path d="M 364.577806 103.858125 
L 364.577806 33.088511 
" clip-path="url(#p1f3ce99ac2)" style="fill: none; stroke: #ffffff; stroke-width: 1.5"/>
    <path d="M 376.631811 103.858125 
L 376.631811 33.518531 
" clip-path="url(#p1f3ce99ac2)" style="fill: none; stroke: #ffffff; stroke-width: 1.5"/>
    <path d="M 388.685817 103.858125 
L 388.685817 33.937842 
" clip-path="url(#p1f3ce99ac2)" style="fill: none; stroke: #ffffff; stroke-width: 1.5"/>
    <path d="M 400.739822 103.858125 
L 400.739822 34.350346 
" clip-path="url(#p1f3ce99ac2)" style="fill: none; stroke: #ffffff; stroke-width: 1.5"/>
    <path d="M 412.793827 103.858125 
L 412.793827 34.751339 
" clip-path="url(#p1f3ce99ac2)" style="fill: none; stroke: #ffffff; stroke-width: 1.5"/>
    <path d="M 424.847833 103.858125 
L 424.847833 35.162084 
" clip-path="url(#p1f3ce99ac2)" style="fill: none; stroke: #ffffff; stroke-width: 1.5"/>
    <path d="M 436.901838 103.858125 
L 436.901838 35.572993 
" clip-path="url(#p1f3ce99ac2)" style="fill: none; stroke: #ffffff; stroke-width: 1.5"/>
    <path d="M 448.955844 103.858125 
L 448.955844 36.015155 
" clip-path="url(#p1f3ce99ac2)" style="fill: none; stroke: #ffffff; stroke-width: 1.5"/>
    <path d="M 461.009849 103.858125 
L 461.009849 36.448919 
" clip-path="url(#p1f3ce99ac2)" style="fill: none; stroke: #ffffff; stroke-width: 1.5"/>
    <path d="M 473.063854 103.858125 
L 473.063854 36.858025 
" clip-path="url(#p1f3ce99ac2)" style="fill: none; stroke: #ffffff; stroke-width: 1.5"/>
    <path d="M 485.11786 103.858125 
L 485.11786 37.26824 
" clip-path="url(#p1f3ce99ac2)" style="fill: none; stroke: #ffffff; stroke-width: 1.5"/>
    <path d="M 497.171865 103.858125 
L 497.171865 37.658603 
" clip-path="url(#p1f3ce99ac2)" style="fill: none; stroke: #ffffff; stroke-width: 1.5"/>
    <path d="M 509.225871 103.858125 
L 509.225871 38.024429 
" clip-path="url(#p1f3ce99ac2)" style="fill: none; stroke: #ffffff; stroke-width: 1.5"/>
    <path d="M 521.279876 103.858125 
L 521.279876 38.400172 
" clip-path="url(#p1f3ce99ac2)" style="fill: none; stroke: #ffffff; stroke-width: 1.5"/>
    <path d="M 533.333881 103.858125 
L 533.333881 38.773623 
" clip-path="url(#p1f3ce99ac2)" style="fill: none; stroke: #ffffff; stroke-width: 1.5"/>
    <path d="M 545.387887 103.858125 
L 545.387887 39.153931 
" clip-path="url(#p1f3ce99ac2)" style="fill: none; stroke: #ffffff; stroke-width: 1.5"/>
    <path d="M 557.441892 103.858125 
L 557.441892 39.513242 
" clip-path="url(#p1f3ce99ac2)" style="fill: none; stroke: #ffffff; stroke-width: 1.5"/>
    <path d="M 569.495898 103.858125 
L 569.495898 39.862225 
" clip-path="url(#p1f3ce99ac2)" style="fill: none; stroke: #ffffff; stroke-width: 1.5"/>
    <path d="M 581.549903 103.858125 
L 581.549903 40.196849 
" clip-path="url(#p1f3ce99ac2)" style="fill: none; stroke: #ffffff; stroke-width: 1.5"/>
    <path d="M 593.603908 103.858125 
L 593.603908 40.522379 
" clip-path="url(#p1f3ce99ac2)" style="fill: none; stroke: #ffffff; stroke-width: 1.5"/>
    <path d="M 605.657914 103.858125 
L 605.657914 40.879872 
" clip-path="url(#p1f3ce99ac2)" style="fill: none; stroke: #ffffff; stroke-width: 1.5"/>
    <path d="M 617.711919 103.858125 
L 617.711919 41.206718 
" clip-path="url(#p1f3ce99ac2)" style="fill: none; stroke: #ffffff; stroke-width: 1.5"/>
    <path d="M 629.765925 103.858125 
L 629.765925 41.562386 
" clip-path="url(#p1f3ce99ac2)" style="fill: none; stroke: #ffffff; stroke-width: 1.5"/>
    <path d="M 641.81993 103.858125 
L 641.81993 41.896522 
" clip-path="url(#p1f3ce99ac2)" style="fill: none; stroke: #ffffff; stroke-width: 1.5"/>
    <path d="M 653.873935 103.858125 
L 653.873935 42.225701 
" clip-path="url(#p1f3ce99ac2)" style="fill: none; stroke: #ffffff; stroke-width: 1.5"/>
    <path d="M 665.927941 103.858125 
L 665.927941 42.550311 
" clip-path="url(#p1f3ce99ac2)" style="fill: none; stroke: #ffffff; stroke-width: 1.5"/>
    <path d="M 677.981946 103.858125 
L 677.981946 42.878465 
" clip-path="url(#p1f3ce99ac2)" style="fill: none; stroke: #ffffff; stroke-width: 1.5"/>
   </g>
   <g id="line2d_16">
    <path d="M 44.845313 103.858125 
L 714.445312 103.858125 
" clip-path="url(#p1f3ce99ac2)" style="fill: none; stroke: #ff0000; stroke-width: 1.5; stroke-linecap: square"/>
   </g>
   <g id="line2d_17">
    <defs>
     <path id="m53dce35a6d" d="M 0 2.5 
C 0.663008 2.5 1.29895 2.236584 1.767767 1.767767 
C 2.236584 1.29895 2.5 0.663008 2.5 0 
C 2.5 -0.663008 2.236584 -1.29895 1.767767 -1.767767 
C 1.29895 -2.236584 0.663008 -2.5 0 -2.5 
C -0.663008 -2.5 -1.29895 -2.236584 -1.767767 -1.767767 
C -2.236584 -1.29895 -2.5 -0.663008 -2.5 0 
C -2.5 0.663008 -2.236584 1.29895 -1.767767 1.767767 
C -1.29895 2.236584 -0.663008 2.5 0 2.5 
z
" style="stroke: #ff0000"/>
    </defs>
    <g clip-path="url(#p1f3ce99ac2)">
     <use xlink:href="#m53dce35a6d" x="75.281676" y="22.318125" style="fill: #ff0000; stroke: #ff0000"/>
     <use xlink:href="#m53dce35a6d" x="87.335682" y="22.854902" style="fill: #ff0000; stroke: #ff0000"/>
     <use xlink:href="#m53dce35a6d" x="99.389687" y="23.337404" style="fill: #ff0000; stroke: #ff0000"/>
     <use xlink:href="#m53dce35a6d" x="111.443692" y="23.820575" style="fill: #ff0000; stroke: #ff0000"/>
     <use xlink:href="#m53dce35a6d" x="123.497698" y="24.278953" style="fill: #ff0000; stroke: #ff0000"/>
     <use xlink:href="#m53dce35a6d" x="135.551703" y="24.688492" style="fill: #ff0000; stroke: #ff0000"/>
     <use xlink:href="#m53dce35a6d" x="147.605709" y="25.104478" style="fill: #ff0000; stroke: #ff0000"/>
     <use xlink:href="#m53dce35a6d" x="159.659714" y="25.499021" style="fill: #ff0000; stroke: #ff0000"/>
     <use xlink:href="#m53dce35a6d" x="171.713719" y="25.949262" style="fill: #ff0000; stroke: #ff0000"/>
     <use xlink:href="#m53dce35a6d" x="183.767725" y="26.371278" style="fill: #ff0000; stroke: #ff0000"/>
     <use xlink:href="#m53dce35a6d" x="195.82173" y="26.804327" style="fill: #ff0000; stroke: #ff0000"/>
     <use xlink:href="#m53dce35a6d" x="207.875736" y="27.251054" style="fill: #ff0000; stroke: #ff0000"/>
     <use xlink:href="#m53dce35a6d" x="219.929741" y="27.671648" style="fill: #ff0000; stroke: #ff0000"/>
     <use xlink:href="#m53dce35a6d" x="231.983746" y="28.116873" style="fill: #ff0000; stroke: #ff0000"/>
     <use xlink:href="#m53dce35a6d" x="244.037752" y="28.542462" style="fill: #ff0000; stroke: #ff0000"/>
     <use xlink:href="#m53dce35a6d" x="256.091757" y="28.998365" style="fill: #ff0000; stroke: #ff0000"/>
     <use xlink:href="#m53dce35a6d" x="268.145763" y="29.438266" style="fill: #ff0000; stroke: #ff0000"/>
     <use xlink:href="#m53dce35a6d" x="280.199768" y="29.89144" style="fill: #ff0000; stroke: #ff0000"/>
     <use xlink:href="#m53dce35a6d" x="292.253773" y="30.342092" style="fill: #ff0000; stroke: #ff0000"/>
     <use xlink:href="#m53dce35a6d" x="304.307779" y="30.800543" style="fill: #ff0000; stroke: #ff0000"/>
     <use xlink:href="#m53dce35a6d" x="316.361784" y="31.269883" style="fill: #ff0000; stroke: #ff0000"/>
     <use xlink:href="#m53dce35a6d" x="328.41579" y="31.730941" style="fill: #ff0000; stroke: #ff0000"/>
     <use xlink:href="#m53dce35a6d" x="340.469795" y="32.193723" style="fill: #ff0000; stroke: #ff0000"/>
     <use xlink:href="#m53dce35a6d" x="352.5238" y="32.641626" style="fill: #ff0000; stroke: #ff0000"/>
     <use xlink:href="#m53dce35a6d" x="364.577806" y="33.088511" style="fill: #ff0000; stroke: #ff0000"/>
     <use xlink:href="#m53dce35a6d" x="376.631811" y="33.518531" style="fill: #ff0000; stroke: #ff0000"/>
     <use xlink:href="#m53dce35a6d" x="388.685817" y="33.937842" style="fill: #ff0000; stroke: #ff0000"/>
     <use xlink:href="#m53dce35a6d" x="400.739822" y="34.350346" style="fill: #ff0000; stroke: #ff0000"/>
     <use xlink:href="#m53dce35a6d" x="412.793827" y="34.751339" style="fill: #ff0000; stroke: #ff0000"/>
     <use xlink:href="#m53dce35a6d" x="424.847833" y="35.162084" style="fill: #ff0000; stroke: #ff0000"/>
     <use xlink:href="#m53dce35a6d" x="436.901838" y="35.572993" style="fill: #ff0000; stroke: #ff0000"/>
     <use xlink:href="#m53dce35a6d" x="448.955844" y="36.015155" style="fill: #ff0000; stroke: #ff0000"/>
     <use xlink:href="#m53dce35a6d" x="461.009849" y="36.448919" style="fill: #ff0000; stroke: #ff0000"/>
     <use xlink:href="#m53dce35a6d" x="473.063854" y="36.858025" style="fill: #ff0000; stroke: #ff0000"/>
     <use xlink:href="#m53dce35a6d" x="485.11786" y="37.26824" style="fill: #ff0000; stroke: #ff0000"/>
     <use xlink:href="#m53dce35a6d" x="497.171865" y="37.658603" style="fill: #ff0000; stroke: #ff0000"/>
     <use xlink:href="#m53dce35a6d" x="509.225871" y="38.024429" style="fill: #ff0000; stroke: #ff0000"/>
     <use xlink:href="#m53dce35a6d" x="521.279876" y="38.400172" style="fill: #ff0000; stroke: #ff0000"/>
     <use xlink:href="#m53dce35a6d" x="533.333881" y="38.773623" style="fill: #ff0000; stroke: #ff0000"/>
     <use xlink:href="#m53dce35a6d" x="545.387887" y="39.153931" style="fill: #ff0000; stroke: #ff0000"/>
     <use xlink:href="#m53dce35a6d" x="557.441892" y="39.513242" style="fill: #ff0000; stroke: #ff0000"/>
     <use xlink:href="#m53dce35a6d" x="569.495898" y="39.862225" style="fill: #ff0000; stroke: #ff0000"/>
     <use xlink:href="#m53dce35a6d" x="581.549903" y="40.196849" style="fill: #ff0000; stroke: #ff0000"/>
     <use xlink:href="#m53dce35a6d" x="593.603908" y="40.522379" style="fill: #ff0000; stroke: #ff0000"/>
     <use xlink:href="#m53dce35a6d" x="605.657914" y="40.879872" style="fill: #ff0000; stroke: #ff0000"/>
     <use xlink:href="#m53dce35a6d" x="617.711919" y="41.206718" style="fill: #ff0000; stroke: #ff0000"/>
     <use xlink:href="#m53dce35a6d" x="629.765925" y="41.562386" style="fill: #ff0000; stroke: #ff0000"/>
     <use xlink:href="#m53dce35a6d" x="641.81993" y="41.896522" style="fill: #ff0000; stroke: #ff0000"/>
     <use xlink:href="#m53dce35a6d" x="653.873935" y="42.225701" style="fill: #ff0000; stroke: #ff0000"/>
     <use xlink:href="#m53dce35a6d" x="665.927941" y="42.550311" style="fill: #ff0000; stroke: #ff0000"/>
     <use xlink:href="#m53dce35a6d" x="677.981946" y="42.878465" style="fill: #ff0000; stroke: #ff0000"/>
    </g>
   </g>
   <g id="patch_3">
    <path d="M 44.845313 185.398125 
L 44.845313 22.318125 
" style="fill: none; stroke: #ffffff; stroke-width: 0.8; stroke-linejoin: miter; stroke-linecap: square"/>
   </g>
   <g id="patch_4">
    <path d="M 714.445312 185.398125 
L 714.445312 22.318125 
" style="fill: none; stroke: #ffffff; stroke-width: 0.8; stroke-linejoin: miter; stroke-linecap: square"/>
   </g>
   <g id="patch_5">
    <path d="M 44.845313 185.398125 
L 714.445312 185.398125 
" style="fill: none; stroke: #ffffff; stroke-width: 0.8; stroke-linejoin: miter; stroke-linecap: square"/>
   </g>
   <g id="patch_6">
    <path d="M 44.845313 22.318125 
L 714.445312 22.318125 
" style="fill: none; stroke: #ffffff; stroke-width: 0.8; stroke-linejoin: miter; stroke-linecap: square"/>
   </g>
   <g id="text_16">
    <!-- Autocorrelation -->
    <g style="fill: #ffffff" transform="translate(333.523125 16.318125)scale(0.12 -0.12)">
     <defs>
      <path id="DejaVuSans-41" d="M 2188 4044 
L 1331 1722 
L 3047 1722 
L 2188 4044 
z
M 1831 4666 
L 2547 4666 
L 4325 0 
L 3669 0 
L 3244 1197 
L 1141 1197 
L 716 0 
L 50 0 
L 1831 4666 
z
" transform="scale(0.015625)"/>
      <path id="DejaVuSans-75" d="M 544 1381 
L 544 3500 
L 1119 3500 
L 1119 1403 
Q 1119 906 1312 657 
Q 1506 409 1894 409 
Q 2359 409 2629 706 
Q 2900 1003 2900 1516 
L 2900 3500 
L 3475 3500 
L 3475 0 
L 2900 0 
L 2900 538 
Q 2691 219 2414 64 
Q 2138 -91 1772 -91 
Q 1169 -91 856 284 
Q 544 659 544 1381 
z
M 1991 3584 
L 1991 3584 
z
" transform="scale(0.015625)"/>
      <path id="DejaVuSans-74" d="M 1172 4494 
L 1172 3500 
L 2356 3500 
L 2356 3053 
L 1172 3053 
L 1172 1153 
Q 1172 725 1289 603 
Q 1406 481 1766 481 
L 2356 481 
L 2356 0 
L 1766 0 
Q 1100 0 847 248 
Q 594 497 594 1153 
L 594 3053 
L 172 3053 
L 172 3500 
L 594 3500 
L 594 4494 
L 1172 4494 
z
" transform="scale(0.015625)"/>
      <path id="DejaVuSans-6f" d="M 1959 3097 
Q 1497 3097 1228 2736 
Q 959 2375 959 1747 
Q 959 1119 1226 758 
Q 1494 397 1959 397 
Q 2419 397 2687 759 
Q 2956 1122 2956 1747 
Q 2956 2369 2687 2733 
Q 2419 3097 1959 3097 
z
M 1959 3584 
Q 2709 3584 3137 3096 
Q 3566 2609 3566 1747 
Q 3566 888 3137 398 
Q 2709 -91 1959 -91 
Q 1206 -91 779 398 
Q 353 888 353 1747 
Q 353 2609 779 3096 
Q 1206 3584 1959 3584 
z
" transform="scale(0.015625)"/>
      <path id="DejaVuSans-63" d="M 3122 3366 
L 3122 2828 
Q 2878 2963 2633 3030 
Q 2388 3097 2138 3097 
Q 1578 3097 1268 2742 
Q 959 2388 959 1747 
Q 959 1106 1268 751 
Q 1578 397 2138 397 
Q 2388 397 2633 464 
Q 2878 531 3122 666 
L 3122 134 
Q 2881 22 2623 -34 
Q 2366 -91 2075 -91 
Q 1284 -91 818 406 
Q 353 903 353 1747 
Q 353 2603 823 3093 
Q 1294 3584 2113 3584 
Q 2378 3584 2631 3529 
Q 2884 3475 3122 3366 
z
" transform="scale(0.015625)"/>
      <path id="DejaVuSans-72" d="M 2631 2963 
Q 2534 3019 2420 3045 
Q 2306 3072 2169 3072 
Q 1681 3072 1420 2755 
Q 1159 2438 1159 1844 
L 1159 0 
L 581 0 
L 581 3500 
L 1159 3500 
L 1159 2956 
Q 1341 3275 1631 3429 
Q 1922 3584 2338 3584 
Q 2397 3584 2469 3576 
Q 2541 3569 2628 3553 
L 2631 2963 
z
" transform="scale(0.015625)"/>
      <path id="DejaVuSans-65" d="M 3597 1894 
L 3597 1613 
L 953 1613 
Q 991 1019 1311 708 
Q 1631 397 2203 397 
Q 2534 397 2845 478 
Q 3156 559 3463 722 
L 3463 178 
Q 3153 47 2828 -22 
Q 2503 -91 2169 -91 
Q 1331 -91 842 396 
Q 353 884 353 1716 
Q 353 2575 817 3079 
Q 1281 3584 2069 3584 
Q 2775 3584 3186 3129 
Q 3597 2675 3597 1894 
z
M 3022 2063 
Q 3016 2534 2758 2815 
Q 2500 3097 2075 3097 
Q 1594 3097 1305 2825 
Q 1016 2553 972 2059 
L 3022 2063 
z
" transform="scale(0.015625)"/>
      <path id="DejaVuSans-6c" d="M 603 4863 
L 1178 4863 
L 1178 0 
L 603 0 
L 603 4863 
z
" transform="scale(0.015625)"/>
      <path id="DejaVuSans-61" d="M 2194 1759 
Q 1497 1759 1228 1600 
Q 959 1441 959 1056 
Q 959 750 1161 570 
Q 1363 391 1709 391 
Q 2188 391 2477 730 
Q 2766 1069 2766 1631 
L 2766 1759 
L 2194 1759 
z
M 3341 1997 
L 3341 0 
L 2766 0 
L 2766 531 
Q 2569 213 2275 61 
Q 1981 -91 1556 -91 
Q 1019 -91 701 211 
Q 384 513 384 1019 
Q 384 1609 779 1909 
Q 1175 2209 1959 2209 
L 2766 2209 
L 2766 2266 
Q 2766 2663 2505 2880 
Q 2244 3097 1772 3097 
Q 1472 3097 1187 3025 
Q 903 2953 641 2809 
L 641 3341 
Q 956 3463 1253 3523 
Q 1550 3584 1831 3584 
Q 2591 3584 2966 3190 
Q 3341 2797 3341 1997 
z
" transform="scale(0.015625)"/>
      <path id="DejaVuSans-69" d="M 603 3500 
L 1178 3500 
L 1178 0 
L 603 0 
L 603 3500 
z
M 603 4863 
L 1178 4863 
L 1178 4134 
L 603 4134 
L 603 4863 
z
" transform="scale(0.015625)"/>
      <path id="DejaVuSans-6e" d="M 3513 2113 
L 3513 0 
L 2938 0 
L 2938 2094 
Q 2938 2591 2744 2837 
Q 2550 3084 2163 3084 
Q 1697 3084 1428 2787 
Q 1159 2491 1159 1978 
L 1159 0 
L 581 0 
L 581 3500 
L 1159 3500 
L 1159 2956 
Q 1366 3272 1645 3428 
Q 1925 3584 2291 3584 
Q 2894 3584 3203 3211 
Q 3513 2838 3513 2113 
z
" transform="scale(0.015625)"/>
     </defs>
     <use xlink:href="#DejaVuSans-41"/>
     <use xlink:href="#DejaVuSans-75" x="68.408203"/>
     <use xlink:href="#DejaVuSans-74" x="131.787109"/>
     <use xlink:href="#DejaVuSans-6f" x="170.996094"/>
     <use xlink:href="#DejaVuSans-63" x="232.177734"/>
     <use xlink:href="#DejaVuSans-6f" x="287.158203"/>
     <use xlink:href="#DejaVuSans-72" x="348.339844"/>
     <use xlink:href="#DejaVuSans-72" x="387.703125"/>
     <use xlink:href="#DejaVuSans-65" x="426.566406"/>
     <use xlink:href="#DejaVuSans-6c" x="488.089844"/>
     <use xlink:href="#DejaVuSans-61" x="515.873047"/>
     <use xlink:href="#DejaVuSans-74" x="577.152344"/>
     <use xlink:href="#DejaVuSans-69" x="616.361328"/>
     <use xlink:href="#DejaVuSans-6f" x="644.144531"/>
     <use xlink:href="#DejaVuSans-6e" x="705.326172"/>
    </g>
   </g>
  </g>
 </g>
 <defs>
  <clipPath id="p1f3ce99ac2">
   <rect x="44.845313" y="22.318125" width="669.6" height="163.08"/>
  </clipPath>
 </defs>
</svg>
